<?xml version="1.0" standalone="no"?>
<!DOCTYPE svg PUBLIC "-//W3C//DTD SVG 1.1//EN" "http://www.w3.org/Graphics/SVG/1.1/DTD/svg11.dtd" >
<svg xmlns="http://www.w3.org/2000/svg" xmlns:xlink="http://www.w3.org/1999/xlink" version="1.1">
<metadata>
Created by FontForge 20170731 at Mon Sep 18 21:06:43 2017
 By Aleksey,,,
Ellen Luff
</metadata>
<defs>
<font id="August-Light" horiz-adv-x="297" >
  <font-face 
    font-family="August Light"
    font-weight="400"
    font-stretch="normal"
    units-per-em="1000"
    panose-1="0 0 5 0 0 0 0 0 0 0"
    ascent="800"
    descent="-200"
    x-height="785"
    cap-height="934"
    bbox="-2302 -3018 479 1061"
    underline-thickness="50"
    underline-position="-200"
    unicode-range="U+0020-25CA"
  />
<missing-glyph horiz-adv-x="542" 
d="M444 960v-1084h-343v1084h343zM361 221h-180v-123h180v123zM325 185v-51h-108v51h108zM361 408h-108v-60h36v24h36v-50h-108v86h-36v-122h180v122zM361 540h-36v-71h-144v-37h180v108zM361 606h-180v-36h72v-40h-72v-36h108v76h72v36zM253 711v-39h-36v39h36zM289 748
h-108v-113h180v37h-72v76zM361 887h-179v-35h71v-41h-72v-35h180v35h-72v41h72v35zM361 73h-180v-35h76l-76 -51v-36h180v36h-111l76 51h35v35z" />
    <glyph glyph-name=".notdef" horiz-adv-x="542" 
d="M444 960v-1084h-343v1084h343zM361 221h-180v-123h180v123zM325 185v-51h-108v51h108zM361 408h-108v-60h36v24h36v-50h-108v86h-36v-122h180v122zM361 540h-36v-71h-144v-37h180v108zM361 606h-180v-36h72v-40h-72v-36h108v76h72v36zM253 711v-39h-36v39h36zM289 748
h-108v-113h180v37h-72v76zM361 887h-179v-35h71v-41h-72v-35h180v35h-72v41h72v35zM361 73h-180v-35h76l-76 -51v-36h180v36h-111l76 51h35v35z" />
    <glyph glyph-name=".null" horiz-adv-x="0" 
 />
    <glyph glyph-name="nonmarkingreturn" horiz-adv-x="333" 
 />
    <glyph glyph-name="space" unicode=" " horiz-adv-x="240" 
 />
    <glyph glyph-name="exclam" unicode="!" horiz-adv-x="113" 
d="M66 148h-19l-10 433v353h39v-353zM83 27q0 11 -8 18.5t-19 7.5t-18.5 -7.5t-7.5 -18.5t7.5 -19t18.5 -8t19 8t8 19z" />
    <glyph glyph-name="quotedbl" unicode="&#x22;" horiz-adv-x="152" 
d="M132 934h-42l12 -80h17zM62 934h-42l12 -80h17z" />
    <glyph glyph-name="numbersign" unicode="#" horiz-adv-x="257" 
d="M206 522l-10 -113h41v-38h-44l-24 -270h-38l24 270h-70l-24 -270h-38l24 270h-27v38h30l10 113h-40v38h43l25 270h38l-24 -270h70l24 270h38l-24 -270h27v-38h-31zM88 409h70l10 113h-70z" />
    <glyph glyph-name="dollar" unicode="$" horiz-adv-x="256" 
d="M128 828q-35 0 -47.5 -23.5t-12.5 -78.5v-95q0 -47 14 -74.5t58 -75.5q61 -66 73 -97q13 -28 13 -95v-110q0 -46 -20 -76t-59 -34v-69h-38v69q-38 4 -58.5 34t-20.5 76v174h38v-146q0 -55 12.5 -78t47.5 -23t48 23.5t13 77.5v96q0 47 -14 73.5t-59 75.5q-60 66 -73 97
q-13 35 -13 96v109q0 46 20.5 76t58.5 35v69h38v-69q39 -5 59 -35t20 -76v-174h-37v146q0 55 -13 78.5t-48 23.5z" />
    <glyph glyph-name="percent" unicode="%" horiz-adv-x="499" 
d="M319 934h38l-177 -934h-39zM262 104v75q0 105 101 105h14q55 0 78.5 -29t23.5 -85v-76q0 -94 -102 -94h-13q-54 -1 -78 26.5t-24 77.5zM370 246q-41 0 -55.5 -21.5t-14.5 -60.5v-44q0 -39 14.5 -61t56.5 -22q41 1 55.5 22t14.5 60v46q0 38 -15 59.5t-56 21.5zM20 754v75
q0 105 102 105h13q55 0 78.5 -29t23.5 -85v-76q0 -94 -101 -94h-14q-102 0 -102 104zM128 896q-41 0 -55.5 -21.5t-14.5 -60.5v-44q0 -39 15 -61t56 -21q41 0 55.5 21.5t14.5 60.5v45q0 38 -15 59.5t-56 21.5z" />
    <glyph glyph-name="ampersand" unicode="&#x26;" horiz-adv-x="361" 
d="M245 323q7 -11 20.5 -34.5t18 -32l13.5 -25.5t12 -26.5t7.5 -24t6 -28t1.5 -28.5v-124h-38v133q0 39 -30 97q-5 10 -35 63q-61 106 -78 138q-22 -32 -33.5 -50.5t-22 -47t-10.5 -54.5v-159q0 -38 15 -60t56 -22q42 0 56.5 21.5t14.5 60.5v113l5 -11q6 -10 12 -22
t12 -28.5t8 -28.5v-39q0 -104 -101 -104h-14q-54 0 -77.5 29t-23.5 85v156q0 56 16.5 91.5t65.5 105.5q0 1 -1 2t-1 2q-8 14 -25 42.5t-23.5 41t-15.5 35t-12.5 44t-3.5 47.5v172q0 94 101 94h14q101 0 101 -104v-162q0 -44 -11.5 -80t-24 -56t-49.5 -74q-2 -3 -6 -7
q63 -108 80 -141zM145 499q1 1 2 2.5t1 2.5q71 99 71 166v157q0 38 -15 60t-56 22q-42 0 -56.5 -21.5t-14.5 -60.5v-156q0 -28 10.5 -59t20 -47.5t35.5 -60.5q0 -1 2 -5z" />
    <glyph glyph-name="quotesingle" unicode="'" horiz-adv-x="82" 
d="M62 934h-42l13 -80h16z" />
    <glyph glyph-name="parenleft" unicode="(" horiz-adv-x="184" 
d="M164 38v-38h-33q-54 0 -77.5 29t-23.5 85v725q0 95 101 95h33v-38h-26q-41 0 -55.5 -21.5t-14.5 -60.5v-694q0 -39 14.5 -60.5t56.5 -21.5h25z" />
    <glyph glyph-name="parenright" unicode=")" horiz-adv-x="184" 
d="M20 897v37h32q102 0 102 -113v-727q0 -94 -102 -94h-32v37h26q41 0 55.5 21.5t14.5 60.5v695q0 39 -15 61t-56 22h-25z" />
    <glyph glyph-name="asterisk" unicode="*" horiz-adv-x="207" 
d="M117 838l57 -58l-33 -24l-37 72l-38 -72l-33 25l57 57l-80 13l13 40l72 -37l-12 80h41l-12 -80l72 36l13 -39z" />
    <glyph glyph-name="plus" unicode="+" horiz-adv-x="257" 
d="M20 448v38h89v89h38v-89h90v-38h-90v-90h-38v90h-89z" />
    <glyph glyph-name="comma" unicode="," horiz-adv-x="107" 
d="M87 38h-44l-43 -80h18z" />
    <glyph glyph-name="hyphen" unicode="-" horiz-adv-x="173" 
d="M20 448v38h133v-38h-133z" />
    <glyph glyph-name="period" unicode="." horiz-adv-x="93" 
d="M73 27q0 11 -8 18.5t-19 7.5q-10 0 -18 -7.5t-8 -18.5t7.5 -19t18.5 -8t19 8t8 19z" />
    <glyph glyph-name="slash" unicode="/" horiz-adv-x="257" 
d="M59 0h-39l178 934h39z" />
    <glyph glyph-name="zero" unicode="0" 
d="M257 837v-739q0 -104 -102 -104h-14q-54 0 -77.5 29t-23.5 85v739q0 94 102 94h13q102 0 102 -104zM219 114v707q0 38 -15 60t-56 22t-55.5 -21.5t-14.5 -60.5v-707q0 -39 14.5 -60.5t56.5 -21.5q41 0 55.5 21.5t14.5 60.5z" />
    <glyph glyph-name="one" unicode="1" horiz-adv-x="156" 
d="M116 934v-934h-38v795h-38q12 26 24 70q13 58 14 69h38z" />
    <glyph glyph-name="two" unicode="2" 
d="M40 270v-270h217v38h-179v241q0 16 4 33t8 28t16 31.5t15.5 26t20.5 30.5t18 27q5 8 19.5 28.5t18.5 26.5l15 22.5t14 23t10 21t9 23.5t5.5 23t4.5 28t1 30v155q0 104 -101 104h-14q-101 0 -101 -104l-1 -246h38v230q0 39 15 61t56 22t55.5 -21.5t14.5 -60.5v-151
q1 -43 -16.5 -79t-60.5 -97q-7 -10 -26.5 -37.5t-24 -35t-17.5 -27.5t-16 -29.5t-9 -27t-7.5 -33t-1.5 -34.5z" />
    <glyph glyph-name="three" unicode="3" 
d="M257 665q0 -56 -17 -92.5t-66 -104.5q35 -49 48.5 -70.5t24 -54.5t10.5 -73v-172q0 -104 -102 -104h-14q-101 0 -101 104v244h38v-228q0 -39 14.5 -60.5t56.5 -21.5q41 0 55.5 21.5t14.5 60.5v166q0 14 -2 27t-8 27.5t-10 23.5t-14.5 26t-14 23t-17.5 25.5t-16 22.5
l-9 13q2 2 9 12q1 2 13 18.5t15 21t13 20t13.5 23t10.5 21.5t9.5 24t5 22.5t2.5 24.5v166q0 39 -14.5 60.5t-55.5 21.5q-42 0 -56.5 -21.5t-14.5 -60.5v-228h-38v244q0 104 101 104h14q102 0 102 -104v-172z" />
    <glyph glyph-name="four" unicode="4" 
d="M257 0h-38v279q0 14 -2 27t-8 28t-9.5 24t-14.5 26t-14.5 22.5t-17.5 25.5t-16 23q-6 9 -22 32t-20.5 29.5t-16 24.5t-14.5 26t-9.5 24t-8.5 27.5t-4 28t-2 34.5v253h38v-263q-1 -43 16.5 -79.5t60.5 -97.5q7 -10 31 -44t33 -49v533h38v-934z" />
    <glyph glyph-name="five" unicode="5" horiz-adv-x="296" 
d="M40 665v269h216v-37h-178v-242q0 -14 2 -27t8 -27.5t10 -23.5t14.5 -26t14 -23t17.5 -25.5t16 -22.5q7 -10 22 -32t20 -29.5t16 -25t14 -25.5t9.5 -23.5t8.5 -27.5t4 -28.5t2 -34.5v-156q0 -104 -101 -104h-14q-101 0 -101 104v246h38v-230q0 -39 14.5 -60.5t55.5 -21.5
q42 0 56.5 21.5t14.5 60.5v150q0 43 -17 78.5t-61 98.5q-7 10 -23.5 33.5t-21.5 31t-16.5 25.5t-15 26t-10 23t-8.5 26.5t-4 26.5t-2 32z" />
    <glyph glyph-name="six" unicode="6" horiz-adv-x="296" 
d="M77 671q0 -43 17 -78.5t61 -98.5q7 -10 23.5 -33.5t21.5 -31t16.5 -25.5t15 -26t10 -23t8.5 -26.5t4 -26.5t2 -32v-172q0 -104 -101 -104h-14q-101 0 -101 104v739q0 104 101 104h14q101 0 101 -104v-246h-37v230q0 38 -15 60t-56 22q-42 0 -56.5 -21.5t-14.5 -60.5v-150
zM219 114v166q0 12 -2.5 24.5t-4.5 22t-9 23.5t-10.5 20.5t-13.5 22.5t-13 20t-15.5 22t-14.5 20q-8 12 -29 43t-30 45v-429q0 -38 15 -60t56 -22q42 0 56.5 21.5t14.5 60.5z" />
    <glyph glyph-name="seven" unicode="7" 
d="M257 934v-38l-178 -896h-38l178 896h-179v38h217z" />
    <glyph glyph-name="eight" unicode="8" 
d="M257 837v-162q0 -43 -12 -80t-24.5 -56.5t-49.5 -73.5q30 -42 39 -56t24 -42t19 -50.5t4 -52.5v-166q0 -104 -102 -104h-14q-54 0 -77.5 29t-23.5 85v156q0 40 11.5 73.5t25 55t49.5 72.5q-36 52 -49.5 73t-25 57t-11.5 80v172q0 94 101 94h14q102 0 102 -104zM219 273
q0 27 -12 58t-23.5 49.5t-35.5 52.5q-23 -33 -35 -52t-23.5 -49.5t-11.5 -58.5v-159q0 -39 14.5 -60.5t56.5 -21.5q41 0 55.5 21.5t14.5 60.5v159zM219 664v157q0 38 -15 60t-56 22t-55.5 -21.5t-14.5 -60.5v-156q-1 -41 15 -76t55 -91q39 54 55 89.5t16 76.5z" />
    <glyph glyph-name="nine" unicode="9" 
d="M219 264q0 44 -17 79.5t-60 97.5q-7 10 -26.5 37.5t-24 35t-17.5 27.5t-16 29.5t-9 27t-7.5 33t-1.5 34.5v172q0 104 102 104h13q102 0 102 -104v-739q0 -104 -102 -104h-13q-102 0 -102 104v246h38v-230q0 -39 14.5 -60.5t56.5 -21.5q41 0 55.5 21.5t14.5 60.5v150z
M78 821v-166q0 -14 2 -27t8 -27.5t10 -23.5t14.5 -26t14 -23t17.5 -25.5t16 -22.5q9 -13 21.5 -31.5t21.5 -32t16 -24.5v429q0 39 -14.5 60.5t-56.5 21.5q-41 0 -55.5 -21.5t-14.5 -60.5z" />
    <glyph glyph-name="colon" unicode=":" horiz-adv-x="123" 
d="M83 544q0 11 -7.5 18.5t-18.5 7.5t-19 -7.5t-8 -18.5t8 -19t19 -8t18.5 8t7.5 19zM83 393q0 11 -7.5 19t-18.5 8t-19 -8t-8 -19t8 -18.5t19 -7.5t18.5 7.5t7.5 18.5z" />
    <glyph glyph-name="semicolon" unicode=";" horiz-adv-x="121" 
d="M97 38h-43l-44 -80h19zM101 189q0 11 -8 18.5t-19 7.5q-10 0 -18 -7.5t-8 -18.5t7.5 -19t18.5 -8t19 8t8 19z" />
    <glyph glyph-name="less" unicode="&#x3c;" horiz-adv-x="257" 
d="M20 445v46l217 118v-43l-180 -98l180 -98v-43z" />
    <glyph glyph-name="equal" unicode="=" horiz-adv-x="257" 
d="M20 373v38h217v-38h-217zM20 524v38h217v-38h-217z" />
    <glyph glyph-name="greater" unicode="&#x3e;" horiz-adv-x="257" 
d="M237 491v-46l-217 -118v43l180 98l-180 98v43z" />
    <glyph glyph-name="question" unicode="?" horiz-adv-x="278" 
d="M147 505q38 54 51 87t12 79v143q0 39 -14.5 60.5t-55.5 21.5t-56 -22t-15 -60v-231h-38v247q0 104 102 104h14q101 0 101 -104v-148q0 -68 -15 -103.5t-68 -112.5q-3 -4 -18.5 -26.5t-20 -29t-16 -26t-16 -31.5t-9.5 -30.5t-6 -36.5l-10 -138h-26q2 47 4 133q1 42 14 78
t28 60t58 86zM83 27q0 11 -7.5 18.5t-18.5 7.5t-19 -7.5t-8 -18.5t8 -19t19 -8t18.5 8t7.5 19z" />
    <glyph glyph-name="at" unicode="@" horiz-adv-x="452" 
d="M412 830v-636q0 -53 -13 -78.5t-48 -25.5h-7q-32 0 -47 27q-21 -28 -66 -28h-10q-45 0 -69 30.5t-24 80.5v87q0 63 13 96q12 30 73 96q44 48 58 75.5t14 74.5v77q0 55 -12.5 78t-47.5 23t-47.5 -23t-12.5 -78v-128l-38 1v155q0 50 24 80.5t69 30.5h10q45 0 69 -30.5
t24 -80.5v-550q0 -56 24 -56q17 0 21.5 19.5t4.5 62.5v604q0 39 -14.5 60.5t-55.5 22.5h-156q-41 0 -56 -22t-15 -60v-695q0 -38 15 -60t56 -22h249q-3 -4 -8.5 -10.5t-28 -17t-49.5 -10.5h-170q-54 0 -77.5 29t-23.5 85v726q0 94 101 94h170q101 0 101 -104zM226 127
q35 0 47.5 23t12.5 78v278q-6 -8 -48 -56q-44 -47 -58 -74.5t-14 -74.5v-73q0 -54 12.5 -77.5t47.5 -23.5z" />
    <glyph glyph-name="A" unicode="A" horiz-adv-x="298" 
d="M78 0h-38l76 934h65l76 -934h-38l-21 260q-2 -2 -15.5 -21t-22.5 -33q-4 -6 -15.5 -22.5t-16 -23t-13.5 -21t-13 -24t-9 -24t-8 -29t-4 -31.5zM92 172q14 22 50 73q36 52 41 66.5t5 62.5q0 3 -9 114t-18.5 231.5t-10.5 139.5h-2z" />
    <glyph glyph-name="B" unicode="B" horiz-adv-x="296" 
d="M256 382v-278q0 -104 -101 -104h-115v934h115q101 0 101 -104v-151q0 -59 -16 -95.5t-58 -97.5q0 -1 -1 -1q75 -12 75 -103zM77 896v-497q9 15 33 49t31 44q43 61 60.5 97t17.5 79v146q0 38 -15 60t-56 22h-71zM219 120v247q0 36 -13 57.5t-50 24.5q-2 -3 -13.5 -19.5
t-14.5 -21.5t-12.5 -20t-13 -22t-10 -20.5t-9 -23t-4.5 -21.5t-2 -24v-239h71q42 0 56.5 21.5t14.5 60.5z" />
    <glyph glyph-name="C" unicode="C" horiz-adv-x="296" 
d="M219 345h37v-247q0 -104 -101 -104h-14q-54 0 -77.5 29t-23.5 85v739q0 94 101 94h14q101 0 101 -104v-246h-37v230q0 38 -15 60t-56 22t-55.5 -21.5t-14.5 -60.5v-707q0 -39 14.5 -60.5t55.5 -21.5q42 0 56.5 21.5t14.5 60.5v231z" />
    <glyph glyph-name="D" unicode="D" 
d="M257 830v-726q0 -104 -102 -104h-115v934h115q102 0 102 -104zM219 120v694q0 38 -15 60t-56 22h-70v-858h71q41 0 55.5 21.5t14.5 60.5z" />
    <glyph glyph-name="E" unicode="E" horiz-adv-x="211" 
d="M173 448h-96v-410h96v-38h-133v934h133v-38h-96v-410h96v-38z" />
    <glyph glyph-name="F" unicode="F" horiz-adv-x="212" 
d="M174 448h-96v-448h-38v934h134v-38h-96v-410h96v-38z" />
    <glyph glyph-name="G" unicode="G" 
d="M149 344h108v-246q0 -104 -101 -104h-14q-55 0 -78.5 29t-23.5 85v739q0 94 102 94h14q101 0 101 -104v-246h-38v230q0 39 -14.5 60.5t-56.5 21.5q-41 0 -55.5 -21.5t-14.5 -60.5v-707q0 -38 15 -60t56 -22t55.5 21.5t14.5 60.5v193h-70v37z" />
    <glyph glyph-name="H" unicode="H" horiz-adv-x="296" 
d="M77 934h-37v-934h37v279q0 14 2 27t8 27.5t10 24t14.5 26t14.5 23t17.5 25.5t16.5 23q50 73 59 87v-542h37v934h-37v-264q0 -43 -17.5 -79t-60.5 -97l-31.5 -45.5t-32.5 -47.5v533z" />
    <glyph glyph-name="I" unicode="I" horiz-adv-x="117" 
d="M77 0h-37v934h37v-934z" />
    <glyph glyph-name="J" unicode="J" 
d="M219 934h38v-826q0 -56 -23.5 -85t-77.5 -29h-14q-102 0 -102 104v246h38v-230q0 -39 14.5 -60.5t56.5 -21.5q41 0 55.5 21.5t14.5 60.5v820z" />
    <glyph glyph-name="K" unicode="K" 
d="M257 934v-253q0 -34 -4 -58.5t-19 -53t-24.5 -42.5t-38.5 -56q36 -50 50 -72.5t25 -55.5t11 -73v-270h-38v279q0 28 -11.5 58t-23.5 49t-35 52q-24 -35 -35.5 -52.5t-23.5 -48.5t-12 -58v-279h-38v934h38v-533q9 15 33 49t31 44q43 61 60.5 97t16.5 79v264h38z" />
    <glyph glyph-name="L" unicode="L" horiz-adv-x="214" 
d="M78 38v896h-38v-934h134v38h-96z" />
    <glyph glyph-name="M" unicode="M" horiz-adv-x="473" 
d="M433 0h-38v858h-5l-133 -858h-41l-133 858h-5v-858h-38v934h70l126 -820l127 820h70v-934z" />
    <glyph glyph-name="N" unicode="N" 
d="M219 934h38v-934h-41l-138 765v-765h-38v934h41l138 -765v765z" />
    <glyph glyph-name="O" unicode="O" 
d="M257 837v-739q0 -104 -102 -104h-14q-54 0 -77.5 29t-23.5 85v739q0 94 102 94h13q102 0 102 -104zM219 114v707q0 39 -14.5 60.5t-56.5 21.5q-41 0 -55.5 -21.5t-14.5 -60.5v-707q0 -39 14.5 -60.5t56.5 -21.5q41 0 55.5 21.5t14.5 60.5z" />
    <glyph glyph-name="P" unicode="P" 
d="M155 934q102 0 102 -104v-149q0 -15 -1 -27.5t-4.5 -26.5t-5.5 -22.5t-9 -23.5t-10 -21.5t-14 -24t-15 -23.5t-18.5 -28t-19.5 -29q-4 -6 -16 -23.5t-17 -25t-15 -23.5t-14 -26t-10 -24t-8 -27t-2 -27v-279h-38v934h115zM219 670v144q0 39 -14.5 60.5t-56.5 21.5h-70
v-495q13 22 64 93q43 62 60 97.5t17 78.5z" />
    <glyph glyph-name="Q" unicode="Q" 
d="M257 835v-603q0 -18 -2 -34.5t-4 -28t-8.5 -27.5t-9.5 -24t-14.5 -26t-16 -24.5t-20.5 -29.5t-22 -32q-62 -88 -75 -130h-39q11 48 62 120q-68 16 -68 110v739q0 95 102 95h14q101 0 101 -105zM219 222v597q0 40 -14.5 61.5t-56.5 21.5q-41 0 -55.5 -21.5t-14.5 -60.5
v-707q0 -74 54 -81q6 6 10 13q43 61 60.5 97.5t16.5 79.5z" />
    <glyph glyph-name="R" unicode="R" 
d="M171 471q37 -52 50 -72.5t24.5 -55t11.5 -73.5v-270h-38v279q0 27 -12 58t-23.5 48.5t-35.5 52.5q-23 -33 -35 -52t-23.5 -49t-11.5 -58v-279h-38v934h115q102 0 102 -104v-149q0 -41 -10.5 -76t-21.5 -53.5t-44 -65.5q-6 -10 -10 -15zM78 401q13 22 64 93q43 62 60 97.5
t17 78.5v144q0 39 -14.5 60.5t-55.5 21.5h-71v-495z" />
    <glyph glyph-name="S" unicode="S" 
d="M257 270v-172q0 -104 -102 -104h-14q-101 0 -101 104v244h38v-228q0 -39 14.5 -60.5t56.5 -21.5q41 0 55.5 21.5t14.5 60.5v166q0 14 -2 27t-8 27.5t-10 23.5t-14.5 26t-14 23t-17.5 25.5t-16 22.5q-6 9 -22 32t-20.5 29.5t-16 24.5t-14.5 26t-9.5 24t-8.5 27.5t-4 28
t-2 34.5v156q0 104 101 104h14q102 0 102 -104v-246h-38v230q0 38 -15 60t-56 22t-55.5 -21.5t-14.5 -60.5v-150q-1 -43 16 -78.5t61 -98.5q7 -10 26.5 -37.5t24 -35t17.5 -27.5t16 -29.5t9 -27t7.5 -33t1.5 -34.5z" />
    <glyph glyph-name="T" unicode="T" horiz-adv-x="309" 
d="M269 934v-38h-96v-896h-38v896h-95v38h229z" />
    <glyph glyph-name="U" unicode="U" 
d="M219 934h38v-836q0 -104 -102 -104h-14q-54 0 -77.5 29t-23.5 85v826h38v-820q0 -39 14.5 -60.5t56.5 -21.5q41 0 55.5 21.5t14.5 60.5v820z" />
    <glyph glyph-name="V" unicode="V" 
d="M257 934l-81 -934h-55l-81 934h38l70 -815l71 815h38z" />
    <glyph glyph-name="W" unicode="W" horiz-adv-x="476" 
d="M398 934h38l-81 -934h-55l-62 715l-62 -715h-55l-81 934h38l71 -815l70 815h1h37l70 -815z" />
    <glyph glyph-name="X" unicode="X" 
d="M257 934v-253q0 -34 -4 -58.5t-19 -53t-24.5 -42.5t-38.5 -56q36 -50 50 -72.5t25 -55.5t11 -73v-270h-38v279q0 28 -11.5 58t-23.5 49t-35 52q-24 -35 -35.5 -52.5t-23.5 -48.5t-12 -58v-279h-38v270q0 39 11.5 73.5t24.5 55t50 72.5q-56 81 -68 111q-18 42 -18 99v253
h38v-264q0 -41 16 -76t55 -91q39 57 55 91.5t15 75.5v264h38z" />
    <glyph glyph-name="Y" unicode="Y" horiz-adv-x="296" 
d="M256 0h-37v279q0 12 -2.5 25t-4.5 22t-9 23.5t-10 21t-14 22.5t-13.5 20t-15.5 22t-14 20q-7 10 -22 32t-20 29.5t-16 25t-14 25.5t-9.5 23.5t-8.5 27.5t-4 28.5t-2 34.5v253h37v-263q0 -43 17.5 -79.5t60.5 -97.5q7 -10 31 -44t33 -49v533h37v-934z" />
    <glyph glyph-name="Z" unicode="Z" horiz-adv-x="212" 
d="M173 934v-38l-95 -858h95v-38h-133v38l96 858h-96v38h133z" />
    <glyph glyph-name="bracketleft" unicode="[" horiz-adv-x="183" 
d="M68 896v-858h95v-38h-133v934h133v-38h-95z" />
    <glyph glyph-name="backslash" unicode="\" horiz-adv-x="256" 
d="M198 0h38l-178 934h-38z" />
    <glyph glyph-name="bracketright" unicode="]" horiz-adv-x="183" 
d="M116 38v858h-96v38h133v-934h-133v38h96z" />
    <glyph glyph-name="asciicircum" unicode="^" horiz-adv-x="236" 
d="M216 660h-56l-42 40l-43 -40h-55l70 65h56z" />
    <glyph glyph-name="underscore" unicode="_" horiz-adv-x="257" 
d="M20 0v38h217v-38h-217z" />
    <glyph glyph-name="grave" unicode="`" horiz-adv-x="600" 
 />
    <glyph glyph-name="a" unicode="a" horiz-adv-x="279" 
d="M244 0h-37q-6 15 -6 28q-7 -10 -24 -19t-33 -9h-11q-45 0 -69 30.5t-24 80.5v103q2 68 14 96q13 31 72 97q45 49 59 75.5t14 73.5v96q0 54 -13 77.5t-48 23.5q-34 0 -47 -23.5t-13 -77.5v-146h-38v174q0 50 24.5 80.5t68.5 30.5h11q44 0 68 -30.5t24 -80.5v-629
q0 -19 8 -51zM138 38q35 0 48 23.5t13 77.5v294q-29 -34 -48 -55q-44 -48 -58.5 -75.5t-14.5 -74.5v-89q0 -54 13 -77.5t47 -23.5z" />
    <glyph glyph-name="b" unicode="b" horiz-adv-x="279" 
d="M146 791q45 0 69 -30.5t24 -80.5v-569q0 -50 -24 -80.5t-69 -30.5h-11q-44 4 -55 30l-7 -30h-38q8 32 8 51v883h38v-173q16 27 55 30h10zM201 139v513q0 54 -12.5 77.5t-47.5 23.5t-47.5 -23t-12.5 -78v-513q0 -55 12.5 -78t47.5 -23t47.5 23t12.5 78z" />
    <glyph glyph-name="c" unicode="c" horiz-adv-x="276" 
d="M199 506h37v174q0 50 -24 80.5t-68 30.5h-11q-45 0 -69 -30.5t-24 -80.5v-575q0 -50 24 -80.5t69 -30.5h11q44 0 68 30.5t24 80.5v174h-37v-146q0 -54 -13 -77.5t-48 -23.5q-34 0 -47 23.5t-13 77.5v519q0 55 13 78.5t47 23.5q35 0 48 -23.5t13 -78.5v-146z" />
    <glyph glyph-name="d" unicode="d" horiz-adv-x="279" 
d="M40 680q0 50 24 80.5t69 30.5h10q39 -3 55 -30v173h38v-883q0 -19 8 -51h-38q-7 17 -7 30q-11 -26 -56 -30h-10q-45 0 -69 30.5t-24 80.5v569zM78 652v-513q0 -55 12.5 -78t47.5 -23t47.5 23t12.5 78v513q0 55 -12.5 78t-47.5 23t-47.5 -23.5t-12.5 -77.5z" />
    <glyph glyph-name="e" unicode="e" horiz-adv-x="276" 
d="M199 133v146h37v-174q0 -50 -24 -80.5t-68 -30.5h-11q-45 0 -69 30.5t-24 80.5v575q0 50 24 80.5t69 30.5h11q44 0 68 -30.5t24 -80.5v-109q0 -65 -13 -96q-7 -18 -21 -36.5t-52 -60.5q-44 -49 -58 -75.5t-14 -73.5v-96q0 -55 12.5 -78t47.5 -23t48 23.5t13 77.5z
M138 754q-35 0 -47.5 -23.5t-12.5 -78.5v-301q20 25 48 56q44 48 58 75.5t14 73.5l1 96q0 55 -13 78.5t-48 23.5z" />
    <glyph glyph-name="f" unicode="f" horiz-adv-x="210" 
d="M170 785v-38h-66v-747h-38v747h-26v38h26v38q0 50 24.5 80.5t68.5 30.5h11v-38h-6q-34 0 -47 -23.5t-13 -77.5v-10h66z" />
    <glyph glyph-name="g" unicode="g" horiz-adv-x="309" 
d="M222 223q-6 -17 -20.5 -34.5t-54.5 -59.5q-44 -45 -48 -56q-3 -7 -1 -14q4 -10 16 -13t45 -3h11q44 -2 71 -24t27 -59q0 -41 -30 -62.5t-77 -21.5h-17q-47 0 -77 22.5t-30 61.5q0 41 35 64q-20 15 -17 47q3 16 24 42q-40 28 -40 96v472q0 50 24 80.5t69 30.5h11
q55 0 76 -41q18 30 44 37q3 1 6 1v-40q-1 0 -5 -2q-29 -16 -29 -94v-334q0 -65 -13 -96zM144 6q-66 0 -66 -47q0 -45 66 -45h17q67 0 67 46q0 21 -19 33.5t-48 12.5h-17zM106 142q11 11 15 16q47 49 61.5 75t14.5 72v348q0 55 -12.5 78t-47.5 23t-47.5 -23.5t-12.5 -77.5
v-416q0 -78 29 -95z" />
    <glyph glyph-name="h" unicode="h" horiz-adv-x="276" 
d="M143 791q44 0 68.5 -30.5t24.5 -80.5v-680h-38v652q0 54 -13 77.5t-47 23.5q-35 0 -48 -23.5t-13 -77.5v-652h-37v934h37v-173q16 26 55 30h11z" />
    <glyph glyph-name="i" unicode="i" horiz-adv-x="118" 
d="M78 0h-38v785h38v-785zM78 896h-38v38h38v-38z" />
    <glyph glyph-name="j" unicode="j" horiz-adv-x="183" 
d="M106 785h37v-798q0 -50 -24 -80.5t-68 -30.5h-11v38h5q35 0 48 23.5t13 77.5v770zM143 896h-37v38h37v-38z" />
    <glyph glyph-name="k" unicode="k" horiz-adv-x="276" 
d="M236 216v-216h-38v230q0 43 -12 69.5t-48 66.5q-36 -40 -48.5 -66t-12.5 -70v-230h-37v934h37v-581q29 34 48 55q44 48 58.5 75.5t14.5 74.5v227h38v-213q0 -64 -13 -96q-14 -31 -60 -82q48 -54 60 -83q13 -31 13 -95z" />
    <glyph glyph-name="l" unicode="l" horiz-adv-x="118" 
d="M78 0h-38v934h38v-934z" />
    <glyph glyph-name="m" unicode="m" horiz-adv-x="434" 
d="M301 791q45 0 69 -30.5t24 -80.5v-680h-38v652q0 54 -12.5 77.5t-47.5 23.5t-47.5 -23t-12.5 -78v-652h-38v652q0 54 -13 77.5t-47 23.5q-35 0 -48 -23.5t-13 -77.5v-652h-37v785h37v-24q16 26 55 30h11q54 0 79 -46q5 9 11 16q21 26 58 30h10z" />
    <glyph glyph-name="n" unicode="n" horiz-adv-x="276" 
d="M143 791q45 0 69 -30.5t24 -80.5v-680h-38v652q0 54 -12.5 77.5t-47.5 23.5t-47.5 -23t-12.5 -78v-652h-38v785h38v-24q16 27 55 30h10z" />
    <glyph glyph-name="o" unicode="o" horiz-adv-x="276" 
d="M143 791q45 0 69 -30.5t24 -80.5v-575q0 -50 -24 -80.5t-69 -30.5h-10q-45 0 -69 30.5t-24 80.5v575q0 50 24 80.5t69 30.5h10zM138 32q35 0 47.5 23t12.5 78v519q0 55 -12.5 78.5t-47.5 23.5t-47.5 -23.5t-12.5 -78.5v-519q0 -55 12.5 -78t47.5 -23z" />
    <glyph glyph-name="p" unicode="p" horiz-adv-x="276" 
d="M236 111q0 -50 -24 -80.5t-69 -30.5h-11q-40 4 -55 29v-153h-37v909h37v-23q17 26 55 28q6 1 11 1q45 -1 69 -31t24 -80v-569zM198 139v513q0 54 -13 77.5t-47 23.5q-35 0 -48 -23.5t-13 -77.5v-513q0 -54 13 -77.5t48 -23.5q34 0 47 23.5t13 77.5z" />
    <glyph glyph-name="q" unicode="q" horiz-adv-x="276" 
d="M133 0q-45 0 -69 30.5t-24 80.5v569q0 50 24 80t69 31q5 0 11 -1q38 -2 55 -28v23h37v-909h-37v153q-15 -25 -55 -29h-11zM78 652v-513q0 -55 12.5 -78t47.5 -23t47.5 23t13.5 78v513q-1 55 -13.5 78t-47.5 23t-47.5 -23.5t-12.5 -77.5z" />
    <glyph glyph-name="r" unicode="r" horiz-adv-x="184" 
d="M78 653v-653h-38v785h38v-21q17 26 55 28h11v-37h-6q-34 0 -47 -23.5t-13 -78.5z" />
    <glyph glyph-name="s" unicode="s" horiz-adv-x="276" 
d="M138 754q-34 0 -47 -23.5t-13 -78.5v-96q0 -46 14.5 -73.5t58.5 -75.5q60 -67 72 -97q13 -28 13 -95v-110q0 -50 -24 -80.5t-68 -30.5h-11q-45 0 -69 30.5t-24 80.5v174h38v-146q0 -54 13 -77.5t47 -23.5q35 0 48 23.5t13 77.5v96q0 47 -14 73.5t-59 75.5q-62 69 -72 97
q-12 30 -14 96v109q0 50 24 80.5t69 30.5h11q44 0 68 -30.5t24 -80.5v-174h-37v146q0 55 -13 78.5t-48 23.5z" />
    <glyph glyph-name="t" unicode="t" horiz-adv-x="210" 
d="M170 785v-38h-65v-608q0 -55 12.5 -78t47.5 -23h5v-38h-10q-45 0 -69 30.5t-24 80.5v636h-27v38h27v149h38v-149h65z" />
    <glyph glyph-name="u" unicode="u" horiz-adv-x="278" 
d="M236 785v-734q0 -23 7 -51h-37q-6 15 -6 28q-7 -10 -24 -19t-33 -9h-11q-44 0 -68 30.5t-24 80.5v674h37v-646q0 -54 13 -77.5t48 -23.5q34 0 47 23.5t13 77.5v646h38z" />
    <glyph glyph-name="v" unicode="v" horiz-adv-x="276" 
d="M236 785l-70 -785h-55l-71 785h38l60 -672l60 672h38z" />
    <glyph glyph-name="w" unicode="w" horiz-adv-x="434" 
d="M356 785h38l-70 -785h-55l-52 574l-52 -574h-55l-70 785h38l60 -671l60 671h38l60 -672z" />
    <glyph glyph-name="x" unicode="x" horiz-adv-x="276" 
d="M236 214v-214h-38v228q0 44 -12.5 70.5t-47.5 65.5q-36 -39 -48.5 -65.5t-12.5 -70.5v-228h-37v214q0 65 13 96q10 27 59 82q-49 55 -59 82q-13 33 -13 96v215h37v-229q0 -44 12.5 -70t48.5 -66q35 39 47.5 65.5t12.5 70.5v229h38v-215q0 -64 -13 -95t-60 -83
q46 -51 60 -82q13 -32 13 -96z" />
    <glyph glyph-name="y" unicode="y" horiz-adv-x="274" 
d="M196 785h38v-798q0 -50 -24 -80.5t-69 -30.5h-10v38h5q59 0 59 67q0 47 -14 74.5t-57 74.5q-58 63 -73 97q-13 31 -13 95v463h38v-477q0 -46 14 -73t58 -76q36 -39 48 -56v682z" />
    <glyph glyph-name="z" unicode="z" horiz-adv-x="211" 
d="M79 38h92v-38h-131v38l93 710h-93v37h131v-37z" />
    <glyph glyph-name="braceleft" unicode="{" horiz-adv-x="264" 
d="M148 120q0 -38 15 -60t56 -22h25v-38h-32q-54 0 -77.5 29t-23.5 85v165q0 16 -4 33t-8 28.5t-15.5 31t-16 26.5t-20 30t-18.5 27l-9 12q2 3 9 12q2 4 11.5 17t13 18t12 17.5t12.5 20t10.5 19.5t9.5 20.5t6.5 20t5 22t1.5 21.5v184q0 95 101 95h32v-38h-25
q-42 0 -56.5 -21.5t-14.5 -60.5v-150q0 -39 -11 -72t-24 -54.5t-47 -70.5q48 -67 65 -104t17 -93v-150z" />
    <glyph glyph-name="bar" unicode="|" horiz-adv-x="178" 
d="M108 0h-38v934h38v-934z" />
    <glyph glyph-name="braceright" unicode="}" horiz-adv-x="264" 
d="M116 813q0 40 -14.5 61.5t-56.5 21.5h-25v38h33q54 0 77.5 -29t23.5 -85v-165q0 -14 2 -27t8 -28t9.5 -24t14.5 -26t14.5 -22.5t17.5 -25.5t16 -23l8 -12l-8 -12q-2 -2 -15 -21.5t-17 -25t-14.5 -23t-14.5 -27t-10.5 -24.5t-8.5 -28.5t-2 -26.5v-185q0 -94 -101 -94h-33
v37l26 1q41 0 55.5 21.5t14.5 60.5v150q0 39 10.5 72t24 54.5t48.5 70.5q-34 47 -48 69.5t-24.5 55.5t-10.5 72v149z" />
    <glyph glyph-name="asciitilde" unicode="~" horiz-adv-x="232" 
d="M79 435q21 0 47 16q14 9 26 9t17.5 -4.5t14.5 -13.5l28 25q-19 22 -37 28q-32 12 -69 -12q-14 -9 -26 -9t-18 4.5t-14 14.5l-28 -26q18 -21 37 -28q14 -4 22 -4z" />
    <glyph glyph-name="exclamdown" unicode="&#xa1;" horiz-adv-x="113" 
d="M47 785h18l11 -433v-352h-40v352zM30 907q0 -11 8 -18.5t18 -7.5q11 0 19 7.5t8 18.5t-8 19t-19 8t-18.5 -8t-7.5 -19z" />
    <glyph glyph-name="cent" unicode="&#xa2;" horiz-adv-x="256" 
d="M226 580h-38v146q0 55 -12.5 78.5t-47.5 23.5t-47.5 -23.5t-12.5 -78.5v-519q0 -54 12.5 -77.5t47.5 -23.5t47.5 23t12.5 78v146h38v-174q0 -46 -20 -76t-59 -34v-69h-38v69q-38 4 -58.5 34t-20.5 76v575q0 46 20.5 76t58.5 35v69h38v-69q39 -5 59 -34.5t20 -75.5v-175z
" />
    <glyph glyph-name="sterling" unicode="&#xa3;" horiz-adv-x="366" 
d="M141 38h195v-38h-306v38h19q41 0 55.5 21.5t14.5 60.5v312h-89v38h89l1 373q0 104 101 104h14q101 0 101 -104v-246h-38v230q0 39 -14.5 61t-55.5 22q-42 0 -56.5 -21.5t-14.5 -60.5v-358h90v-38h-90v-327q0 -43 -16 -67z" />
    <glyph glyph-name="currency" unicode="&#xa4;" horiz-adv-x="640" 
 />
    <glyph glyph-name="yen" unicode="&#xa5;" horiz-adv-x="640" 
 />
    <glyph glyph-name="brokenbar" unicode="&#xa6;" horiz-adv-x="640" 
 />
    <glyph glyph-name="section" unicode="&#xa7;" horiz-adv-x="276" 
d="M246 744h-37v76q0 38 -15 60t-56 22q-40 0 -55 -22.5t-16 -61.5q1 -43 19 -82.5t59 -97.5q16 -23 47.5 -64t38.5 -54q15 -23 15 -54q0 -44 -29.5 -72t-71.5 -28h-14h-7q4 -5 26 -33q62 -88 75 -118q21 -45 21 -106q0 -51 -24 -84t-77 -33h-14q-52 0 -76.5 33.5
t-24.5 84.5v79h37v-77q0 -38 15 -60t56 -22q40 0 55 22.5t16 61.5q-1 44 -19 83.5t-59 96.5q-20 29 -48.5 66t-35.5 47q-17 29 -17 59q0 45 30 72.5t71 27.5h14h7q-14 17 -25 33q-63 88 -76 118q-21 45 -21 106q0 52 24 84.5t77 32.5h14q53 0 77 -33t24 -85v-78zM138 404
q29 0 49.5 17t20.5 45t-20.5 45t-49.5 17q-30 0 -50 -17t-20 -45t20 -45t50 -17z" />
    <glyph glyph-name="dieresis" unicode="&#xa8;" horiz-adv-x="600" 
 />
    <glyph glyph-name="copyright" unicode="&#xa9;" horiz-adv-x="235" 
d="M118 617q20 0 34.5 14.5t14.5 34.5h-25q0 -10 -7 -17t-17 -7t-17 7t-7 17v30q0 10 7 16.5t17 6.5q22 0 24 -23l25 1q-1 19 -15 33t-34 14t-34 -13.5t-15 -33.5v-31q0 -20 14.5 -34.5t34.5 -14.5zM118 575q40 0 68.5 31t28.5 74t-28.5 74t-68.5 31q-41 0 -69.5 -31
t-28.5 -74t28.5 -74t69.5 -31zM118 760q30 0 51 -23.5t21 -56.5t-21 -56.5t-51 -23.5t-51.5 23.5t-21.5 56.5t21.5 56.5t51.5 23.5z" />
    <glyph glyph-name="guillemotleft" unicode="&#xab;" horiz-adv-x="640" 
 />
    <glyph glyph-name="logicalnot" unicode="&#xac;" horiz-adv-x="640" 
 />
    <glyph glyph-name="registered" unicode="&#xae;" horiz-adv-x="640" 
 />
    <glyph glyph-name="macron" unicode="&#xaf;" horiz-adv-x="600" 
 />
    <glyph glyph-name="degree" unicode="&#xb0;" horiz-adv-x="150" 
d="M75 825q23 0 39 16t16 39q0 22 -16 38t-39 16t-39 -16t-16 -38q0 -23 16 -39t39 -16zM75 916q15 0 26 -10.5t11 -25.5q0 -16 -11 -26.5t-26 -10.5t-26 10.5t-11 26.5q0 15 11 25.5t26 10.5z" />
    <glyph glyph-name="plusminus" unicode="&#xb1;" horiz-adv-x="257" 
d="M20 513v38h90v89h38v-89h89v-38h-89v-90h-38v90h-90zM237 272v38h-217v-38h217z" />
    <glyph glyph-name="acute" unicode="&#xb4;" horiz-adv-x="600" 
 />
    <glyph glyph-name="paragraph" unicode="&#xb6;" horiz-adv-x="640" 
 />
    <glyph glyph-name="periodcentered" unicode="&#xb7;" horiz-adv-x="640" 
 />
    <glyph glyph-name="cedilla" unicode="&#xb8;" horiz-adv-x="600" 
 />
    <glyph glyph-name="guillemotright" unicode="&#xbb;" horiz-adv-x="640" 
 />
    <glyph glyph-name="questiondown" unicode="&#xbf;" horiz-adv-x="277" 
d="M130 429q-38 -55 -50.5 -88t-12.5 -79v-142q0 -39 14.5 -60.5t56.5 -21.5q41 0 55.5 21.5t14.5 60.5v230h38v-246q0 -104 -101 -104h-14q-101 0 -101 104v148q0 68 14.5 103t67.5 113q3 4 18.5 26.5t20 29t16 26t16 31.5t9.5 30.5t6 36.5l10 138h26q-1 -47 -4 -133
q-1 -60 -20.5 -99.5t-79.5 -124.5zM194 907q0 -11 8 -18.5t19 -7.5t18.5 7.5t7.5 18.5t-7.5 19t-18.5 8t-19 -8t-8 -19z" />
    <glyph glyph-name="Agrave" unicode="&#xc0;" 
d="M78 0h-38l76 934h65l76 -934h-38l-21 260q-2 -2 -15.5 -21t-22.5 -33q-4 -6 -15.5 -22.5t-16 -23t-13.5 -21t-13 -24t-9 -24t-8 -29t-4 -31.5zM92 172q14 22 50 73q36 52 41 66.5t5 62.5q0 3 -9 114t-18.5 231.5t-10.5 139.5h-2zM138 1061h-38l75 -81h16z" />
    <glyph glyph-name="Aacute" unicode="&#xc1;" 
d="M78 0h-38l76 934h65l76 -934h-38l-21 260q-2 -2 -15.5 -21t-22.5 -33q-4 -6 -15.5 -22.5t-16 -23t-13.5 -21t-13 -24t-9 -24t-8 -29t-4 -31.5zM92 172q14 22 50 73q36 52 41 66.5t5 62.5q0 3 -9 114t-18.5 231.5t-10.5 139.5h-2zM120 980h-16l53 80h38z" />
    <glyph glyph-name="Acircumflex" unicode="&#xc2;" 
d="M78 0h-38l76 934h65l76 -934h-38l-21 260q-2 -2 -15.5 -21t-22.5 -33q-4 -6 -15.5 -22.5t-16 -23t-13.5 -21t-13 -24t-9 -24t-8 -29t-4 -31.5zM92 172q14 22 50 73q36 52 41 66.5t5 62.5q0 3 -9 114t-18.5 231.5t-10.5 139.5h-2zM237 980h-45l-43 46l-42 -46h-46l61 65
h55z" />
    <glyph glyph-name="Atilde" unicode="&#xc3;" 
d="M78 0h-38l76 934h65l76 -934h-38l-21 260q-2 -2 -15.5 -21t-22.5 -33q-4 -6 -15.5 -22.5t-16 -23t-13.5 -21t-13 -24t-9 -24t-8 -29t-4 -31.5zM92 172q14 22 50 73q36 52 41 66.5t5 62.5q0 3 -9 114t-18.5 231.5t-10.5 139.5h-2zM115 976q21 0 48 16q14 10 26 9.5
t17 -4.5t15 -14l28 25q-19 22 -37 28q-33 12 -70 -12q-14 -9 -26 -9t-17 4.5t-15 14.5l-28 -26q22 -22 37 -28q11 -4 22 -4z" />
    <glyph glyph-name="Adieresis" unicode="&#xc4;" 
d="M78 0h-38l76 934h65l76 -934h-38l-21 260q-2 -2 -15.5 -21t-22.5 -33q-4 -6 -15.5 -22.5t-16 -23t-13.5 -21t-13 -24t-9 -24t-8 -29t-4 -31.5zM92 172q14 22 50 73q36 52 41 66.5t5 62.5q0 3 -9 114t-18.5 231.5t-10.5 139.5h-2zM105 1009q0 10 -6.5 17t-16.5 7t-17 -7
t-7 -17t7 -17t17 -7t16.5 7t6.5 17zM242 1009q0 10 -7.5 17t-16.5 7q-10 0 -17 -7t-7 -17t7 -17t17 -7q9 0 16.5 7t7.5 17z" />
    <glyph glyph-name="Aring" unicode="&#xc5;" 
d="M78 0h-38l76 934h65l76 -934h-38l-21 260q-2 -2 -15.5 -21t-22.5 -33q-4 -6 -15.5 -22.5t-16 -23t-13.5 -21t-13 -24t-9 -24t-8 -29t-4 -31.5zM92 172q14 22 50 73q36 52 41 66.5t5 62.5q0 3 -9 114t-18.5 231.5t-10.5 139.5h-2zM148 980q15 0 26 10.5t11 26.5
q0 15 -11 26t-26 11q-16 0 -27 -11t-11 -26q0 -16 11 -26.5t27 -10.5zM148 1036q8 0 13.5 -5.5t5.5 -13.5t-5.5 -13.5t-13.5 -5.5t-14 5.5t-6 13.5t6 13.5t14 5.5z" />
    <glyph glyph-name="AE" unicode="&#xc6;" horiz-adv-x="394" 
d="M354 448h-95v-410h95v-38h-138v282q-4 -6 -24.5 -34t-29.5 -41q-3 -5 -13.5 -19.5t-13.5 -19.5t-11 -18t-11 -20t-9 -19.5t-9 -23.5t-6.5 -25.5t-6.5 -30.5l-5 -31h-37l140 934h174v-38h-95v-410h95v-38zM144 245q31 45 40.5 59.5t20 40t11.5 51.5v463h-4l-105 -667
q29 42 37 53z" />
    <glyph glyph-name="Ccedilla" unicode="&#xc7;" horiz-adv-x="296" 
d="M218 114v230h38v-246q0 -81 -61 -99h1v-23q17 -3 32 -13q22 -16 22 -40q0 -23 -22 -39q-20 -15 -47 -15h-9h-12v30h21q16 0 27.5 7t11.5 17t-12 17t-27 7h-15v47h-12h-14q-54 0 -77.5 29t-23.5 85v738q0 95 101 95h14q102 0 102 -104v-247h-38v231q0 38 -15 60t-56 22
t-55.5 -21.5t-14.5 -60.5v-707q0 -39 14.5 -60.5t56.5 -21.5q41 0 55.5 21.5t14.5 60.5z" />
    <glyph glyph-name="Egrave" unicode="&#xc8;" horiz-adv-x="211" 
d="M173 448h-96v-410h96v-38h-133v934h133v-38h-96v-410h96v-38zM95 1061h-38l75 -81h16z" />
    <glyph glyph-name="Eacute" unicode="&#xc9;" horiz-adv-x="211" 
d="M173 448h-96v-410h96v-38h-133v934h133v-38h-96v-410h96v-38zM96 980h-16l53 80h38z" />
    <glyph glyph-name="Ecircumflex" unicode="&#xca;" horiz-adv-x="226" 
d="M173 448h-96v-410h96v-38h-133v934h133v-38h-96v-410h96v-38zM196 980h-45l-43 46l-42 -46h-46l61 65h55z" />
    <glyph glyph-name="Edieresis" unicode="&#xcb;" horiz-adv-x="224" 
d="M173 448h-96v-410h96v-38h-133v934h133v-38h-96v-410h96v-38zM69 1009q0 10 -6.5 17t-16.5 7t-17 -7t-7 -17t7 -17t17 -7t16.5 7t6.5 17zM206 1009q0 10 -7.5 17t-16.5 7q-10 0 -17 -7t-7 -17t7 -17t17 -7q9 0 16.5 7t7.5 17z" />
    <glyph glyph-name="Igrave" unicode="&#xcc;" horiz-adv-x="121" 
d="M77 0h-37v934h37v-934zM38 1061h-38l75 -81h16z" />
    <glyph glyph-name="Iacute" unicode="&#xcd;" horiz-adv-x="171" 
d="M77 0h-37v934h37v-934zM36 980h-16l53 80h38z" />
    <glyph glyph-name="Icircumflex" unicode="&#xce;" horiz-adv-x="130" 
d="M77 0h-37v934h37v-934zM150 980h-45l-43 46l-42 -46h-46l61 65h55z" />
    <glyph glyph-name="Idieresis" unicode="&#xcf;" horiz-adv-x="124" 
d="M77 0h-37v934h37v-934zM14 1009q0 10 -6.5 17t-16.5 7t-17 -7t-7 -17t7 -17t17 -7t16.5 7t6.5 17zM151 1009q0 10 -7.5 17t-16.5 7q-10 0 -17 -7t-7 -17t7 -17t17 -7q9 0 16.5 7t7.5 17z" />
    <glyph glyph-name="Eth" unicode="&#xd0;" 
d="M-39 497h193v-43h-193v43zM257 830v-726q0 -104 -102 -104h-115v934h115q102 0 102 -104zM219 120v694q0 38 -15 60t-56 22h-70v-858h71q41 0 55.5 21.5t14.5 60.5zM-1484 -2774v231h38v-247q0 -80 -61 -99h1v-23q19 -3 32 -13q22 -16 22 -39q0 -24 -22 -40
q-19 -14 -46 -14h-9h-13v30h21q16 0 27.5 7t11.5 17q0 9 -12 16.5t-27 7.5h-15v47q-3 -1 -11 -1h-14q-55 0 -78 29t-23 85v739q0 94 101 94h14q101 0 101 -104v-246h-38v230q0 39 -14.5 60.5t-55.5 21.5q-42 0 -56.5 -21t-14.5 -60v-708q0 -38 15 -60t56 -22t55.5 21.5
t14.5 60.5z" />
    <glyph glyph-name="Ntilde" unicode="&#xd1;" 
d="M219 934h38v-934h-41l-138 765v-765h-38v934h41l138 -765v765zM116 976q21 0 48 16q14 10 26 9.5t17 -4.5t15 -14l28 25q-19 22 -37 28q-33 12 -70 -12q-14 -9 -26 -9t-17 4.5t-15 14.5l-28 -26q22 -22 37 -28q11 -4 22 -4z" />
    <glyph glyph-name="Ograve" unicode="&#xd2;" 
d="M257 837v-739q0 -104 -102 -104h-14q-54 0 -77.5 29t-23.5 85v739q0 94 102 94h13q102 0 102 -104zM219 114v707q0 39 -14.5 60.5t-56.5 21.5q-41 0 -55.5 -21.5t-14.5 -60.5v-707q0 -39 14.5 -60.5t56.5 -21.5q41 0 55.5 21.5t14.5 60.5zM148 1061h-38l75 -81h16z" />
    <glyph glyph-name="Oacute" unicode="&#xd3;" 
d="M257 837v-739q0 -104 -102 -104h-14q-54 0 -77.5 29t-23.5 85v739q0 94 102 94h13q102 0 102 -104zM219 114v707q0 39 -14.5 60.5t-56.5 21.5q-41 0 -55.5 -21.5t-14.5 -60.5v-707q0 -39 14.5 -60.5t56.5 -21.5q41 0 55.5 21.5t14.5 60.5zM120 980h-16l53 80h38z" />
    <glyph glyph-name="Ocircumflex" unicode="&#xd4;" 
d="M257 837v-739q0 -104 -102 -104h-14q-54 0 -77.5 29t-23.5 85v739q0 94 102 94h13q102 0 102 -104zM219 114v707q0 39 -14.5 60.5t-56.5 21.5q-41 0 -55.5 -21.5t-14.5 -60.5v-707q0 -39 14.5 -60.5t56.5 -21.5q41 0 55.5 21.5t14.5 60.5zM239 980h-45l-43 46l-42 -46
h-46l61 65h55z" />
    <glyph glyph-name="Otilde" unicode="&#xd5;" 
d="M257 837v-739q0 -104 -102 -104h-14q-54 0 -77.5 29t-23.5 85v739q0 94 102 94h13q102 0 102 -104zM219 114v707q0 39 -14.5 60.5t-56.5 21.5q-41 0 -55.5 -21.5t-14.5 -60.5v-707q0 -39 14.5 -60.5t56.5 -21.5q41 0 55.5 21.5t14.5 60.5zM118 976q21 0 48 16
q14 10 26 9.5t17 -4.5t15 -14l28 25q-19 22 -37 28q-33 12 -70 -12q-14 -9 -26 -9t-17 4.5t-15 14.5l-28 -26q22 -22 37 -28q11 -4 22 -4z" />
    <glyph glyph-name="Odieresis" unicode="&#xd6;" 
d="M257 837v-739q0 -104 -102 -104h-14q-54 0 -77.5 29t-23.5 85v739q0 94 102 94h13q102 0 102 -104zM219 114v707q0 39 -14.5 60.5t-56.5 21.5q-41 0 -55.5 -21.5t-14.5 -60.5v-707q0 -39 14.5 -60.5t56.5 -21.5q41 0 55.5 21.5t14.5 60.5zM106 1009q0 10 -6.5 17t-16.5 7
t-17 -7t-7 -17t7 -17t17 -7t16.5 7t6.5 17zM243 1009q0 10 -7.5 17t-16.5 7q-10 0 -17 -7t-7 -17t7 -17t17 -7q9 0 16.5 7t7.5 17z" />
    <glyph glyph-name="multiply" unicode="&#xd7;" horiz-adv-x="220" 
d="M46 378l-26 27l63 63l-63 63l26 27l64 -64l63 64l27 -27l-64 -63l64 -63l-27 -27l-63 63z" />
    <glyph glyph-name="Oslash" unicode="&#xd8;" 
d="M257 837v-739q0 -104 -102 -104h-13q-16 0 -23 1l-7 -68l-30 3l7 74q-49 22 -49 104v738q0 95 102 95h14q9 0 23 -2l6 69l30 -3l-7 -74q49 -22 49 -94zM78 114q0 -44 16 -62l81 848q-12 3 -27 3q-41 0 -55.5 -21.5t-14.5 -60.5v-707zM219 113v708q0 43 -16 61l-81 -847
q12 -3 27 -3q41 0 55.5 21t14.5 60z" />
    <glyph glyph-name="Ugrave" unicode="&#xd9;" 
d="M219 934h38v-836q0 -104 -102 -104h-14q-54 0 -77.5 29t-23.5 85v826h38v-820q0 -39 14.5 -60.5t56.5 -21.5q41 0 55.5 21.5t14.5 60.5v820zM139 1061h-38l75 -81h16z" />
    <glyph glyph-name="Uacute" unicode="&#xda;" 
d="M219 934h38v-836q0 -104 -102 -104h-14q-54 0 -77.5 29t-23.5 85v826h38v-820q0 -39 14.5 -60.5t56.5 -21.5q41 0 55.5 21.5t14.5 60.5v820zM145 980h-16l53 80h38z" />
    <glyph glyph-name="Ucircumflex" unicode="&#xdb;" 
d="M219 934h38v-836q0 -104 -102 -104h-14q-54 0 -77.5 29t-23.5 85v826h38v-820q0 -39 14.5 -60.5t56.5 -21.5q41 0 55.5 21.5t14.5 60.5v820zM235 980h-45l-43 46l-42 -46h-46l61 65h55z" />
    <glyph glyph-name="Udieresis" unicode="&#xdc;" 
d="M219 934h38v-836q0 -104 -102 -104h-14q-54 0 -77.5 29t-23.5 85v826h38v-820q0 -39 14.5 -60.5t56.5 -21.5q41 0 55.5 21.5t14.5 60.5v820zM106 1009q0 10 -6.5 17t-16.5 7t-17 -7t-7 -17t7 -17t17 -7t16.5 7t6.5 17zM243 1009q0 10 -7.5 17t-16.5 7q-10 0 -17 -7
t-7 -17t7 -17t17 -7q9 0 16.5 7t7.5 17z" />
    <glyph glyph-name="Yacute" unicode="&#xdd;" horiz-adv-x="296" 
d="M256 0h-37v279q0 12 -2.5 25t-4.5 22t-9 23.5t-10 21t-14 22.5t-13.5 20t-15.5 22t-14 20q-7 10 -22 32t-20 29.5t-16 25t-14 25.5t-9.5 23.5t-8.5 27.5t-4 28.5t-2 34.5v253h37v-263q0 -43 17.5 -79.5t60.5 -97.5q7 -10 31 -44t33 -49v533h37v-934zM151 980h-16l53 80
h38z" />
    <glyph glyph-name="Thorn" unicode="&#xde;" horiz-adv-x="740" 
 />
    <glyph glyph-name="germandbls" unicode="&#xdf;" horiz-adv-x="296" 
d="M181 485q75 -13 75 -103v-278q0 -104 -101 -104h-59v38h52q42 0 56.5 21.5t14.5 60.5v247q0 36 -13 57.5t-50 23.5l-60 -91v67q14 23 45 67q43 61 60.5 97.5t17.5 79.5v146q0 38 -15 60t-56 22q-42 0 -56.5 -21.5t-14.5 -60.5v-814h-37v839q0 95 101 95h14
q101 0 101 -104v-151q0 -59 -16 -95.5t-58 -97.5q0 -1 -1 -1z" />
    <glyph glyph-name="agrave" unicode="&#xe0;" horiz-adv-x="279" 
d="M244 0h-37q-6 15 -6 28q-7 -10 -24 -19t-33 -9h-11q-45 0 -69 30.5t-24 80.5v103q2 68 14 96q13 31 72 97q45 49 59 75.5t14 73.5v96q0 54 -13 77.5t-48 23.5q-34 0 -47 -23.5t-13 -77.5v-146h-38v174q0 50 24.5 80.5t68.5 30.5h11q44 0 68 -30.5t24 -80.5v-629
q0 -19 8 -51zM138 38q35 0 48 23.5t13 77.5v294q-29 -34 -48 -55q-44 -48 -58.5 -75.5t-14.5 -74.5v-89q0 -54 13 -77.5t47 -23.5zM127 934h-38l75 -81h16z" />
    <glyph glyph-name="aacute" unicode="&#xe1;" horiz-adv-x="279" 
d="M244 0h-37q-6 15 -6 28q-7 -10 -24 -19t-33 -9h-11q-45 0 -69 30.5t-24 80.5v103q2 68 14 96q13 31 72 97q45 49 59 75.5t14 73.5v96q0 54 -13 77.5t-48 23.5q-34 0 -47 -23.5t-13 -77.5v-146h-38v174q0 50 24.5 80.5t68.5 30.5h11q44 0 68 -30.5t24 -80.5v-629
q0 -19 8 -51zM138 38q35 0 48 23.5t13 77.5v294q-29 -34 -48 -55q-44 -48 -58.5 -75.5t-14.5 -74.5v-89q0 -54 13 -77.5t47 -23.5zM126 855h-16l53 80h38z" />
    <glyph glyph-name="acircumflex" unicode="&#xe2;" horiz-adv-x="279" 
d="M244 0h-37q-6 15 -6 28q-7 -10 -24 -19t-33 -9h-11q-45 0 -69 30.5t-24 80.5v103q2 68 14 96q13 31 72 97q45 49 59 75.5t14 73.5v96q0 54 -13 77.5t-48 23.5q-34 0 -47 -23.5t-13 -77.5v-146h-38v174q0 50 24.5 80.5t68.5 30.5h11q44 0 68 -30.5t24 -80.5v-629
q0 -19 8 -51zM138 38q35 0 48 23.5t13 77.5v294q-29 -34 -48 -55q-44 -48 -58.5 -75.5t-14.5 -74.5v-89q0 -54 13 -77.5t47 -23.5zM227 855h-45l-43 46l-42 -46h-46l61 65h55z" />
    <glyph glyph-name="atilde" unicode="&#xe3;" horiz-adv-x="279" 
d="M244 0h-37q-6 15 -6 28q-7 -10 -24 -19t-33 -9h-11q-45 0 -69 30.5t-24 80.5v103q2 68 14 96q13 31 72 97q45 49 59 75.5t14 73.5v96q0 54 -13 77.5t-48 23.5q-34 0 -47 -23.5t-13 -77.5v-146h-38v174q0 50 24.5 80.5t68.5 30.5h11q44 0 68 -30.5t24 -80.5v-629
q0 -19 8 -51zM138 38q35 0 48 23.5t13 77.5v294q-29 -34 -48 -55q-44 -48 -58.5 -75.5t-14.5 -74.5v-89q0 -54 13 -77.5t47 -23.5zM102 869q21 0 48 16q14 10 26 9.5t17 -4.5t15 -14l28 25q-19 22 -37 28q-33 12 -70 -12q-14 -9 -26 -9t-17 4.5t-15 14.5l-28 -26
q22 -22 37 -28q11 -4 22 -4z" />
    <glyph glyph-name="adieresis" unicode="&#xe4;" horiz-adv-x="279" 
d="M244 0h-37q-6 15 -6 28q-7 -10 -24 -19t-33 -9h-11q-45 0 -69 30.5t-24 80.5v103q2 68 14 96q13 31 72 97q45 49 59 75.5t14 73.5v96q0 54 -13 77.5t-48 23.5q-34 0 -47 -23.5t-13 -77.5v-146h-38v174q0 50 24.5 80.5t68.5 30.5h11q44 0 68 -30.5t24 -80.5v-629
q0 -19 8 -51zM138 38q35 0 48 23.5t13 77.5v294q-29 -34 -48 -55q-44 -48 -58.5 -75.5t-14.5 -74.5v-89q0 -54 13 -77.5t47 -23.5zM94 911q0 10 -6.5 17t-16.5 7t-17 -7t-7 -17t7 -17t17 -7t16.5 7t6.5 17zM231 911q0 10 -7.5 17t-16.5 7q-10 0 -17 -7t-7 -17t7 -17t17 -7
q9 0 16.5 7t7.5 17z" />
    <glyph glyph-name="aring" unicode="&#xe5;" horiz-adv-x="279" 
d="M244 0h-37q-6 15 -6 28q-7 -10 -24 -19t-33 -9h-11q-45 0 -69 30.5t-24 80.5v103q2 68 14 96q13 31 72 97q45 49 59 75.5t14 73.5v96q0 54 -13 77.5t-48 23.5q-34 0 -47 -23.5t-13 -77.5v-146h-38v174q0 50 24.5 80.5t68.5 30.5h11q44 0 68 -30.5t24 -80.5v-629
q0 -19 8 -51zM138 38q35 0 48 23.5t13 77.5v294q-29 -34 -48 -55q-44 -48 -58.5 -75.5t-14.5 -74.5v-89q0 -54 13 -77.5t47 -23.5zM141 858q15 0 26 10.5t11 26.5q0 15 -11 26t-26 11q-16 0 -27 -11t-11 -26q0 -16 11 -26.5t27 -10.5zM141 914q8 0 13.5 -5.5t5.5 -13.5
t-5.5 -13.5t-13.5 -5.5t-14 5.5t-6 13.5t6 13.5t14 5.5z" />
    <glyph glyph-name="ae" unicode="&#xe6;" horiz-adv-x="435" 
d="M357 134v145h38v-173q0 -50 -24 -80.5t-69 -30.5h-11q-49 0 -73 37q-26 -37 -74 -37h-11q-45 0 -69 30.5t-24 80.5v109q2 68 14 96q13 31 72 97q45 49 59 75.5t14 73.5v96q0 54 -13 77.5t-48 23.5q-34 0 -47 -23.5t-13 -77.5v-146h-38v174q0 50 24 80.5t69 30.5h11
q48 0 74 -37q24 37 73 37h11q45 0 69 -30.5t24 -80.5v-110q0 -60 -13 -95q-13 -31 -73 -97q-44 -48 -58 -75.5t-15 -74.5v-95q0 -55 13 -78.5t48 -23.5t47.5 23.5t12.5 78.5zM236 653v-301q14 18 49 56q44 48 58 75t14 74v96q0 55 -12.5 78t-47.5 23t-48 -23.5t-13 -77.5z
M138 32q35 0 48 23.5t13 78.5v300q-10 -12 -48 -55q-44 -48 -58.5 -75.5t-14.5 -74.5v-95q0 -55 13 -78.5t47 -23.5z" />
    <glyph glyph-name="ccedilla" unicode="&#xe7;" horiz-adv-x="279" 
d="M199 506h37v174q0 50 -24 80.5t-68 30.5h-11q-45 0 -69 -30.5t-24 -80.5v-575q0 -50 24 -80.5t69 -30.5h11q44 0 68 30.5t24 80.5v174h-37v-146q0 -54 -13 -77.5t-48 -23.5q-34 0 -47 23.5t-13 77.5v519q0 55 13 78.5t47 23.5q35 0 48 -23.5t13 -78.5v-146zM162 -127h8
q27 0 47 14q22 16 22 40t-22 40q-15 10 -32 13v23h-30v-52h15q16 0 27.5 -7t11.5 -17t-11.5 -17t-27.5 -7h-21v-30h13z" />
    <glyph glyph-name="egrave" unicode="&#xe8;" horiz-adv-x="276" 
d="M199 133v146h37v-174q0 -50 -24 -80.5t-68 -30.5h-11q-45 0 -69 30.5t-24 80.5v575q0 50 24 80.5t69 30.5h11q44 0 68 -30.5t24 -80.5v-109q0 -65 -13 -96q-7 -18 -21 -36.5t-52 -60.5q-44 -49 -58 -75.5t-14 -73.5v-96q0 -55 12.5 -78t47.5 -23t48 23.5t13 77.5z
M138 754q-35 0 -47.5 -23.5t-12.5 -78.5v-301q20 25 48 56q44 48 58 75.5t14 73.5l1 96q0 55 -13 78.5t-48 23.5zM128 932h-38l75 -81h16z" />
    <glyph glyph-name="eacute" unicode="&#xe9;" horiz-adv-x="276" 
d="M199 133v146h37v-174q0 -50 -24 -80.5t-68 -30.5h-11q-45 0 -69 30.5t-24 80.5v575q0 50 24 80.5t69 30.5h11q44 0 68 -30.5t24 -80.5v-109q0 -65 -13 -96q-7 -18 -21 -36.5t-52 -60.5q-44 -49 -58 -75.5t-14 -73.5v-96q0 -55 12.5 -78t47.5 -23t48 23.5t13 77.5z
M138 754q-35 0 -47.5 -23.5t-12.5 -78.5v-301q20 25 48 56q44 48 58 75.5t14 73.5l1 96q0 55 -13 78.5t-48 23.5zM120 854h-16l53 80h38z" />
    <glyph glyph-name="ecircumflex" unicode="&#xea;" horiz-adv-x="276" 
d="M199 133v146h37v-174q0 -50 -24 -80.5t-68 -30.5h-11q-45 0 -69 30.5t-24 80.5v575q0 50 24 80.5t69 30.5h11q44 0 68 -30.5t24 -80.5v-109q0 -65 -13 -96q-7 -18 -21 -36.5t-52 -60.5q-44 -49 -58 -75.5t-14 -73.5v-96q0 -55 12.5 -78t47.5 -23t48 23.5t13 77.5z
M138 754q-35 0 -47.5 -23.5t-12.5 -78.5v-301q20 25 48 56q44 48 58 75.5t14 73.5l1 96q0 55 -13 78.5t-48 23.5zM229 868h-45l-43 46l-42 -46h-46l61 65h55z" />
    <glyph glyph-name="edieresis" unicode="&#xeb;" horiz-adv-x="276" 
d="M199 133v146h37v-174q0 -50 -24 -80.5t-68 -30.5h-11q-45 0 -69 30.5t-24 80.5v575q0 50 24 80.5t69 30.5h11q44 0 68 -30.5t24 -80.5v-109q0 -65 -13 -96q-7 -18 -21 -36.5t-52 -60.5q-44 -49 -58 -75.5t-14 -73.5v-96q0 -55 12.5 -78t47.5 -23t48 23.5t13 77.5z
M138 754q-35 0 -47.5 -23.5t-12.5 -78.5v-301q20 25 48 56q44 48 58 75.5t14 73.5l1 96q0 55 -13 78.5t-48 23.5zM96 921q0 10 -6.5 17t-16.5 7t-17 -7t-7 -17t7 -17t17 -7t16.5 7t6.5 17zM233 921q0 10 -7.5 17t-16.5 7q-10 0 -17 -7t-7 -17t7 -17t17 -7q9 0 16.5 7t7.5 17
z" />
    <glyph glyph-name="igrave" unicode="&#xec;" horiz-adv-x="101" 
d="M68 0h-38v785h38v-785zM38 933h-38l75 -81h16z" />
    <glyph glyph-name="iacute" unicode="&#xed;" horiz-adv-x="121" 
d="M79 0h-38v785h38v-785zM46 854h-16l53 80h38z" />
    <glyph glyph-name="icircumflex" unicode="&#xee;" horiz-adv-x="116" 
d="M76 0h-38v785h38v-785zM146 856h-45l-43 46l-42 -46h-46l61 65h55z" />
    <glyph glyph-name="idieresis" unicode="&#xef;" horiz-adv-x="124" 
d="M79 0h-38v785h38v-785zM17 903q0 10 -6.5 17t-16.5 7t-17 -7t-7 -17t7 -17t17 -7t16.5 7t6.5 17zM154 903q0 10 -7.5 17t-16.5 7q-10 0 -17 -7t-7 -17t7 -17t17 -7q9 0 16.5 7t7.5 17z" />
    <glyph glyph-name="eth" unicode="&#xf0;" horiz-adv-x="820" 
 />
    <glyph glyph-name="ntilde" unicode="&#xf1;" horiz-adv-x="276" 
d="M143 791q45 0 69 -30.5t24 -80.5v-680h-38v652q0 54 -12.5 77.5t-47.5 23.5t-47.5 -23t-12.5 -78v-652h-38v785h38v-24q16 27 55 30h10zM101 872q21 0 48 16q14 10 26 9.5t17 -4.5t15 -14l28 25q-19 22 -37 28q-33 12 -70 -12q-14 -9 -26 -9t-17 4.5t-15 14.5l-28 -26
q22 -22 37 -28q11 -4 22 -4z" />
    <glyph glyph-name="ograve" unicode="&#xf2;" horiz-adv-x="276" 
d="M143 791q45 0 69 -30.5t24 -80.5v-575q0 -50 -24 -80.5t-69 -30.5h-10q-45 0 -69 30.5t-24 80.5v575q0 50 24 80.5t69 30.5h10zM138 32q35 0 47.5 23t12.5 78v519q0 55 -12.5 78.5t-47.5 23.5t-47.5 -23.5t-12.5 -78.5v-519q0 -55 12.5 -78t47.5 -23zM133 928h-38l75 -81
h16z" />
    <glyph glyph-name="oacute" unicode="&#xf3;" horiz-adv-x="276" 
d="M143 791q45 0 69 -30.5t24 -80.5v-575q0 -50 -24 -80.5t-69 -30.5h-10q-45 0 -69 30.5t-24 80.5v575q0 50 24 80.5t69 30.5h10zM138 32q35 0 47.5 23t12.5 78v519q0 55 -12.5 78.5t-47.5 23.5t-47.5 -23.5t-12.5 -78.5v-519q0 -55 12.5 -78t47.5 -23zM113 854h-16l53 80
h38z" />
    <glyph glyph-name="ocircumflex" unicode="&#xf4;" horiz-adv-x="276" 
d="M143 791q45 0 69 -30.5t24 -80.5v-575q0 -50 -24 -80.5t-69 -30.5h-10q-45 0 -69 30.5t-24 80.5v575q0 50 24 80.5t69 30.5h10zM138 32q35 0 47.5 23t12.5 78v519q0 55 -12.5 78.5t-47.5 23.5t-47.5 -23.5t-12.5 -78.5v-519q0 -55 12.5 -78t47.5 -23zM227 857h-45l-43 46
l-42 -46h-46l61 65h55z" />
    <glyph glyph-name="otilde" unicode="&#xf5;" horiz-adv-x="278" 
d="M143 791q45 0 69 -30.5t24 -80.5v-575q0 -50 -24 -80.5t-69 -30.5h-10q-45 0 -69 30.5t-24 80.5v575q0 50 24 80.5t69 30.5h10zM138 32q35 0 47.5 23t12.5 78v519q0 55 -12.5 78.5t-47.5 23.5t-47.5 -23.5t-12.5 -78.5v-519q0 -55 12.5 -78t47.5 -23zM104 861q21 0 48 16
q14 10 26 9.5t17 -4.5t15 -14l28 25q-19 22 -37 28q-33 12 -70 -12q-14 -9 -26 -9t-17 4.5t-15 14.5l-28 -26q22 -22 37 -28q11 -4 22 -4z" />
    <glyph glyph-name="odieresis" unicode="&#xf6;" horiz-adv-x="276" 
d="M143 791q45 0 69 -30.5t24 -80.5v-575q0 -50 -24 -80.5t-69 -30.5h-10q-45 0 -69 30.5t-24 80.5v575q0 50 24 80.5t69 30.5h10zM138 32q35 0 47.5 23t12.5 78v519q0 55 -12.5 78.5t-47.5 23.5t-47.5 -23.5t-12.5 -78.5v-519q0 -55 12.5 -78t47.5 -23zM96 896
q0 10 -6.5 17t-16.5 7t-17 -7t-7 -17t7 -17t17 -7t16.5 7t6.5 17zM233 896q0 10 -7.5 17t-16.5 7q-10 0 -17 -7t-7 -17t7 -17t17 -7q9 0 16.5 7t7.5 17z" />
    <glyph glyph-name="divide" unicode="&#xf7;" horiz-adv-x="257" 
d="M20 448v38h217v-38h-217zM155 360q0 11 -7.5 19t-18.5 8t-19 -8t-8 -19t8 -18.5t19 -7.5t18.5 8t7.5 18zM155 573q0 11 -7.5 19t-18.5 8t-19 -8t-8 -19t8 -18.5t19 -7.5t18.5 7.5t7.5 18.5z" />
    <glyph glyph-name="oslash" unicode="&#xf8;" horiz-adv-x="276" 
d="M190 780q46 -27 46 -100v-575q0 -50 -24 -80.5t-68 -30.5h-11q-12 0 -18 1l-6 -69l-30 3l7 76q-46 28 -46 100v575q0 50 24 80.5t69 30.5h11q12 0 17 -1l7 69l30 -3zM78 133q0 -57 13 -78l67 696q-9 3 -20 3q-34 0 -47 -23.5t-13 -78.5v-519zM138 32q35 0 48 23.5
t13 77.5v519q0 55 -13 78l-67 -696q6 -2 19 -2z" />
    <glyph glyph-name="ugrave" unicode="&#xf9;" horiz-adv-x="278" 
d="M236 785v-734q0 -23 7 -51h-37q-6 15 -6 28q-7 -10 -24 -19t-33 -9h-11q-44 0 -68 30.5t-24 80.5v674h37v-646q0 -54 13 -77.5t48 -23.5q34 0 47 23.5t13 77.5v646h38zM122 932h-38l75 -81h16z" />
    <glyph glyph-name="uacute" unicode="&#xfa;" horiz-adv-x="278" 
d="M236 785v-734q0 -23 7 -51h-37q-6 15 -6 28q-7 -10 -24 -19t-33 -9h-11q-44 0 -68 30.5t-24 80.5v674h37v-646q0 -54 13 -77.5t48 -23.5q34 0 47 23.5t13 77.5v646h38zM114 852h-16l53 80h38z" />
    <glyph glyph-name="ucircumflex" unicode="&#xfb;" horiz-adv-x="278" 
d="M236 785v-734q0 -23 7 -51h-37q-6 15 -6 28q-7 -10 -24 -19t-33 -9h-11q-44 0 -68 30.5t-24 80.5v674h37v-646q0 -54 13 -77.5t48 -23.5q34 0 47 23.5t13 77.5v646h38zM229 861h-45l-43 46l-42 -46h-46l61 65h55z" />
    <glyph glyph-name="udieresis" unicode="&#xfc;" horiz-adv-x="278" 
d="M236 785v-734q0 -23 7 -51h-37q-6 15 -6 28q-7 -10 -24 -19t-33 -9h-11q-44 0 -68 30.5t-24 80.5v674h37v-646q0 -54 13 -77.5t48 -23.5q34 0 47 23.5t13 77.5v646h38zM96 905q0 10 -6.5 17t-16.5 7t-17 -7t-7 -17t7 -17t17 -7t16.5 7t6.5 17zM233 905q0 10 -7.5 17
t-16.5 7q-10 0 -17 -7t-7 -17t7 -17t17 -7q9 0 16.5 7t7.5 17z" />
    <glyph glyph-name="yacute" unicode="&#xfd;" horiz-adv-x="274" 
d="M196 785h38v-798q0 -50 -24 -80.5t-69 -30.5h-10v38h5q59 0 59 67q0 47 -14 74.5t-57 74.5q-58 63 -73 97q-13 31 -13 95v463h38v-477q0 -46 14 -73t58 -76q36 -39 48 -56v682zM118 852h-16l53 80h38z" />
    <glyph glyph-name="thorn" unicode="&#xfe;" horiz-adv-x="820" 
 />
    <glyph glyph-name="ydieresis" unicode="&#xff;" horiz-adv-x="274" 
d="M196 785h38v-798q0 -50 -24 -80.5t-69 -30.5h-10v38h5q59 0 59 67q0 47 -14 74.5t-57 74.5q-58 63 -73 97q-13 31 -13 95v463h38v-477q0 -46 14 -73t58 -76q36 -39 48 -56v682zM91 904q0 10 -6.5 17t-16.5 7t-17 -7t-7 -17t7 -17t17 -7t16.5 7t6.5 17zM228 904
q0 10 -7.5 17t-16.5 7q-10 0 -17 -7t-7 -17t7 -17t17 -7q9 0 16.5 7t7.5 17z" />
    <glyph glyph-name="Dcroat" unicode="&#x110;" 
d="M-39 497h193v-43h-193v43zM257 830v-726q0 -104 -102 -104h-115v934h115q102 0 102 -104zM219 120v694q0 38 -15 60t-56 22h-70v-858h71q41 0 55.5 21.5t14.5 60.5zM-1484 -2774v231h38v-247q0 -80 -61 -99h1v-23q19 -3 32 -13q22 -16 22 -39q0 -24 -22 -40
q-19 -14 -46 -14h-9h-13v30h21q16 0 27.5 7t11.5 17q0 9 -12 16.5t-27 7.5h-15v47q-3 -1 -11 -1h-14q-55 0 -78 29t-23 85v739q0 94 101 94h14q101 0 101 -104v-246h-38v230q0 39 -14.5 60.5t-55.5 21.5q-42 0 -56.5 -21t-14.5 -60v-708q0 -38 15 -60t56 -22t55.5 21.5
t14.5 60.5z" />
    <glyph glyph-name="OE" unicode="&#x152;" horiz-adv-x="390" 
d="M352 448h-96v-410h96v-38h-211q-54 0 -77.5 29t-23.5 85v725q0 95 101 95h211v-38h-96v-410h96v-38zM77 120q0 -38 15 -60t56 -22h71v81v1v462v314h-71q-42 0 -56.5 -21.5t-14.5 -60.5v-694z" />
    <glyph glyph-name="oe" unicode="&#x153;" horiz-adv-x="434" 
d="M357 134v145h37v-173q0 -50 -24 -80.5t-68 -30.5h-11q-48 0 -74 37q-24 -37 -74 -37h-10q-45 0 -69 30.5t-24 80.5v575q0 50 24 80.5t69 30.5h10q50 0 74 -37q26 37 74 37h11q44 0 68 -30.5t24 -80.5v-110q0 -64 -13 -95q-10 -28 -72 -97q-44 -48 -58.5 -75.5
t-14.5 -74.5v-95q0 -55 13 -78.5t47 -23.5q35 0 48 23.5t13 78.5zM236 653v-301q20 25 48 56q45 49 59 75.5t14 73.5v96q0 54 -13 77.5t-48 23.5q-34 0 -47 -23.5t-13 -77.5zM138 32q35 0 47.5 23.5t12.5 78.5v519q0 55 -12.5 78t-47.5 23t-47.5 -23t-12.5 -78v-519
q0 -55 12.5 -78.5t47.5 -23.5z" />
    <glyph glyph-name="Wcircumflex" unicode="&#x174;" horiz-adv-x="476" 
d="M398 934h38l-81 -934h-55l-62 715l-62 -715h-55l-81 934h38l71 -815l70 815h1h37l70 -815zM329 980h-45l-43 46l-42 -46h-46l61 65h55z" />
    <glyph glyph-name="wcircumflex" unicode="&#x175;" horiz-adv-x="434" 
d="M356 785h38l-70 -785h-55l-52 574l-52 -574h-55l-70 785h38l60 -671l60 671h38l60 -672zM306 862h-45l-43 46l-42 -46h-46l61 65h55z" />
    <glyph glyph-name="Ycircumflex" unicode="&#x176;" horiz-adv-x="296" 
d="M256 0h-37v279q0 12 -2.5 25t-4.5 22t-9 23.5t-10 21t-14 22.5t-13.5 20t-15.5 22t-14 20q-7 10 -22 32t-20 29.5t-16 25t-14 25.5t-9.5 23.5t-8.5 27.5t-4 28.5t-2 34.5v253h37v-263q0 -43 17.5 -79.5t60.5 -97.5q7 -10 31 -44t33 -49v533h37v-934zM239 980h-45l-43 46
l-42 -46h-46l61 65h55z" />
    <glyph glyph-name="ycircumflex" unicode="&#x177;" horiz-adv-x="274" 
d="M196 785h38v-798q0 -50 -24 -80.5t-69 -30.5h-10v38h5q59 0 59 67q0 47 -14 74.5t-57 74.5q-58 63 -73 97q-13 31 -13 95v463h38v-477q0 -46 14 -73t58 -76q36 -39 48 -56v682zM227 863h-45l-43 46l-42 -46h-46l61 65h55z" />
    <glyph glyph-name="Ydieresis" unicode="&#x178;" horiz-adv-x="296" 
d="M256 0h-37v279q0 12 -2.5 25t-4.5 22t-9 23.5t-10 21t-14 22.5t-13.5 20t-15.5 22t-14 20q-7 10 -22 32t-20 29.5t-16 25t-14 25.5t-9.5 23.5t-8.5 27.5t-4 28.5t-2 34.5v253h37v-263q0 -43 17.5 -79.5t60.5 -97.5q7 -10 31 -44t33 -49v533h37v-934zM108 1009
q0 10 -6.5 17t-16.5 7t-17 -7t-7 -17t7 -17t17 -7t16.5 7t6.5 17zM245 1009q0 10 -7.5 17t-16.5 7q-10 0 -17 -7t-7 -17t7 -17t17 -7q9 0 16.5 7t7.5 17z" />
    <glyph glyph-name="circumflex" unicode="&#x2c6;" horiz-adv-x="600" 
 />
    <glyph glyph-name="caron" unicode="&#x2c7;" horiz-adv-x="600" 
 />
    <glyph glyph-name="breve" unicode="&#x2d8;" horiz-adv-x="600" 
 />
    <glyph glyph-name="dotaccent" unicode="&#x2d9;" horiz-adv-x="600" 
 />
    <glyph glyph-name="ring" unicode="&#x2da;" horiz-adv-x="600" 
 />
    <glyph glyph-name="ogonek" unicode="&#x2db;" horiz-adv-x="600" 
 />
    <glyph glyph-name="tilde" unicode="&#x2dc;" horiz-adv-x="600" 
 />
    <glyph glyph-name="hungarumlaut" unicode="&#x2dd;" horiz-adv-x="600" 
 />
    <glyph glyph-name="gravecomb" unicode="&#x300;" horiz-adv-x="0" 
d="M-325 1061h-38l75 -81h16z" />
    <glyph glyph-name="acutecomb" unicode="&#x301;" horiz-adv-x="0" 
d="M-125 980h-16l53 80h38z" />
    <glyph glyph-name="uni0302" unicode="&#x302;" horiz-adv-x="0" 
d="M-60 980h-45l-43 46l-42 -46h-46l61 65h55z" />
    <glyph glyph-name="tildecomb" unicode="&#x303;" horiz-adv-x="0" 
d="M-343 976q21 0 48 16q14 10 26 9.5t17 -4.5t15 -14l28 25q-19 22 -37 28q-33 12 -70 -12q-14 -9 -26 -9t-17 4.5t-15 14.5l-28 -26q22 -22 37 -28q11 -4 22 -4z" />
    <glyph glyph-name="uni0304" unicode="&#x304;" horiz-adv-x="0" 
d="M-348 980v38h98v-38h-98z" />
    <glyph glyph-name="uni0306" unicode="&#x306;" horiz-adv-x="0" 
 />
    <glyph glyph-name="uni0307" unicode="&#x307;" horiz-adv-x="0" 
d="M-298 980q16 0 26.5 11t10.5 26q0 16 -10.5 27t-26.5 11t-26.5 -11t-10.5 -27q0 -15 10.5 -26t26.5 -11z" />
    <glyph glyph-name="uni0308" unicode="&#x308;" horiz-adv-x="0" 
d="M-167 1009q0 10 -6.5 17t-16.5 7t-17 -7t-7 -17t7 -17t17 -7t16.5 7t6.5 17zM-30 1009q0 10 -7.5 17t-16.5 7q-10 0 -17 -7t-7 -17t7 -17t17 -7q9 0 16.5 7t7.5 17z" />
    <glyph glyph-name="uni030A" unicode="&#x30a;" horiz-adv-x="0" 
d="M-304 980q15 0 26 10.5t11 26.5q0 15 -11 26t-26 11q-16 0 -27 -11t-11 -26q0 -16 11 -26.5t27 -10.5zM-304 1036q8 0 13.5 -5.5t5.5 -13.5t-5.5 -13.5t-13.5 -5.5t-14 5.5t-6 13.5t6 13.5t14 5.5z" />
    <glyph glyph-name="uni030B" unicode="&#x30b;" horiz-adv-x="0" 
 />
    <glyph glyph-name="uni030C" unicode="&#x30c;" horiz-adv-x="0" 
d="M-402 1046h55l43 -40l42 40h56l-71 -66h-55z" />
    <glyph glyph-name="uni0312" unicode="&#x312;" horiz-adv-x="0" 
 />
    <glyph glyph-name="uni0326" unicode="&#x326;" horiz-adv-x="0" 
 />
    <glyph glyph-name="uni0327" unicode="&#x327;" horiz-adv-x="0" 
d="M-318 -127h8q27 0 47 14q22 16 22 40t-22 40q-15 10 -32 13v23h-30v-52h15q16 0 27.5 -7t11.5 -17t-11.5 -17t-27.5 -7h-21v-30h13z" />
    <glyph glyph-name="uni0328" unicode="&#x328;" horiz-adv-x="0" 
 />
    <glyph glyph-name="uni0335" unicode="&#x335;" horiz-adv-x="0" 
d="M-2124 -2774v231h38v-247q0 -80 -61 -99h1v-23q19 -3 32 -13q22 -16 22 -39q0 -24 -22 -40q-19 -14 -46 -14h-9h-13v30h21q16 0 27.5 7t11.5 17q0 9 -12 16.5t-27 7.5h-15v47q-3 -1 -11 -1h-14q-55 0 -78 29t-23 85v739q0 94 101 94h14q101 0 101 -104v-246h-38v230
q0 39 -14.5 60.5t-55.5 21.5q-42 0 -56.5 -21t-14.5 -60v-708q0 -38 15 -60t56 -22t55.5 21.5t14.5 60.5z" />
    <glyph glyph-name="uni0336" unicode="&#x336;" horiz-adv-x="0" 
 />
    <glyph glyph-name="uni0337" unicode="&#x337;" horiz-adv-x="0" 
 />
    <glyph glyph-name="uni0338" unicode="&#x338;" horiz-adv-x="0" 
 />
    <glyph glyph-name="Wgrave" unicode="&#x1e80;" horiz-adv-x="476" 
d="M398 934h38l-81 -934h-55l-62 715l-62 -715h-55l-81 934h38l71 -815l70 815h1h37l70 -815zM230 1061h-38l75 -81h16z" />
    <glyph glyph-name="wgrave" unicode="&#x1e81;" horiz-adv-x="434" 
d="M356 785h38l-70 -785h-55l-52 574l-52 -574h-55l-70 785h38l60 -671l60 671h38l60 -672zM200 932h-38l75 -81h16z" />
    <glyph glyph-name="Wacute" unicode="&#x1e82;" horiz-adv-x="476" 
d="M398 934h38l-81 -934h-55l-62 715l-62 -715h-55l-81 934h38l71 -815l70 815h1h37l70 -815zM209 980h-16l53 80h38z" />
    <glyph glyph-name="wacute" unicode="&#x1e83;" horiz-adv-x="434" 
d="M356 785h38l-70 -785h-55l-52 574l-52 -574h-55l-70 785h38l60 -671l60 671h38l60 -672zM198 854h-16l53 80h38z" />
    <glyph glyph-name="Wdieresis" unicode="&#x1e84;" horiz-adv-x="476" 
d="M398 934h38l-81 -934h-55l-62 715l-62 -715h-55l-81 934h38l71 -815l70 815h1h37l70 -815zM194 1009q0 10 -6.5 17t-16.5 7t-17 -7t-7 -17t7 -17t17 -7t16.5 7t6.5 17zM331 1009q0 10 -7.5 17t-16.5 7q-10 0 -17 -7t-7 -17t7 -17t17 -7q9 0 16.5 7t7.5 17z" />
    <glyph glyph-name="wdieresis" unicode="&#x1e85;" horiz-adv-x="434" 
d="M356 785h38l-70 -785h-55l-52 574l-52 -574h-55l-70 785h38l60 -671l60 671h38l60 -672zM174 915q0 10 -6.5 17t-16.5 7t-17 -7t-7 -17t7 -17t17 -7t16.5 7t6.5 17zM311 915q0 10 -7.5 17t-16.5 7q-10 0 -17 -7t-7 -17t7 -17t17 -7q9 0 16.5 7t7.5 17z" />
    <glyph glyph-name="Ygrave" unicode="&#x1ef2;" horiz-adv-x="296" 
d="M256 0h-37v279q0 12 -2.5 25t-4.5 22t-9 23.5t-10 21t-14 22.5t-13.5 20t-15.5 22t-14 20q-7 10 -22 32t-20 29.5t-16 25t-14 25.5t-9.5 23.5t-8.5 27.5t-4 28.5t-2 34.5v253h37v-263q0 -43 17.5 -79.5t60.5 -97.5q7 -10 31 -44t33 -49v533h37v-934zM134 1061h-38l75 -81
h16z" />
    <glyph glyph-name="ygrave" unicode="&#x1ef3;" horiz-adv-x="274" 
d="M196 785h38v-798q0 -50 -24 -80.5t-69 -30.5h-10v38h5q59 0 59 67q0 47 -14 74.5t-57 74.5q-58 63 -73 97q-13 31 -13 95v463h38v-477q0 -46 14 -73t58 -76q36 -39 48 -56v682zM123 934h-38l75 -81h16z" />
    <glyph glyph-name="endash" unicode="&#x2013;" horiz-adv-x="257" 
d="M20 448v37h217v-37h-217z" />
    <glyph glyph-name="emdash" unicode="&#x2014;" horiz-adv-x="257" 
d="M20 448v38h217v-38h-217z" />
    <glyph glyph-name="quoteleft" unicode="&#x2018;" horiz-adv-x="128" 
d="M64 934h-44l69 -80h19z" />
    <glyph glyph-name="quoteright" unicode="&#x2019;" horiz-adv-x="128" 
d="M108 934h-44l-44 -80h19z" />
    <glyph glyph-name="quotesinglbase" unicode="&#x201a;" horiz-adv-x="640" 
 />
    <glyph glyph-name="quotedblleft" unicode="&#x201c;" horiz-adv-x="197" 
d="M133 934h-43l68 -80h19zM63 934h-43l68 -80h19z" />
    <glyph glyph-name="quotedblright" unicode="&#x201d;" horiz-adv-x="197" 
d="M107 934h-44l-43 -80h18zM177 934h-44l-43 -80h18z" />
    <glyph glyph-name="quotedblbase" unicode="&#x201e;" horiz-adv-x="640" 
 />
    <glyph glyph-name="dagger" unicode="&#x2020;" horiz-adv-x="640" 
 />
    <glyph glyph-name="daggerdbl" unicode="&#x2021;" horiz-adv-x="640" 
 />
    <glyph glyph-name="bullet" unicode="&#x2022;" horiz-adv-x="640" 
 />
    <glyph glyph-name="ellipsis" unicode="&#x2026;" horiz-adv-x="309" 
d="M73 27q0 11 -7.5 18.5t-18.5 7.5t-19 -7.5t-8 -18.5t8 -19t19 -8t18.5 8t7.5 19zM182 27q0 11 -8 18.5t-18 7.5q-11 0 -19 -7.5t-8 -18.5t8 -19t19 -8t18.5 8t7.5 19zM289 27q0 11 -8 18.5t-19 7.5q-10 0 -18 -7.5t-8 -18.5t7.5 -19t18.5 -8t19 8t8 19z" />
    <glyph glyph-name="perthousand" unicode="&#x2030;" horiz-adv-x="640" 
 />
    <glyph glyph-name="guilsinglleft" unicode="&#x2039;" horiz-adv-x="256" 
d="M20 445v46l216 118v-43l-180 -98l180 -98v-43z" />
    <glyph glyph-name="guilsinglright" unicode="&#x203a;" horiz-adv-x="256" 
d="M236 492v-47l-216 -117v42l180 98l-180 98v43z" />
    <glyph glyph-name="fraction" unicode="&#x2044;" horiz-adv-x="600" 
d="M125 0h-38l178 934h38z" />
    <glyph glyph-name="Euro" unicode="&#x20ac;" horiz-adv-x="370" 
d="M161 120q0 -39 14.5 -61t56.5 -22h108v-37h-116q-54 0 -77.5 28.5t-23.5 84.5v268h-93v37h93v96h-93v38h93v288q0 94 101 94h116v-37l-109 -1q-41 0 -55.5 -21t-14.5 -60v-263h85v-38h-85v-96h85v-37h-85v-261z" />
    <glyph glyph-name="trademark" unicode="&#x2122;" horiz-adv-x="640" 
 />
    <glyph glyph-name="partialdiff" unicode="&#x2202;" horiz-adv-x="640" 
 />
    <glyph glyph-name="emptyset" unicode="&#x2205;" horiz-adv-x="640" 
 />
    <glyph glyph-name="product" unicode="&#x220f;" horiz-adv-x="640" 
 />
    <glyph glyph-name="summation" unicode="&#x2211;" horiz-adv-x="640" 
 />
    <glyph glyph-name="minus" unicode="&#x2212;" horiz-adv-x="257" 
d="M20 448v38h217v-38h-217z" />
    <glyph glyph-name="radical" unicode="&#x221a;" horiz-adv-x="640" 
 />
    <glyph glyph-name="infinity" unicode="&#x221e;" horiz-adv-x="640" 
 />
    <glyph glyph-name="integral" unicode="&#x222b;" horiz-adv-x="640" 
 />
    <glyph glyph-name="approxequal" unicode="&#x2248;" horiz-adv-x="232" 
d="M79 360q24 0 47 16q14 9 26 9t17.5 -4.5t14.5 -13.5l28 25q-18 21 -37 28q-33 12 -69 -12q-14 -9 -26 -9t-17.5 4.5t-14.5 13.5l-28 -25q19 -22 37 -28q9 -4 22 -4zM79 511q24 0 47 16q14 9 26 9t18 -4.5t14 -14.5l28 26q-18 21 -37 28q-33 12 -69 -12q-14 -9 -26 -9
t-17.5 4.5t-14.5 13.5l-28 -25q19 -22 37 -28q9 -4 22 -4z" />
    <glyph glyph-name="notequal" unicode="&#x2260;" horiz-adv-x="640" 
 />
    <glyph glyph-name="lessequal" unicode="&#x2264;" horiz-adv-x="256" 
d="M236 271v38h-216v-38h216zM20 554v-46l216 -118v43l-180 98l180 98v43z" />
    <glyph glyph-name="greaterequal" unicode="&#x2265;" horiz-adv-x="257" 
d="M20 271v38h217v-38h-217zM237 554v-46l-217 -118v43l180 98l-180 98v43z" />
    <glyph glyph-name="lozenge" unicode="&#x25ca;" horiz-adv-x="640" 
 />
    <glyph glyph-name="ampersand.001" horiz-adv-x="469" 
d="M153 431q-21 -31 -33 -50.5t-22 -47.5t-10 -54v-159q0 -39 14.5 -60.5t55.5 -21.5q42 0 56.5 21.5t14.5 60.5v101l37 -64v-53q0 -104 -101 -104h-14q-54 0 -77.5 29t-23.5 85v156q0 56 16.5 91.5t66.5 105.5q-1 1 -3 4q-9 16 -25 43t-23 40.5t-16 35t-12.5 43.5t-3.5 48
v172q0 94 101 94h14q101 0 101 -104v-162q0 -44 -11.5 -80t-24 -56t-49.5 -74q-1 -1 -2.5 -3.5t-2.5 -3.5l263 -464h-40q-173 302 -246 431zM88 671q0 -28 10 -59t19.5 -47.5t35.5 -60.5q1 -1 1 -2.5t1 -2.5q1 1 2 2.5t1 2.5q71 99 71 166v157q0 38 -15 60t-56 22
t-55.5 -21.5t-14.5 -60.5v-156z" />
    </font>
</defs>
</svg>
