<?xml version="1.0" standalone="no"?>
<!DOCTYPE svg PUBLIC "-//W3C//DTD SVG 1.1//EN" "http://www.w3.org/Graphics/SVG/1.1/DTD/svg11.dtd" >
<svg xmlns="http://www.w3.org/2000/svg" xmlns:xlink="http://www.w3.org/1999/xlink" version="1.1">
<metadata>
Created by FontForge 20170731 at Tue May  1 17:10:06 2018
 By Aleksey,,,
EllenLuff.2018
</metadata>
<defs>
<font id="Bison-Regular" horiz-adv-x="355" >
  <font-face 
    font-family="Bison"
    font-weight="400"
    font-stretch="normal"
    units-per-em="1000"
    panose-1="0 0 5 0 0 0 0 0 0 0"
    ascent="800"
    descent="-200"
    x-height="700"
    cap-height="700"
    bbox="-336 -138 719 961"
    underline-thickness="50"
    underline-position="-150"
    unicode-range="U+0020-AB53"
  />
<missing-glyph horiz-adv-x="600" 
 />
    <glyph glyph-name=".notdef" horiz-adv-x="600" 
 />
    <glyph glyph-name=".null" horiz-adv-x="0" 
 />
    <glyph glyph-name="nonmarkingreturn" horiz-adv-x="600" 
 />
    <glyph glyph-name="space" unicode=" " horiz-adv-x="155" 
 />
    <glyph glyph-name="exclam" unicode="!" horiz-adv-x="136" 
d="M82 134l4 215v351h-37v-351l5 -215h28zM87.5 47.5q-8.5 8.5 -19.5 8.5t-19.5 -8.5t-8.5 -19.5t8.5 -19.5t19.5 -8.5t19.5 8.5t8.5 19.5t-8.5 19.5z" />
    <glyph glyph-name="quotedbl" unicode="&#x22;" horiz-adv-x="175" 
d="M111 602h26l8 98h-42zM38 602h26l8 98h-42z" />
    <glyph glyph-name="numbersign" unicode="#" horiz-adv-x="660" 
d="M620 456h-124l-65 -213h161v-37h-173l-64 -206h-38l63 206h-189l-64 -206h-39l64 206h-112v37h123l66 213h-160v37h172l63 207h39l-64 -207h190l64 207h38l-63 -207h112v-37zM392 243l66 213h-190l-66 -213h190z" />
    <glyph glyph-name="dollar" unicode="$" 
d="M284 491v59q0 60 -31 88q-25 25 -75 25t-76 -25q-31 -29 -31 -88v-11q0 -45 16 -74.5t39.5 -47t63.5 -38.5q43 -24 69 -43.5t44 -55t18 -90.5v-40q0 -76 -42 -115q-33 -30 -82 -34v-30h-37v30q-50 4 -83 34q-43 40 -43 115v93h37v-93q0 -59 31 -88q26 -25 76 -25
q48 0 75 25q31 28 31 88v40q0 47 -16 77t-39 46.5t-64 38.5q-43 22 -69 41.5t-44 54.5t-18 91v11q0 75 43 115q33 30 83 34v30h37v-30q49 -4 82 -34q42 -39 42 -115v-59h-37z" />
    <glyph glyph-name="percent" unicode="%" horiz-adv-x="546" 
d="M486.5 32.5q25.5 29.5 25.5 70.5v10q0 41 -25.5 70.5t-62.5 29.5t-63 -29.5t-26 -70.5v-10q0 -41 26 -70.5t63 -29.5t62.5 29.5zM460 157.5q15 -18.5 15 -44.5v-10q0 -26 -15 -44.5t-36 -18.5t-36.5 19t-15.5 44v10q0 26 15.5 44.5t36.5 18.5t36 -18.5zM184.5 517.5
q25.5 29.5 25.5 70.5v10q0 41 -25.5 70.5t-62.5 29.5t-62.5 -29.5t-25.5 -70.5v-10q0 -41 25.5 -70.5t62.5 -29.5t62.5 29.5zM158 642.5q15 -18.5 15 -44.5v-10q0 -26 -15 -44.5t-36 -18.5t-36 18.5t-15 44.5v10q0 26 15 44.5t36 18.5t36 -18.5zM361 700h39l-216 -700h-39z
" />
    <glyph glyph-name="ampersand" unicode="&#x26;" horiz-adv-x="601" 
d="M566 16q-51 19 -127 93q28 40 58.5 90t40.5 68l-32 18q-2 -3 -30.5 -51t-63.5 -99q-55 57 -104 120q-34 45 -74 104q57 19 95 53q69 61 69 148v20q0 72 -60 107q-20 11 -42 16.5t-41 5.5t-41 -5.5t-42 -16.5q-60 -34 -60 -107v-20q0 -56 50 -151l19 -34q-26 -15 -32 -20
q-45 -29 -71 -65q-33 -45 -33 -98q0 -99 62 -153q57 -49 148 -49q37 0 73 16.5t68 47.5l21 25q2 -3 5 -5q31 -30 66 -56t65 -37zM279 232q58 -74 111 -127q-9 -13 -21 -25q-25 -25 -55 -39t-59 -14q-78 0 -124 40q-49 43 -49 125q0 49 34.5 87t83.5 64q29 -46 79 -111z
M287 667.5q18 -4.5 33 -12.5q41 -23 41 -75v-20q0 -71 -55 -119q-17 -15 -33.5 -24.5t-23.5 -11.5l-35 -14q-14 24 -20 36q-45 84 -45 133v20q0 52 41 75q15 8 33 12.5t32 4.5t32 -4.5z" />
    <glyph glyph-name="quotesingle" unicode="'" horiz-adv-x="112" 
d="M43 602h26l8 98h-42z" />
    <glyph glyph-name="parenleft" unicode="(" horiz-adv-x="214" 
d="M184 28q-49 0 -75 25q-31 28 -31 88v418q0 60 31 88q26 25 75 25v37q-63 0 -101 -35q-42 -39 -42 -115v-418q0 -76 42 -115q38 -35 101 -35v37z" />
    <glyph glyph-name="parenright" unicode=")" horiz-adv-x="214" 
d="M131 26q42 39 42 115v418q0 76 -42 115q-38 35 -101 35v-37q49 0 75 -25q31 -28 31 -88v-418q0 -60 -31 -88q-26 -25 -75 -25v-37q63 0 101 35z" />
    <glyph glyph-name="asterisk" unicode="*" horiz-adv-x="376" 
d="M341 620l-126 -81l126 -81l-22 -30l-116 94l-38 -144l-35 11l54 140l-149 -8v37l149 -9l-54 140l35 11l38 -144l116 94z" />
    <glyph glyph-name="plus" unicode="+" horiz-adv-x="429" 
d="M394 340v37h-359v-37h359zM233 179v359h-37v-359h37z" />
    <glyph glyph-name="comma" unicode="," horiz-adv-x="116" 
d="M77.5 46.5q8.5 -8.5 8.5 -19.5q0 -12 -8 -26q-5 -10 -15 -24.5t-13 -19.5h-16l11 29l2 8q0 5 -4 9q-13 10 -13 24q0 12 8.5 20t19.5 8t19.5 -8.5z" />
    <glyph glyph-name="hyphen" unicode="-" horiz-adv-x="171" 
d="M161 340v37h-151v-37h151z" />
    <glyph glyph-name="period" unicode="." horiz-adv-x="116" 
d="M77.5 46.5q-8.5 8.5 -19.5 8.5t-19.5 -8.5t-8.5 -19.5t8.5 -19.5t19.5 -8.5t19.5 8.5t8.5 19.5t-8.5 19.5z" />
    <glyph glyph-name="slash" unicode="/" horiz-adv-x="265" 
d="M44 0l216 700h-39l-216 -700h39z" />
    <glyph glyph-name="zero" unicode="0" horiz-adv-x="359" 
d="M280 26q43 40 43 115v420q0 75 -43 115q-37 35 -101 35q-63 0 -100 -35q-43 -39 -43 -115v-420q0 -76 43 -115q37 -35 100 -35q64 0 101 35zM255 649q31 -29 31 -88v-420q0 -59 -31 -88q-26 -25 -76 -25q-49 0 -75 25q-31 28 -31 88v420q0 60 31 88q28 25 75 25
q48 0 76 -25z" />
    <glyph glyph-name="one" unicode="1" horiz-adv-x="215" 
d="M28 590l126 110h21v-700h-37v637l-110 -96v49z" />
    <glyph glyph-name="two" unicode="2" horiz-adv-x="358" 
d="M37 0v190q0 133 135 192q115 45 115 156v21q0 60 -31 88q-26 25 -76 25t-75 -25q-31 -27 -31 -88v-69h-37v69q0 76 43 116q37 34 100 34q64 0 101 -34q43 -41 43 -116v-21q0 -89 -46 -131t-91 -59q-35 -12 -74 -49t-39 -109v-153h250v-37h-287z" />
    <glyph glyph-name="three" unicode="3" horiz-adv-x="343" 
d="M272 26q43 40 43 115v49q0 89 -61 146q-19 18 -42 30q26 14 42 29q27 26 42 57q19 41 19 87v20q0 75 -43 115q-38 35 -101 35t-101 -35q-42 -39 -42 -115v-20h37v20q0 60 31 88q25 25 75 25t76 -25q31 -29 31 -88v-20q0 -72 -49 -116q-17 -15 -34.5 -23.5t-28.5 -11.5
q-12 -4 -28 -4v-37q18 0 30 -3q8 -1 26 -10t35 -25q49 -46 49 -119v-49q0 -59 -31 -88q-26 -25 -76 -25t-75 25q-31 28 -31 88v49h-37v-49q0 -76 42 -115q38 -35 101 -35t101 35z" />
    <glyph glyph-name="four" unicode="4" horiz-adv-x="401" 
d="M300 159h76v-37h-76v-122h-37v122h-239v21l239 557h37v-541zM263 159v457l-191 -457h191z" />
    <glyph glyph-name="five" unicode="5" horiz-adv-x="345" 
d="M275 26q42 39 42 115v56q0 133 -135 192q-2 1 -31.5 14t-56 52t-26.5 91v117h249v37h-286v-154q0 -89 47.5 -132.5t88.5 -57.5q36 -14 74.5 -50.5t38.5 -108.5v-56q0 -59 -30 -88q-28 -25 -76 -25q-50 0 -76 25q-30 29 -30 88v102h-37v-102q0 -76 42 -115q38 -35 101 -35
t101 35z" />
    <glyph glyph-name="six" unicode="6" horiz-adv-x="354" 
d="M285 498v61q0 60 -30 88q-28 25 -76 25t-76 -25q-30 -28 -30 -88v-211q1 2 5 6q39 34 101 34t101 -34q42 -40 42 -116v-97q0 -76 -42 -115q-38 -35 -101 -35t-101 35q-42 39 -42 115v97v321q0 76 42 115q38 35 101 35t101 -35q42 -39 42 -115v-61h-37zM73 238v-97
q0 -59 30 -88q28 -25 76 -25q50 0 76 25q30 29 30 88v97q0 61 -30 88q-26 25 -76 25t-76 -25q-30 -27 -30 -88z" />
    <glyph glyph-name="seven" unicode="7" horiz-adv-x="344" 
d="M331 700l-220 -700h-39l209 663h-264v37h314z" />
    <glyph glyph-name="eight" unicode="8" horiz-adv-x="347" 
d="M287 431q-30 -42 -71 -65q41 -24 71 -66.5t30 -109.5v-49q0 -75 -43 -115q-38 -35 -101 -35t-101 35q-42 39 -42 115v49q0 67 29.5 109.5t70.5 66.5q-40 23 -70 65t-30 108v20q0 76 42 115q38 35 101 35t101 -35q43 -40 43 -115v-20q0 -66 -30 -108zM245.5 293.5
q-34.5 36.5 -72.5 52.5q-38 -16 -72 -52.5t-34 -103.5v-49q0 -60 31 -88q25 -25 75 -25q48 0 76 25q31 29 31 88v49q0 67 -34.5 103.5zM246 437q34 35 34 102v20q0 59 -31 88q-26 25 -76 25t-75 -25q-31 -28 -31 -88v-20q0 -67 33.5 -101.5t72.5 -51.5q39 16 73 51z" />
    <glyph glyph-name="nine" unicode="9" 
d="M319 559v-96v-322q0 -76 -42 -115q-38 -35 -101 -35t-101 35q-43 40 -43 115v62h37v-62q0 -59 31 -88q28 -25 76 -25t75 25q31 28 31 88v212l-5 -5q-38 -35 -101 -35t-101 35q-43 40 -43 115v96q0 75 43 115q38 35 101 35t101 -35q42 -39 42 -115zM282 463v96
q0 60 -31 88q-25 25 -75 25t-76 -25q-31 -29 -31 -88v-96q0 -59 31 -88q26 -25 76 -25t75 25q31 28 31 88z" />
    <glyph glyph-name="colon" unicode=":" horiz-adv-x="126" 
d="M82.5 45.5q-8.5 8.5 -19.5 8.5t-19.5 -8.5t-8.5 -19.5t8.5 -19.5t19.5 -8.5t19.5 8.5t8.5 19.5t-8.5 19.5zM82.5 437.5q-8.5 8.5 -19.5 8.5t-19.5 -8.5t-8.5 -19.5t8.5 -19.5t19.5 -8.5t19.5 8.5t8.5 19.5t-8.5 19.5z" />
    <glyph glyph-name="semicolon" unicode=";" horiz-adv-x="144" 
d="M82.5 437.5q-8.5 8.5 -19.5 8.5t-19.5 -8.5t-8.5 -19.5t8.5 -19.5t19.5 -8.5t19.5 8.5t8.5 19.5t-8.5 19.5zM82.5 45.5q8.5 -8.5 8.5 -19.5q0 -12 -8 -26q-5 -10 -15 -24.5t-13 -19.5h-16l11 29l2 8q0 5 -4 9q-13 10 -13 24q0 12 8.5 20t19.5 8t19.5 -8.5z" />
    <glyph glyph-name="less" unicode="&#x3c;" horiz-adv-x="389" 
d="M79 359l270 -121v-40l-319 142v37l319 143v-41z" />
    <glyph glyph-name="equal" unicode="=" horiz-adv-x="429" 
d="M394 433v37h-359v-37h359zM394 247v37h-359v-37h359z" />
    <glyph glyph-name="greater" unicode="&#x3e;" horiz-adv-x="389" 
d="M310 359l-270 120v41l319 -143v-37l-319 -142v40z" />
    <glyph glyph-name="question" unicode="?" horiz-adv-x="347" 
d="M132.5 47.5q-8.5 8.5 -19.5 8.5q-12 0 -20 -8.5t-8 -19.5t8 -19.5t20 -8.5q11 0 19.5 8.5t8.5 19.5t-8.5 19.5zM95 122v35q0 55 13.5 90.5t32.5 55.5t51 43q30 21 47 38.5t29 47t12 74.5v53q0 59 -31 88q-26 25 -76 25t-75 -25q-31 -28 -31 -88v-68h-37v68q0 76 42 115
q38 35 101 35q64 0 101 -35q43 -40 43 -115v-53q0 -53 -13 -87.5t-32.5 -54.5t-50.5 -42q-30 -23 -47.5 -40.5t-29.5 -48t-12 -76.5v-35h-37z" />
    <glyph glyph-name="at" unicode="@" horiz-adv-x="590" 
d="M486 113q28 2 48 10q-19 -42 -55 -75q-35 -30 -82 -46t-102 -16t-102 16t-82 46q-39 35 -59 86q-22 51 -22 124v181q0 71 22 124q20 50 59 85q70 62 184 62t184 -62q38 -34 60 -85q21 -54 21 -124v-104q0 -74 -27 -112t-71 -38t-70 38q-6 7 -10 17l-12 -15
q-27 -27 -75 -27q-46 0 -75 27q-31 33 -31 89v69q0 58 31 89q29 27 75 27q43 0 69 -22v20h37v-163q0 -61 21 -90q16 -22 40 -22q25 0 41 22q20 29 20 91v104q0 121 -68 181q-60 53 -160 53t-159 -53q-69 -60 -69 -181v-181q0 -122 69 -182q59 -53 159 -53t160 53
q18 16 31 37zM364 314v69q0 79 -69 79t-69 -79v-69q0 -79 69 -79t69 79z" />
    <glyph glyph-name="A" unicode="A" horiz-adv-x="382" 
d="M327 0l-40 184h-193l-40 -184h-38l156 700h37l156 -700h-38zM103 221h175l-87 402z" />
    <glyph glyph-name="B" unicode="B" horiz-adv-x="362" 
d="M284 32q43 39 43 114v72q0 75 -43 115q-13 11 -32 21q9 5 15 12q43 39 43 115v73q0 75 -43 113q-36 33 -100 33h-127v-700h144q63 0 100 32zM77 331h106q48 0 76 -25q31 -29 31 -88v-72q0 -109 -106 -109h-107v294zM77 663h90q49 0 76 -24q30 -25 30 -85v-73
q0 -61 -31 -88q-26 -25 -75 -25h-90v295z" />
    <glyph glyph-name="C" unicode="C" horiz-adv-x="354" 
d="M278 26q42 39 42 115v101h-37v-101q0 -60 -30 -88q-26 -25 -76 -25t-76 25q-30 28 -30 88v418q0 60 30 88q26 25 76 25t76 -25q30 -28 30 -88v-69h37v69q0 76 -42 115q-38 35 -101 35t-101 -35q-42 -39 -42 -115v-418q0 -76 42 -115q38 -35 101 -35t101 35z" />
    <glyph glyph-name="D" unicode="D" horiz-adv-x="354" 
d="M283 32q43 39 43 114v404q0 76 -42 115q-38 35 -101 35h-143v-700h143q63 0 100 32zM77 663h106q48 0 76 -25q30 -28 30 -88v-404q0 -109 -106 -109h-106v626z" />
    <glyph glyph-name="E" unicode="E" horiz-adv-x="319" 
d="M291 663h-214v-286h151v-37h-151v-303h214v-37h-251v700h251v-37z" />
    <glyph glyph-name="F" unicode="F" horiz-adv-x="310" 
d="M291 663h-214v-286h152v-37h-152v-340h-37v700h251v-37z" />
    <glyph glyph-name="G" unicode="G" 
d="M278 26q43 39 43 115v228h-143v-37h106v-191q0 -59 -31 -88q-26 -25 -76 -25q-49 0 -75 25q-31 28 -31 88v418q0 60 31 88q28 25 75 25q48 0 76 -25q31 -29 31 -88v-69h37v69q0 76 -43 115q-37 35 -101 35q-63 0 -100 -35q-43 -39 -43 -115v-418q0 -76 43 -115
q37 -35 100 -35q64 0 101 35z" />
    <glyph glyph-name="H" unicode="H" horiz-adv-x="377" 
d="M295 700h37v-700h-37v340h-213v-340h-37v700h37v-323h213v323z" />
    <glyph glyph-name="I" unicode="I" horiz-adv-x="127" 
d="M82 0v700h-37v-700h37z" />
    <glyph glyph-name="J" unicode="J" horiz-adv-x="348" 
d="M272 26q43 40 43 115v559h-37v-559q0 -59 -31 -88q-26 -25 -76 -25t-75 25q-31 28 -31 88v97h-37v-97q0 -76 42 -115q38 -35 101 -35t101 35z" />
    <glyph glyph-name="K" unicode="K" horiz-adv-x="361" 
d="M343 700l-146 -332l146 -368h-39l-128 321l-99 -224v-97h-37v700h37v-522l226 522h40z" />
    <glyph glyph-name="L" unicode="L" horiz-adv-x="309" 
d="M291 0v37h-214v663h-37v-700h251z" />
    <glyph glyph-name="M" unicode="M" horiz-adv-x="499" 
d="M250 179l189 521h20v-700h-37v558l-162 -448h-21l-162 448v-558h-37v700h20z" />
    <glyph glyph-name="N" unicode="N" horiz-adv-x="387" 
d="M342 700v-700h-20l-240 570v-570h-37v700h20l240 -570v570h37z" />
    <glyph glyph-name="O" unicode="O" 
d="M278 26q43 40 43 115v418q0 75 -43 115q-37 35 -101 35q-63 0 -100 -35q-43 -39 -43 -115v-418q0 -76 43 -115q37 -35 100 -35q64 0 101 35zM253 647q31 -29 31 -88v-418q0 -59 -31 -88q-26 -25 -76 -25q-49 0 -75 25q-31 28 -31 88v418q0 60 31 88q28 25 75 25
q48 0 76 -25z" />
    <glyph glyph-name="P" unicode="P" horiz-adv-x="350" 
d="M77 311h106q63 0 101 35q43 40 43 115v89q0 75 -43 115q-38 35 -101 35h-143v-700h37v311zM77 663h106q48 0 76 -25q31 -29 31 -88v-89q0 -59 -31 -88q-28 -25 -76 -25h-106v315z" />
    <glyph glyph-name="Q" unicode="Q" 
d="M358 -97v-37h-14q-57 0 -91 32q-36 33 -38 96q-18 -3 -38 -3q-62 0 -101 34q-42 41 -42 116v418q0 76 42 115q38 35 101 35t101 -35q42 -39 42 -115v-418q0 -75 -42 -116q-12 -10 -27 -18v-5q0 -53 27 -77q25 -22 66 -22h14zM177 28q50 0 76 25q30 27 30 88v418
q0 60 -30 88q-26 25 -76 25t-76 -25q-30 -28 -30 -88v-418q0 -61 30 -88q26 -25 76 -25z" />
    <glyph glyph-name="R" unicode="R" 
d="M327 0h-39l-98 311h-6h-107v-311h-37v700h144q63 0 101 -35q42 -39 42 -115v-89q0 -76 -42 -115q-24 -21 -58 -30zM259 373q31 28 31 88v89q0 60 -31 88q-27 25 -75 25h-107v-315h107q48 0 75 25z" />
    <glyph glyph-name="S" unicode="S" horiz-adv-x="347" 
d="M275 26q42 39 42 115v49q0 134 -135 193q-24 10 -47 24t-45.5 47t-22.5 85v20q0 59 31 88q26 25 76 25t75 -25q31 -28 31 -88v-68h37v68q0 76 -42 115q-38 35 -101 35q-64 0 -101 -35q-43 -40 -43 -115v-20q0 -89 46 -131t91 -59q37 -15 75 -51t38 -108v-49
q0 -60 -31 -88q-27 -25 -75 -25q-50 0 -76 25q-31 29 -31 88v102h-37v-102q0 -75 43 -115q37 -35 101 -35q63 0 101 35z" />
    <glyph glyph-name="T" unicode="T" horiz-adv-x="327" 
d="M315 700v-37h-133v-663h-37v663h-132v37h302z" />
    <glyph glyph-name="U" unicode="U" horiz-adv-x="352" 
d="M277 26q42 39 42 115v559h-37v-559q0 -59 -30 -88q-28 -25 -76 -25q-50 0 -76 25q-30 29 -30 88v559h-37v-559q0 -76 42 -115q38 -35 101 -35t101 35z" />
    <glyph glyph-name="V" unicode="V" horiz-adv-x="376" 
d="M188 77l136 623h38l-155 -700h-38l-155 700h38z" />
    <glyph glyph-name="W" unicode="W" horiz-adv-x="505" 
d="M253 491l-126 -491h-20l-86 700h38l68 -566l116 455h20l116 -454l68 565h38l-86 -700h-20z" />
    <glyph glyph-name="X" unicode="X" horiz-adv-x="377" 
d="M188 313l-130 -313h-40l146 349l-146 351h40l130 -314l131 314h40l-146 -351l146 -349h-40z" />
    <glyph glyph-name="Y" unicode="Y" horiz-adv-x="356" 
d="M178 302l130 398h39l-150 -461v-239h-37v239l-150 461h39z" />
    <glyph glyph-name="Z" unicode="Z" horiz-adv-x="353" 
d="M328 0v37h-249l248 663h-302v-37h249l-249 -663h303z" />
    <glyph glyph-name="bracketleft" unicode="[" horiz-adv-x="213" 
d="M183 0v37h-106v626h106v37h-143v-700h143z" />
    <glyph glyph-name="backslash" unicode="\" horiz-adv-x="265" 
d="M221 0h39l-216 700h-39z" />
    <glyph glyph-name="bracketright" unicode="]" horiz-adv-x="213" 
d="M30 0h143v700h-143v-37h106v-626h-106v-37z" />
    <glyph glyph-name="asciicircum" unicode="^" horiz-adv-x="362" 
d="M181 651l-120 -271h-41l143 320h37l142 -320h-40z" />
    <glyph glyph-name="underscore" unicode="_" horiz-adv-x="346" 
d="M336 0v37h-326v-37h326z" />
    <glyph glyph-name="grave" unicode="`" horiz-adv-x="135" 
d="M57 835l68 -98h-27l-88 98h47z" />
    <glyph glyph-name="a" unicode="a" horiz-adv-x="382" 
d="M327 0l-40 184h-193l-40 -184h-38l156 700h37l156 -700h-38zM103 221h175l-87 402z" />
    <glyph glyph-name="b" unicode="b" horiz-adv-x="362" 
d="M284 32q43 39 43 114v72q0 75 -43 115q-13 11 -32 21q9 5 15 12q43 39 43 115v73q0 75 -43 113q-36 33 -100 33h-127v-700h144q63 0 100 32zM77 331h106q48 0 76 -25q31 -29 31 -88v-72q0 -109 -106 -109h-107v294zM77 663h90q49 0 76 -24q30 -25 30 -85v-73
q0 -61 -31 -88q-26 -25 -75 -25h-90v295z" />
    <glyph glyph-name="c" unicode="c" horiz-adv-x="354" 
d="M278 26q42 39 42 115v101h-37v-101q0 -60 -30 -88q-26 -25 -76 -25t-76 25q-30 28 -30 88v418q0 60 30 88q26 25 76 25t76 -25q30 -28 30 -88v-69h37v69q0 76 -42 115q-38 35 -101 35t-101 -35q-42 -39 -42 -115v-418q0 -76 42 -115q38 -35 101 -35t101 35z" />
    <glyph glyph-name="d" unicode="d" horiz-adv-x="362" 
d="M283 32q43 39 43 114v404q0 76 -42 115q-38 35 -101 35h-143v-700h143q63 0 100 32zM77 663h106q48 0 76 -25q30 -28 30 -88v-404q0 -109 -106 -109h-106v626z" />
    <glyph glyph-name="e" unicode="e" horiz-adv-x="319" 
d="M291 663h-214v-286h151v-37h-151v-303h214v-37h-251v700h251v-37z" />
    <glyph glyph-name="f" unicode="f" horiz-adv-x="310" 
d="M291 663h-214v-286h152v-37h-152v-340h-37v700h251v-37z" />
    <glyph glyph-name="g" unicode="g" 
d="M278 26q43 39 43 115v228h-143v-37h106v-191q0 -59 -31 -88q-26 -25 -76 -25q-49 0 -75 25q-31 28 -31 88v418q0 60 31 88q28 25 75 25q48 0 76 -25q31 -29 31 -88v-69h37v69q0 76 -43 115q-37 35 -101 35q-63 0 -100 -35q-43 -39 -43 -115v-418q0 -76 43 -115
q37 -35 100 -35q64 0 101 35z" />
    <glyph glyph-name="h" unicode="h" horiz-adv-x="377" 
d="M295 700h37v-700h-37v340h-213v-340h-37v700h37v-323h213v323z" />
    <glyph glyph-name="i" unicode="i" horiz-adv-x="127" 
d="M82 0v700h-37v-700h37z" />
    <glyph glyph-name="j" unicode="j" horiz-adv-x="348" 
d="M272 26q43 40 43 115v559h-37v-559q0 -59 -31 -88q-26 -25 -76 -25t-75 25q-31 28 -31 88v97h-37v-97q0 -76 42 -115q38 -35 101 -35t101 35z" />
    <glyph glyph-name="k" unicode="k" horiz-adv-x="362" 
d="M216 368l128 -368h-40l-109 315l-118 -315h-37v700h37v-599l227 599h39z" />
    <glyph glyph-name="l" unicode="l" horiz-adv-x="309" 
d="M291 0v37h-214v663h-37v-700h251z" />
    <glyph glyph-name="m" unicode="m" horiz-adv-x="499" 
d="M250 179l189 521h20v-700h-37v558l-162 -448h-21l-162 448v-558h-37v700h20z" />
    <glyph glyph-name="n" unicode="n" horiz-adv-x="387" 
d="M342 700v-700h-20l-240 570v-570h-37v700h20l240 -570v570h37z" />
    <glyph glyph-name="o" unicode="o" 
d="M278 26q43 40 43 115v418q0 75 -43 115q-37 35 -101 35q-63 0 -100 -35q-43 -39 -43 -115v-418q0 -76 43 -115q37 -35 100 -35q64 0 101 35zM253 647q31 -29 31 -88v-418q0 -59 -31 -88q-26 -25 -76 -25q-49 0 -75 25q-31 28 -31 88v418q0 60 31 88q28 25 75 25
q48 0 76 -25z" />
    <glyph glyph-name="p" unicode="p" horiz-adv-x="350" 
d="M77 311h106q63 0 101 35q43 40 43 115v89q0 75 -43 115q-38 35 -101 35h-143v-700h37v311zM77 663h106q48 0 76 -25q31 -29 31 -88v-89q0 -59 -31 -88q-28 -25 -76 -25h-106v315z" />
    <glyph glyph-name="q" unicode="q" 
d="M358 -97v-37h-14q-57 0 -91 32q-36 33 -38 96q-18 -3 -38 -3q-62 0 -101 34q-42 41 -42 116v418q0 76 42 115q38 35 101 35t101 -35q42 -39 42 -115v-418q0 -75 -42 -116q-12 -10 -27 -18v-5q0 -53 27 -77q25 -22 66 -22h14zM177 28q50 0 76 25q30 27 30 88v418
q0 60 -30 88q-26 25 -76 25t-76 -25q-30 -28 -30 -88v-418q0 -61 30 -88q26 -25 76 -25z" />
    <glyph glyph-name="r" unicode="r" 
d="M327 0h-39l-98 311h-6h-107v-311h-37v700h144q63 0 101 -35q42 -39 42 -115v-89q0 -76 -42 -115q-24 -21 -58 -30zM259 373q31 28 31 88v89q0 60 -31 88q-27 25 -75 25h-107v-315h107q48 0 75 25z" />
    <glyph glyph-name="s" unicode="s" horiz-adv-x="347" 
d="M275 26q42 39 42 115v49q0 134 -135 193q-24 10 -47 24t-45.5 47t-22.5 85v20q0 59 31 88q26 25 76 25t75 -25q31 -28 31 -88v-68h37v68q0 76 -42 115q-38 35 -101 35q-64 0 -101 -35q-43 -40 -43 -115v-20q0 -89 46 -131t91 -59q37 -15 75 -51t38 -108v-49
q0 -60 -31 -88q-27 -25 -75 -25q-50 0 -76 25q-31 29 -31 88v102h-37v-102q0 -75 43 -115q37 -35 101 -35q63 0 101 35z" />
    <glyph glyph-name="t" unicode="t" horiz-adv-x="327" 
d="M315 700v-37h-133v-663h-37v663h-132v37h302z" />
    <glyph glyph-name="u" unicode="u" horiz-adv-x="352" 
d="M277 26q42 39 42 115v559h-37v-559q0 -59 -30 -88q-28 -25 -76 -25q-50 0 -76 25q-30 29 -30 88v559h-37v-559q0 -76 42 -115q38 -35 101 -35t101 35z" />
    <glyph glyph-name="v" unicode="v" horiz-adv-x="376" 
d="M188 77l136 623h38l-155 -700h-38l-155 700h38z" />
    <glyph glyph-name="w" unicode="w" horiz-adv-x="505" 
d="M253 491l-126 -491h-20l-86 700h38l68 -566l116 455h20l116 -454l68 565h38l-86 -700h-20z" />
    <glyph glyph-name="x" unicode="x" horiz-adv-x="377" 
d="M188 313l-130 -313h-40l146 349l-146 351h40l130 -314l131 314h40l-146 -351l146 -349h-40z" />
    <glyph glyph-name="y" unicode="y" horiz-adv-x="356" 
d="M178 302l130 398h39l-150 -461v-239h-37v239l-150 461h39z" />
    <glyph glyph-name="z" unicode="z" horiz-adv-x="353" 
d="M328 0v37h-249l248 663h-302v-37h249l-249 -663h303z" />
    <glyph glyph-name="braceleft" unicode="{" horiz-adv-x="279" 
d="M249 28q-50 0 -76 25q-31 29 -31 88v60q0 89 -68 149q68 60 68 149v60q0 59 31 88q26 25 76 25v37q-64 0 -101 -35q-43 -40 -43 -115v-60q0 -46 -20.5 -79t-50.5 -55l-20 -15l20 -15q30 -22 50.5 -55t20.5 -79v-60q0 -75 43 -115q37 -35 101 -35v37z" />
    <glyph glyph-name="bar" unicode="|" horiz-adv-x="437" 
d="M237 -60v820h-37v-820h37z" />
    <glyph glyph-name="braceright" unicode="}" horiz-adv-x="279" 
d="M131 26q43 40 43 115v60q0 46 20.5 79t50.5 55l20 15l-20 15q-30 22 -50.5 55t-20.5 79v60q0 75 -43 115q-37 35 -101 35v-37q50 0 76 -25q31 -29 31 -88v-60q0 -89 68 -149q-68 -60 -68 -149v-60q0 -59 -31 -88q-26 -25 -76 -25v-37q64 0 101 35z" />
    <glyph glyph-name="uni00A0" unicode="&#xa0;" horiz-adv-x="600" 
 />
    <glyph glyph-name="exclamdown" unicode="&#xa1;" horiz-adv-x="136" 
d="M82 566h-28l-5 -215v-351h37v351zM87.5 691.5q-8.5 8.5 -19.5 8.5t-19.5 -8.5t-8.5 -19.5t8.5 -19.5t19.5 -8.5t19.5 8.5t8.5 19.5t-8.5 19.5z" />
    <glyph glyph-name="cent" unicode="&#xa2;" horiz-adv-x="364" 
d="M290 489v61q0 60 -30 88q-28 25 -76 25t-76 -25q-30 -28 -30 -88v-400q0 -59 30 -88q28 -25 76 -25t76 25q30 29 30 88v92h37v-92q0 -76 -42 -115q-33 -30 -83 -34v-30h-37v30q-49 4 -82 34q-42 39 -42 115v400q0 76 42 115q33 30 82 34v30h37v-30q50 -4 83 -34
q42 -39 42 -115v-61h-37z" />
    <glyph glyph-name="sterling" unicode="&#xa3;" horiz-adv-x="444" 
d="M411 37h-269q59 48 59 143v25q0 32 -1 62t-5 48h189v37h-201q-18 18 -24 55t-6 92v60q0 60 30 88q28 25 76 25t75 -25q31 -28 31 -88v-21h37v21q0 76 -42 115q-38 35 -101 35t-101 -35q-42 -39 -42 -115v-60q0 -69 8 -105q4 -22 14 -42h-84v-37h102q5 -14 6.5 -40
t1.5 -70v-25q0 -90 -61 -125q-30 -18 -63 -18h-9v-37h380v37z" />
    <glyph glyph-name="currency" unicode="&#xa4;" horiz-adv-x="350" 
d="M276 215l-10 -8l31 -75l-35 -14l-29 72q-26 -9 -58 -9t-58 9l-30 -72l-34 14l31 75l-10 8q-42 41 -42 116v97q0 75 42 116l10 8l-31 76l34 14l30 -73q25 9 58 9q31 0 58 -9l29 73l35 -14l-31 -76l10 -8q42 -41 42 -116v-97q0 -75 -42 -116zM175 218q50 0 76 25
q30 27 30 88v97q0 61 -30 88q-26 25 -76 25t-76 -25q-30 -27 -30 -88v-97q0 -61 30 -88q26 -25 76 -25z" />
    <glyph glyph-name="yen" unicode="&#xa5;" horiz-adv-x="351" 
d="M344 700l-144 -441h138v-37h-144v-39h144v-37h-144v-146h-37v146h-145v37h145v39h-145v37h138l-143 441h39l129 -398l130 398h39z" />
    <glyph glyph-name="brokenbar" unicode="&#xa6;" horiz-adv-x="437" 
d="M200 -60v334h37v-334h-37zM237 760v-316h-37v316h37z" />
    <glyph glyph-name="section" unicode="&#xa7;" horiz-adv-x="358" 
d="M285 535v38q0 47 -29 73t-77 26q-47 0 -77 -25.5t-30 -73.5q0 -37 22.5 -59.5t42.5 -30.5t50 -17q3 -1 33 -8.5t60 -34.5q42 -38 42 -102q0 -46 -22.5 -78.5t-61.5 -46.5q84 -41 84 -127q0 -63 -39.5 -99t-103.5 -36q-62 0 -103 36t-41 99v44h37v-44q0 -47 29 -72.5
t78 -25.5q47 0 76.5 25t29.5 73q0 39 -22 62.5t-37 29.5t-54 19q-3 1 -33.5 7.5t-61.5 33.5q-20 16 -31 41.5t-11 58.5q0 47 23.5 80t64.5 47q-37 17 -62.5 47t-25.5 78q0 63 40 99.5t104 36.5q63 0 103 -36t40 -100v-38h-37zM255.5 248q29.5 25 29.5 73q0 47 -29 73t-77 26
q-47 0 -77 -25.5t-30 -73.5q0 -47 29 -72.5t78 -25.5q47 0 76.5 25z" />
    <glyph glyph-name="dieresis" unicode="&#xa8;" horiz-adv-x="210" 
d="M58 784q-8 8 -20 8q-11 0 -19.5 -8t-8.5 -20q0 -11 8.5 -19t19.5 -8q12 0 20 8t8 19q0 12 -8 20zM192 784q-8 8 -20 8q-11 0 -19.5 -8t-8.5 -20q0 -11 8.5 -19t19.5 -8q12 0 20 8t8 19q0 12 -8 20z" />
    <glyph glyph-name="copyright" unicode="&#xa9;" horiz-adv-x="736" 
d="M102 186q40 -73 109.5 -114t156.5 -41t156.5 41t109.5 114t40 164t-40 164t-109.5 114t-156.5 41t-156.5 -41t-109.5 -114t-40 -164t40 -164zM65.5 534q45.5 82 125 128t177.5 46t177.5 -46t125 -128t45.5 -184t-45.5 -184t-125 -128t-177.5 -46t-177.5 46t-125 128
t-45.5 184t45.5 184zM469 152q42 39 42 115v20h-37v-20q0 -59 -30 -88q-26 -25 -76 -25t-76 25q-30 29 -30 88v166q0 60 30 88q26 25 76 25t76 -25q30 -28 30 -88v-20h37v20q0 76 -42 115q-38 35 -101 35t-101 -35q-42 -39 -42 -115v-166q0 -76 42 -115q38 -35 101 -35
t101 35z" />
    <glyph glyph-name="guillemotleft" unicode="&#xab;" horiz-adv-x="321" 
d="M58 359l140 -267h-42l-140 267l140 267h42zM165 359l140 -267h-42l-140 267l140 267h42z" />
    <glyph glyph-name="registered" unicode="&#xae;" horiz-adv-x="736" 
d="M552 428q0 -88 -268 -88v176q268 0 268 -88zM102 186q40 -73 109.5 -114t156.5 -41t156.5 41t109.5 114t40 164t-40 164t-109.5 114t-156.5 41t-156.5 -41t-109.5 -114t-40 -164t40 -164zM65.5 534q45.5 82 125 128t177.5 46t177.5 -46t125 -128t45.5 -184t-45.5 -184
t-125 -128t-177.5 -46t-177.5 46t-125 128t-45.5 184t45.5 184zM538 149h-39l-107 164h-108v-164h-37v404h144q46 0 79.5 -17t50.5 -44.5t17 -58.5q0 -38 -26.5 -70t-77.5 -45zM473.5 372.5q28.5 22.5 28.5 55.5q0 35 -30.5 61.5t-80.5 26.5h-107v-166h107q54 0 82.5 22.5z
" />
    <glyph glyph-name="macron" unicode="&#xaf;" horiz-adv-x="346" 
d="M336 737v37h-326v-37h326z" />
    <glyph glyph-name="degree" unicode="&#xb0;" horiz-adv-x="200" 
d="M142.5 596.5q17.5 17.5 17.5 42.5t-17.5 43t-42.5 18t-42.5 -18t-17.5 -43t17.5 -42.5t42.5 -17.5t42.5 17.5zM116.5 656q6.5 -7 6.5 -17q0 -9 -6.5 -16t-16.5 -7t-16.5 7t-6.5 16q0 10 6.5 17t16.5 7t16.5 -7z" />
    <glyph glyph-name="acute" unicode="&#xb4;" horiz-adv-x="135" 
d="M78 835h47l-88 -98h-27z" />
    <glyph glyph-name="paragraph" unicode="&#xb6;" horiz-adv-x="340" 
d="M300 700v-700h-37v663h-37v-663h-37v312h-32q-63 0 -101 35q-42 39 -42 115v88q0 76 42 115q38 35 101 35h143z" />
    <glyph glyph-name="periodcentered" unicode="&#xb7;" horiz-adv-x="136" 
d="M87.5 377.5q-8.5 8.5 -19.5 8.5t-19.5 -8.5t-8.5 -19.5t8.5 -19.5t19.5 -8.5t19.5 8.5t8.5 19.5t-8.5 19.5z" />
    <glyph glyph-name="cedilla" unicode="&#xb8;" horiz-adv-x="141" 
d="M113.5 -119q17.5 18 17.5 43q0 20 -9 31.5t-23 22.5l-2 2q-8 6 -8 14v6h-37v-6q0 -27 23 -44l2 -2q9 -7 13 -11.5t4 -12.5q0 -10 -7 -17t-16 -7q-10 0 -17 7t-7 17h-37q0 -26 18 -43.5t43 -17.5t42.5 18z" />
    <glyph glyph-name="guillemotright" unicode="&#xbb;" horiz-adv-x="321" 
d="M263 359l-140 267h42l140 -267l-140 -267h-42zM156 359l-140 267h42l140 -267l-140 -267h-42z" />
    <glyph glyph-name="questiondown" unicode="&#xbf;" horiz-adv-x="347" 
d="M214.5 652.5q8.5 -8.5 19.5 -8.5q12 0 20 8.5t8 19.5t-8 19.5t-20 8.5q-11 0 -19.5 -8.5t-8.5 -19.5t8.5 -19.5zM252 578v-35q0 -55 -13.5 -90.5t-32.5 -55.5t-51 -43q-30 -21 -47 -38.5t-29 -47t-12 -74.5v-53q0 -59 31 -88q26 -25 76 -25t75 25q31 28 31 88v68h37v-68
q0 -76 -42 -115q-38 -35 -101 -35q-64 0 -101 35q-43 40 -43 115v53q0 53 13 87.5t32.5 54.5t50.5 42q30 23 47.5 40.5t29.5 48t12 76.5v35h37z" />
    <glyph glyph-name="Agrave" unicode="&#xc0;" horiz-adv-x="382" 
d="M327 0l-40 184h-193l-40 -184h-38l156 700h37l156 -700h-38zM103 221h175l-87 402zM136 835l68 -98h-27l-88 98h47z" />
    <glyph glyph-name="Aacute" unicode="&#xc1;" horiz-adv-x="382" 
d="M327 0l-40 184h-193l-40 -184h-38l156 700h37l156 -700h-38zM103 221h175l-87 402zM245 835h47l-88 -98h-27z" />
    <glyph glyph-name="Acircumflex" unicode="&#xc2;" horiz-adv-x="382" 
d="M327 0l-40 184h-193l-40 -184h-38l156 700h37l156 -700h-38zM103 221h175l-87 402zM167 835h47l68 -98h-27l-64 72l-65 -72h-27z" />
    <glyph glyph-name="Atilde" unicode="&#xc3;" horiz-adv-x="382" 
d="M327 0l-40 184h-193l-40 -184h-38l156 700h37l156 -700h-38zM103 221h175l-87 402zM141 769q17 0 40 -14q28 -18 55 -18q41 0 78 46l-29 24q-24 -32 -50 -32q-17 0 -35 11q-34 20 -59 20q-40 0 -79 -47l29 -23q27 33 50 33z" />
    <glyph glyph-name="Adieresis" unicode="&#xc4;" horiz-adv-x="382" 
d="M327 0l-40 184h-193l-40 -184h-38l156 700h37l156 -700h-38zM103 221h175l-87 402zM143 784q-8 8 -20 8q-11 0 -19.5 -8t-8.5 -20q0 -11 8.5 -19t19.5 -8q12 0 20 8t8 19q0 12 -8 20zM277 784q-8 8 -20 8q-11 0 -19.5 -8t-8.5 -20q0 -11 8.5 -19t19.5 -8q12 0 20 8t8 19
q0 12 -8 20z" />
    <glyph glyph-name="Aring" unicode="&#xc5;" horiz-adv-x="382" 
d="M327 0l-40 184h-193l-40 -184h-38l156 700h37l156 -700h-38zM103 221h175l-87 402zM233.5 755.5q17.5 17.5 17.5 42.5t-17.5 43t-42.5 18t-42.5 -18t-17.5 -43t17.5 -42.5t42.5 -17.5t42.5 17.5zM207.5 815q6.5 -7 6.5 -17q0 -9 -6.5 -16t-16.5 -7t-16.5 7t-6.5 16
q0 10 6.5 17t16.5 7t16.5 -7z" />
    <glyph glyph-name="AE" unicode="&#xc6;" horiz-adv-x="563" 
d="M535 663h-215v-286h152v-37h-152v-303h215v-37h-252v136h-181l-47 -136h-39l241 700h278v-37zM283 173v489l-168 -489h168z" />
    <glyph glyph-name="Ccedilla" unicode="&#xc7;" 
d="M284 489v70q0 60 -31 88q-26 25 -75 25q-50 0 -76 -25q-31 -29 -31 -88v-418q0 -59 31 -88q26 -25 76 -25q49 0 75 25q31 28 31 88v101h37v-101q0 -76 -43 -115q-31 -30 -79 -34l4 -4l3 -2q14 -12 22.5 -23t8.5 -31q0 -25 -17.5 -43t-42.5 -18t-43 18t-18 43h37
q0 -10 7 -17t17 -7t16.5 7t6.5 17q0 8 -3.5 12.5t-12.5 11.5l-3 2q-18 15 -22 34q-51 5 -82 34q-43 40 -43 115v418q0 75 43 115q37 35 101 35q63 0 100 -35q43 -39 43 -115v-70h-37z" />
    <glyph glyph-name="Egrave" unicode="&#xc8;" horiz-adv-x="319" 
d="M291 663h-214v-286h151v-37h-151v-303h214v-37h-251v700h251v-37zM111 835l68 -98h-27l-88 98h47z" />
    <glyph glyph-name="Eacute" unicode="&#xc9;" horiz-adv-x="319" 
d="M291 663h-214v-286h151v-37h-151v-303h214v-37h-251v700h251v-37zM220 835h47l-88 -98h-27z" />
    <glyph glyph-name="Ecircumflex" unicode="&#xca;" horiz-adv-x="319" 
d="M291 663h-214v-286h151v-37h-151v-303h214v-37h-251v700h251v-37zM142 835h47l68 -98h-27l-64 72l-65 -72h-27z" />
    <glyph glyph-name="Edieresis" unicode="&#xcb;" horiz-adv-x="319" 
d="M291 663h-214v-286h151v-37h-151v-303h214v-37h-251v700h251v-37zM119 784q-8 8 -20 8q-11 0 -19.5 -8t-8.5 -20q0 -11 8.5 -19t19.5 -8q12 0 20 8t8 19q0 12 -8 20zM253 784q-8 8 -20 8q-11 0 -19.5 -8t-8.5 -20q0 -11 8.5 -19t19.5 -8q12 0 20 8t8 19q0 12 -8 20z" />
    <glyph glyph-name="Igrave" unicode="&#xcc;" horiz-adv-x="127" 
d="M82 0v700h-37v-700h37zM9 835l68 -98h-27l-88 98h47z" />
    <glyph glyph-name="Iacute" unicode="&#xcd;" horiz-adv-x="127" 
d="M82 0v700h-37v-700h37zM118 835h47l-88 -98h-27z" />
    <glyph glyph-name="Icircumflex" unicode="&#xce;" horiz-adv-x="127" 
d="M83 0v700h-37v-700h37zM40 835h47l68 -98h-27l-64 72l-65 -72h-27z" />
    <glyph glyph-name="Idieresis" unicode="&#xcf;" horiz-adv-x="128" 
d="M82 0v700h-37v-700h37zM17 784q-8 8 -20 8q-11 0 -19.5 -8t-8.5 -20q0 -11 8.5 -19t19.5 -8q12 0 20 8t8 19q0 12 -8 20zM151 784q-8 8 -20 8q-11 0 -19.5 -8t-8.5 -20q0 -11 8.5 -19t19.5 -8q12 0 20 8t8 19q0 12 -8 20z" />
    <glyph glyph-name="Eth" unicode="&#xd0;" horiz-adv-x="360" 
d="M332 550v-404q0 -74 -43 -114q-37 -32 -101 -32h-143v331h-40v37h40v332h143q64 0 101 -35q43 -39 43 -115zM295 550q0 59 -31 88q-28 25 -76 25h-106v-295h80v-37h-80v-294h106q107 0 107 109v404z" />
    <glyph glyph-name="Ntilde" unicode="&#xd1;" horiz-adv-x="387" 
d="M342 700v-700h-20l-240 570v-570h-37v700h20l240 -570v570h37zM146 769q17 0 40 -14q28 -18 55 -18q41 0 78 46l-29 24q-24 -32 -50 -32q-17 0 -35 11q-34 20 -59 20q-40 0 -79 -47l29 -23q27 33 50 33z" />
    <glyph glyph-name="Ograve" unicode="&#xd2;" 
d="M278 26q43 40 43 115v418q0 75 -43 115q-37 35 -101 35q-63 0 -100 -35q-43 -39 -43 -115v-418q0 -76 43 -115q37 -35 100 -35q64 0 101 35zM253 647q31 -29 31 -88v-418q0 -59 -31 -88q-26 -25 -76 -25q-49 0 -75 25q-31 28 -31 88v418q0 60 31 88q28 25 75 25
q48 0 76 -25zM122 835l68 -98h-27l-88 98h47z" />
    <glyph glyph-name="Oacute" unicode="&#xd3;" 
d="M278 26q43 40 43 115v418q0 75 -43 115q-37 35 -101 35q-63 0 -100 -35q-43 -39 -43 -115v-418q0 -76 43 -115q37 -35 100 -35q64 0 101 35zM253 647q31 -29 31 -88v-418q0 -59 -31 -88q-26 -25 -76 -25q-49 0 -75 25q-31 28 -31 88v418q0 60 31 88q28 25 75 25
q48 0 76 -25zM231 835h47l-88 -98h-27z" />
    <glyph glyph-name="Ocircumflex" unicode="&#xd4;" 
d="M278 26q43 40 43 115v418q0 75 -43 115q-37 35 -101 35q-63 0 -100 -35q-43 -39 -43 -115v-418q0 -76 43 -115q37 -35 100 -35q64 0 101 35zM253 647q31 -29 31 -88v-418q0 -59 -31 -88q-26 -25 -76 -25q-49 0 -75 25q-31 28 -31 88v418q0 60 31 88q28 25 75 25
q48 0 76 -25zM153 835h47l68 -98h-27l-64 72l-65 -72h-27z" />
    <glyph glyph-name="Otilde" unicode="&#xd5;" 
d="M278 26q43 40 43 115v418q0 75 -43 115q-37 35 -101 35q-63 0 -100 -35q-43 -39 -43 -115v-418q0 -76 43 -115q37 -35 100 -35q64 0 101 35zM253 647q31 -29 31 -88v-418q0 -59 -31 -88q-26 -25 -76 -25q-49 0 -75 25q-31 28 -31 88v418q0 60 31 88q28 25 75 25
q48 0 76 -25zM131 769q17 0 40 -14q29 -18 55 -18q41 0 78 46l-29 24q-24 -32 -50 -32q-17 0 -35 11q-34 20 -59 20q-40 0 -79 -47l29 -23q27 33 50 33z" />
    <glyph glyph-name="Odieresis" unicode="&#xd6;" 
d="M278 26q43 40 43 115v418q0 75 -43 115q-37 35 -101 35q-63 0 -100 -35q-43 -39 -43 -115v-418q0 -76 43 -115q37 -35 100 -35q64 0 101 35zM253 647q31 -29 31 -88v-418q0 -59 -31 -88q-26 -25 -76 -25q-49 0 -75 25q-31 28 -31 88v418q0 60 31 88q28 25 75 25
q48 0 76 -25zM130 784q-8 8 -20 8q-11 0 -19.5 -8t-8.5 -20q0 -11 8.5 -19t19.5 -8q12 0 20 8t8 19q0 12 -8 20zM264 784q-8 8 -20 8q-11 0 -19.5 -8t-8.5 -20q0 -11 8.5 -19t19.5 -8q12 0 20 8t8 19q0 12 -8 20z" />
    <glyph glyph-name="multiply" unicode="&#xd7;" horiz-adv-x="350" 
d="M288 219l27 27l-254 253l-26 -26zM61 219l254 254l-27 26l-253 -253z" />
    <glyph glyph-name="Oslash" unicode="&#xd8;" horiz-adv-x="357" 
d="M310 629q12 -30 12 -70v-418q0 -75 -42 -116q-39 -34 -101 -34t-101 34l-6 7l-19 -48l-35 14l29 73q-11 31 -11 70v418q0 76 42 115q38 35 101 35t101 -35l6 -6l19 47l34 -14zM73 134l197 493q-5 10 -15 20q-26 25 -76 25t-76 -25q-30 -28 -30 -88v-418v-7zM285 565
l-197 -493q7 -12 15 -19q26 -25 76 -25t76 25q30 27 30 88v418v6z" />
    <glyph glyph-name="Ugrave" unicode="&#xd9;" horiz-adv-x="352" 
d="M277 26q42 39 42 115v559h-37v-559q0 -59 -30 -88q-28 -25 -76 -25q-50 0 -76 25q-30 29 -30 88v559h-37v-559q0 -76 42 -115q38 -35 101 -35t101 35zM117 835l68 -98h-27l-88 98h47z" />
    <glyph glyph-name="Uacute" unicode="&#xda;" horiz-adv-x="352" 
d="M277 26q42 39 42 115v559h-37v-559q0 -59 -30 -88q-28 -25 -76 -25q-50 0 -76 25q-30 29 -30 88v559h-37v-559q0 -76 42 -115q38 -35 101 -35t101 35zM225 835h47l-88 -98h-27z" />
    <glyph glyph-name="Ucircumflex" unicode="&#xdb;" horiz-adv-x="352" 
d="M277 26q42 39 42 115v559h-37v-559q0 -59 -30 -88q-28 -25 -76 -25q-50 0 -76 25q-30 29 -30 88v559h-37v-559q0 -76 42 -115q38 -35 101 -35t101 35zM153 835h47l68 -98h-27l-64 72l-65 -72h-27z" />
    <glyph glyph-name="Udieresis" unicode="&#xdc;" horiz-adv-x="352" 
d="M277 26q42 39 42 115v559h-37v-559q0 -59 -30 -88q-28 -25 -76 -25q-50 0 -76 25q-30 29 -30 88v559h-37v-559q0 -76 42 -115q38 -35 101 -35t101 35zM130 784q-8 8 -20 8q-11 0 -19.5 -8t-8.5 -20q0 -11 8.5 -19t19.5 -8q12 0 20 8t8 19q0 12 -8 20zM264 784q-8 8 -20 8
q-11 0 -19.5 -8t-8.5 -20q0 -11 8.5 -19t19.5 -8q12 0 20 8t8 19q0 12 -8 20z" />
    <glyph glyph-name="Yacute" unicode="&#xdd;" horiz-adv-x="356" 
d="M178 302l130 398h39l-150 -461v-239h-37v239l-150 461h39zM233 835h47l-88 -98h-27z" />
    <glyph glyph-name="Thorn" unicode="&#xde;" horiz-adv-x="350" 
d="M77 605h106q48 0 76 -25q31 -29 31 -88v-89q0 -59 -31 -88q-28 -25 -76 -25h-106v315zM77 253h106q63 0 101 35q43 40 43 115v89q0 75 -43 115q-38 35 -101 35h-106v58h-37v-700h37v253z" />
    <glyph glyph-name="germandbls" unicode="&#xdf;" horiz-adv-x="362" 
d="M327 218v-72q0 -75 -43 -114q-37 -32 -100 -32h-67v37h67q106 0 106 109v72q0 59 -31 88q-28 25 -76 25h-66v37h50q49 0 75 25q31 27 31 88v73q0 60 -30 85q-26 24 -68 24q-41 0 -68 -24q-30 -25 -30 -85v-517v-37h-37v554q0 75 43 113q17 15 40.5 24t51.5 9q56 0 92 -33
q43 -38 43 -113v-73q0 -76 -43 -115q-6 -7 -15 -12q19 -10 32 -21q43 -40 43 -115z" />
    <glyph glyph-name="agrave" unicode="&#xe0;" horiz-adv-x="382" 
d="M327 0l-40 184h-193l-40 -184h-38l156 700h37l156 -700h-38zM103 221h175l-87 402zM136 835l68 -98h-27l-88 98h47z" />
    <glyph glyph-name="aacute" unicode="&#xe1;" horiz-adv-x="382" 
d="M327 0l-40 184h-193l-40 -184h-38l156 700h37l156 -700h-38zM103 221h175l-87 402zM245 835h47l-88 -98h-27z" />
    <glyph glyph-name="acircumflex" unicode="&#xe2;" horiz-adv-x="382" 
d="M327 0l-40 184h-193l-40 -184h-38l156 700h37l156 -700h-38zM103 221h175l-87 402zM167 835h47l68 -98h-27l-64 72l-65 -72h-27z" />
    <glyph glyph-name="atilde" unicode="&#xe3;" horiz-adv-x="382" 
d="M327 0l-40 184h-193l-40 -184h-38l156 700h37l156 -700h-38zM103 221h175l-87 402zM141 769q17 0 40 -14q28 -18 55 -18q41 0 78 46l-29 24q-24 -32 -50 -32q-17 0 -35 11q-34 20 -59 20q-40 0 -79 -47l29 -23q27 33 50 33z" />
    <glyph glyph-name="adieresis" unicode="&#xe4;" horiz-adv-x="382" 
d="M327 0l-40 184h-193l-40 -184h-38l156 700h37l156 -700h-38zM103 221h175l-87 402zM143 784q-8 8 -20 8q-11 0 -19.5 -8t-8.5 -20q0 -11 8.5 -19t19.5 -8q12 0 20 8t8 19q0 12 -8 20zM277 784q-8 8 -20 8q-11 0 -19.5 -8t-8.5 -20q0 -11 8.5 -19t19.5 -8q12 0 20 8t8 19
q0 12 -8 20z" />
    <glyph glyph-name="aring" unicode="&#xe5;" horiz-adv-x="382" 
d="M327 0l-40 184h-193l-40 -184h-38l156 700h37l156 -700h-38zM103 221h175l-87 402zM233.5 755.5q17.5 17.5 17.5 42.5t-17.5 43t-42.5 18t-42.5 -18t-17.5 -43t17.5 -42.5t42.5 -17.5t42.5 17.5zM207.5 815q6.5 -7 6.5 -17q0 -9 -6.5 -16t-16.5 -7t-16.5 7t-6.5 16
q0 10 6.5 17t16.5 7t16.5 -7z" />
    <glyph glyph-name="ae" unicode="&#xe6;" horiz-adv-x="563" 
d="M535 663h-215v-286h152v-37h-152v-303h215v-37h-252v136h-181l-47 -136h-39l241 700h278v-37zM283 173v489l-168 -489h168z" />
    <glyph glyph-name="ccedilla" unicode="&#xe7;" 
d="M284 489v70q0 60 -31 88q-26 25 -75 25q-50 0 -76 -25q-31 -29 -31 -88v-418q0 -59 31 -88q26 -25 76 -25q49 0 75 25q31 28 31 88v101h37v-101q0 -76 -43 -115q-31 -30 -79 -34l4 -4l3 -2q14 -12 22.5 -23t8.5 -31q0 -25 -17.5 -43t-42.5 -18t-43 18t-18 43h37
q0 -10 7 -17t17 -7t16.5 7t6.5 17q0 8 -3.5 12.5t-12.5 11.5l-3 2q-18 15 -22 34q-51 5 -82 34q-43 40 -43 115v418q0 75 43 115q37 35 101 35q63 0 100 -35q43 -39 43 -115v-70h-37z" />
    <glyph glyph-name="egrave" unicode="&#xe8;" horiz-adv-x="319" 
d="M291 663h-214v-286h151v-37h-151v-303h214v-37h-251v700h251v-37zM111 835l68 -98h-27l-88 98h47z" />
    <glyph glyph-name="eacute" unicode="&#xe9;" horiz-adv-x="319" 
d="M291 663h-214v-286h151v-37h-151v-303h214v-37h-251v700h251v-37zM220 835h47l-88 -98h-27z" />
    <glyph glyph-name="ecircumflex" unicode="&#xea;" horiz-adv-x="319" 
d="M291 663h-214v-286h151v-37h-151v-303h214v-37h-251v700h251v-37zM142 835h47l68 -98h-27l-64 72l-65 -72h-27z" />
    <glyph glyph-name="edieresis" unicode="&#xeb;" horiz-adv-x="319" 
d="M291 663h-214v-286h151v-37h-151v-303h214v-37h-251v700h251v-37zM119 784q-8 8 -20 8q-11 0 -19.5 -8t-8.5 -20q0 -11 8.5 -19t19.5 -8q12 0 20 8t8 19q0 12 -8 20zM253 784q-8 8 -20 8q-11 0 -19.5 -8t-8.5 -20q0 -11 8.5 -19t19.5 -8q12 0 20 8t8 19q0 12 -8 20z" />
    <glyph glyph-name="igrave" unicode="&#xec;" horiz-adv-x="127" 
d="M82 0v700h-37v-700h37zM9 835l68 -98h-27l-88 98h47z" />
    <glyph glyph-name="iacute" unicode="&#xed;" horiz-adv-x="127" 
d="M82 0v700h-37v-700h37zM118 835h47l-88 -98h-27z" />
    <glyph glyph-name="icircumflex" unicode="&#xee;" horiz-adv-x="127" 
d="M83 0v700h-37v-700h37zM40 835h47l68 -98h-27l-64 72l-65 -72h-27z" />
    <glyph glyph-name="idieresis" unicode="&#xef;" horiz-adv-x="128" 
d="M82 0v700h-37v-700h37zM17 784q-8 8 -20 8q-11 0 -19.5 -8t-8.5 -20q0 -11 8.5 -19t19.5 -8q12 0 20 8t8 19q0 12 -8 20zM151 784q-8 8 -20 8q-11 0 -19.5 -8t-8.5 -20q0 -11 8.5 -19t19.5 -8q12 0 20 8t8 19q0 12 -8 20z" />
    <glyph glyph-name="eth" unicode="&#xf0;" horiz-adv-x="360" 
d="M332 550v-404q0 -74 -43 -114q-37 -32 -101 -32h-143v331h-40v37h40v332h143q64 0 101 -35q43 -39 43 -115zM295 550q0 59 -31 88q-28 25 -76 25h-106v-295h80v-37h-80v-294h106q107 0 107 109v404z" />
    <glyph glyph-name="ntilde" unicode="&#xf1;" horiz-adv-x="387" 
d="M342 700v-700h-20l-240 570v-570h-37v700h20l240 -570v570h37zM146 769q17 0 40 -14q28 -18 55 -18q41 0 78 46l-29 24q-24 -32 -50 -32q-17 0 -35 11q-34 20 -59 20q-40 0 -79 -47l29 -23q27 33 50 33z" />
    <glyph glyph-name="ograve" unicode="&#xf2;" 
d="M278 26q43 40 43 115v418q0 75 -43 115q-37 35 -101 35q-63 0 -100 -35q-43 -39 -43 -115v-418q0 -76 43 -115q37 -35 100 -35q64 0 101 35zM253 647q31 -29 31 -88v-418q0 -59 -31 -88q-26 -25 -76 -25q-49 0 -75 25q-31 28 -31 88v418q0 60 31 88q28 25 75 25
q48 0 76 -25zM122 835l68 -98h-27l-88 98h47z" />
    <glyph glyph-name="oacute" unicode="&#xf3;" 
d="M278 26q43 40 43 115v418q0 75 -43 115q-37 35 -101 35q-63 0 -100 -35q-43 -39 -43 -115v-418q0 -76 43 -115q37 -35 100 -35q64 0 101 35zM253 647q31 -29 31 -88v-418q0 -59 -31 -88q-26 -25 -76 -25q-49 0 -75 25q-31 28 -31 88v418q0 60 31 88q28 25 75 25
q48 0 76 -25zM231 835h47l-88 -98h-27z" />
    <glyph glyph-name="ocircumflex" unicode="&#xf4;" 
d="M278 26q43 40 43 115v418q0 75 -43 115q-37 35 -101 35q-63 0 -100 -35q-43 -39 -43 -115v-418q0 -76 43 -115q37 -35 100 -35q64 0 101 35zM253 647q31 -29 31 -88v-418q0 -59 -31 -88q-26 -25 -76 -25q-49 0 -75 25q-31 28 -31 88v418q0 60 31 88q28 25 75 25
q48 0 76 -25zM153 835h47l68 -98h-27l-64 72l-65 -72h-27z" />
    <glyph glyph-name="otilde" unicode="&#xf5;" 
d="M278 26q43 40 43 115v418q0 75 -43 115q-37 35 -101 35q-63 0 -100 -35q-43 -39 -43 -115v-418q0 -76 43 -115q37 -35 100 -35q64 0 101 35zM253 647q31 -29 31 -88v-418q0 -59 -31 -88q-26 -25 -76 -25q-49 0 -75 25q-31 28 -31 88v418q0 60 31 88q28 25 75 25
q48 0 76 -25zM131 769q17 0 40 -14q29 -18 55 -18q41 0 78 46l-29 24q-24 -32 -50 -32q-17 0 -35 11q-34 20 -59 20q-40 0 -79 -47l29 -23q27 33 50 33z" />
    <glyph glyph-name="odieresis" unicode="&#xf6;" 
d="M278 26q43 40 43 115v418q0 75 -43 115q-37 35 -101 35q-63 0 -100 -35q-43 -39 -43 -115v-418q0 -76 43 -115q37 -35 100 -35q64 0 101 35zM253 647q31 -29 31 -88v-418q0 -59 -31 -88q-26 -25 -76 -25q-49 0 -75 25q-31 28 -31 88v418q0 60 31 88q28 25 75 25
q48 0 76 -25zM130 784q-8 8 -20 8q-11 0 -19.5 -8t-8.5 -20q0 -11 8.5 -19t19.5 -8q12 0 20 8t8 19q0 12 -8 20zM264 784q-8 8 -20 8q-11 0 -19.5 -8t-8.5 -20q0 -11 8.5 -19t19.5 -8q12 0 20 8t8 19q0 12 -8 20z" />
    <glyph glyph-name="divide" unicode="&#xf7;" horiz-adv-x="396" 
d="M361 340v37h-326v-37h326zM218 481q-8 8 -20 8q-11 0 -19.5 -8t-8.5 -20q0 -11 8.5 -19.5t19.5 -8.5q12 0 20 8.5t8 19.5q0 12 -8 20zM218 276q-8 8 -20 8q-11 0 -19.5 -8t-8.5 -20q0 -11 8.5 -19.5t19.5 -8.5q12 0 20 8.5t8 19.5q0 12 -8 20z" />
    <glyph glyph-name="oslash" unicode="&#xf8;" horiz-adv-x="357" 
d="M310 629q12 -30 12 -70v-418q0 -75 -42 -116q-39 -34 -101 -34t-101 34l-6 7l-19 -48l-35 14l29 73q-11 31 -11 70v418q0 76 42 115q38 35 101 35t101 -35l6 -6l19 47l34 -14zM73 134l197 493q-5 10 -15 20q-26 25 -76 25t-76 -25q-30 -28 -30 -88v-418v-7zM285 565
l-197 -493q7 -12 15 -19q26 -25 76 -25t76 25q30 27 30 88v418v6z" />
    <glyph glyph-name="ugrave" unicode="&#xf9;" horiz-adv-x="352" 
d="M277 26q42 39 42 115v559h-37v-559q0 -59 -30 -88q-28 -25 -76 -25q-50 0 -76 25q-30 29 -30 88v559h-37v-559q0 -76 42 -115q38 -35 101 -35t101 35zM117 835l68 -98h-27l-88 98h47z" />
    <glyph glyph-name="uacute" unicode="&#xfa;" horiz-adv-x="352" 
d="M277 26q42 39 42 115v559h-37v-559q0 -59 -30 -88q-28 -25 -76 -25q-50 0 -76 25q-30 29 -30 88v559h-37v-559q0 -76 42 -115q38 -35 101 -35t101 35zM225 835h47l-88 -98h-27z" />
    <glyph glyph-name="ucircumflex" unicode="&#xfb;" horiz-adv-x="352" 
d="M277 26q42 39 42 115v559h-37v-559q0 -59 -30 -88q-28 -25 -76 -25q-50 0 -76 25q-30 29 -30 88v559h-37v-559q0 -76 42 -115q38 -35 101 -35t101 35zM153 835h47l68 -98h-27l-64 72l-65 -72h-27z" />
    <glyph glyph-name="udieresis" unicode="&#xfc;" horiz-adv-x="352" 
d="M277 26q42 39 42 115v559h-37v-559q0 -59 -30 -88q-28 -25 -76 -25q-50 0 -76 25q-30 29 -30 88v559h-37v-559q0 -76 42 -115q38 -35 101 -35t101 35zM130 784q-8 8 -20 8q-11 0 -19.5 -8t-8.5 -20q0 -11 8.5 -19t19.5 -8q12 0 20 8t8 19q0 12 -8 20zM264 784q-8 8 -20 8
q-11 0 -19.5 -8t-8.5 -20q0 -11 8.5 -19t19.5 -8q12 0 20 8t8 19q0 12 -8 20z" />
    <glyph glyph-name="yacute" unicode="&#xfd;" horiz-adv-x="356" 
d="M178 302l130 398h39l-150 -461v-239h-37v239l-150 461h39zM233 835h47l-88 -98h-27z" />
    <glyph glyph-name="thorn" unicode="&#xfe;" horiz-adv-x="350" 
d="M77 605h106q48 0 76 -25q31 -29 31 -88v-89q0 -59 -31 -88q-28 -25 -76 -25h-106v315zM77 253h106q63 0 101 35q43 40 43 115v89q0 75 -43 115q-38 35 -101 35h-106v58h-37v-700h37v253z" />
    <glyph glyph-name="ydieresis" unicode="&#xff;" horiz-adv-x="356" 
d="M178 302l130 398h39l-150 -461v-239h-37v239l-150 461h39zM131 784q-8 8 -20 8q-11 0 -19.5 -8t-8.5 -20q0 -11 8.5 -19t19.5 -8q12 0 20 8t8 19q0 12 -8 20zM265 784q-8 8 -20 8q-11 0 -19.5 -8t-8.5 -20q0 -11 8.5 -19t19.5 -8q12 0 20 8t8 19q0 12 -8 20z" />
    <glyph glyph-name="Amacron" unicode="&#x100;" horiz-adv-x="382" 
d="M327 0l-40 184h-193l-40 -184h-38l156 700h37l156 -700h-38zM103 221h175l-87 402zM354 737v37h-326v-37h326z" />
    <glyph glyph-name="amacron" unicode="&#x101;" horiz-adv-x="382" 
d="M327 0l-40 184h-193l-40 -184h-38l156 700h37l156 -700h-38zM103 221h175l-87 402zM354 737v37h-326v-37h326z" />
    <glyph glyph-name="Abreve" unicode="&#x102;" horiz-adv-x="382" 
d="M327 0l-40 184h-193l-40 -184h-38l156 700h37l156 -700h-38zM103 221h175l-87 402zM289 835q0 -40 -28.5 -69t-69.5 -29q-40 0 -69 29t-29 69h37q0 -25 18 -43t43 -18q26 0 43.5 18t17.5 43h37z" />
    <glyph glyph-name="abreve" unicode="&#x103;" horiz-adv-x="382" 
d="M327 0l-40 184h-193l-40 -184h-38l156 700h37l156 -700h-38zM103 221h175l-87 402zM289 835q0 -40 -28.5 -69t-69.5 -29q-40 0 -69 29t-29 69h37q0 -25 18 -43t43 -18q26 0 43.5 18t17.5 43h37z" />
    <glyph glyph-name="Aogonek" unicode="&#x104;" horiz-adv-x="382" 
d="M319 -76q15 -5 30 -5h9v-38h-19q-36 0 -57.5 12t-21.5 36q0 36 68 71h-1l-40 184h-193l-40 -184h-38l156 700h37l156 -700q-21 -8 -41 -24t-20 -33q0 -14 15 -19zM103 221h175l-87 402z" />
    <glyph glyph-name="aogonek" unicode="&#x105;" horiz-adv-x="382" 
d="M319 -76q15 -5 30 -5h9v-38h-19q-36 0 -57.5 12t-21.5 36q0 36 68 71h-1l-40 184h-193l-40 -184h-38l156 700h37l156 -700q-21 -8 -41 -24t-20 -33q0 -14 15 -19zM103 221h175l-87 402z" />
    <glyph glyph-name="Cacute" unicode="&#x106;" horiz-adv-x="354" 
d="M278 26q42 39 42 115v101h-37v-101q0 -60 -30 -88q-26 -25 -76 -25t-76 25q-30 28 -30 88v418q0 60 30 88q26 25 76 25t76 -25q30 -28 30 -88v-69h37v69q0 76 -42 115q-38 35 -101 35t-101 -35q-42 -39 -42 -115v-418q0 -76 42 -115q38 -35 101 -35t101 35zM231 835h47
l-88 -98h-27z" />
    <glyph glyph-name="cacute" unicode="&#x107;" horiz-adv-x="354" 
d="M278 26q42 39 42 115v101h-37v-101q0 -60 -30 -88q-26 -25 -76 -25t-76 25q-30 28 -30 88v418q0 60 30 88q26 25 76 25t76 -25q30 -28 30 -88v-69h37v69q0 76 -42 115q-38 35 -101 35t-101 -35q-42 -39 -42 -115v-418q0 -76 42 -115q38 -35 101 -35t101 35zM231 835h47
l-88 -98h-27z" />
    <glyph glyph-name="Cdotaccent" unicode="&#x10a;" horiz-adv-x="354" 
d="M278 26q42 39 42 115v101h-37v-101q0 -60 -30 -88q-26 -25 -76 -25t-76 25q-30 28 -30 88v418q0 60 30 88q26 25 76 25t76 -25q30 -28 30 -88v-69h37v69q0 76 -42 115q-38 35 -101 35t-101 -35q-42 -39 -42 -115v-418q0 -76 42 -115q38 -35 101 -35t101 35zM197 784
q-8 8 -20 8q-11 0 -19.5 -8t-8.5 -20q0 -11 8.5 -19t19.5 -8q12 0 20 8t8 19q0 12 -8 20z" />
    <glyph glyph-name="cdotaccent" unicode="&#x10b;" horiz-adv-x="354" 
d="M278 26q42 39 42 115v101h-37v-101q0 -60 -30 -88q-26 -25 -76 -25t-76 25q-30 28 -30 88v418q0 60 30 88q26 25 76 25t76 -25q30 -28 30 -88v-69h37v69q0 76 -42 115q-38 35 -101 35t-101 -35q-42 -39 -42 -115v-418q0 -76 42 -115q38 -35 101 -35t101 35zM197 784
q-8 8 -20 8q-11 0 -19.5 -8t-8.5 -20q0 -11 8.5 -19t19.5 -8q12 0 20 8t8 19q0 12 -8 20z" />
    <glyph glyph-name="Ccaron" unicode="&#x10c;" horiz-adv-x="354" 
d="M278 26q42 39 42 115v101h-37v-101q0 -60 -30 -88q-26 -25 -76 -25t-76 25q-30 28 -30 88v418q0 60 30 88q26 25 76 25t76 -25q30 -28 30 -88v-69h37v69q0 76 -42 115q-38 35 -101 35t-101 -35q-42 -39 -42 -115v-418q0 -76 42 -115q38 -35 101 -35t101 35zM153 737
l-68 98h27l65 -72l64 72h27l-68 -98h-47z" />
    <glyph glyph-name="ccaron" unicode="&#x10d;" horiz-adv-x="354" 
d="M278 26q42 39 42 115v101h-37v-101q0 -60 -30 -88q-26 -25 -76 -25t-76 25q-30 28 -30 88v418q0 60 30 88q26 25 76 25t76 -25q30 -28 30 -88v-69h37v69q0 76 -42 115q-38 35 -101 35t-101 -35q-42 -39 -42 -115v-418q0 -76 42 -115q38 -35 101 -35t101 35zM153 737
l-68 98h27l65 -72l64 72h27l-68 -98h-47z" />
    <glyph glyph-name="Dcaron" unicode="&#x10e;" horiz-adv-x="354" 
d="M283 32q43 39 43 114v404q0 76 -42 115q-38 35 -101 35h-143v-700h143q63 0 100 32zM77 663h106q48 0 76 -25q30 -28 30 -88v-404q0 -109 -106 -109h-106v626zM159 737l-68 98h27l65 -72l64 72h27l-68 -98h-47z" />
    <glyph glyph-name="dcaron" unicode="&#x10f;" horiz-adv-x="354" 
d="M283 32q43 39 43 114v404q0 76 -42 115q-38 35 -101 35h-143v-700h143q63 0 100 32zM77 663h106q48 0 76 -25q30 -28 30 -88v-404q0 -109 -106 -109h-106v626zM159 737l-68 98h27l65 -72l64 72h27l-68 -98h-47z" />
    <glyph glyph-name="Dcroat" unicode="&#x110;" horiz-adv-x="360" 
d="M332 550v-404q0 -74 -43 -114q-37 -32 -101 -32h-143v331h-40v37h40v332h143q64 0 101 -35q43 -39 43 -115zM295 550q0 59 -31 88q-28 25 -76 25h-106v-295h80v-37h-80v-294h106q107 0 107 109v404z" />
    <glyph glyph-name="dcroat" unicode="&#x111;" horiz-adv-x="360" 
d="M332 550v-404q0 -74 -43 -114q-37 -32 -101 -32h-143v331h-40v37h40v332h143q64 0 101 -35q43 -39 43 -115zM295 550q0 59 -31 88q-28 25 -76 25h-106v-295h80v-37h-80v-294h106q107 0 107 109v404z" />
    <glyph glyph-name="Emacron" unicode="&#x112;" horiz-adv-x="319" 
d="M291 663h-214v-286h151v-37h-151v-303h214v-37h-251v700h251v-37zM329 737v37h-326v-37h326z" />
    <glyph glyph-name="emacron" unicode="&#x113;" horiz-adv-x="319" 
d="M291 663h-214v-286h151v-37h-151v-303h214v-37h-251v700h251v-37zM329 737v37h-326v-37h326z" />
    <glyph glyph-name="Edotaccent" unicode="&#x116;" horiz-adv-x="319" 
d="M291 663h-214v-286h151v-37h-151v-303h214v-37h-251v700h251v-37zM186 784q-8 8 -20 8q-11 0 -19.5 -8t-8.5 -20q0 -11 8.5 -19t19.5 -8q12 0 20 8t8 19q0 12 -8 20z" />
    <glyph glyph-name="edotaccent" unicode="&#x117;" horiz-adv-x="319" 
d="M291 663h-214v-286h151v-37h-151v-303h214v-37h-251v700h251v-37zM186 784q-8 8 -20 8q-11 0 -19.5 -8t-8.5 -20q0 -11 8.5 -19t19.5 -8q12 0 20 8t8 19q0 12 -8 20z" />
    <glyph glyph-name="Eogonek" unicode="&#x118;" horiz-adv-x="319" 
d="M77 663v-286h151v-37h-151v-303h214v-37q-21 -8 -41 -24t-20 -33q0 -14 15 -19t30 -5h9v-38h-19q-36 0 -57.5 12t-21.5 36q0 36 68 71h-214v700h251v-37h-214z" />
    <glyph glyph-name="eogonek" unicode="&#x119;" horiz-adv-x="319" 
d="M77 663v-286h151v-37h-151v-303h214v-37q-21 -8 -41 -24t-20 -33q0 -14 15 -19t30 -5h9v-38h-19q-36 0 -57.5 12t-21.5 36q0 36 68 71h-214v700h251v-37h-214z" />
    <glyph glyph-name="Ecaron" unicode="&#x11a;" horiz-adv-x="319" 
d="M291 663h-214v-286h151v-37h-151v-303h214v-37h-251v700h251v-37zM142 737l-68 98h27l65 -72l64 72h27l-68 -98h-47z" />
    <glyph glyph-name="ecaron" unicode="&#x11b;" horiz-adv-x="319" 
d="M291 663h-214v-286h151v-37h-151v-303h214v-37h-251v700h251v-37zM142 737l-68 98h27l65 -72l64 72h27l-68 -98h-47z" />
    <glyph glyph-name="Gbreve" unicode="&#x11e;" 
d="M278 26q43 39 43 115v228h-143v-37h106v-191q0 -59 -31 -88q-26 -25 -76 -25q-49 0 -75 25q-31 28 -31 88v418q0 60 31 88q28 25 75 25q48 0 76 -25q31 -29 31 -88v-69h37v69q0 76 -43 115q-37 35 -101 35q-63 0 -100 -35q-43 -39 -43 -115v-418q0 -76 43 -115
q37 -35 100 -35q64 0 101 35zM275 835q0 -40 -28.5 -69t-69.5 -29q-40 0 -69 29t-29 69h37q0 -25 18 -43t43 -18q26 0 43.5 18t17.5 43h37z" />
    <glyph glyph-name="gbreve" unicode="&#x11f;" 
d="M278 26q43 39 43 115v228h-143v-37h106v-191q0 -59 -31 -88q-26 -25 -76 -25q-49 0 -75 25q-31 28 -31 88v418q0 60 31 88q28 25 75 25q48 0 76 -25q31 -29 31 -88v-69h37v69q0 76 -43 115q-37 35 -101 35q-63 0 -100 -35q-43 -39 -43 -115v-418q0 -76 43 -115
q37 -35 100 -35q64 0 101 35zM275 835q0 -40 -28.5 -69t-69.5 -29q-40 0 -69 29t-29 69h37q0 -25 18 -43t43 -18q26 0 43.5 18t17.5 43h37z" />
    <glyph glyph-name="Gdotaccent" unicode="&#x120;" 
d="M278 26q43 39 43 115v228h-143v-37h106v-191q0 -59 -31 -88q-26 -25 -76 -25q-49 0 -75 25q-31 28 -31 88v418q0 60 31 88q28 25 75 25q48 0 76 -25q31 -29 31 -88v-69h37v69q0 76 -43 115q-37 35 -101 35q-63 0 -100 -35q-43 -39 -43 -115v-418q0 -76 43 -115
q37 -35 100 -35q64 0 101 35zM197 784q-8 8 -20 8q-11 0 -19.5 -8t-8.5 -20q0 -11 8.5 -19t19.5 -8q12 0 20 8t8 19q0 12 -8 20z" />
    <glyph glyph-name="gdotaccent" unicode="&#x121;" 
d="M278 26q43 39 43 115v228h-143v-37h106v-191q0 -59 -31 -88q-26 -25 -76 -25q-49 0 -75 25q-31 28 -31 88v418q0 60 31 88q28 25 75 25q48 0 76 -25q31 -29 31 -88v-69h37v69q0 76 -43 115q-37 35 -101 35q-63 0 -100 -35q-43 -39 -43 -115v-418q0 -76 43 -115
q37 -35 100 -35q64 0 101 35zM197 784q-8 8 -20 8q-11 0 -19.5 -8t-8.5 -20q0 -11 8.5 -19t19.5 -8q12 0 20 8t8 19q0 12 -8 20z" />
    <glyph glyph-name="Gcommaaccent" unicode="&#x122;" 
d="M278 26q43 39 43 115v228h-143v-37h106v-191q0 -59 -31 -88q-26 -25 -76 -25q-49 0 -75 25q-31 28 -31 88v418q0 60 31 88q28 25 75 25q48 0 76 -25q31 -29 31 -88v-69h37v69q0 76 -43 115q-37 35 -101 35q-63 0 -100 -35q-43 -39 -43 -115v-418q0 -76 43 -115
q37 -35 100 -35q64 0 101 35zM198 -94q-6 -13 -19 -30h-20l6 15l2 8q0 5 -4 9q-13 10 -13 24q0 12 8.5 20t19.5 8t19.5 -8.5t8.5 -19.5q0 -12 -8 -26z" />
    <glyph glyph-name="gcommaaccent" unicode="&#x123;" 
d="M278 26q43 39 43 115v228h-143v-37h106v-191q0 -59 -31 -88q-26 -25 -76 -25q-49 0 -75 25q-31 28 -31 88v418q0 60 31 88q28 25 75 25q48 0 76 -25q31 -29 31 -88v-69h37v69q0 76 -43 115q-37 35 -101 35q-63 0 -100 -35q-43 -39 -43 -115v-418q0 -76 43 -115
q37 -35 100 -35q64 0 101 35zM198 -94q-6 -13 -19 -30h-20l6 15l2 8q0 5 -4 9q-13 10 -13 24q0 12 8.5 20t19.5 8t19.5 -8.5t8.5 -19.5q0 -12 -8 -26z" />
    <glyph glyph-name="Hbar" unicode="&#x126;" horiz-adv-x="386" 
d="M336 700v-146h40v-37h-40v-517h-37v340h-212v-340h-37v517h-40v37h40v146h37v-146h212v146h37zM299 377v140h-212v-140h212z" />
    <glyph glyph-name="hbar" unicode="&#x127;" horiz-adv-x="386" 
d="M336 700v-146h40v-37h-40v-517h-37v340h-212v-340h-37v517h-40v37h40v146h37v-146h212v146h37zM299 377v140h-212v-140h212z" />
    <glyph glyph-name="Itilde" unicode="&#x128;" horiz-adv-x="122" 
d="M82 0v700h-37v-700h37zM14 769q17 0 40 -14q28 -18 55 -18q41 0 78 46l-29 24q-24 -32 -50 -32q-17 0 -35 11q-34 20 -59 20q-40 0 -79 -47l29 -23q27 33 50 33z" />
    <glyph glyph-name="itilde" unicode="&#x129;" horiz-adv-x="122" 
d="M82 0v700h-37v-700h37zM14 769q17 0 40 -14q28 -18 55 -18q41 0 78 46l-29 24q-24 -32 -50 -32q-17 0 -35 11q-34 20 -59 20q-40 0 -79 -47l29 -23q27 33 50 33z" />
    <glyph glyph-name="Imacron" unicode="&#x12a;" horiz-adv-x="126" 
d="M82 0v700h-37v-700h37zM226 737v37h-326v-37h326z" />
    <glyph glyph-name="imacron" unicode="&#x12b;" horiz-adv-x="126" 
d="M82 0v700h-37v-700h37zM226 737v37h-326v-37h326z" />
    <glyph glyph-name="Iogonek" unicode="&#x12e;" horiz-adv-x="127" 
d="M82 700v-700q-21 -8 -41 -24t-20 -33q0 -14 15 -19t30 -5h9v-38h-19q-36 0 -57.5 12t-21.5 36q0 36 68 71v700h37z" />
    <glyph glyph-name="iogonek" unicode="&#x12f;" horiz-adv-x="127" 
d="M82 700v-700q-21 -8 -41 -24t-20 -33q0 -14 15 -19t30 -5h9v-38h-19q-36 0 -57.5 12t-21.5 36q0 36 68 71v700h37z" />
    <glyph glyph-name="Idotaccent" unicode="&#x130;" horiz-adv-x="128" 
d="M82 0v700h-37v-700h37zM84 784q-8 8 -20 8q-11 0 -19.5 -8t-8.5 -20q0 -11 8.5 -19t19.5 -8q12 0 20 8t8 19q0 12 -8 20z" />
    <glyph glyph-name="dotlessi" unicode="&#x131;" horiz-adv-x="127" 
d="M82 0v700h-37v-700h37z" />
    <glyph glyph-name="Kcommaaccent" unicode="&#x136;" horiz-adv-x="361" 
d="M343 700l-146 -332l146 -368h-39l-128 321l-99 -224v-97h-37v700h37v-522l226 522h40zM211 -94q-6 -13 -19 -30h-20l6 15l2 8q0 5 -4 9q-13 10 -13 24q0 12 8.5 20t19.5 8t19.5 -8.5t8.5 -19.5q0 -12 -8 -26z" />
    <glyph glyph-name="kcommaaccent" unicode="&#x137;" horiz-adv-x="361" 
d="M343 700l-146 -332l146 -368h-39l-128 321l-99 -224v-97h-37v700h37v-522l226 522h40zM211 -94q-6 -13 -19 -30h-20l6 15l2 8q0 5 -4 9q-13 10 -13 24q0 12 8.5 20t19.5 8t19.5 -8.5t8.5 -19.5q0 -12 -8 -26z" />
    <glyph glyph-name="Lacute" unicode="&#x139;" horiz-adv-x="309" 
d="M291 0v37h-214v663h-37v-700h251zM113 835h47l-88 -98h-27z" />
    <glyph glyph-name="lacute" unicode="&#x13a;" horiz-adv-x="309" 
d="M291 0v37h-214v663h-37v-700h251zM113 835h47l-88 -98h-27z" />
    <glyph glyph-name="Lcommaaccent" unicode="&#x13b;" horiz-adv-x="309" 
d="M291 0v37h-214v663h-37v-700h251zM186 -94q-6 -13 -19 -30h-20l6 15l2 8q0 5 -4 9q-13 10 -13 24q0 12 8.5 20t19.5 8t19.5 -8.5t8.5 -19.5q0 -12 -8 -26z" />
    <glyph glyph-name="lcommaaccent" unicode="&#x13c;" horiz-adv-x="309" 
d="M291 0v37h-214v663h-37v-700h251zM186 -94q-6 -13 -19 -30h-20l6 15l2 8q0 5 -4 9q-13 10 -13 24q0 12 8.5 20t19.5 8t19.5 -8.5t8.5 -19.5q0 -12 -8 -26z" />
    <glyph glyph-name="Lcaron" unicode="&#x13d;" horiz-adv-x="309" 
d="M291 0v37h-214v663h-37v-700h251zM255 646q-6 -13 -19 -30h-20l6 15l2 8q0 5 -4 9q-13 10 -13 24q0 12 8.5 20t19.5 8t19.5 -8.5t8.5 -19.5q0 -12 -8 -26z" />
    <glyph glyph-name="lcaron" unicode="&#x13e;" horiz-adv-x="309" 
d="M291 0v37h-214v663h-37v-700h251zM255 646q-6 -13 -19 -30h-20l6 15l2 8q0 5 -4 9q-13 10 -13 24q0 12 8.5 20t19.5 8t19.5 -8.5t8.5 -19.5q0 -12 -8 -26z" />
    <glyph glyph-name="Lslash" unicode="&#x141;" horiz-adv-x="309" 
d="M77 37h214v-37h-251v220l-57 -61v54l57 61v426h37v-387l128 138v-55l-128 -137v-222z" />
    <glyph glyph-name="lslash" unicode="&#x142;" horiz-adv-x="309" 
d="M77 37h214v-37h-251v220l-57 -61v54l57 61v426h37v-387l128 138v-55l-128 -137v-222z" />
    <glyph glyph-name="Nacute" unicode="&#x143;" horiz-adv-x="387" 
d="M342 700v-700h-20l-240 570v-570h-37v700h20l240 -570v570h37zM248 835h47l-88 -98h-27z" />
    <glyph glyph-name="nacute" unicode="&#x144;" horiz-adv-x="387" 
d="M342 700v-700h-20l-240 570v-570h-37v700h20l240 -570v570h37zM248 835h47l-88 -98h-27z" />
    <glyph glyph-name="Ncommaaccent" unicode="&#x145;" horiz-adv-x="387" 
d="M342 700v-700h-20l-240 570v-570h-37v700h20l240 -570v570h37zM213 -94q-6 -13 -19 -30h-20l6 15l2 8q0 5 -4 9q-13 10 -13 24q0 12 8.5 20t19.5 8t19.5 -8.5t8.5 -19.5q0 -12 -8 -26z" />
    <glyph glyph-name="ncommaaccent" unicode="&#x146;" horiz-adv-x="387" 
d="M342 700v-700h-20l-240 570v-570h-37v700h20l240 -570v570h37zM213 -94q-6 -13 -19 -30h-20l6 15l2 8q0 5 -4 9q-13 10 -13 24q0 12 8.5 20t19.5 8t19.5 -8.5t8.5 -19.5q0 -12 -8 -26z" />
    <glyph glyph-name="Ncaron" unicode="&#x147;" horiz-adv-x="387" 
d="M342 700v-700h-20l-240 570v-570h-37v700h20l240 -570v570h37zM170 737l-68 98h27l65 -72l64 72h27l-68 -98h-47z" />
    <glyph glyph-name="ncaron" unicode="&#x148;" horiz-adv-x="387" 
d="M342 700v-700h-20l-240 570v-570h-37v700h20l240 -570v570h37zM170 737l-68 98h27l65 -72l64 72h27l-68 -98h-47z" />
    <glyph glyph-name="Eng" unicode="&#x14a;" horiz-adv-x="387" 
d="M342 -42q0 -25 -17.5 -42.5t-42.5 -17.5v37q9 0 16 6.5t7 16.5v42l-223 570v-570h-37v700h20l240 -594v594h37v-742z" />
    <glyph glyph-name="eng" unicode="&#x14b;" horiz-adv-x="387" 
d="M342 -42q0 -25 -17.5 -42.5t-42.5 -17.5v37q9 0 16 6.5t7 16.5v42l-223 570v-570h-37v700h20l240 -594v594h37v-742z" />
    <glyph glyph-name="Omacron" unicode="&#x14c;" 
d="M278 26q43 40 43 115v418q0 75 -43 115q-37 35 -101 35q-63 0 -100 -35q-43 -39 -43 -115v-418q0 -76 43 -115q37 -35 100 -35q64 0 101 35zM253 647q31 -29 31 -88v-418q0 -59 -31 -88q-26 -25 -76 -25q-49 0 -75 25q-31 28 -31 88v418q0 60 31 88q28 25 75 25
q48 0 76 -25zM341 737v37h-327v-37h327z" />
    <glyph glyph-name="omacron" unicode="&#x14d;" 
d="M278 26q43 40 43 115v418q0 75 -43 115q-37 35 -101 35q-63 0 -100 -35q-43 -39 -43 -115v-418q0 -76 43 -115q37 -35 100 -35q64 0 101 35zM253 647q31 -29 31 -88v-418q0 -59 -31 -88q-26 -25 -76 -25q-49 0 -75 25q-31 28 -31 88v418q0 60 31 88q28 25 75 25
q48 0 76 -25zM341 737v37h-327v-37h327z" />
    <glyph glyph-name="Ohungarumlaut" unicode="&#x150;" 
d="M278 26q43 40 43 115v418q0 75 -43 115q-37 35 -101 35q-63 0 -100 -35q-43 -39 -43 -115v-418q0 -76 43 -115q37 -35 100 -35q64 0 101 35zM253 647q31 -29 31 -88v-418q0 -59 -31 -88q-26 -25 -76 -25q-49 0 -75 25q-31 28 -31 88v418q0 60 31 88q28 25 75 25
q48 0 76 -25zM178 835h47l-88 -98h-27zM286 835h47l-88 -98h-27z" />
    <glyph glyph-name="ohungarumlaut" unicode="&#x151;" 
d="M278 26q43 40 43 115v418q0 75 -43 115q-37 35 -101 35q-63 0 -100 -35q-43 -39 -43 -115v-418q0 -76 43 -115q37 -35 100 -35q64 0 101 35zM253 647q31 -29 31 -88v-418q0 -59 -31 -88q-26 -25 -76 -25q-49 0 -75 25q-31 28 -31 88v418q0 60 31 88q28 25 75 25
q48 0 76 -25zM178 835h47l-88 -98h-27zM286 835h47l-88 -98h-27z" />
    <glyph glyph-name="OE" unicode="&#x152;" horiz-adv-x="495" 
d="M253 663v-286h152v-37h-152v-303h214v-37h-290q-63 0 -101 35q-42 39 -42 115v400q0 76 42 115q38 35 101 35h290v-37h-214zM216 37v626h-39q-48 0 -76 -25q-30 -28 -30 -88v-400q0 -60 30 -88q26 -25 76 -25h39z" />
    <glyph glyph-name="oe" unicode="&#x153;" horiz-adv-x="495" 
d="M253 663v-286h152v-37h-152v-303h214v-37h-290q-63 0 -101 35q-42 39 -42 115v400q0 76 42 115q38 35 101 35h290v-37h-214zM216 37v626h-39q-48 0 -76 -25q-30 -28 -30 -88v-400q0 -60 30 -88q26 -25 76 -25h39z" />
    <glyph glyph-name="Racute" unicode="&#x154;" 
d="M327 0h-39l-98 311h-6h-107v-311h-37v700h144q63 0 101 -35q42 -39 42 -115v-89q0 -76 -42 -115q-24 -21 -58 -30zM259 373q31 28 31 88v89q0 60 -31 88q-27 25 -75 25h-107v-315h107q48 0 75 25zM239 835h47l-88 -98h-27z" />
    <glyph glyph-name="racute" unicode="&#x155;" 
d="M327 0h-39l-98 311h-6h-107v-311h-37v700h144q63 0 101 -35q42 -39 42 -115v-89q0 -76 -42 -115q-24 -21 -58 -30zM259 373q31 28 31 88v89q0 60 -31 88q-27 25 -75 25h-107v-315h107q48 0 75 25zM239 835h47l-88 -98h-27z" />
    <glyph glyph-name="Rcommaaccent" unicode="&#x156;" 
d="M327 0h-39l-98 311h-6h-107v-311h-37v700h144q63 0 101 -35q42 -39 42 -115v-89q0 -76 -42 -115q-24 -21 -58 -30zM259 373q31 28 31 88v89q0 60 -31 88q-27 25 -75 25h-107v-315h107q48 0 75 25zM204 -94q-6 -13 -19 -30h-20l6 15l2 8q0 5 -4 9q-13 10 -13 24
q0 12 8.5 20t19.5 8t19.5 -8.5t8.5 -19.5q0 -12 -8 -26z" />
    <glyph glyph-name="rcommaaccent" unicode="&#x157;" 
d="M327 0h-39l-98 311h-6h-107v-311h-37v700h144q63 0 101 -35q42 -39 42 -115v-89q0 -76 -42 -115q-24 -21 -58 -30zM259 373q31 28 31 88v89q0 60 -31 88q-27 25 -75 25h-107v-315h107q48 0 75 25zM204 -94q-6 -13 -19 -30h-20l6 15l2 8q0 5 -4 9q-13 10 -13 24
q0 12 8.5 20t19.5 8t19.5 -8.5t8.5 -19.5q0 -12 -8 -26z" />
    <glyph glyph-name="Rcaron" unicode="&#x158;" 
d="M327 0h-39l-98 311h-6h-107v-311h-37v700h144q63 0 101 -35q42 -39 42 -115v-89q0 -76 -42 -115q-24 -21 -58 -30zM259 373q31 28 31 88v89q0 60 -31 88q-27 25 -75 25h-107v-315h107q48 0 75 25zM160 737l-68 98h27l65 -72l64 72h27l-68 -98h-47z" />
    <glyph glyph-name="rcaron" unicode="&#x159;" 
d="M327 0h-39l-98 311h-6h-107v-311h-37v700h144q63 0 101 -35q42 -39 42 -115v-89q0 -76 -42 -115q-24 -21 -58 -30zM259 373q31 28 31 88v89q0 60 -31 88q-27 25 -75 25h-107v-315h107q48 0 75 25zM160 737l-68 98h27l65 -72l64 72h27l-68 -98h-47z" />
    <glyph glyph-name="Sacute" unicode="&#x15a;" horiz-adv-x="347" 
d="M275 26q42 39 42 115v49q0 134 -135 193q-24 10 -47 24t-45.5 47t-22.5 85v20q0 59 31 88q26 25 76 25t75 -25q31 -28 31 -88v-68h37v68q0 76 -42 115q-38 35 -101 35q-64 0 -101 -35q-43 -40 -43 -115v-20q0 -89 46 -131t91 -59q37 -15 75 -51t38 -108v-49
q0 -60 -31 -88q-27 -25 -75 -25q-50 0 -76 25q-31 29 -31 88v102h-37v-102q0 -75 43 -115q37 -35 101 -35q63 0 101 35zM229 835h47l-88 -98h-27z" />
    <glyph glyph-name="sacute" unicode="&#x15b;" horiz-adv-x="347" 
d="M275 26q42 39 42 115v49q0 134 -135 193q-24 10 -47 24t-45.5 47t-22.5 85v20q0 59 31 88q26 25 76 25t75 -25q31 -28 31 -88v-68h37v68q0 76 -42 115q-38 35 -101 35q-64 0 -101 -35q-43 -40 -43 -115v-20q0 -89 46 -131t91 -59q37 -15 75 -51t38 -108v-49
q0 -60 -31 -88q-27 -25 -75 -25q-50 0 -76 25q-31 29 -31 88v102h-37v-102q0 -75 43 -115q37 -35 101 -35q63 0 101 35zM229 835h47l-88 -98h-27z" />
    <glyph glyph-name="Scedilla" unicode="&#x15e;" horiz-adv-x="347" 
d="M280 491v68q0 60 -31 88q-25 25 -75 25t-76 -25q-31 -29 -31 -88v-20q0 -52 22.5 -85t45.5 -47t47 -24q135 -59 135 -193v-49q0 -76 -42 -115q-29 -28 -79 -34l3 -4l3 -2q14 -12 22.5 -23t8.5 -31q0 -25 -17.5 -43t-42.5 -18t-43 18t-18 43h37q0 -10 7 -17t17 -7t16.5 7
t6.5 17q0 8 -3.5 12.5t-12.5 11.5l-3 2q-17 15 -21 34q-50 4 -83 34q-43 40 -43 115v102h37v-102q0 -59 31 -88q26 -25 76 -25q48 0 75 25q31 28 31 88v49q0 72 -38 108t-75 51q-45 17 -91 59t-46 131v20q0 75 43 115q37 35 101 35q63 0 101 -35q42 -39 42 -115v-68h-37z
" />
    <glyph glyph-name="scedilla" unicode="&#x15f;" horiz-adv-x="347" 
d="M280 491v68q0 60 -31 88q-25 25 -75 25t-76 -25q-31 -29 -31 -88v-20q0 -52 22.5 -85t45.5 -47t47 -24q135 -59 135 -193v-49q0 -76 -42 -115q-29 -28 -79 -34l3 -4l3 -2q14 -12 22.5 -23t8.5 -31q0 -25 -17.5 -43t-42.5 -18t-43 18t-18 43h37q0 -10 7 -17t17 -7t16.5 7
t6.5 17q0 8 -3.5 12.5t-12.5 11.5l-3 2q-17 15 -21 34q-50 4 -83 34q-43 40 -43 115v102h37v-102q0 -59 31 -88q26 -25 76 -25q48 0 75 25q31 28 31 88v49q0 72 -38 108t-75 51q-45 17 -91 59t-46 131v20q0 75 43 115q37 35 101 35q63 0 101 -35q42 -39 42 -115v-68h-37z
" />
    <glyph glyph-name="Scaron" unicode="&#x160;" horiz-adv-x="347" 
d="M275 26q42 39 42 115v49q0 134 -135 193q-24 10 -47 24t-45.5 47t-22.5 85v20q0 59 31 88q26 25 76 25t75 -25q31 -28 31 -88v-68h37v68q0 76 -42 115q-38 35 -101 35q-64 0 -101 -35q-43 -40 -43 -115v-20q0 -89 46 -131t91 -59q37 -15 75 -51t38 -108v-49
q0 -60 -31 -88q-27 -25 -75 -25q-50 0 -76 25q-31 29 -31 88v102h-37v-102q0 -75 43 -115q37 -35 101 -35q63 0 101 35zM149 737l-68 98h27l65 -72l64 72h27l-68 -98h-47z" />
    <glyph glyph-name="scaron" unicode="&#x161;" horiz-adv-x="347" 
d="M275 26q42 39 42 115v49q0 134 -135 193q-24 10 -47 24t-45.5 47t-22.5 85v20q0 59 31 88q26 25 76 25t75 -25q31 -28 31 -88v-68h37v68q0 76 -42 115q-38 35 -101 35q-64 0 -101 -35q-43 -40 -43 -115v-20q0 -89 46 -131t91 -59q37 -15 75 -51t38 -108v-49
q0 -60 -31 -88q-27 -25 -75 -25q-50 0 -76 25q-31 29 -31 88v102h-37v-102q0 -75 43 -115q37 -35 101 -35q63 0 101 35zM149 737l-68 98h27l65 -72l64 72h27l-68 -98h-47z" />
    <glyph glyph-name="uni0162" unicode="&#x162;" horiz-adv-x="327" 
d="M182 -2q0 -3 3 -6.5t7 -6.5q15 -12 23 -22.5t8 -30.5q0 -25 -17.5 -43t-42.5 -18t-43 18t-18 43h37q0 -10 7 -17t17 -7t16.5 7t6.5 17q0 8 -3.5 12.5t-12.5 11.5l-3 2q-11 9 -16.5 17t-5.5 25v663h-132v37h302v-37h-133v-665z" />
    <glyph glyph-name="uni0163" unicode="&#x163;" horiz-adv-x="327" 
d="M182 -2q0 -3 3 -6.5t7 -6.5q15 -12 23 -22.5t8 -30.5q0 -25 -17.5 -43t-42.5 -18t-43 18t-18 43h37q0 -10 7 -17t17 -7t16.5 7t6.5 17q0 8 -3.5 12.5t-12.5 11.5l-3 2q-11 9 -16.5 17t-5.5 25v663h-132v37h302v-37h-133v-665z" />
    <glyph glyph-name="Tcaron" unicode="&#x164;" horiz-adv-x="327" 
d="M315 700v-37h-133v-663h-37v663h-132v37h302zM140 737l-68 98h27l65 -72l64 72h27l-68 -98h-47z" />
    <glyph glyph-name="tcaron" unicode="&#x165;" horiz-adv-x="327" 
d="M315 700v-37h-133v-663h-37v663h-132v37h302zM140 737l-68 98h27l65 -72l64 72h27l-68 -98h-47z" />
    <glyph glyph-name="Tbar" unicode="&#x166;" horiz-adv-x="327" 
d="M315 663h-133v-196h60v-37h-60v-430h-37v430h-60v37h60v196h-132v37h302v-37z" />
    <glyph glyph-name="tbar" unicode="&#x167;" horiz-adv-x="327" 
d="M315 663h-133v-196h60v-37h-60v-430h-37v430h-60v37h60v196h-132v37h302v-37z" />
    <glyph glyph-name="Utilde" unicode="&#x168;" horiz-adv-x="352" 
d="M277 26q42 39 42 115v559h-37v-559q0 -59 -30 -88q-28 -25 -76 -25q-50 0 -76 25q-30 29 -30 88v559h-37v-559q0 -76 42 -115q38 -35 101 -35t101 35zM129 769q17 0 40 -14q28 -18 55 -18q41 0 78 46l-29 24q-24 -32 -50 -32q-17 0 -35 11q-34 20 -59 20q-40 0 -79 -47
l29 -23q27 33 50 33z" />
    <glyph glyph-name="utilde" unicode="&#x169;" horiz-adv-x="352" 
d="M277 26q42 39 42 115v559h-37v-559q0 -59 -30 -88q-28 -25 -76 -25q-50 0 -76 25q-30 29 -30 88v559h-37v-559q0 -76 42 -115q38 -35 101 -35t101 35zM129 769q17 0 40 -14q28 -18 55 -18q41 0 78 46l-29 24q-24 -32 -50 -32q-17 0 -35 11q-34 20 -59 20q-40 0 -79 -47
l29 -23q27 33 50 33z" />
    <glyph glyph-name="Umacron" unicode="&#x16a;" horiz-adv-x="352" 
d="M277 26q42 39 42 115v559h-37v-559q0 -59 -30 -88q-28 -25 -76 -25q-50 0 -76 25q-30 29 -30 88v559h-37v-559q0 -76 42 -115q38 -35 101 -35t101 35zM339 737v37h-326v-37h326z" />
    <glyph glyph-name="umacron" unicode="&#x16b;" horiz-adv-x="352" 
d="M277 26q42 39 42 115v559h-37v-559q0 -59 -30 -88q-28 -25 -76 -25q-50 0 -76 25q-30 29 -30 88v559h-37v-559q0 -76 42 -115q38 -35 101 -35t101 35zM339 737v37h-326v-37h326z" />
    <glyph glyph-name="Uring" unicode="&#x16e;" horiz-adv-x="352" 
d="M277 26q42 39 42 115v559h-37v-559q0 -59 -30 -88q-28 -25 -76 -25q-50 0 -76 25q-30 29 -30 88v559h-37v-559q0 -76 42 -115q38 -35 101 -35t101 35zM219.5 755.5q17.5 17.5 17.5 42.5t-17.5 43t-42.5 18t-42.5 -18t-17.5 -43t17.5 -42.5t42.5 -17.5t42.5 17.5z
M193.5 815q6.5 -7 6.5 -17q0 -9 -6.5 -16t-16.5 -7t-16.5 7t-6.5 16q0 10 6.5 17t16.5 7t16.5 -7z" />
    <glyph glyph-name="uring" unicode="&#x16f;" horiz-adv-x="352" 
d="M277 26q42 39 42 115v559h-37v-559q0 -59 -30 -88q-28 -25 -76 -25q-50 0 -76 25q-30 29 -30 88v559h-37v-559q0 -76 42 -115q38 -35 101 -35t101 35zM219.5 755.5q17.5 17.5 17.5 42.5t-17.5 43t-42.5 18t-42.5 -18t-17.5 -43t17.5 -42.5t42.5 -17.5t42.5 17.5z
M193.5 815q6.5 -7 6.5 -17q0 -9 -6.5 -16t-16.5 -7t-16.5 7t-6.5 16q0 10 6.5 17t16.5 7t16.5 -7z" />
    <glyph glyph-name="Uhungarumlaut" unicode="&#x170;" horiz-adv-x="352" 
d="M277 26q42 39 42 115v559h-37v-559q0 -59 -30 -88q-28 -25 -76 -25q-50 0 -76 25q-30 29 -30 88v559h-37v-559q0 -76 42 -115q38 -35 101 -35t101 35zM176 835h47l-88 -98h-27zM284 835h47l-88 -98h-27z" />
    <glyph glyph-name="uhungarumlaut" unicode="&#x171;" horiz-adv-x="352" 
d="M277 26q42 39 42 115v559h-37v-559q0 -59 -30 -88q-28 -25 -76 -25q-50 0 -76 25q-30 29 -30 88v559h-37v-559q0 -76 42 -115q38 -35 101 -35t101 35zM176 835h47l-88 -98h-27zM284 835h47l-88 -98h-27z" />
    <glyph glyph-name="Uogonek" unicode="&#x172;" horiz-adv-x="352" 
d="M319 700v-559q0 -76 -42 -115q-28 -28 -44 -47t-16 -36q0 -14 15 -19t30 -5h9v-38h-19q-36 0 -58 12t-22 36q0 17 13.5 35t32.5 31q-26 -4 -42 -4q-63 0 -101 35q-42 39 -42 115v559h37v-559q0 -59 30 -88q26 -25 76 -25q48 0 76 25q30 29 30 88v559h37z" />
    <glyph glyph-name="uogonek" unicode="&#x173;" horiz-adv-x="352" 
d="M319 700v-559q0 -76 -42 -115q-28 -28 -44 -47t-16 -36q0 -14 15 -19t30 -5h9v-38h-19q-36 0 -58 12t-22 36q0 17 13.5 35t32.5 31q-26 -4 -42 -4q-63 0 -101 35q-42 39 -42 115v559h37v-559q0 -59 30 -88q26 -25 76 -25q48 0 76 25q30 29 30 88v559h37z" />
    <glyph glyph-name="Wcircumflex" unicode="&#x174;" horiz-adv-x="505" 
d="M253 491l-126 -491h-20l-86 700h38l68 -566l116 455h20l116 -454l68 565h38l-86 -700h-20zM228 835h47l68 -98h-27l-64 72l-65 -72h-27z" />
    <glyph glyph-name="wcircumflex" unicode="&#x175;" horiz-adv-x="505" 
d="M253 491l-126 -491h-20l-86 700h38l68 -566l116 455h20l116 -454l68 565h38l-86 -700h-20zM228 835h47l68 -98h-27l-64 72l-65 -72h-27z" />
    <glyph glyph-name="Ycircumflex" unicode="&#x176;" horiz-adv-x="356" 
d="M178 302l130 398h39l-150 -461v-239h-37v239l-150 461h39zM154 835h47l68 -98h-27l-64 72l-65 -72h-27z" />
    <glyph glyph-name="ycircumflex" unicode="&#x177;" horiz-adv-x="356" 
d="M178 302l130 398h39l-150 -461v-239h-37v239l-150 461h39zM154 835h47l68 -98h-27l-64 72l-65 -72h-27z" />
    <glyph glyph-name="Ydieresis" unicode="&#x178;" horiz-adv-x="356" 
d="M178 302l130 398h39l-150 -461v-239h-37v239l-150 461h39zM131 784q-8 8 -20 8q-11 0 -19.5 -8t-8.5 -20q0 -11 8.5 -19t19.5 -8q12 0 20 8t8 19q0 12 -8 20zM265 784q-8 8 -20 8q-11 0 -19.5 -8t-8.5 -20q0 -11 8.5 -19t19.5 -8q12 0 20 8t8 19q0 12 -8 20z" />
    <glyph glyph-name="Zacute" unicode="&#x179;" horiz-adv-x="353" 
d="M328 0v37h-249l248 663h-302v-37h249l-249 -663h303zM230 835h47l-88 -98h-27z" />
    <glyph glyph-name="zacute" unicode="&#x17a;" horiz-adv-x="353" 
d="M328 0v37h-249l248 663h-302v-37h249l-249 -663h303zM230 835h47l-88 -98h-27z" />
    <glyph glyph-name="Zdotaccent" unicode="&#x17b;" horiz-adv-x="353" 
d="M328 0v37h-249l248 663h-302v-37h249l-249 -663h303zM196 784q-8 8 -20 8q-11 0 -19.5 -8t-8.5 -20q0 -11 8.5 -19t19.5 -8q12 0 20 8t8 19q0 12 -8 20z" />
    <glyph glyph-name="zdotaccent" unicode="&#x17c;" horiz-adv-x="353" 
d="M328 0v37h-249l248 663h-302v-37h249l-249 -663h303zM196 784q-8 8 -20 8q-11 0 -19.5 -8t-8.5 -20q0 -11 8.5 -19t19.5 -8q12 0 20 8t8 19q0 12 -8 20z" />
    <glyph glyph-name="Zcaron" unicode="&#x17d;" horiz-adv-x="353" 
d="M328 0v37h-249l248 663h-302v-37h249l-249 -663h303zM152 737l-68 98h27l65 -72l64 72h27l-68 -98h-47z" />
    <glyph glyph-name="zcaron" unicode="&#x17e;" horiz-adv-x="353" 
d="M328 0v37h-249l248 663h-302v-37h249l-249 -663h303zM152 737l-68 98h27l65 -72l64 72h27l-68 -98h-47z" />
    <glyph glyph-name="uni0180" unicode="&#x180;" horiz-adv-x="384" 
d="M349 146q0 -75 -43 -114q-37 -32 -100 -32h-143v165h-63v37h63l-1 498h127q64 0 100 -33q43 -37 43 -113v-73q0 -76 -42 -115q-7 -7 -15 -12q17 -8 31 -21q43 -39 43 -115v-50v-22zM99 663v-295h90q50 0 76 25q30 27 30 88v73q0 60 -30 85q-27 24 -76 24h-90zM312 146v22
v50q0 60 -31 88q-27 25 -75 25h-107l1 -129h63v-37h-63v-128h106q106 0 106 109z" />
    <glyph glyph-name="uni0181" unicode="&#x181;" horiz-adv-x="404" 
d="M369 218v-72q0 -75 -43 -114q-37 -32 -100 -32h-144v663h-42q-10 0 -16.5 -7t-6.5 -16h-37q0 25 17.5 42.5t42.5 17.5h169q64 0 100 -33q43 -38 43 -113v-73q0 -76 -43 -115q-6 -7 -15 -12q19 -10 32 -21q43 -40 43 -115zM119 368h90q49 0 75 25q31 27 31 88v73
q0 60 -30 85q-27 24 -76 24h-90v-295zM332 218q0 59 -31 88q-28 25 -76 25h-106v-294h107q106 0 106 109v72z" />
    <glyph glyph-name="uni0186" unicode="&#x186;" horiz-adv-x="354" 
d="M278 26q42 39 42 115v418q0 76 -42 115q-38 35 -101 35t-101 -35q-42 -39 -42 -115v-69h37v69q0 60 30 88q26 25 76 25t76 -25q30 -28 30 -88v-418q0 -60 -30 -88q-26 -25 -76 -25t-76 25q-30 28 -30 88v101h-37v-101q0 -76 42 -115q38 -35 101 -35t101 35z" />
    <glyph glyph-name="uni0187" unicode="&#x187;" horiz-adv-x="354" 
d="M300.5 751.5q17.5 17.5 42.5 17.5v-37q-9 0 -16 -6.5t-7 -16.5v-219h-37v69q0 60 -30 88q-26 25 -76 25t-76 -25q-30 -28 -30 -88v-418q0 -60 30 -88q26 -25 76 -25t76 25q30 29 30 88v101h37v-101q0 -76 -42 -115q-38 -35 -101 -35t-101 35q-42 39 -42 115v418
q0 76 42 115q38 35 101 35t101 -35l5 -5v40q0 25 17.5 42.5z" />
    <glyph glyph-name="uni0188" unicode="&#x188;" horiz-adv-x="354" 
d="M300.5 751.5q17.5 17.5 42.5 17.5v-37q-9 0 -16 -6.5t-7 -16.5v-219h-37v69q0 60 -30 88q-26 25 -76 25t-76 -25q-30 -28 -30 -88v-418q0 -60 30 -88q26 -25 76 -25t76 25q30 29 30 88v101h37v-101q0 -76 -42 -115q-38 -35 -101 -35t-101 35q-42 39 -42 115v418
q0 76 42 115q38 35 101 35t101 -35l5 -5v40q0 25 17.5 42.5z" />
    <glyph glyph-name="uni0189" unicode="&#x189;" horiz-adv-x="360" 
d="M332 550v-404q0 -74 -43 -114q-37 -32 -101 -32h-143v331h-40v37h40v332h143q64 0 101 -35q43 -39 43 -115zM295 550q0 59 -31 88q-28 25 -76 25h-106v-295h80v-37h-80v-294h106q107 0 107 109v404z" />
    <glyph glyph-name="uni018A" unicode="&#x18a;" horiz-adv-x="396" 
d="M368 550v-404q0 -75 -43 -114q-37 -32 -100 -32h-143v663h-42q-10 0 -16.5 -7t-6.5 -16h-37q0 25 17.5 42.5t42.5 17.5h185q63 0 101 -35q42 -39 42 -115zM331 550q0 60 -30 88q-28 25 -76 25h-106v-626h106q106 0 106 109v404z" />
    <glyph glyph-name="uni018E" unicode="&#x18e;" horiz-adv-x="319" 
d="M28 663v37h251v-700h-251v37h214v303h-151v37h151v286h-214z" />
    <glyph glyph-name="uni0191" unicode="&#x191;" horiz-adv-x="310" 
d="M77 663v-286h152v-37h-152v-382q0 -25 -17.5 -42.5t-42.5 -17.5v37q9 0 16 6.5t7 16.5v742h251v-37h-214z" />
    <glyph glyph-name="uni0193" unicode="&#x193;" 
d="M301.5 751.5q17.5 17.5 42.5 17.5v-37q-9 0 -16 -6.5t-7 -16.5v-219h-37v69q0 59 -31 88q-28 25 -76 25q-47 0 -75 -25q-31 -28 -31 -88v-418q0 -60 31 -88q26 -25 75 -25q50 0 76 25q31 29 31 88v191h-106v37h143v-228q0 -76 -43 -115q-37 -35 -101 -35q-63 0 -100 35
q-43 39 -43 115v418q0 76 43 115q37 35 100 35q64 0 101 -35l6 -6v41q0 25 17.5 42.5z" />
    <glyph glyph-name="uni0197" unicode="&#x197;" horiz-adv-x="127" 
d="M122 378v-37h-40v-341h-37v341h-40v37h40v322h37v-322h40z" />
    <glyph glyph-name="uni0198" unicode="&#x198;" horiz-adv-x="409" 
d="M411 682.5q18 -17.5 18 -42.5h-37q0 9 -7 16t-17 7h-41l-130 -295l146 -368h-39l-128 321l-99 -224v-97h-37v700h37v-522l226 522h65q25 0 43 -17.5z" />
    <glyph glyph-name="uni0199" unicode="&#x199;" horiz-adv-x="409" 
d="M411 682.5q18 -17.5 18 -42.5h-37q0 9 -7 16t-17 7h-41l-130 -295l146 -368h-39l-128 321l-99 -224v-97h-37v700h37v-522l226 522h65q25 0 43 -17.5z" />
    <glyph glyph-name="uni019D" unicode="&#x19d;" horiz-adv-x="387" 
d="M342 700v-700h-20l-240 570v-612q0 -25 -17.5 -42.5t-42.5 -17.5v37q9 0 16 6.5t7 16.5v742h20l240 -570v570h37z" />
    <glyph glyph-name="Ohorn" unicode="&#x1a0;" horiz-adv-x="361" 
d="M363.5 689.5q-17.5 -17.5 -42.5 -17.5h-41q41 -39 41 -113v-418q0 -75 -43 -115q-37 -35 -101 -35q-63 0 -100 35q-43 39 -43 115v418q0 76 43 115q37 35 100 35h144q10 0 16.5 7t6.5 16h37q0 -25 -17.5 -42.5zM177 672q-47 0 -75 -25q-31 -28 -31 -88v-418q0 -60 31 -88
q26 -25 75 -25q50 0 76 25q31 29 31 88v418q0 59 -31 88q-28 25 -76 25z" />
    <glyph glyph-name="ohorn" unicode="&#x1a1;" horiz-adv-x="361" 
d="M363.5 689.5q-17.5 -17.5 -42.5 -17.5h-41q41 -39 41 -113v-418q0 -75 -43 -115q-37 -35 -101 -35q-63 0 -100 35q-43 39 -43 115v418q0 76 43 115q37 35 100 35h144q10 0 16.5 7t6.5 16h37q0 -25 -17.5 -42.5zM177 672q-47 0 -75 -25q-31 -28 -31 -88v-418q0 -60 31 -88
q26 -25 75 -25q50 0 76 25q31 29 31 88v418q0 59 -31 88q-28 25 -76 25z" />
    <glyph glyph-name="uni01A4" unicode="&#x1a4;" horiz-adv-x="392" 
d="M369 550v-89q0 -75 -43 -115q-38 -35 -101 -35h-106v-311h-37v663h-42q-10 0 -16.5 -7t-6.5 -16h-37q0 25 17.5 42.5t42.5 17.5h185q63 0 101 -35q43 -40 43 -115zM332 550q0 59 -31 88q-28 25 -76 25h-106v-315h106q48 0 76 25q31 29 31 88v89z" />
    <glyph glyph-name="uni01A5" unicode="&#x1a5;" horiz-adv-x="392" 
d="M369 550v-89q0 -75 -43 -115q-38 -35 -101 -35h-106v-311h-37v663h-42q-10 0 -16.5 -7t-6.5 -16h-37q0 25 17.5 42.5t42.5 17.5h185q63 0 101 -35q43 -40 43 -115zM332 550q0 59 -31 88q-28 25 -76 25h-106v-315h106q48 0 76 25q31 29 31 88v89z" />
    <glyph glyph-name="uni01AC" unicode="&#x1ac;" horiz-adv-x="379" 
d="M367 700v-37h-133v-663h-37v663h-132q-10 0 -16.5 -7t-6.5 -16h-37q0 25 17.5 42.5t42.5 17.5h302z" />
    <glyph glyph-name="uni01AD" unicode="&#x1ad;" horiz-adv-x="379" 
d="M367 700v-37h-133v-663h-37v663h-132q-10 0 -16.5 -7t-6.5 -16h-37q0 25 17.5 42.5t42.5 17.5h302z" />
    <glyph glyph-name="uni01AE" unicode="&#x1ae;" horiz-adv-x="327" 
d="M182 -42q0 -10 7 -16.5t17 -6.5v-37q-25 0 -43 17.5t-18 42.5v705h-132v37h302v-37h-133v-705z" />
    <glyph glyph-name="Uhorn" unicode="&#x1af;" horiz-adv-x="401" 
d="M421 723q0 -25 -17.5 -42.5t-42.5 -17.5h-42v-522q0 -76 -42 -115q-38 -35 -101 -35t-101 35q-42 39 -42 115v559h37v-559q0 -59 30 -88q26 -25 76 -25q48 0 76 25q30 29 30 88v559h79q10 0 16.5 7t6.5 16h37z" />
    <glyph glyph-name="uhorn" unicode="&#x1b0;" horiz-adv-x="401" 
d="M421 723q0 -25 -17.5 -42.5t-42.5 -17.5h-42v-522q0 -76 -42 -115q-38 -35 -101 -35t-101 35q-42 39 -42 115v559h37v-559q0 -59 30 -88q26 -25 76 -25q48 0 76 25q30 29 30 88v559h79q10 0 16.5 7t6.5 16h37z" />
    <glyph glyph-name="uni01B3" unicode="&#x1b3;" horiz-adv-x="417" 
d="M419.5 682.5q17.5 -17.5 17.5 -42.5h-37q0 9 -6.5 16t-16.5 7h-42l-138 -424v-239h-37v239l-150 461h39l129 -398l130 398h69q25 0 42.5 -17.5z" />
    <glyph glyph-name="uni01B4" unicode="&#x1b4;" horiz-adv-x="417" 
d="M419.5 682.5q17.5 -17.5 17.5 -42.5h-37q0 9 -6.5 16t-16.5 7h-42l-138 -424v-239h-37v239l-150 461h39l129 -398l130 398h69q25 0 42.5 -17.5z" />
    <glyph glyph-name="uni01CD" unicode="&#x1cd;" horiz-adv-x="382" 
d="M327 0l-40 184h-193l-40 -184h-38l156 700h37l156 -700h-38zM103 221h175l-87 402zM167 737l-68 98h27l65 -72l64 72h27l-68 -98h-47z" />
    <glyph glyph-name="uni01CE" unicode="&#x1ce;" horiz-adv-x="382" 
d="M327 0l-40 184h-193l-40 -184h-38l156 700h37l156 -700h-38zM103 221h175l-87 402zM167 737l-68 98h27l65 -72l64 72h27l-68 -98h-47z" />
    <glyph glyph-name="uni01CF" unicode="&#x1cf;" horiz-adv-x="127" 
d="M83 0v700h-37v-700h37zM40 737l-68 98h27l65 -72l64 72h27l-68 -98h-47z" />
    <glyph glyph-name="uni01D0" unicode="&#x1d0;" horiz-adv-x="127" 
d="M83 0v700h-37v-700h37zM40 737l-68 98h27l65 -72l64 72h27l-68 -98h-47z" />
    <glyph glyph-name="uni01D1" unicode="&#x1d1;" 
d="M278 26q43 40 43 115v418q0 75 -43 115q-37 35 -101 35q-63 0 -100 -35q-43 -39 -43 -115v-418q0 -76 43 -115q37 -35 100 -35q64 0 101 35zM253 647q31 -29 31 -88v-418q0 -59 -31 -88q-26 -25 -76 -25q-49 0 -75 25q-31 28 -31 88v418q0 60 31 88q28 25 75 25
q48 0 76 -25zM153 737l-68 98h27l65 -72l64 72h27l-68 -98h-47z" />
    <glyph glyph-name="uni01D2" unicode="&#x1d2;" 
d="M278 26q43 40 43 115v418q0 75 -43 115q-37 35 -101 35q-63 0 -100 -35q-43 -39 -43 -115v-418q0 -76 43 -115q37 -35 100 -35q64 0 101 35zM253 647q31 -29 31 -88v-418q0 -59 -31 -88q-26 -25 -76 -25q-49 0 -75 25q-31 28 -31 88v418q0 60 31 88q28 25 75 25
q48 0 76 -25zM153 737l-68 98h27l65 -72l64 72h27l-68 -98h-47z" />
    <glyph glyph-name="uni01D3" unicode="&#x1d3;" horiz-adv-x="352" 
d="M277 26q42 39 42 115v559h-37v-559q0 -59 -30 -88q-28 -25 -76 -25q-50 0 -76 25q-30 29 -30 88v559h-37v-559q0 -76 42 -115q38 -35 101 -35t101 35zM153 737l-68 98h27l65 -72l64 72h27l-68 -98h-47z" />
    <glyph glyph-name="uni01D4" unicode="&#x1d4;" horiz-adv-x="352" 
d="M277 26q42 39 42 115v559h-37v-559q0 -59 -30 -88q-28 -25 -76 -25q-50 0 -76 25q-30 29 -30 88v559h-37v-559q0 -76 42 -115q38 -35 101 -35t101 35zM153 737l-68 98h27l65 -72l64 72h27l-68 -98h-47z" />
    <glyph glyph-name="uni01D5" unicode="&#x1d5;" horiz-adv-x="352" 
d="M277 26q42 39 42 115v559h-37v-559q0 -59 -30 -88q-28 -25 -76 -25q-50 0 -76 25q-30 29 -30 88v559h-37v-559q0 -76 42 -115q38 -35 101 -35t101 35zM130 784q-8 8 -20 8q-11 0 -19.5 -8t-8.5 -20q0 -11 8.5 -19t19.5 -8q12 0 20 8t8 19q0 12 -8 20zM264 784q-8 8 -20 8
q-11 0 -19.5 -8t-8.5 -20q0 -11 8.5 -19t19.5 -8q12 0 20 8t8 19q0 12 -8 20zM339 830v37h-326v-37h326z" />
    <glyph glyph-name="uni01D6" unicode="&#x1d6;" horiz-adv-x="352" 
d="M277 26q42 39 42 115v559h-37v-559q0 -59 -30 -88q-28 -25 -76 -25q-50 0 -76 25q-30 29 -30 88v559h-37v-559q0 -76 42 -115q38 -35 101 -35t101 35zM130 784q-8 8 -20 8q-11 0 -19.5 -8t-8.5 -20q0 -11 8.5 -19t19.5 -8q12 0 20 8t8 19q0 12 -8 20zM264 784q-8 8 -20 8
q-11 0 -19.5 -8t-8.5 -20q0 -11 8.5 -19t19.5 -8q12 0 20 8t8 19q0 12 -8 20zM339 830v37h-326v-37h326z" />
    <glyph glyph-name="uni01D7" unicode="&#x1d7;" horiz-adv-x="352" 
d="M277 26q42 39 42 115v559h-37v-559q0 -59 -30 -88q-28 -25 -76 -25q-50 0 -76 25q-30 29 -30 88v559h-37v-559q0 -76 42 -115q38 -35 101 -35t101 35zM130 784q-8 8 -20 8q-11 0 -19.5 -8t-8.5 -20q0 -11 8.5 -19t19.5 -8q12 0 20 8t8 19q0 12 -8 20zM264 784q-8 8 -20 8
q-11 0 -19.5 -8t-8.5 -20q0 -11 8.5 -19t19.5 -8q12 0 20 8t8 19q0 12 -8 20zM231 928h47l-88 -98h-27z" />
    <glyph glyph-name="uni01D8" unicode="&#x1d8;" horiz-adv-x="352" 
d="M277 26q42 39 42 115v559h-37v-559q0 -59 -30 -88q-28 -25 -76 -25q-50 0 -76 25q-30 29 -30 88v559h-37v-559q0 -76 42 -115q38 -35 101 -35t101 35zM130 784q-8 8 -20 8q-11 0 -19.5 -8t-8.5 -20q0 -11 8.5 -19t19.5 -8q12 0 20 8t8 19q0 12 -8 20zM264 784q-8 8 -20 8
q-11 0 -19.5 -8t-8.5 -20q0 -11 8.5 -19t19.5 -8q12 0 20 8t8 19q0 12 -8 20zM231 928h47l-88 -98h-27z" />
    <glyph glyph-name="uni01D9" unicode="&#x1d9;" horiz-adv-x="352" 
d="M277 26q42 39 42 115v559h-37v-559q0 -59 -30 -88q-28 -25 -76 -25q-50 0 -76 25q-30 29 -30 88v559h-37v-559q0 -76 42 -115q38 -35 101 -35t101 35zM130 784q-8 8 -20 8q-11 0 -19.5 -8t-8.5 -20q0 -11 8.5 -19t19.5 -8q12 0 20 8t8 19q0 12 -8 20zM264 784q-8 8 -20 8
q-11 0 -19.5 -8t-8.5 -20q0 -11 8.5 -19t19.5 -8q12 0 20 8t8 19q0 12 -8 20zM153 830l-68 98h27l65 -72l64 72h27l-68 -98h-47z" />
    <glyph glyph-name="uni01DA" unicode="&#x1da;" horiz-adv-x="352" 
d="M277 26q42 39 42 115v559h-37v-559q0 -59 -30 -88q-28 -25 -76 -25q-50 0 -76 25q-30 29 -30 88v559h-37v-559q0 -76 42 -115q38 -35 101 -35t101 35zM130 784q-8 8 -20 8q-11 0 -19.5 -8t-8.5 -20q0 -11 8.5 -19t19.5 -8q12 0 20 8t8 19q0 12 -8 20zM264 784q-8 8 -20 8
q-11 0 -19.5 -8t-8.5 -20q0 -11 8.5 -19t19.5 -8q12 0 20 8t8 19q0 12 -8 20zM153 830l-68 98h27l65 -72l64 72h27l-68 -98h-47z" />
    <glyph glyph-name="uni01DB" unicode="&#x1db;" horiz-adv-x="352" 
d="M277 26q42 39 42 115v559h-37v-559q0 -59 -30 -88q-26 -25 -76 -25q-48 0 -76 25q-30 29 -30 88v559h-37v-559q0 -76 42 -115q38 -35 101 -35t101 35zM222 745q8 -8 20 -8q11 0 19.5 8t8.5 19q0 12 -8.5 20t-19.5 8q-12 0 -20 -8t-8 -20q0 -11 8 -19zM88 745q8 -8 20 -8
q11 0 19.5 8t8.5 19q0 12 -8.5 20t-19.5 8q-12 0 -20 -8t-8 -20q0 -11 8 -19zM121 928l68 -98h-27l-88 98h47z" />
    <glyph glyph-name="uni01DC" unicode="&#x1dc;" horiz-adv-x="352" 
d="M277 26q42 39 42 115v559h-37v-559q0 -59 -30 -88q-26 -25 -76 -25q-48 0 -76 25q-30 29 -30 88v559h-37v-559q0 -76 42 -115q38 -35 101 -35t101 35zM222 745q8 -8 20 -8q11 0 19.5 8t8.5 19q0 12 -8.5 20t-19.5 8q-12 0 -20 -8t-8 -20q0 -11 8 -19zM88 745q8 -8 20 -8
q11 0 19.5 8t8.5 19q0 12 -8.5 20t-19.5 8q-12 0 -20 -8t-8 -20q0 -11 8 -19zM121 928l68 -98h-27l-88 98h47z" />
    <glyph glyph-name="uni01DD" unicode="&#x1dd;" horiz-adv-x="319" 
d="M28 663v37h251v-700h-251v37h214v303h-151v37h151v286h-214z" />
    <glyph glyph-name="uni01DE" unicode="&#x1de;" horiz-adv-x="382" 
d="M327 0l-40 184h-193l-40 -184h-38l156 700h37l156 -700h-38zM103 221h175l-87 402zM143 784q-8 8 -20 8q-11 0 -19.5 -8t-8.5 -20q0 -11 8.5 -19t19.5 -8q12 0 20 8t8 19q0 12 -8 20zM277 784q-8 8 -20 8q-11 0 -19.5 -8t-8.5 -20q0 -11 8.5 -19t19.5 -8q12 0 20 8t8 19
q0 12 -8 20zM354 830v37h-326v-37h326z" />
    <glyph glyph-name="uni01DF" unicode="&#x1df;" horiz-adv-x="382" 
d="M327 0l-40 184h-193l-40 -184h-38l156 700h37l156 -700h-38zM103 221h175l-87 402zM143 784q-8 8 -20 8q-11 0 -19.5 -8t-8.5 -20q0 -11 8.5 -19t19.5 -8q12 0 20 8t8 19q0 12 -8 20zM277 784q-8 8 -20 8q-11 0 -19.5 -8t-8.5 -20q0 -11 8.5 -19t19.5 -8q12 0 20 8t8 19
q0 12 -8 20zM354 830v37h-326v-37h326z" />
    <glyph glyph-name="Gcaron" unicode="&#x1e6;" 
d="M278 26q43 39 43 115v228h-143v-37h106v-191q0 -59 -31 -88q-26 -25 -76 -25q-49 0 -75 25q-31 28 -31 88v418q0 60 31 88q28 25 75 25q48 0 76 -25q31 -29 31 -88v-69h37v69q0 76 -43 115q-37 35 -101 35q-63 0 -100 -35q-43 -39 -43 -115v-418q0 -76 43 -115
q37 -35 100 -35q64 0 101 35zM153 737l-68 98h27l65 -72l64 72h27l-68 -98h-47z" />
    <glyph glyph-name="gcaron" unicode="&#x1e7;" 
d="M278 26q43 39 43 115v228h-143v-37h106v-191q0 -59 -31 -88q-26 -25 -76 -25q-49 0 -75 25q-31 28 -31 88v418q0 60 31 88q28 25 75 25q48 0 76 -25q31 -29 31 -88v-69h37v69q0 76 -43 115q-37 35 -101 35q-63 0 -100 -35q-43 -39 -43 -115v-418q0 -76 43 -115
q37 -35 100 -35q64 0 101 35zM153 737l-68 98h27l65 -72l64 72h27l-68 -98h-47z" />
    <glyph glyph-name="Oslashacute" unicode="&#x1fe;" horiz-adv-x="357" 
d="M310 629q12 -30 12 -70v-418q0 -75 -42 -116q-39 -34 -101 -34t-101 34l-6 7l-19 -48l-35 14l29 73q-11 31 -11 70v418q0 76 42 115q38 35 101 35t101 -35l6 -6l19 47l34 -14zM73 134l197 493q-5 10 -15 20q-26 25 -76 25t-76 -25q-30 -28 -30 -88v-418v-7zM285 565
l-197 -493q7 -12 15 -19q26 -25 76 -25t76 25q30 27 30 88v418v6z" />
    <glyph glyph-name="oslashacute" unicode="&#x1ff;" horiz-adv-x="357" 
d="M310 629q12 -30 12 -70v-418q0 -75 -42 -116q-39 -34 -101 -34t-101 34l-6 7l-19 -48l-35 14l29 73q-11 31 -11 70v418q0 76 42 115q38 35 101 35t101 -35l6 -6l19 47l34 -14zM73 134l197 493q-5 10 -15 20q-26 25 -76 25t-76 -25q-30 -28 -30 -88v-418v-7zM285 565
l-197 -493q7 -12 15 -19q26 -25 76 -25t76 25q30 27 30 88v418v6z" />
    <glyph glyph-name="Scommaaccent" unicode="&#x218;" horiz-adv-x="347" 
d="M275 26q42 39 42 115v49q0 134 -135 193q-24 10 -47 24t-45.5 47t-22.5 85v20q0 59 31 88q26 25 76 25t75 -25q31 -28 31 -88v-68h37v68q0 76 -42 115q-38 35 -101 35q-64 0 -101 -35q-43 -40 -43 -115v-20q0 -89 46 -131t91 -59q37 -15 75 -51t38 -108v-49
q0 -60 -31 -88q-27 -25 -75 -25q-50 0 -76 25q-31 29 -31 88v102h-37v-102q0 -75 43 -115q37 -35 101 -35q63 0 101 35zM194 -94q-6 -13 -19 -30h-20l6 15l2 8q0 5 -4 9q-13 10 -13 24q0 12 8.5 20t19.5 8t19.5 -8.5t8.5 -19.5q0 -12 -8 -26z" />
    <glyph glyph-name="scommaaccent" unicode="&#x219;" horiz-adv-x="347" 
d="M275 26q42 39 42 115v49q0 134 -135 193q-24 10 -47 24t-45.5 47t-22.5 85v20q0 59 31 88q26 25 76 25t75 -25q31 -28 31 -88v-68h37v68q0 76 -42 115q-38 35 -101 35q-64 0 -101 -35q-43 -40 -43 -115v-20q0 -89 46 -131t91 -59q37 -15 75 -51t38 -108v-49
q0 -60 -31 -88q-27 -25 -75 -25q-50 0 -76 25q-31 29 -31 88v102h-37v-102q0 -75 43 -115q37 -35 101 -35q63 0 101 35zM194 -94q-6 -13 -19 -30h-20l6 15l2 8q0 5 -4 9q-13 10 -13 24q0 12 8.5 20t19.5 8t19.5 -8.5t8.5 -19.5q0 -12 -8 -26z" />
    <glyph glyph-name="uni021A" unicode="&#x21a;" horiz-adv-x="327" 
d="M315 700v-37h-133v-663h-37v663h-132v37h302zM184 -94q-6 -13 -19 -30h-20l6 15l2 8q0 5 -4 9q-13 10 -13 24q0 12 8.5 20t19.5 8t19.5 -8.5t8.5 -19.5q0 -12 -8 -26z" />
    <glyph glyph-name="uni021B" unicode="&#x21b;" horiz-adv-x="327" 
d="M315 700v-37h-133v-663h-37v663h-132v37h302zM184 -94q-6 -13 -19 -30h-20l6 15l2 8q0 5 -4 9q-13 10 -13 24q0 12 8.5 20t19.5 8t19.5 -8.5t8.5 -19.5q0 -12 -8 -26z" />
    <glyph glyph-name="uni0228" unicode="&#x228;" horiz-adv-x="319" 
d="M77 663v-286h151v-37h-151v-303h214v-37h-105l4 -4l3 -2q14 -12 22.5 -23t8.5 -31q0 -25 -17.5 -43t-42.5 -18t-43 18t-18 43h37q0 -10 7 -17t17 -7t16.5 7t6.5 17q0 8 -3.5 12.5t-12.5 11.5l-3 2q-18 15 -22 34h-106v700h251v-37h-214z" />
    <glyph glyph-name="uni0229" unicode="&#x229;" horiz-adv-x="319" 
d="M77 663v-286h151v-37h-151v-303h214v-37h-105l4 -4l3 -2q14 -12 22.5 -23t8.5 -31q0 -25 -17.5 -43t-42.5 -18t-43 18t-18 43h37q0 -10 7 -17t17 -7t16.5 7t6.5 17q0 8 -3.5 12.5t-12.5 11.5l-3 2q-18 15 -22 34h-106v700h251v-37h-214z" />
    <glyph glyph-name="uni022A" unicode="&#x22a;" horiz-adv-x="356" 
d="M278 26q43 40 43 115v418q0 75 -43 115q-37 35 -101 35q-63 0 -100 -35q-43 -39 -43 -115v-418q0 -76 43 -115q37 -35 100 -35q64 0 101 35zM253 647q31 -29 31 -88v-418q0 -59 -31 -88q-26 -25 -76 -25q-49 0 -75 25q-31 28 -31 88v418q0 60 31 88q28 25 75 25
q48 0 76 -25zM130 784q-8 8 -20 8q-11 0 -19.5 -8t-8.5 -20q0 -11 8.5 -19t19.5 -8q12 0 20 8t8 19q0 12 -8 20zM264 784q-8 8 -20 8q-11 0 -19.5 -8t-8.5 -20q0 -11 8.5 -19t19.5 -8q12 0 20 8t8 19q0 12 -8 20zM341 830v37h-326v-37h326z" />
    <glyph glyph-name="uni022B" unicode="&#x22b;" horiz-adv-x="356" 
d="M278 26q43 40 43 115v418q0 75 -43 115q-37 35 -101 35q-63 0 -100 -35q-43 -39 -43 -115v-418q0 -76 43 -115q37 -35 100 -35q64 0 101 35zM253 647q31 -29 31 -88v-418q0 -59 -31 -88q-26 -25 -76 -25q-49 0 -75 25q-31 28 -31 88v418q0 60 31 88q28 25 75 25
q48 0 76 -25zM130 784q-8 8 -20 8q-11 0 -19.5 -8t-8.5 -20q0 -11 8.5 -19t19.5 -8q12 0 20 8t8 19q0 12 -8 20zM264 784q-8 8 -20 8q-11 0 -19.5 -8t-8.5 -20q0 -11 8.5 -19t19.5 -8q12 0 20 8t8 19q0 12 -8 20zM341 830v37h-326v-37h326z" />
    <glyph glyph-name="uni0243" unicode="&#x243;" horiz-adv-x="384" 
d="M349 146q0 -75 -43 -114q-37 -32 -100 -32h-143v165h-63v37h63l-1 498h127q64 0 100 -33q43 -37 43 -113v-73q0 -76 -42 -115q-7 -7 -15 -12q17 -8 31 -21q43 -39 43 -115v-50v-22zM99 663v-295h90q50 0 76 25q30 27 30 88v73q0 60 -30 85q-27 24 -76 24h-90zM312 146v22
v50q0 60 -31 88q-27 25 -75 25h-107l1 -129h63v-37h-63v-128h106q106 0 106 109z" />
    <glyph glyph-name="uni0244" unicode="&#x244;" horiz-adv-x="376" 
d="M371 341h-40v-200q0 -76 -42 -115q-38 -35 -101 -35t-101 35q-42 39 -42 115v200h-40v37h40v322h37v-322h212v322h37v-322h40v-37zM294 341h-212v-200q0 -60 30 -88q26 -25 76 -25q48 0 76 25q30 29 30 88v200z" />
    <glyph glyph-name="uni0245" unicode="&#x245;" horiz-adv-x="376" 
d="M188 623l-136 -623h-38l155 700h38l155 -700h-38z" />
    <glyph glyph-name="uni024C" unicode="&#x24c;" horiz-adv-x="360" 
d="M290 346q-24 -21 -58 -30l100 -316h-39l-98 311h-6h-107v-311h-37v311h-40v37h40v352h144q63 0 101 -35q42 -39 42 -115v-89q0 -76 -42 -115zM295 461v89q0 60 -31 88q-27 25 -75 25h-107v-315h107q48 0 75 25q31 28 31 88z" />
    <glyph glyph-name="uni024D" unicode="&#x24d;" horiz-adv-x="360" 
d="M290 346q-24 -21 -58 -30l100 -316h-39l-98 311h-6h-107v-311h-37v311h-40v37h40v352h144q63 0 101 -35q42 -39 42 -115v-89q0 -76 -42 -115zM295 461v89q0 60 -31 88q-27 25 -75 25h-107v-315h107q48 0 75 25q31 28 31 88z" />
    <glyph glyph-name="uni0250" unicode="&#x250;" horiz-adv-x="382" 
d="M327 700h38l-156 -700h-37l-156 700h38l40 -184h193zM103 479l88 -402l87 402h-175z" />
    <glyph glyph-name="uni0253" unicode="&#x253;" horiz-adv-x="404" 
d="M369 218v-72q0 -75 -43 -114q-37 -32 -100 -32h-144v663h-42q-10 0 -16.5 -7t-6.5 -16h-37q0 25 17.5 42.5t42.5 17.5h169q64 0 100 -33q43 -38 43 -113v-73q0 -76 -43 -115q-6 -7 -15 -12q19 -10 32 -21q43 -40 43 -115zM119 368h90q49 0 75 25q31 27 31 88v73
q0 60 -30 85q-27 24 -76 24h-90v-295zM332 218q0 59 -31 88q-28 25 -76 25h-106v-294h107q106 0 106 109v72z" />
    <glyph glyph-name="uni0254" unicode="&#x254;" horiz-adv-x="354" 
d="M278 26q42 39 42 115v418q0 76 -42 115q-38 35 -101 35t-101 -35q-42 -39 -42 -115v-69h37v69q0 60 30 88q26 25 76 25t76 -25q30 -28 30 -88v-418q0 -60 -30 -88q-26 -25 -76 -25t-76 25q-30 28 -30 88v101h-37v-101q0 -76 42 -115q38 -35 101 -35t101 35z" />
    <glyph glyph-name="uni0257" unicode="&#x257;" horiz-adv-x="396" 
d="M368 550v-404q0 -75 -43 -114q-37 -32 -100 -32h-143v663h-42q-10 0 -16.5 -7t-6.5 -16h-37q0 25 17.5 42.5t42.5 17.5h185q63 0 101 -35q42 -39 42 -115zM331 550q0 60 -30 88q-28 25 -76 25h-106v-626h106q106 0 106 109v404z" />
    <glyph glyph-name="uni0258" unicode="&#x258;" horiz-adv-x="319" 
d="M28 663v37h251v-700h-251v37h214v303h-151v37h151v286h-214z" />
    <glyph glyph-name="uni0260" unicode="&#x260;" 
d="M301.5 751.5q17.5 17.5 42.5 17.5v-37q-9 0 -16 -6.5t-7 -16.5v-219h-37v69q0 59 -31 88q-28 25 -76 25q-47 0 -75 -25q-31 -28 -31 -88v-418q0 -60 31 -88q26 -25 75 -25q50 0 76 25q31 29 31 88v191h-106v37h143v-228q0 -76 -43 -115q-37 -35 -101 -35q-63 0 -100 35
q-43 39 -43 115v418q0 76 43 115q37 35 100 35q64 0 101 -35l6 -6v41q0 25 17.5 42.5z" />
    <glyph glyph-name="uni0262" unicode="&#x262;" 
d="M278 26q43 39 43 115v178h-143v-37h106v-141q0 -59 -31 -88q-26 -25 -76 -25q-49 0 -75 25q-31 28 -31 88v318q0 60 31 88q28 25 75 25q48 0 76 -25q31 -29 31 -88v-19h37v19q0 76 -43 115q-37 35 -101 35q-63 0 -100 -35q-43 -39 -43 -115v-318q0 -76 43 -115
q37 -35 100 -35q64 0 101 35z" />
    <glyph glyph-name="uni0265" unicode="&#x265;" horiz-adv-x="377" 
d="M295 700h37v-700h-37v340h-213v-340h-37v700h37v-323h213v323z" />
    <glyph glyph-name="uni0266" unicode="&#x266;" horiz-adv-x="414" 
d="M369 700v-700h-37v340h-213v-340h-37v663h-42q-10 0 -16.5 -7t-6.5 -16h-37q0 25 17.5 42.5t42.5 17.5h79v-323h213v323h37z" />
    <glyph glyph-name="uni0268" unicode="&#x268;" horiz-adv-x="127" 
d="M122 378v-37h-40v-341h-37v341h-40v37h40v322h37v-322h40z" />
    <glyph glyph-name="uni026A" unicode="&#x26a;" horiz-adv-x="127" 
d="M82 0v600h-37v-600h37z" />
    <glyph glyph-name="uni026F" unicode="&#x26f;" horiz-adv-x="499" 
d="M250 521l-190 -521h-20v700h37v-558l162 448h21l162 -448v558h37v-700h-20z" />
    <glyph glyph-name="uni0272" unicode="&#x272;" horiz-adv-x="387" 
d="M342 700v-700h-20l-240 570v-612q0 -25 -17.5 -42.5t-42.5 -17.5v37q9 0 16 6.5t7 16.5v742h20l240 -570v570h37z" />
    <glyph glyph-name="uni0274" unicode="&#x274;" horiz-adv-x="387" 
d="M342 600v-600h-20l-240 480v-480h-37v600h20l240 -480v480h37z" />
    <glyph glyph-name="uni0276" unicode="&#x276;" horiz-adv-x="495" 
d="M253 563v-236h152v-37h-152v-253h214v-37h-290q-63 0 -101 35q-42 39 -42 115v300q0 76 42 115q38 35 101 35h290v-37h-214zM216 37v526h-39q-48 0 -76 -25q-30 -28 -30 -88v-300q0 -60 30 -88q26 -25 76 -25h39z" />
    <glyph glyph-name="uni0280" unicode="&#x280;" 
d="M327 0h-39l-98 261h-6h-107v-261h-37v600h144q63 0 101 -35q42 -39 42 -115v-39q0 -76 -42 -115q-24 -21 -58 -30zM259 323q31 28 31 88v39q0 60 -31 88q-27 25 -75 25h-107v-265h107q48 0 75 25z" />
    <glyph glyph-name="uni0281" unicode="&#x281;" 
d="M285 304q42 -39 42 -115v-39q0 -76 -42 -115q-38 -35 -101 -35h-144v600h37v-261h107h6l98 261h39l-100 -266q34 -9 58 -30zM77 302v-265h107q48 0 75 25q31 28 31 88v39q0 60 -31 88q-27 25 -75 25h-107z" />
    <glyph glyph-name="uni0288" unicode="&#x288;" horiz-adv-x="327" 
d="M182 -42q0 -10 7 -16.5t17 -6.5v-37q-25 0 -43 17.5t-18 42.5v705h-132v37h302v-37h-133v-705z" />
    <glyph glyph-name="uni0289" unicode="&#x289;" horiz-adv-x="376" 
d="M371 341h-40v-200q0 -76 -42 -115q-38 -35 -101 -35t-101 35q-42 39 -42 115v200h-40v37h40v322h37v-322h212v322h37v-322h40v-37zM294 341h-212v-200q0 -60 30 -88q26 -25 76 -25q48 0 76 25q30 29 30 88v200z" />
    <glyph glyph-name="uni028C" unicode="&#x28c;" horiz-adv-x="376" 
d="M188 623l-136 -623h-38l155 700h38l155 -700h-38z" />
    <glyph glyph-name="uni028D" unicode="&#x28d;" horiz-adv-x="505" 
d="M253 209l126 491h20l86 -700h-38l-68 565l-116 -454h-20l-116 455l-68 -566h-38l86 700h20z" />
    <glyph glyph-name="uni028E" unicode="&#x28e;" horiz-adv-x="356" 
d="M178 398l-129 -398h-39l150 461v239h37v-239l150 -461h-39z" />
    <glyph glyph-name="uni028F" unicode="&#x28f;" horiz-adv-x="356" 
d="M178 252l130 348h39l-150 -411v-189h-37v189l-150 411h39z" />
    <glyph glyph-name="uni0299" unicode="&#x299;" horiz-adv-x="362" 
d="M284 32q43 39 43 114v22q0 75 -43 115q-13 11 -32 21q9 5 15 12q43 39 43 115v23q0 75 -43 113q-36 33 -100 33h-127v-600h144q63 0 100 32zM77 281h106q48 0 76 -25q31 -29 31 -88v-22q0 -109 -106 -109h-107v244zM77 563h90q49 0 76 -24q30 -25 30 -85v-23
q0 -61 -31 -88q-26 -25 -75 -25h-90v245z" />
    <glyph glyph-name="uni029B" unicode="&#x29b;" 
d="M301.5 651.5q17.5 17.5 42.5 17.5v-37q-9 0 -16 -6.5t-7 -16.5v-169h-37v19q0 59 -31 88q-28 25 -76 25q-47 0 -75 -25q-31 -28 -31 -88v-318q0 -60 31 -88q26 -25 75 -25q50 0 76 25q31 29 31 88v141h-106v37h143v-178q0 -76 -43 -115q-37 -35 -101 -35q-63 0 -100 35
q-43 39 -43 115v318q0 76 43 115q37 35 100 35q64 0 101 -35l6 -6v41q0 25 17.5 42.5z" />
    <glyph glyph-name="uni029C" unicode="&#x29c;" horiz-adv-x="377" 
d="M295 600h37v-600h-37v290h-213v-290h-37v600h37v-273h213v273z" />
    <glyph glyph-name="uni029F" unicode="&#x29f;" horiz-adv-x="309" 
d="M291 0v37h-214v563h-37v-600h251z" />
    <glyph glyph-name="circumflex" unicode="&#x2c6;" horiz-adv-x="203" 
d="M78 835h47l68 -98h-27l-64 72l-65 -72h-27z" />
    <glyph glyph-name="caron" unicode="&#x2c7;" horiz-adv-x="203" 
d="M78 737l-68 98h27l65 -72l64 72h27l-68 -98h-47z" />
    <glyph glyph-name="breve" unicode="&#x2d8;" horiz-adv-x="216" 
d="M206 835q0 -40 -28.5 -69t-69.5 -29q-40 0 -69 29t-29 69h37q0 -25 18 -43t43 -18q26 0 43.5 18t17.5 43h37z" />
    <glyph glyph-name="dotaccent" unicode="&#x2d9;" horiz-adv-x="76" 
d="M58 784q-8 8 -20 8q-11 0 -19.5 -8t-8.5 -20q0 -11 8.5 -19t19.5 -8q12 0 20 8t8 19q0 12 -8 20z" />
    <glyph glyph-name="ring" unicode="&#x2da;" horiz-adv-x="140" 
d="M112.5 755.5q17.5 17.5 17.5 42.5t-17.5 43t-42.5 18t-42.5 -18t-17.5 -43t17.5 -42.5t42.5 -17.5t42.5 17.5zM86.5 815q6.5 -7 6.5 -17q0 -9 -6.5 -16t-16.5 -7t-16.5 7t-6.5 16q0 10 6.5 17t16.5 7t16.5 -7z" />
    <glyph glyph-name="tilde" unicode="&#x2dc;" horiz-adv-x="272" 
d="M89 769q17 0 40 -14q29 -18 55 -18q41 0 78 46l-29 24q-24 -32 -50 -32q-17 0 -35 11q-34 20 -59 20q-40 0 -79 -47l29 -23q27 33 50 33z" />
    <glyph glyph-name="hungarumlaut" unicode="&#x2dd;" horiz-adv-x="243" 
d="M78 835h47l-88 -98h-27zM186 835h47l-88 -98h-27z" />
    <glyph glyph-name="gravecomb" unicode="&#x300;" horiz-adv-x="0" 
d="M-78 835l68 -98h-27l-88 98h47z" />
    <glyph glyph-name="acutecomb" unicode="&#x301;" horiz-adv-x="0" 
d="M-57 835h47l-88 -98h-27z" />
    <glyph glyph-name="uni0302" unicode="&#x302;" horiz-adv-x="0" 
d="M-125 835h47l68 -98h-27l-64 72l-65 -72h-27z" />
    <glyph glyph-name="tildecomb" unicode="&#x303;" horiz-adv-x="0" 
d="M-183 769q17 0 40 -14q29 -18 55 -18q41 0 78 46l-29 24q-24 -32 -50 -32q-17 0 -35 11q-34 20 -59 20q-40 0 -79 -47l29 -23q27 33 50 33z" />
    <glyph glyph-name="uni0304" unicode="&#x304;" horiz-adv-x="0" 
d="M-10 737v37h-326v-37h326z" />
    <glyph glyph-name="uni0306" unicode="&#x306;" horiz-adv-x="0" 
d="M-10 835q0 -40 -29 -69t-69 -29q-41 0 -69.5 29t-28.5 69h37q0 -25 17.5 -43t43.5 -18q25 0 43 18t18 43h37z" />
    <glyph glyph-name="uni0307" unicode="&#x307;" horiz-adv-x="0" 
d="M-18 784q-8 8 -20 8q-11 0 -19.5 -8t-8.5 -20q0 -11 8.5 -19t19.5 -8q12 0 20 8t8 19q0 12 -8 20z" />
    <glyph glyph-name="uni0308" unicode="&#x308;" horiz-adv-x="0" 
d="M-152 784q-8 8 -20 8q-11 0 -19.5 -8t-8.5 -20q0 -11 8.5 -19t19.5 -8q12 0 20 8t8 19q0 12 -8 20zM-18 784q-8 8 -20 8q-11 0 -19.5 -8t-8.5 -20q0 -11 8.5 -19t19.5 -8q12 0 20 8t8 19q0 12 -8 20z" />
    <glyph glyph-name="hookabovecomb" unicode="&#x309;" horiz-adv-x="0" 
d="M-138 830q17 5 32 5q40 0 68 -28.5t28 -69.5h-33q0 25 -18.5 43t-44.5 18z" />
    <glyph glyph-name="uni030A" unicode="&#x30a;" horiz-adv-x="0" 
d="M-27.5 755.5q17.5 17.5 17.5 42.5t-17.5 43t-42.5 18t-42.5 -18t-17.5 -43t17.5 -42.5t42.5 -17.5t42.5 17.5zM-53.5 815q6.5 -7 6.5 -17q0 -9 -6.5 -16t-16.5 -7t-16.5 7t-6.5 16q0 10 6.5 17t16.5 7t16.5 -7z" />
    <glyph glyph-name="uni030B" unicode="&#x30b;" horiz-adv-x="0" 
d="M-165 835h47l-88 -98h-27zM-57 835h47l-88 -98h-27z" />
    <glyph glyph-name="uni030C" unicode="&#x30c;" horiz-adv-x="0" 
d="M-125 737l-68 98h27l65 -72l64 72h27l-68 -98h-47z" />
    <glyph glyph-name="uni0312" unicode="&#x312;" horiz-adv-x="0" 
d="M-58 791q6 13 19 30h20l-6 -15l-2 -8q0 -5 4 -9q13 -10 13 -24q0 -12 -8.5 -20t-19.5 -8t-19.5 8.5t-8.5 19.5q0 12 8 26z" />
    <glyph glyph-name="uni031B" unicode="&#x31b;" horiz-adv-x="0" 
d="M-41 636q9 9 9 22v42h22v-42q0 -22 -15.5 -37.5t-37.5 -15.5v22q13 0 22 9z" />
    <glyph glyph-name="dotbelowcomb" unicode="&#x323;" horiz-adv-x="0" 
d="M-18 -48q-8 8 -20 8q-11 0 -19.5 -8t-8.5 -20q0 -11 8.5 -19t19.5 -8q12 0 20 8t8 19q0 12 -8 20z" />
    <glyph glyph-name="uni0326" unicode="&#x326;" horiz-adv-x="0" 
d="M-18 -94q-6 -13 -19 -30h-20l6 15l2 8q0 5 -4 9q-13 10 -13 24q0 12 8.5 20t19.5 8t19.5 -8.5t8.5 -19.5q0 -12 -8 -26z" />
    <glyph glyph-name="uni0327" unicode="&#x327;" horiz-adv-x="0" 
d="M-48 -8.5q3 -3.5 7 -6.5q15 -12 23 -22.5t8 -30.5q0 -25 -17.5 -43t-42.5 -18t-43 18t-18 43h37q0 -10 7 -17t17 -7t16.5 7t6.5 17q0 8 -3.5 12.5t-12.5 11.5l-3 2q-11 9 -16.5 17t-5.5 25h37q0 -5 3 -8.5z" />
    <glyph glyph-name="uni0328" unicode="&#x328;" horiz-adv-x="0" 
d="M-17 -119h-19q-36 0 -57.5 12t-21.5 36q0 36 68 71h37q-21 -8 -40.5 -24t-19.5 -33q0 -14 14.5 -19t29.5 -5h9v-38z" />
    <glyph glyph-name="uni0331" unicode="&#x331;" horiz-adv-x="0" 
d="M-10 -77v37h-326v-37h326z" />
    <glyph glyph-name="uni0335" unicode="&#x335;" horiz-adv-x="0" 
d="M-10 340v37h-326v-37h326z" />
    <glyph glyph-name="uni0336" unicode="&#x336;" horiz-adv-x="0" 
d="M-10 340v37h-326v-37h326z" />
    <glyph glyph-name="uni1E04" unicode="&#x1e04;" horiz-adv-x="362" 
d="M284 32q43 39 43 114v72q0 75 -43 115q-13 11 -32 21q9 5 15 12q43 39 43 115v73q0 75 -43 113q-36 33 -100 33h-127v-700h144q63 0 100 32zM77 331h106q48 0 76 -25q31 -29 31 -88v-72q0 -109 -106 -109h-107v294zM77 663h90q49 0 76 -24q30 -25 30 -85v-73
q0 -61 -31 -88q-26 -25 -75 -25h-90v295zM204 -48q-8 8 -20 8q-11 0 -19.5 -8t-8.5 -20q0 -11 8.5 -19t19.5 -8q12 0 20 8t8 19q0 12 -8 20z" />
    <glyph glyph-name="uni1E05" unicode="&#x1e05;" horiz-adv-x="362" 
d="M284 32q43 39 43 114v72q0 75 -43 115q-13 11 -32 21q9 5 15 12q43 39 43 115v73q0 75 -43 113q-36 33 -100 33h-127v-700h144q63 0 100 32zM77 331h106q48 0 76 -25q31 -29 31 -88v-72q0 -109 -106 -109h-107v294zM77 663h90q49 0 76 -24q30 -25 30 -85v-73
q0 -61 -31 -88q-26 -25 -75 -25h-90v295zM204 -48q-8 8 -20 8q-11 0 -19.5 -8t-8.5 -20q0 -11 8.5 -19t19.5 -8q12 0 20 8t8 19q0 12 -8 20z" />
    <glyph glyph-name="uni1E0C" unicode="&#x1e0c;" horiz-adv-x="354" 
d="M283 32q43 39 43 114v404q0 76 -42 115q-38 35 -101 35h-143v-700h143q63 0 100 32zM77 663h106q48 0 76 -25q30 -28 30 -88v-404q0 -109 -106 -109h-106v626zM203 -48q-8 8 -20 8q-11 0 -19.5 -8t-8.5 -20q0 -11 8.5 -19t19.5 -8q12 0 20 8t8 19q0 12 -8 20z" />
    <glyph glyph-name="uni1E0D" unicode="&#x1e0d;" horiz-adv-x="354" 
d="M283 32q43 39 43 114v404q0 76 -42 115q-38 35 -101 35h-143v-700h143q63 0 100 32zM77 663h106q48 0 76 -25q30 -28 30 -88v-404q0 -109 -106 -109h-106v626zM203 -48q-8 8 -20 8q-11 0 -19.5 -8t-8.5 -20q0 -11 8.5 -19t19.5 -8q12 0 20 8t8 19q0 12 -8 20z" />
    <glyph glyph-name="uni1E0E" unicode="&#x1e0e;" horiz-adv-x="354" 
d="M283 32q43 39 43 114v404q0 76 -42 115q-38 35 -101 35h-143v-700h143q63 0 100 32zM77 663h106q48 0 76 -25q30 -28 30 -88v-404q0 -109 -106 -109h-106v626zM346 -77v37h-326v-37h326z" />
    <glyph glyph-name="uni1E0F" unicode="&#x1e0f;" horiz-adv-x="354" 
d="M283 32q43 39 43 114v404q0 76 -42 115q-38 35 -101 35h-143v-700h143q63 0 100 32zM77 663h106q48 0 76 -25q30 -28 30 -88v-404q0 -109 -106 -109h-106v626zM346 -77v37h-326v-37h326z" />
    <glyph glyph-name="uni1E12" unicode="&#x1e12;" horiz-adv-x="354" 
d="M283 32q43 39 43 114v404q0 76 -42 115q-38 35 -101 35h-143v-700h143q63 0 100 32zM77 663h106q48 0 76 -25q30 -28 30 -88v-404q0 -109 -106 -109h-106v626zM159 -40h47l68 -98h-27l-64 72l-65 -72h-27z" />
    <glyph glyph-name="uni1E13" unicode="&#x1e13;" horiz-adv-x="354" 
d="M283 32q43 39 43 114v404q0 76 -42 115q-38 35 -101 35h-143v-700h143q63 0 100 32zM77 663h106q48 0 76 -25q30 -28 30 -88v-404q0 -109 -106 -109h-106v626zM159 -40h47l68 -98h-27l-64 72l-65 -72h-27z" />
    <glyph glyph-name="uni1E24" unicode="&#x1e24;" horiz-adv-x="377" 
d="M295 700h37v-700h-37v340h-213v-340h-37v700h37v-323h213v323zM209 -94q-6 -13 -19 -30h-20l6 15l2 8q0 5 -4 9q-13 10 -13 24q0 12 8.5 20t19.5 8t19.5 -8.5t8.5 -19.5q0 -12 -8 -26z" />
    <glyph glyph-name="uni1E25" unicode="&#x1e25;" horiz-adv-x="377" 
d="M295 700h37v-700h-37v340h-213v-340h-37v700h37v-323h213v323zM209 -94q-6 -13 -19 -30h-20l6 15l2 8q0 5 -4 9q-13 10 -13 24q0 12 8.5 20t19.5 8t19.5 -8.5t8.5 -19.5q0 -12 -8 -26z" />
    <glyph glyph-name="uni1E2E" unicode="&#x1e2e;" horiz-adv-x="127" 
d="M82 0v700h-37v-700h37zM17 784q-8 8 -20 8q-11 0 -19.5 -8t-8.5 -20q0 -11 8.5 -19t19.5 -8q12 0 20 8t8 19q0 12 -8 20zM151 784q-8 8 -20 8q-11 0 -19.5 -8t-8.5 -20q0 -11 8.5 -19t19.5 -8q12 0 20 8t8 19q0 12 -8 20zM118 928h47l-88 -98h-27z" />
    <glyph glyph-name="uni1E2F" unicode="&#x1e2f;" horiz-adv-x="127" 
d="M82 0v700h-37v-700h37zM17 784q-8 8 -20 8q-11 0 -19.5 -8t-8.5 -20q0 -11 8.5 -19t19.5 -8q12 0 20 8t8 19q0 12 -8 20zM151 784q-8 8 -20 8q-11 0 -19.5 -8t-8.5 -20q0 -11 8.5 -19t19.5 -8q12 0 20 8t8 19q0 12 -8 20zM118 928h47l-88 -98h-27z" />
    <glyph glyph-name="uni1E36" unicode="&#x1e36;" horiz-adv-x="309" 
d="M291 0v37h-214v663h-37v-700h251zM186 -48q-8 8 -20 8q-11 0 -19.5 -8t-8.5 -20q0 -11 8.5 -19t19.5 -8q12 0 20 8t8 19q0 12 -8 20z" />
    <glyph glyph-name="uni1E37" unicode="&#x1e37;" horiz-adv-x="309" 
d="M291 0v37h-214v663h-37v-700h251zM186 -48q-8 8 -20 8q-11 0 -19.5 -8t-8.5 -20q0 -11 8.5 -19t19.5 -8q12 0 20 8t8 19q0 12 -8 20z" />
    <glyph glyph-name="uni1E3C" unicode="&#x1e3c;" horiz-adv-x="309" 
d="M291 0v37h-214v663h-37v-700h251zM142 -40h47l68 -98h-27l-64 72l-65 -72h-27z" />
    <glyph glyph-name="uni1E3D" unicode="&#x1e3d;" horiz-adv-x="309" 
d="M291 0v37h-214v663h-37v-700h251zM142 -40h47l68 -98h-27l-64 72l-65 -72h-27z" />
    <glyph glyph-name="uni1E3E" unicode="&#x1e3e;" horiz-adv-x="499" 
d="M250 179l189 521h20v-700h-37v558l-162 -448h-21l-162 448v-558h-37v700h20zM304 835h47l-88 -98h-27z" />
    <glyph glyph-name="uni1E3F" unicode="&#x1e3f;" horiz-adv-x="499" 
d="M250 179l189 521h20v-700h-37v558l-162 -448h-21l-162 448v-558h-37v700h20zM304 835h47l-88 -98h-27z" />
    <glyph glyph-name="uni1E44" unicode="&#x1e44;" horiz-adv-x="387" 
d="M342 700v-700h-20l-240 570v-570h-37v700h20l240 -570v570h37zM213 784q-8 8 -20 8q-11 0 -19.5 -8t-8.5 -20q0 -11 8.5 -19t19.5 -8q12 0 20 8t8 19q0 12 -8 20z" />
    <glyph glyph-name="uni1E45" unicode="&#x1e45;" horiz-adv-x="387" 
d="M342 700v-700h-20l-240 570v-570h-37v700h20l240 -570v570h37zM213 784q-8 8 -20 8q-11 0 -19.5 -8t-8.5 -20q0 -11 8.5 -19t19.5 -8q12 0 20 8t8 19q0 12 -8 20z" />
    <glyph glyph-name="uni1E46" unicode="&#x1e46;" horiz-adv-x="387" 
d="M342 700v-700h-20l-240 570v-570h-37v700h20l240 -570v570h37zM213 -48q-8 8 -20 8q-11 0 -19.5 -8t-8.5 -20q0 -11 8.5 -19t19.5 -8q12 0 20 8t8 19q0 12 -8 20z" />
    <glyph glyph-name="uni1E47" unicode="&#x1e47;" horiz-adv-x="387" 
d="M342 700v-700h-20l-240 570v-570h-37v700h20l240 -570v570h37zM213 -48q-8 8 -20 8q-11 0 -19.5 -8t-8.5 -20q0 -11 8.5 -19t19.5 -8q12 0 20 8t8 19q0 12 -8 20z" />
    <glyph glyph-name="uni1E4A" unicode="&#x1e4a;" horiz-adv-x="387" 
d="M342 700v-700h-20l-240 570v-570h-37v700h20l240 -570v570h37zM170 -40h47l68 -98h-27l-64 72l-65 -72h-27z" />
    <glyph glyph-name="uni1E4B" unicode="&#x1e4b;" horiz-adv-x="387" 
d="M342 700v-700h-20l-240 570v-570h-37v700h20l240 -570v570h37zM170 -40h47l68 -98h-27l-64 72l-65 -72h-27z" />
    <glyph glyph-name="uni1E4C" unicode="&#x1e4c;" 
d="M278 26q43 39 43 115v418q0 76 -43 115q-37 35 -100 35q-64 0 -101 -35q-43 -40 -43 -115v-418q0 -75 43 -115q37 -35 101 -35q63 0 100 35zM253 647q31 -28 31 -88v-418q0 -60 -31 -88q-26 -25 -75 -25q-50 0 -76 25q-31 29 -31 88v418q0 59 31 88q28 25 76 25
q47 0 75 -25zM233 942h47l-88 -98h-27zM131 769q17 0 40 -14q29 -18 55 -18q41 0 78 46l-29 24q-24 -32 -50 -32q-17 0 -35 11q-34 20 -59 20q-40 0 -79 -47l29 -23q27 33 50 33z" />
    <glyph glyph-name="uni1E4D" unicode="&#x1e4d;" 
d="M278 26q43 39 43 115v418q0 76 -43 115q-37 35 -100 35q-64 0 -101 -35q-43 -40 -43 -115v-418q0 -75 43 -115q37 -35 101 -35q63 0 100 35zM253 647q31 -28 31 -88v-418q0 -60 -31 -88q-26 -25 -75 -25q-50 0 -76 25q-31 29 -31 88v418q0 59 31 88q28 25 76 25
q47 0 75 -25zM233 942h47l-88 -98h-27zM131 769q17 0 40 -14q29 -18 55 -18q41 0 78 46l-29 24q-24 -32 -50 -32q-17 0 -35 11q-34 20 -59 20q-40 0 -79 -47l29 -23q27 33 50 33z" />
    <glyph glyph-name="uni1E50" unicode="&#x1e50;" 
d="M278 26q43 39 43 115v418q0 76 -43 115q-37 35 -100 35q-64 0 -101 -35q-43 -40 -43 -115v-418q0 -75 43 -115q37 -35 101 -35q63 0 100 35zM253 647q31 -28 31 -88v-418q0 -60 -31 -88q-26 -25 -75 -25q-50 0 -76 25q-31 29 -31 88v418q0 59 31 88q28 25 76 25
q47 0 75 -25zM14 737h327v37h-327v-37zM233 910h47l-88 -98h-27z" />
    <glyph glyph-name="uni1E51" unicode="&#x1e51;" 
d="M278 26q43 39 43 115v418q0 76 -43 115q-37 35 -100 35q-64 0 -101 -35q-43 -40 -43 -115v-418q0 -75 43 -115q37 -35 101 -35q63 0 100 35zM253 647q31 -28 31 -88v-418q0 -60 -31 -88q-26 -25 -75 -25q-50 0 -76 25q-31 29 -31 88v418q0 59 31 88q28 25 76 25
q47 0 75 -25zM14 737h327v37h-327v-37zM233 910h47l-88 -98h-27z" />
    <glyph glyph-name="uni1E52" unicode="&#x1e52;" 
d="M278 26q43 40 43 115v418q0 75 -43 115q-37 35 -101 35q-63 0 -100 -35q-43 -39 -43 -115v-418q0 -76 43 -115q37 -35 100 -35q64 0 101 35zM253 647q31 -29 31 -88v-418q0 -59 -31 -88q-26 -25 -76 -25q-49 0 -75 25q-31 28 -31 88v418q0 60 31 88q28 25 75 25
q48 0 76 -25zM341 737v37h-327v-37h327zM122 910l68 -98h-27l-88 98h47z" />
    <glyph glyph-name="uni1E53" unicode="&#x1e53;" 
d="M278 26q43 40 43 115v418q0 75 -43 115q-37 35 -101 35q-63 0 -100 -35q-43 -39 -43 -115v-418q0 -76 43 -115q37 -35 100 -35q64 0 101 35zM253 647q31 -29 31 -88v-418q0 -59 -31 -88q-26 -25 -76 -25q-49 0 -75 25q-31 28 -31 88v418q0 60 31 88q28 25 75 25
q48 0 76 -25zM341 737v37h-327v-37h327zM122 910l68 -98h-27l-88 98h47z" />
    <glyph glyph-name="uni1E62" unicode="&#x1e62;" horiz-adv-x="347" 
d="M275 26q42 39 42 115v49q0 134 -135 193q-24 10 -47 24t-45.5 47t-22.5 85v20q0 59 31 88q26 25 76 25t75 -25q31 -28 31 -88v-68h37v68q0 76 -42 115q-38 35 -101 35q-64 0 -101 -35q-43 -40 -43 -115v-20q0 -89 46 -131t91 -59q37 -15 75 -51t38 -108v-49
q0 -60 -31 -88q-27 -25 -75 -25q-50 0 -76 25q-31 29 -31 88v102h-37v-102q0 -75 43 -115q37 -35 101 -35q63 0 101 35zM193 -48q-8 8 -20 8q-11 0 -19.5 -8t-8.5 -20q0 -11 8.5 -19t19.5 -8q12 0 20 8t8 19q0 12 -8 20z" />
    <glyph glyph-name="uni1E63" unicode="&#x1e63;" horiz-adv-x="347" 
d="M275 26q42 39 42 115v49q0 134 -135 193q-24 10 -47 24t-45.5 47t-22.5 85v20q0 59 31 88q26 25 76 25t75 -25q31 -28 31 -88v-68h37v68q0 76 -42 115q-38 35 -101 35q-64 0 -101 -35q-43 -40 -43 -115v-20q0 -89 46 -131t91 -59q37 -15 75 -51t38 -108v-49
q0 -60 -31 -88q-27 -25 -75 -25q-50 0 -76 25q-31 29 -31 88v102h-37v-102q0 -75 43 -115q37 -35 101 -35q63 0 101 35zM193 -48q-8 8 -20 8q-11 0 -19.5 -8t-8.5 -20q0 -11 8.5 -19t19.5 -8q12 0 20 8t8 19q0 12 -8 20z" />
    <glyph glyph-name="uni1E6C" unicode="&#x1e6c;" horiz-adv-x="327" 
d="M315 700v-37h-133v-663h-37v663h-132v37h302zM184 -48q-8 8 -20 8q-11 0 -19.5 -8t-8.5 -20q0 -11 8.5 -19t19.5 -8q12 0 20 8t8 19q0 12 -8 20z" />
    <glyph glyph-name="uni1E6D" unicode="&#x1e6d;" horiz-adv-x="327" 
d="M315 700v-37h-133v-663h-37v663h-132v37h302zM184 -48q-8 8 -20 8q-11 0 -19.5 -8t-8.5 -20q0 -11 8.5 -19t19.5 -8q12 0 20 8t8 19q0 12 -8 20z" />
    <glyph glyph-name="uni1E6E" unicode="&#x1e6e;" horiz-adv-x="328" 
d="M315 700v-37h-133v-663h-37v663h-132v37h302zM327 -77v37h-326v-37h326z" />
    <glyph glyph-name="uni1E6F" unicode="&#x1e6f;" horiz-adv-x="328" 
d="M315 700v-37h-133v-663h-37v663h-132v37h302zM327 -77v37h-326v-37h326z" />
    <glyph glyph-name="uni1E70" unicode="&#x1e70;" horiz-adv-x="327" 
d="M315 700v-37h-133v-663h-37v663h-132v37h302zM140 -40h47l68 -98h-27l-64 72l-65 -72h-27z" />
    <glyph glyph-name="uni1E71" unicode="&#x1e71;" horiz-adv-x="327" 
d="M315 700v-37h-133v-663h-37v663h-132v37h302zM140 -40h47l68 -98h-27l-64 72l-65 -72h-27z" />
    <glyph glyph-name="Wgrave" unicode="&#x1e80;" horiz-adv-x="505" 
d="M253 491l-126 -491h-20l-86 700h38l68 -566l116 455h20l116 -454l68 565h38l-86 -700h-20zM198 835l68 -98h-27l-88 98h47z" />
    <glyph glyph-name="wgrave" unicode="&#x1e81;" horiz-adv-x="505" 
d="M253 491l-126 -491h-20l-86 700h38l68 -566l116 455h20l116 -454l68 565h38l-86 -700h-20zM198 835l68 -98h-27l-88 98h47z" />
    <glyph glyph-name="Wacute" unicode="&#x1e82;" horiz-adv-x="505" 
d="M253 491l-126 -491h-20l-86 700h38l68 -566l116 455h20l116 -454l68 565h38l-86 -700h-20zM307 835h47l-88 -98h-27z" />
    <glyph glyph-name="wacute" unicode="&#x1e83;" horiz-adv-x="505" 
d="M253 491l-126 -491h-20l-86 700h38l68 -566l116 455h20l116 -454l68 565h38l-86 -700h-20zM307 835h47l-88 -98h-27z" />
    <glyph glyph-name="Wdieresis" unicode="&#x1e84;" horiz-adv-x="505" 
d="M253 491l-126 -491h-20l-86 700h38l68 -566l116 455h20l116 -454l68 565h38l-86 -700h-20zM206 784q-8 8 -20 8q-11 0 -19.5 -8t-8.5 -20q0 -11 8.5 -19t19.5 -8q12 0 20 8t8 19q0 12 -8 20zM340 784q-8 8 -20 8q-11 0 -19.5 -8t-8.5 -20q0 -11 8.5 -19t19.5 -8
q12 0 20 8t8 19q0 12 -8 20z" />
    <glyph glyph-name="wdieresis" unicode="&#x1e85;" horiz-adv-x="505" 
d="M253 491l-126 -491h-20l-86 700h38l68 -566l116 455h20l116 -454l68 565h38l-86 -700h-20zM206 784q-8 8 -20 8q-11 0 -19.5 -8t-8.5 -20q0 -11 8.5 -19t19.5 -8q12 0 20 8t8 19q0 12 -8 20zM340 784q-8 8 -20 8q-11 0 -19.5 -8t-8.5 -20q0 -11 8.5 -19t19.5 -8
q12 0 20 8t8 19q0 12 -8 20z" />
    <glyph glyph-name="uni1E92" unicode="&#x1e92;" horiz-adv-x="353" 
d="M328 0v37h-249l248 663h-302v-37h249l-249 -663h303zM196 -48q-8 8 -20 8q-11 0 -19.5 -8t-8.5 -20q0 -11 8.5 -19t19.5 -8q12 0 20 8t8 19q0 12 -8 20z" />
    <glyph glyph-name="uni1E93" unicode="&#x1e93;" horiz-adv-x="353" 
d="M328 0v37h-249l248 663h-302v-37h249l-249 -663h303zM196 -48q-8 8 -20 8q-11 0 -19.5 -8t-8.5 -20q0 -11 8.5 -19t19.5 -8q12 0 20 8t8 19q0 12 -8 20z" />
    <glyph glyph-name="uni1EA0" unicode="&#x1ea0;" horiz-adv-x="382" 
d="M327 0l-40 184h-193l-40 -184h-38l156 700h37l156 -700h-38zM103 221h175l-87 402zM211 -48q-8 8 -20 8q-11 0 -19.5 -8t-8.5 -20q0 -11 8.5 -19t19.5 -8q12 0 20 8t8 19q0 12 -8 20z" />
    <glyph glyph-name="uni1EA1" unicode="&#x1ea1;" horiz-adv-x="382" 
d="M327 0l-40 184h-193l-40 -184h-38l156 700h37l156 -700h-38zM103 221h175l-87 402zM211 -48q-8 8 -20 8q-11 0 -19.5 -8t-8.5 -20q0 -11 8.5 -19t19.5 -8q12 0 20 8t8 19q0 12 -8 20z" />
    <glyph glyph-name="uni1EA2" unicode="&#x1ea2;" horiz-adv-x="382" 
d="M327 0l-40 184h-193l-40 -184h-38l156 700h37l156 -700h-38zM103 221h175l-87 402zM79 830q17 5 32 5q40 0 68 -28.5t28 -69.5h-33q0 25 -18.5 43t-44.5 18z" />
    <glyph glyph-name="uni1EA3" unicode="&#x1ea3;" horiz-adv-x="382" 
d="M327 0l-40 184h-193l-40 -184h-38l156 700h37l156 -700h-38zM103 221h175l-87 402zM79 830q17 5 32 5q40 0 68 -28.5t28 -69.5h-33q0 25 -18.5 43t-44.5 18z" />
    <glyph glyph-name="uni1EA4" unicode="&#x1ea4;" horiz-adv-x="392" 
d="M327 0l-40 184h-193l-40 -184h-38l156 700h37l156 -700h-38zM103 221h175l-87 402zM167 835h47l68 -98h-27l-64 72l-65 -72h-27zM328 935h47l-88 -98h-27z" />
    <glyph glyph-name="uni1EA5" unicode="&#x1ea5;" horiz-adv-x="392" 
d="M327 0l-40 184h-193l-40 -184h-38l156 700h37l156 -700h-38zM103 221h175l-87 402zM167 835h47l68 -98h-27l-64 72l-65 -72h-27zM328 935h47l-88 -98h-27z" />
    <glyph glyph-name="uni1EA6" unicode="&#x1ea6;" horiz-adv-x="382" 
d="M327 0l-40 184h-193l-40 -184h-38l156 700h37l156 -700h-38zM103 221h175l-87 402zM167 835h47l68 -98h-27l-64 72l-65 -72h-27zM219 935l68 -98h-27l-88 98h47z" />
    <glyph glyph-name="uni1EA7" unicode="&#x1ea7;" horiz-adv-x="382" 
d="M327 0l-40 184h-193l-40 -184h-38l156 700h37l156 -700h-38zM103 221h175l-87 402zM167 835h47l68 -98h-27l-64 72l-65 -72h-27zM219 935l68 -98h-27l-88 98h47z" />
    <glyph glyph-name="uni1EA8" unicode="&#x1ea8;" horiz-adv-x="382" 
d="M327 0l-40 184h-193l-40 -184h-38l156 700h37l156 -700h-38zM103 221h175l-87 402zM167 835h47l68 -98h-27l-64 72l-65 -72h-27zM79 956q17 5 32 5q40 0 68 -28.5t28 -69.5h-33q0 25 -18.5 43t-44.5 18z" />
    <glyph glyph-name="uni1EA9" unicode="&#x1ea9;" horiz-adv-x="382" 
d="M327 0l-40 184h-193l-40 -184h-38l156 700h37l156 -700h-38zM103 221h175l-87 402zM167 835h47l68 -98h-27l-64 72l-65 -72h-27zM79 956q17 5 32 5q40 0 68 -28.5t28 -69.5h-33q0 25 -18.5 43t-44.5 18z" />
    <glyph glyph-name="uni1EAA" unicode="&#x1eaa;" horiz-adv-x="382" 
d="M327 0l-40 184h-193l-40 -184h-38l156 700h37l156 -700h-38zM103 221h175l-87 402zM167 835h47l68 -98h-27l-64 72l-65 -72h-27zM141 895q17 0 40 -14q28 -18 55 -18q41 0 78 46l-29 24q-24 -32 -50 -32q-17 0 -35 11q-34 20 -59 20q-40 0 -79 -47l29 -23q27 33 50 33z
" />
    <glyph glyph-name="uni1EAB" unicode="&#x1eab;" horiz-adv-x="382" 
d="M327 0l-40 184h-193l-40 -184h-38l156 700h37l156 -700h-38zM103 221h175l-87 402zM167 835h47l68 -98h-27l-64 72l-65 -72h-27zM141 895q17 0 40 -14q28 -18 55 -18q41 0 78 46l-29 24q-24 -32 -50 -32q-17 0 -35 11q-34 20 -59 20q-40 0 -79 -47l29 -23q27 33 50 33z
" />
    <glyph glyph-name="uni1EAC" unicode="&#x1eac;" horiz-adv-x="382" 
d="M327 0l-40 184h-193l-40 -184h-38l156 700h37l156 -700h-38zM103 221h175l-87 402zM167 835h47l68 -98h-27l-64 72l-65 -72h-27zM211 -48q-8 8 -20 8q-11 0 -19.5 -8t-8.5 -20q0 -11 8.5 -19t19.5 -8q12 0 20 8t8 19q0 12 -8 20z" />
    <glyph glyph-name="uni1EAD" unicode="&#x1ead;" horiz-adv-x="382" 
d="M327 0l-40 184h-193l-40 -184h-38l156 700h37l156 -700h-38zM103 221h175l-87 402zM167 835h47l68 -98h-27l-64 72l-65 -72h-27zM211 -48q-8 8 -20 8q-11 0 -19.5 -8t-8.5 -20q0 -11 8.5 -19t19.5 -8q12 0 20 8t8 19q0 12 -8 20z" />
    <glyph glyph-name="uni1EAE" unicode="&#x1eae;" horiz-adv-x="382" 
d="M327 0l-40 184h-193l-40 -184h-38l156 700h37l156 -700h-38zM103 221h175l-87 402zM289 835q0 -40 -28.5 -69t-69.5 -29q-40 0 -69 29t-29 69h37q0 -25 18 -43t43 -18q26 0 43.5 18t17.5 43h37zM245 961h47l-88 -98h-27z" />
    <glyph glyph-name="uni1EAF" unicode="&#x1eaf;" horiz-adv-x="382" 
d="M327 0l-40 184h-193l-40 -184h-38l156 700h37l156 -700h-38zM103 221h175l-87 402zM289 835q0 -40 -28.5 -69t-69.5 -29q-40 0 -69 29t-29 69h37q0 -25 18 -43t43 -18q26 0 43.5 18t17.5 43h37zM245 961h47l-88 -98h-27z" />
    <glyph glyph-name="uni1EB0" unicode="&#x1eb0;" horiz-adv-x="382" 
d="M327 0l-40 184h-193l-40 -184h-38l156 700h37l156 -700h-38zM103 221h175l-87 402zM148 792q18 -18 43 -18q26 0 43.5 18t17.5 43h37q0 -40 -28.5 -69t-69.5 -29q-40 0 -69 29t-29 69h37q0 -25 18 -43zM137 961l68 -98h-27l-88 98h47z" />
    <glyph glyph-name="uni1EB1" unicode="&#x1eb1;" horiz-adv-x="382" 
d="M327 0l-40 184h-193l-40 -184h-38l156 700h37l156 -700h-38zM103 221h175l-87 402zM148 792q18 -18 43 -18q26 0 43.5 18t17.5 43h37q0 -40 -28.5 -69t-69.5 -29q-40 0 -69 29t-29 69h37q0 -25 18 -43zM137 961l68 -98h-27l-88 98h47z" />
    <glyph glyph-name="uni1EB2" unicode="&#x1eb2;" horiz-adv-x="382" 
d="M327 0l-40 184h-193l-40 -184h-38l156 700h37l156 -700h-38zM103 221h175l-87 402zM289 835q0 -40 -28.5 -69t-69.5 -29q-40 0 -69 29t-29 69h37q0 -25 18 -43t43 -18q26 0 43.5 18t17.5 43h37zM79 956q17 5 32 5q40 0 68 -28.5t28 -69.5h-33q0 25 -18.5 43t-44.5 18z
" />
    <glyph glyph-name="uni1EB3" unicode="&#x1eb3;" horiz-adv-x="382" 
d="M327 0l-40 184h-193l-40 -184h-38l156 700h37l156 -700h-38zM103 221h175l-87 402zM289 835q0 -40 -28.5 -69t-69.5 -29q-40 0 -69 29t-29 69h37q0 -25 18 -43t43 -18q26 0 43.5 18t17.5 43h37zM79 956q17 5 32 5q40 0 68 -28.5t28 -69.5h-33q0 25 -18.5 43t-44.5 18z
" />
    <glyph glyph-name="uni1EB4" unicode="&#x1eb4;" horiz-adv-x="382" 
d="M327 0l-40 184h-193l-40 -184h-38l156 700h37l156 -700h-38zM103 221h175l-87 402zM289 835q0 -40 -28.5 -69t-69.5 -29q-40 0 -69 29t-29 69h37q0 -25 18 -43t43 -18q26 0 43.5 18t17.5 43h37zM141 895q17 0 40 -14q28 -18 55 -18q41 0 78 46l-29 24q-24 -32 -50 -32
q-17 0 -35 11q-34 20 -59 20q-40 0 -79 -47l29 -23q27 33 50 33z" />
    <glyph glyph-name="uni1EB5" unicode="&#x1eb5;" horiz-adv-x="382" 
d="M327 0l-40 184h-193l-40 -184h-38l156 700h37l156 -700h-38zM103 221h175l-87 402zM289 835q0 -40 -28.5 -69t-69.5 -29q-40 0 -69 29t-29 69h37q0 -25 18 -43t43 -18q26 0 43.5 18t17.5 43h37zM141 895q17 0 40 -14q28 -18 55 -18q41 0 78 46l-29 24q-24 -32 -50 -32
q-17 0 -35 11q-34 20 -59 20q-40 0 -79 -47l29 -23q27 33 50 33z" />
    <glyph glyph-name="uni1EB6" unicode="&#x1eb6;" horiz-adv-x="382" 
d="M327 0l-40 184h-193l-40 -184h-38l156 700h37l156 -700h-38zM103 221h175l-87 402zM289 835q0 -40 -28.5 -69t-69.5 -29q-40 0 -69 29t-29 69h37q0 -25 18 -43t43 -18q26 0 43.5 18t17.5 43h37zM211 -48q-8 8 -20 8q-11 0 -19.5 -8t-8.5 -20q0 -11 8.5 -19t19.5 -8
q12 0 20 8t8 19q0 12 -8 20z" />
    <glyph glyph-name="uni1EB7" unicode="&#x1eb7;" horiz-adv-x="382" 
d="M327 0l-40 184h-193l-40 -184h-38l156 700h37l156 -700h-38zM103 221h175l-87 402zM289 835q0 -40 -28.5 -69t-69.5 -29q-40 0 -69 29t-29 69h37q0 -25 18 -43t43 -18q26 0 43.5 18t17.5 43h37zM211 -48q-8 8 -20 8q-11 0 -19.5 -8t-8.5 -20q0 -11 8.5 -19t19.5 -8
q12 0 20 8t8 19q0 12 -8 20z" />
    <glyph glyph-name="uni1EB8" unicode="&#x1eb8;" horiz-adv-x="319" 
d="M291 663h-214v-286h151v-37h-151v-303h214v-37h-251v700h251v-37zM186 -48q-8 8 -20 8q-11 0 -19.5 -8t-8.5 -20q0 -11 8.5 -19t19.5 -8q12 0 20 8t8 19q0 12 -8 20z" />
    <glyph glyph-name="uni1EB9" unicode="&#x1eb9;" horiz-adv-x="319" 
d="M291 663h-214v-286h151v-37h-151v-303h214v-37h-251v700h251v-37zM186 -48q-8 8 -20 8q-11 0 -19.5 -8t-8.5 -20q0 -11 8.5 -19t19.5 -8q12 0 20 8t8 19q0 12 -8 20z" />
    <glyph glyph-name="uni1EBA" unicode="&#x1eba;" horiz-adv-x="319" 
d="M291 663h-214v-286h151v-37h-151v-303h214v-37h-251v700h251v-37zM54 830q17 5 32 5q40 0 68 -28.5t28 -69.5h-33q0 25 -18.5 43t-44.5 18z" />
    <glyph glyph-name="uni1EBB" unicode="&#x1ebb;" horiz-adv-x="319" 
d="M291 663h-214v-286h151v-37h-151v-303h214v-37h-251v700h251v-37zM54 830q17 5 32 5q40 0 68 -28.5t28 -69.5h-33q0 25 -18.5 43t-44.5 18z" />
    <glyph glyph-name="uni1EBC" unicode="&#x1ebc;" horiz-adv-x="319" 
d="M291 663h-214v-286h151v-37h-151v-303h214v-37h-251v700h251v-37zM118 769q17 0 40 -14q29 -18 55 -18q41 0 78 46l-29 24q-24 -32 -50 -32q-17 0 -35 11q-34 20 -59 20q-40 0 -79 -47l29 -23q27 33 50 33z" />
    <glyph glyph-name="uni1EBD" unicode="&#x1ebd;" horiz-adv-x="319" 
d="M291 663h-214v-286h151v-37h-151v-303h214v-37h-251v700h251v-37zM118 769q17 0 40 -14q29 -18 55 -18q41 0 78 46l-29 24q-24 -32 -50 -32q-17 0 -35 11q-34 20 -59 20q-40 0 -79 -47l29 -23q27 33 50 33z" />
    <glyph glyph-name="uni1EBE" unicode="&#x1ebe;" horiz-adv-x="319" 
d="M291 663h-214v-286h151v-37h-151v-303h214v-37h-251v700h251v-37zM142 835h47l68 -98h-27l-64 72l-65 -72h-27zM303 935h47l-88 -98h-27z" />
    <glyph glyph-name="uni1EBF" unicode="&#x1ebf;" horiz-adv-x="319" 
d="M291 663h-214v-286h151v-37h-151v-303h214v-37h-251v700h251v-37zM142 835h47l68 -98h-27l-64 72l-65 -72h-27zM303 935h47l-88 -98h-27z" />
    <glyph glyph-name="uni1EC0" unicode="&#x1ec0;" horiz-adv-x="319" 
d="M291 663h-214v-286h151v-37h-151v-303h214v-37h-251v700h251v-37zM142 835h47l68 -98h-27l-64 72l-65 -72h-27zM194 935l68 -98h-27l-88 98h47z" />
    <glyph glyph-name="uni1EC1" unicode="&#x1ec1;" horiz-adv-x="319" 
d="M291 663h-214v-286h151v-37h-151v-303h214v-37h-251v700h251v-37zM142 835h47l68 -98h-27l-64 72l-65 -72h-27zM194 935l68 -98h-27l-88 98h47z" />
    <glyph glyph-name="uni1EC2" unicode="&#x1ec2;" horiz-adv-x="319" 
d="M291 663h-214v-286h151v-37h-151v-303h214v-37h-251v700h251v-37zM142 835h47l68 -98h-27l-64 72l-65 -72h-27zM54 956q17 5 32 5q40 0 68 -28.5t28 -69.5h-33q0 25 -18.5 43t-44.5 18z" />
    <glyph glyph-name="uni1EC3" unicode="&#x1ec3;" horiz-adv-x="319" 
d="M291 663h-214v-286h151v-37h-151v-303h214v-37h-251v700h251v-37zM142 835h47l68 -98h-27l-64 72l-65 -72h-27zM54 956q17 5 32 5q40 0 68 -28.5t28 -69.5h-33q0 25 -18.5 43t-44.5 18z" />
    <glyph glyph-name="uni1EC4" unicode="&#x1ec4;" horiz-adv-x="319" 
d="M291 663h-214v-286h151v-37h-151v-303h214v-37h-251v700h251v-37zM142 835h47l68 -98h-27l-64 72l-65 -72h-27zM116 895q17 0 40 -14q28 -18 55 -18q41 0 78 46l-29 24q-24 -32 -50 -32q-17 0 -35 11q-34 20 -59 20q-40 0 -79 -47l29 -23q27 33 50 33z" />
    <glyph glyph-name="uni1EC5" unicode="&#x1ec5;" horiz-adv-x="319" 
d="M291 663h-214v-286h151v-37h-151v-303h214v-37h-251v700h251v-37zM142 835h47l68 -98h-27l-64 72l-65 -72h-27zM116 895q17 0 40 -14q28 -18 55 -18q41 0 78 46l-29 24q-24 -32 -50 -32q-17 0 -35 11q-34 20 -59 20q-40 0 -79 -47l29 -23q27 33 50 33z" />
    <glyph glyph-name="uni1EC6" unicode="&#x1ec6;" horiz-adv-x="319" 
d="M291 663h-214v-286h151v-37h-151v-303h214v-37h-251v700h251v-37zM142 835h47l68 -98h-27l-64 72l-65 -72h-27zM186 -48q-8 8 -20 8q-11 0 -19.5 -8t-8.5 -20q0 -11 8.5 -19t19.5 -8q12 0 20 8t8 19q0 12 -8 20z" />
    <glyph glyph-name="uni1EC7" unicode="&#x1ec7;" horiz-adv-x="319" 
d="M291 663h-214v-286h151v-37h-151v-303h214v-37h-251v700h251v-37zM142 835h47l68 -98h-27l-64 72l-65 -72h-27zM186 -48q-8 8 -20 8q-11 0 -19.5 -8t-8.5 -20q0 -11 8.5 -19t19.5 -8q12 0 20 8t8 19q0 12 -8 20z" />
    <glyph glyph-name="uni1EC8" unicode="&#x1ec8;" horiz-adv-x="127" 
d="M82 0v700h-37v-700h37zM-48 830q17 5 32 5q40 0 68 -28.5t28 -69.5h-33q0 25 -18.5 43t-44.5 18z" />
    <glyph glyph-name="uni1EC9" unicode="&#x1ec9;" horiz-adv-x="127" 
d="M82 0v700h-37v-700h37zM-48 830q17 5 32 5q40 0 68 -28.5t28 -69.5h-33q0 25 -18.5 43t-44.5 18z" />
    <glyph glyph-name="uni1ECA" unicode="&#x1eca;" horiz-adv-x="128" 
d="M82 0v700h-37v-700h37zM84 -48q-8 8 -20 8q-11 0 -19.5 -8t-8.5 -20q0 -11 8.5 -19t19.5 -8q12 0 20 8t8 19q0 12 -8 20z" />
    <glyph glyph-name="uni1ECB" unicode="&#x1ecb;" horiz-adv-x="128" 
d="M82 0v700h-37v-700h37zM84 -48q-8 8 -20 8q-11 0 -19.5 -8t-8.5 -20q0 -11 8.5 -19t19.5 -8q12 0 20 8t8 19q0 12 -8 20z" />
    <glyph glyph-name="uni1ECC" unicode="&#x1ecc;" 
d="M278 26q43 40 43 115v418q0 75 -43 115q-37 35 -101 35q-63 0 -100 -35q-43 -39 -43 -115v-418q0 -76 43 -115q37 -35 100 -35q64 0 101 35zM253 647q31 -29 31 -88v-418q0 -59 -31 -88q-26 -25 -76 -25q-49 0 -75 25q-31 28 -31 88v418q0 60 31 88q28 25 75 25
q48 0 76 -25zM197 -48q-8 8 -20 8q-11 0 -19.5 -8t-8.5 -20q0 -11 8.5 -19t19.5 -8q12 0 20 8t8 19q0 12 -8 20z" />
    <glyph glyph-name="uni1ECD" unicode="&#x1ecd;" 
d="M278 26q43 40 43 115v418q0 75 -43 115q-37 35 -101 35q-63 0 -100 -35q-43 -39 -43 -115v-418q0 -76 43 -115q37 -35 100 -35q64 0 101 35zM253 647q31 -29 31 -88v-418q0 -59 -31 -88q-26 -25 -76 -25q-49 0 -75 25q-31 28 -31 88v418q0 60 31 88q28 25 75 25
q48 0 76 -25zM197 -48q-8 8 -20 8q-11 0 -19.5 -8t-8.5 -20q0 -11 8.5 -19t19.5 -8q12 0 20 8t8 19q0 12 -8 20z" />
    <glyph glyph-name="uni1ECE" unicode="&#x1ece;" 
d="M60 830q17 5 32 5q40 0 68 -28.5t28 -69.5h-33q0 25 -18.5 43t-44.5 18zM278 26q43 40 43 115v418q0 75 -43 115q-37 35 -101 35q-63 0 -100 -35q-43 -39 -43 -115v-418q0 -76 43 -115q37 -35 100 -35q64 0 101 35zM253 647q31 -29 31 -88v-418q0 -59 -31 -88
q-26 -25 -76 -25q-49 0 -75 25q-31 28 -31 88v418q0 60 31 88q28 25 75 25q48 0 76 -25z" />
    <glyph glyph-name="uni1ECF" unicode="&#x1ecf;" 
d="M60 830q17 5 32 5q40 0 68 -28.5t28 -69.5h-33q0 25 -18.5 43t-44.5 18zM278 26q43 40 43 115v418q0 75 -43 115q-37 35 -101 35q-63 0 -100 -35q-43 -39 -43 -115v-418q0 -76 43 -115q37 -35 100 -35q64 0 101 35zM253 647q31 -29 31 -88v-418q0 -59 -31 -88
q-26 -25 -76 -25q-49 0 -75 25q-31 28 -31 88v418q0 60 31 88q28 25 75 25q48 0 76 -25z" />
    <glyph glyph-name="uni1ED0" unicode="&#x1ed0;" 
d="M278 26q43 40 43 115v418q0 75 -43 115q-37 35 -101 35q-63 0 -100 -35q-43 -39 -43 -115v-418q0 -76 43 -115q37 -35 100 -35q64 0 101 35zM253 647q31 -29 31 -88v-418q0 -59 -31 -88q-26 -25 -76 -25q-49 0 -75 25q-31 28 -31 88v418q0 60 31 88q28 25 75 25
q48 0 76 -25zM153 835h47l68 -98h-27l-64 72l-65 -72h-27zM314 935h47l-88 -98h-27z" />
    <glyph glyph-name="uni1ED1" unicode="&#x1ed1;" 
d="M278 26q43 40 43 115v418q0 75 -43 115q-37 35 -101 35q-63 0 -100 -35q-43 -39 -43 -115v-418q0 -76 43 -115q37 -35 100 -35q64 0 101 35zM253 647q31 -29 31 -88v-418q0 -59 -31 -88q-26 -25 -76 -25q-49 0 -75 25q-31 28 -31 88v418q0 60 31 88q28 25 75 25
q48 0 76 -25zM153 835h47l68 -98h-27l-64 72l-65 -72h-27zM314 935h47l-88 -98h-27z" />
    <glyph glyph-name="uni1ED2" unicode="&#x1ed2;" 
d="M278 26q43 40 43 115v418q0 75 -43 115q-37 35 -101 35q-63 0 -100 -35q-43 -39 -43 -115v-418q0 -76 43 -115q37 -35 100 -35q64 0 101 35zM253 647q31 -29 31 -88v-418q0 -59 -31 -88q-26 -25 -76 -25q-49 0 -75 25q-31 28 -31 88v418q0 60 31 88q28 25 75 25
q48 0 76 -25zM153 835h47l68 -98h-27l-64 72l-65 -72h-27zM205 935l68 -98h-27l-88 98h47z" />
    <glyph glyph-name="uni1ED3" unicode="&#x1ed3;" 
d="M278 26q43 40 43 115v418q0 75 -43 115q-37 35 -101 35q-63 0 -100 -35q-43 -39 -43 -115v-418q0 -76 43 -115q37 -35 100 -35q64 0 101 35zM253 647q31 -29 31 -88v-418q0 -59 -31 -88q-26 -25 -76 -25q-49 0 -75 25q-31 28 -31 88v418q0 60 31 88q28 25 75 25
q48 0 76 -25zM153 835h47l68 -98h-27l-64 72l-65 -72h-27zM205 935l68 -98h-27l-88 98h47z" />
    <glyph glyph-name="uni1ED4" unicode="&#x1ed4;" 
d="M278 26q43 40 43 115v418q0 75 -43 115q-37 35 -101 35q-63 0 -100 -35q-43 -39 -43 -115v-418q0 -76 43 -115q37 -35 100 -35q64 0 101 35zM253 647q31 -29 31 -88v-418q0 -59 -31 -88q-26 -25 -76 -25q-49 0 -75 25q-31 28 -31 88v418q0 60 31 88q28 25 75 25
q48 0 76 -25zM153 835h47l68 -98h-27l-64 72l-65 -72h-27zM65 956q17 5 32 5q40 0 68 -28.5t28 -69.5h-33q0 25 -18.5 43t-44.5 18z" />
    <glyph glyph-name="uni1ED5" unicode="&#x1ed5;" 
d="M278 26q43 40 43 115v418q0 75 -43 115q-37 35 -101 35q-63 0 -100 -35q-43 -39 -43 -115v-418q0 -76 43 -115q37 -35 100 -35q64 0 101 35zM253 647q31 -29 31 -88v-418q0 -59 -31 -88q-26 -25 -76 -25q-49 0 -75 25q-31 28 -31 88v418q0 60 31 88q28 25 75 25
q48 0 76 -25zM153 835h47l68 -98h-27l-64 72l-65 -72h-27zM65 956q17 5 32 5q40 0 68 -28.5t28 -69.5h-33q0 25 -18.5 43t-44.5 18z" />
    <glyph glyph-name="uni1ED6" unicode="&#x1ed6;" 
d="M278 26q43 40 43 115v418q0 75 -43 115q-37 35 -101 35q-63 0 -100 -35q-43 -39 -43 -115v-418q0 -76 43 -115q37 -35 100 -35q64 0 101 35zM253 647q31 -29 31 -88v-418q0 -59 -31 -88q-26 -25 -76 -25q-49 0 -75 25q-31 28 -31 88v418q0 60 31 88q28 25 75 25
q48 0 76 -25zM153 835h47l68 -98h-27l-64 72l-65 -72h-27zM127 895q17 0 40 -14q29 -18 55 -18q41 0 78 46l-29 24q-24 -32 -50 -32q-17 0 -35 11q-34 20 -59 20q-40 0 -79 -47l29 -23q27 33 50 33z" />
    <glyph glyph-name="uni1ED7" unicode="&#x1ed7;" 
d="M278 26q43 40 43 115v418q0 75 -43 115q-37 35 -101 35q-63 0 -100 -35q-43 -39 -43 -115v-418q0 -76 43 -115q37 -35 100 -35q64 0 101 35zM253 647q31 -29 31 -88v-418q0 -59 -31 -88q-26 -25 -76 -25q-49 0 -75 25q-31 28 -31 88v418q0 60 31 88q28 25 75 25
q48 0 76 -25zM153 835h47l68 -98h-27l-64 72l-65 -72h-27zM127 895q17 0 40 -14q29 -18 55 -18q41 0 78 46l-29 24q-24 -32 -50 -32q-17 0 -35 11q-34 20 -59 20q-40 0 -79 -47l29 -23q27 33 50 33z" />
    <glyph glyph-name="uni1ED8" unicode="&#x1ed8;" 
d="M278 26q43 40 43 115v418q0 75 -43 115q-37 35 -101 35q-63 0 -100 -35q-43 -39 -43 -115v-418q0 -76 43 -115q37 -35 100 -35q64 0 101 35zM253 647q31 -29 31 -88v-418q0 -59 -31 -88q-26 -25 -76 -25q-49 0 -75 25q-31 28 -31 88v418q0 60 31 88q28 25 75 25
q48 0 76 -25zM153 835h47l68 -98h-27l-64 72l-65 -72h-27zM197 -48q-8 8 -20 8q-11 0 -19.5 -8t-8.5 -20q0 -11 8.5 -19t19.5 -8q12 0 20 8t8 19q0 12 -8 20z" />
    <glyph glyph-name="uni1ED9" unicode="&#x1ed9;" 
d="M278 26q43 40 43 115v418q0 75 -43 115q-37 35 -101 35q-63 0 -100 -35q-43 -39 -43 -115v-418q0 -76 43 -115q37 -35 100 -35q64 0 101 35zM253 647q31 -29 31 -88v-418q0 -59 -31 -88q-26 -25 -76 -25q-49 0 -75 25q-31 28 -31 88v418q0 60 31 88q28 25 75 25
q48 0 76 -25zM153 835h47l68 -98h-27l-64 72l-65 -72h-27zM197 -48q-8 8 -20 8q-11 0 -19.5 -8t-8.5 -20q0 -11 8.5 -19t19.5 -8q12 0 20 8t8 19q0 12 -8 20z" />
    <glyph glyph-name="uni1EDA" unicode="&#x1eda;" horiz-adv-x="361" 
d="M363.5 689.5q-17.5 -17.5 -42.5 -17.5h-41q41 -39 41 -113v-418q0 -75 -43 -115q-37 -35 -101 -35q-63 0 -100 35q-43 39 -43 115v418q0 76 43 115q37 35 100 35h144q10 0 16.5 7t6.5 16h37q0 -25 -17.5 -42.5zM177 672q-47 0 -75 -25q-31 -28 -31 -88v-418q0 -60 31 -88
q26 -25 75 -25q50 0 76 25q31 29 31 88v418q0 59 -31 88q-28 25 -76 25zM231 835h47l-88 -98h-27z" />
    <glyph glyph-name="uni1EDB" unicode="&#x1edb;" horiz-adv-x="361" 
d="M363.5 689.5q-17.5 -17.5 -42.5 -17.5h-41q41 -39 41 -113v-418q0 -75 -43 -115q-37 -35 -101 -35q-63 0 -100 35q-43 39 -43 115v418q0 76 43 115q37 35 100 35h144q10 0 16.5 7t6.5 16h37q0 -25 -17.5 -42.5zM177 672q-47 0 -75 -25q-31 -28 -31 -88v-418q0 -60 31 -88
q26 -25 75 -25q50 0 76 25q31 29 31 88v418q0 59 -31 88q-28 25 -76 25zM231 835h47l-88 -98h-27z" />
    <glyph glyph-name="uni1EDC" unicode="&#x1edc;" horiz-adv-x="361" 
d="M363.5 689.5q-17.5 -17.5 -42.5 -17.5h-41q41 -39 41 -113v-418q0 -75 -43 -115q-37 -35 -101 -35q-63 0 -100 35q-43 39 -43 115v418q0 76 43 115q37 35 100 35h144q10 0 16.5 7t6.5 16h37q0 -25 -17.5 -42.5zM177 672q-47 0 -75 -25q-31 -28 -31 -88v-418q0 -60 31 -88
q26 -25 75 -25q50 0 76 25q31 29 31 88v418q0 59 -31 88q-28 25 -76 25zM122 835l68 -98h-27l-88 98h47z" />
    <glyph glyph-name="uni1EDD" unicode="&#x1edd;" horiz-adv-x="361" 
d="M363.5 689.5q-17.5 -17.5 -42.5 -17.5h-41q41 -39 41 -113v-418q0 -75 -43 -115q-37 -35 -101 -35q-63 0 -100 35q-43 39 -43 115v418q0 76 43 115q37 35 100 35h144q10 0 16.5 7t6.5 16h37q0 -25 -17.5 -42.5zM177 672q-47 0 -75 -25q-31 -28 -31 -88v-418q0 -60 31 -88
q26 -25 75 -25q50 0 76 25q31 29 31 88v418q0 59 -31 88q-28 25 -76 25zM122 835l68 -98h-27l-88 98h47z" />
    <glyph glyph-name="uni1EDE" unicode="&#x1ede;" horiz-adv-x="361" 
d="M363.5 689.5q-17.5 -17.5 -42.5 -17.5h-41q41 -39 41 -113v-418q0 -75 -43 -115q-37 -35 -101 -35q-63 0 -100 35q-43 39 -43 115v418q0 76 43 115q37 35 100 35h144q10 0 16.5 7t6.5 16h37q0 -25 -17.5 -42.5zM177 672q-47 0 -75 -25q-31 -28 -31 -88v-418q0 -60 31 -88
q26 -25 75 -25q50 0 76 25q31 29 31 88v418q0 59 -31 88q-28 25 -76 25zM59 830q17 5 32 5q40 0 68 -28.5t28 -69.5h-33q0 25 -18.5 43t-44.5 18z" />
    <glyph glyph-name="uni1EDF" unicode="&#x1edf;" horiz-adv-x="361" 
d="M363.5 689.5q-17.5 -17.5 -42.5 -17.5h-41q41 -39 41 -113v-418q0 -75 -43 -115q-37 -35 -101 -35q-63 0 -100 35q-43 39 -43 115v418q0 76 43 115q37 35 100 35h144q10 0 16.5 7t6.5 16h37q0 -25 -17.5 -42.5zM177 672q-47 0 -75 -25q-31 -28 -31 -88v-418q0 -60 31 -88
q26 -25 75 -25q50 0 76 25q31 29 31 88v418q0 59 -31 88q-28 25 -76 25zM59 830q17 5 32 5q40 0 68 -28.5t28 -69.5h-33q0 25 -18.5 43t-44.5 18z" />
    <glyph glyph-name="uni1EE0" unicode="&#x1ee0;" horiz-adv-x="361" 
d="M363.5 689.5q-17.5 -17.5 -42.5 -17.5h-41q41 -39 41 -113v-418q0 -75 -43 -115q-37 -35 -101 -35q-63 0 -100 35q-43 39 -43 115v418q0 76 43 115q37 35 100 35h144q10 0 16.5 7t6.5 16h37q0 -25 -17.5 -42.5zM177 672q-47 0 -75 -25q-31 -28 -31 -88v-418q0 -60 31 -88
q26 -25 75 -25q50 0 76 25q31 29 31 88v418q0 59 -31 88q-28 25 -76 25zM131 769q17 0 40 -14q29 -18 55 -18q41 0 78 46l-29 24q-24 -32 -50 -32q-17 0 -35 11q-34 20 -59 20q-40 0 -79 -47l29 -23q27 33 50 33z" />
    <glyph glyph-name="uni1EE1" unicode="&#x1ee1;" horiz-adv-x="361" 
d="M363.5 689.5q-17.5 -17.5 -42.5 -17.5h-41q41 -39 41 -113v-418q0 -75 -43 -115q-37 -35 -101 -35q-63 0 -100 35q-43 39 -43 115v418q0 76 43 115q37 35 100 35h144q10 0 16.5 7t6.5 16h37q0 -25 -17.5 -42.5zM177 672q-47 0 -75 -25q-31 -28 -31 -88v-418q0 -60 31 -88
q26 -25 75 -25q50 0 76 25q31 29 31 88v418q0 59 -31 88q-28 25 -76 25zM131 769q17 0 40 -14q29 -18 55 -18q41 0 78 46l-29 24q-24 -32 -50 -32q-17 0 -35 11q-34 20 -59 20q-40 0 -79 -47l29 -23q27 33 50 33z" />
    <glyph glyph-name="uni1EE2" unicode="&#x1ee2;" horiz-adv-x="361" 
d="M363.5 689.5q-17.5 -17.5 -42.5 -17.5h-41q41 -39 41 -113v-418q0 -75 -43 -115q-37 -35 -101 -35q-63 0 -100 35q-43 39 -43 115v418q0 76 43 115q37 35 100 35h144q10 0 16.5 7t6.5 16h37q0 -25 -17.5 -42.5zM177 672q-47 0 -75 -25q-31 -28 -31 -88v-418q0 -60 31 -88
q26 -25 75 -25q50 0 76 25q31 29 31 88v418q0 59 -31 88q-28 25 -76 25zM197 -48q-8 8 -20 8q-11 0 -19.5 -8t-8.5 -20q0 -11 8.5 -19t19.5 -8q12 0 20 8t8 19q0 12 -8 20z" />
    <glyph glyph-name="uni1EE3" unicode="&#x1ee3;" horiz-adv-x="361" 
d="M363.5 689.5q-17.5 -17.5 -42.5 -17.5h-41q41 -39 41 -113v-418q0 -75 -43 -115q-37 -35 -101 -35q-63 0 -100 35q-43 39 -43 115v418q0 76 43 115q37 35 100 35h144q10 0 16.5 7t6.5 16h37q0 -25 -17.5 -42.5zM177 672q-47 0 -75 -25q-31 -28 -31 -88v-418q0 -60 31 -88
q26 -25 75 -25q50 0 76 25q31 29 31 88v418q0 59 -31 88q-28 25 -76 25zM197 -48q-8 8 -20 8q-11 0 -19.5 -8t-8.5 -20q0 -11 8.5 -19t19.5 -8q12 0 20 8t8 19q0 12 -8 20z" />
    <glyph glyph-name="uni1EE4" unicode="&#x1ee4;" horiz-adv-x="352" 
d="M196 -48q-8 8 -20 8q-11 0 -19.5 -8t-8.5 -20q0 -11 8.5 -19t19.5 -8q12 0 20 8t8 19q0 12 -8 20zM277 26q42 39 42 115v559h-37v-559q0 -59 -30 -88q-28 -25 -76 -25q-50 0 -76 25q-30 29 -30 88v559h-37v-559q0 -76 42 -115q38 -35 101 -35t101 35z" />
    <glyph glyph-name="uni1EE5" unicode="&#x1ee5;" horiz-adv-x="352" 
d="M196 -48q-8 8 -20 8q-11 0 -19.5 -8t-8.5 -20q0 -11 8.5 -19t19.5 -8q12 0 20 8t8 19q0 12 -8 20zM277 26q42 39 42 115v559h-37v-559q0 -59 -30 -88q-28 -25 -76 -25q-50 0 -76 25q-30 29 -30 88v559h-37v-559q0 -76 42 -115q38 -35 101 -35t101 35z" />
    <glyph glyph-name="uni1EE6" unicode="&#x1ee6;" horiz-adv-x="352" 
d="M59 830q17 5 32 5q40 0 68 -28.5t28 -69.5h-33q0 25 -18.5 43t-44.5 18zM277 26q42 39 42 115v559h-37v-559q0 -59 -30 -88q-28 -25 -76 -25q-50 0 -76 25q-30 29 -30 88v559h-37v-559q0 -76 42 -115q38 -35 101 -35t101 35z" />
    <glyph glyph-name="uni1EE7" unicode="&#x1ee7;" horiz-adv-x="352" 
d="M59 830q17 5 32 5q40 0 68 -28.5t28 -69.5h-33q0 25 -18.5 43t-44.5 18zM277 26q42 39 42 115v559h-37v-559q0 -59 -30 -88q-28 -25 -76 -25q-50 0 -76 25q-30 29 -30 88v559h-37v-559q0 -76 42 -115q38 -35 101 -35t101 35z" />
    <glyph glyph-name="uni1EE8" unicode="&#x1ee8;" horiz-adv-x="401" 
d="M421 723q0 -25 -17.5 -42.5t-42.5 -17.5h-42v-522q0 -76 -42 -115q-38 -35 -101 -35t-101 35q-42 39 -42 115v559h37v-559q0 -59 30 -88q26 -25 76 -25q48 0 76 25q30 29 30 88v559h79q10 0 16.5 7t6.5 16h37zM230 835h47l-88 -98h-27z" />
    <glyph glyph-name="uni1EE9" unicode="&#x1ee9;" horiz-adv-x="401" 
d="M421 723q0 -25 -17.5 -42.5t-42.5 -17.5h-42v-522q0 -76 -42 -115q-38 -35 -101 -35t-101 35q-42 39 -42 115v559h37v-559q0 -59 30 -88q26 -25 76 -25q48 0 76 25q30 29 30 88v559h79q10 0 16.5 7t6.5 16h37zM230 835h47l-88 -98h-27z" />
    <glyph glyph-name="uni1EEA" unicode="&#x1eea;" horiz-adv-x="401" 
d="M421 723q0 -25 -17.5 -42.5t-42.5 -17.5h-42v-522q0 -76 -42 -115q-38 -35 -101 -35t-101 35q-42 39 -42 115v559h37v-559q0 -59 30 -88q26 -25 76 -25q48 0 76 25q30 29 30 88v559h79q10 0 16.5 7t6.5 16h37zM121 835l68 -98h-27l-88 98h47z" />
    <glyph glyph-name="uni1EEB" unicode="&#x1eeb;" horiz-adv-x="401" 
d="M421 723q0 -25 -17.5 -42.5t-42.5 -17.5h-42v-522q0 -76 -42 -115q-38 -35 -101 -35t-101 35q-42 39 -42 115v559h37v-559q0 -59 30 -88q26 -25 76 -25q48 0 76 25q30 29 30 88v559h79q10 0 16.5 7t6.5 16h37zM121 835l68 -98h-27l-88 98h47z" />
    <glyph glyph-name="uni1EEC" unicode="&#x1eec;" horiz-adv-x="401" 
d="M421 723q0 -25 -17.5 -42.5t-42.5 -17.5h-42v-522q0 -76 -42 -115q-38 -35 -101 -35t-101 35q-42 39 -42 115v559h37v-559q0 -59 30 -88q26 -25 76 -25q48 0 76 25q30 29 30 88v559h79q10 0 16.5 7t6.5 16h37zM58 830q17 5 32 5q40 0 68 -28.5t28 -69.5h-33
q0 25 -18.5 43t-44.5 18z" />
    <glyph glyph-name="uni1EED" unicode="&#x1eed;" horiz-adv-x="401" 
d="M421 723q0 -25 -17.5 -42.5t-42.5 -17.5h-42v-522q0 -76 -42 -115q-38 -35 -101 -35t-101 35q-42 39 -42 115v559h37v-559q0 -59 30 -88q26 -25 76 -25q48 0 76 25q30 29 30 88v559h79q10 0 16.5 7t6.5 16h37zM58 830q17 5 32 5q40 0 68 -28.5t28 -69.5h-33
q0 25 -18.5 43t-44.5 18z" />
    <glyph glyph-name="uni1EEE" unicode="&#x1eee;" horiz-adv-x="401" 
d="M421 723q0 -25 -17.5 -42.5t-42.5 -17.5h-42v-522q0 -76 -42 -115q-38 -35 -101 -35t-101 35q-42 39 -42 115v559h37v-559q0 -59 30 -88q26 -25 76 -25q48 0 76 25q30 29 30 88v559h79q10 0 16.5 7t6.5 16h37zM130 769q17 0 40 -14q28 -18 55 -18q41 0 78 46l-29 24
q-24 -32 -50 -32q-17 0 -35 11q-34 20 -59 20q-40 0 -79 -47l29 -23q27 33 50 33z" />
    <glyph glyph-name="uni1EEF" unicode="&#x1eef;" horiz-adv-x="401" 
d="M421 723q0 -25 -17.5 -42.5t-42.5 -17.5h-42v-522q0 -76 -42 -115q-38 -35 -101 -35t-101 35q-42 39 -42 115v559h37v-559q0 -59 30 -88q26 -25 76 -25q48 0 76 25q30 29 30 88v559h79q10 0 16.5 7t6.5 16h37zM130 769q17 0 40 -14q28 -18 55 -18q41 0 78 46l-29 24
q-24 -32 -50 -32q-17 0 -35 11q-34 20 -59 20q-40 0 -79 -47l29 -23q27 33 50 33z" />
    <glyph glyph-name="uni1EF0" unicode="&#x1ef0;" horiz-adv-x="401" 
d="M421 723q0 -25 -17.5 -42.5t-42.5 -17.5h-42v-522q0 -76 -42 -115q-38 -35 -101 -35t-101 35q-42 39 -42 115v559h37v-559q0 -59 30 -88q26 -25 76 -25q48 0 76 25q30 29 30 88v559h79q10 0 16.5 7t6.5 16h37zM196 -48q-8 8 -20 8q-11 0 -19.5 -8t-8.5 -20q0 -11 8.5 -19
t19.5 -8q12 0 20 8t8 19q0 12 -8 20z" />
    <glyph glyph-name="uni1EF1" unicode="&#x1ef1;" horiz-adv-x="401" 
d="M421 723q0 -25 -17.5 -42.5t-42.5 -17.5h-42v-522q0 -76 -42 -115q-38 -35 -101 -35t-101 35q-42 39 -42 115v559h37v-559q0 -59 30 -88q26 -25 76 -25q48 0 76 25q30 29 30 88v559h79q10 0 16.5 7t6.5 16h37zM196 -48q-8 8 -20 8q-11 0 -19.5 -8t-8.5 -20q0 -11 8.5 -19
t19.5 -8q12 0 20 8t8 19q0 12 -8 20z" />
    <glyph glyph-name="Ygrave" unicode="&#x1ef2;" horiz-adv-x="356" 
d="M178 302l130 398h39l-150 -461v-239h-37v239l-150 461h39zM124 835l68 -98h-27l-88 98h47z" />
    <glyph glyph-name="ygrave" unicode="&#x1ef3;" horiz-adv-x="356" 
d="M178 302l130 398h39l-150 -461v-239h-37v239l-150 461h39zM124 835l68 -98h-27l-88 98h47z" />
    <glyph glyph-name="uni1EF4" unicode="&#x1ef4;" horiz-adv-x="356" 
d="M178 302l130 398h39l-150 -461v-239h-37v239l-150 461h39zM199 -48q-8 8 -20 8q-11 0 -19.5 -8t-8.5 -20q0 -11 8.5 -19t19.5 -8q12 0 20 8t8 19q0 12 -8 20z" />
    <glyph glyph-name="uni1EF5" unicode="&#x1ef5;" horiz-adv-x="356" 
d="M178 302l130 398h39l-150 -461v-239h-37v239l-150 461h39zM199 -48q-8 8 -20 8q-11 0 -19.5 -8t-8.5 -20q0 -11 8.5 -19t19.5 -8q12 0 20 8t8 19q0 12 -8 20z" />
    <glyph glyph-name="uni1EF6" unicode="&#x1ef6;" horiz-adv-x="356" 
d="M178 302l130 398h39l-150 -461v-239h-37v239l-150 461h39zM67 830q17 5 32 5q40 0 68 -28.5t28 -69.5h-33q0 25 -18.5 43t-44.5 18z" />
    <glyph glyph-name="uni1EF7" unicode="&#x1ef7;" horiz-adv-x="356" 
d="M178 302l130 398h39l-150 -461v-239h-37v239l-150 461h39zM67 830q17 5 32 5q40 0 68 -28.5t28 -69.5h-33q0 25 -18.5 43t-44.5 18z" />
    <glyph glyph-name="uni1EF8" unicode="&#x1ef8;" horiz-adv-x="356" 
d="M178 302l130 398h39l-150 -461v-239h-37v239l-150 461h39zM146 769q17 0 40 -14q28 -18 55 -18q41 0 78 46l-29 24q-24 -32 -50 -32q-17 0 -35 11q-34 20 -59 20q-40 0 -79 -47l29 -23q27 33 50 33z" />
    <glyph glyph-name="uni1EF9" unicode="&#x1ef9;" horiz-adv-x="356" 
d="M178 302l130 398h39l-150 -461v-239h-37v239l-150 461h39zM146 769q17 0 40 -14q28 -18 55 -18q41 0 78 46l-29 24q-24 -32 -50 -32q-17 0 -35 11q-34 20 -59 20q-40 0 -79 -47l29 -23q27 33 50 33z" />
    <glyph glyph-name="figuredash" unicode="&#x2012;" horiz-adv-x="271" 
d="M261 340v37h-251v-37h251z" />
    <glyph glyph-name="endash" unicode="&#x2013;" horiz-adv-x="346" 
d="M336 340v37h-326v-37h326z" />
    <glyph glyph-name="emdash" unicode="&#x2014;" horiz-adv-x="346" 
d="M336 340v37h-326v-37h326z" />
    <glyph glyph-name="quoteleft" unicode="&#x2018;" horiz-adv-x="126" 
d="M43.5 610.5q-8.5 8.5 -8.5 19.5q0 12 8 26q5 10 15 24.5t13 19.5h16l-11 -29l-2 -8q0 -5 4 -9q13 -10 13 -24q0 -12 -8.5 -20t-19.5 -8t-19.5 8.5z" />
    <glyph glyph-name="quoteright" unicode="&#x2019;" horiz-adv-x="126" 
d="M82.5 694.5q8.5 -8.5 8.5 -19.5q0 -12 -8 -26q-5 -10 -15 -24.5t-13 -19.5h-16l11 29l2 8q0 5 -4 9q-13 10 -13 24q0 12 8.5 20t19.5 8t19.5 -8.5z" />
    <glyph glyph-name="quotesinglbase" unicode="&#x201a;" horiz-adv-x="126" 
d="M82.5 45.5q8.5 -8.5 8.5 -19.5q0 -12 -8 -26q-5 -10 -15 -24.5t-13 -19.5h-16l11 29l2 8q0 5 -4 9q-13 10 -13 24q0 12 8.5 20t19.5 8t19.5 -8.5z" />
    <glyph glyph-name="quotedblleft" unicode="&#x201c;" horiz-adv-x="210" 
d="M127.5 610.5q-8.5 8.5 -8.5 19.5q0 12 8 26q5 10 15 24.5t13 19.5h16l-11 -29l-2 -8q0 -5 4 -9q13 -10 13 -24q0 -12 -8.5 -20t-19.5 -8t-19.5 8.5zM43.5 610.5q-8.5 8.5 -8.5 19.5q0 12 8 26q5 10 15 24.5t13 19.5h16l-11 -29l-2 -8q0 -5 4 -9q13 -10 13 -24
q0 -12 -8.5 -20t-19.5 -8t-19.5 8.5z" />
    <glyph glyph-name="quotedblright" unicode="&#x201d;" horiz-adv-x="210" 
d="M82.5 694.5q8.5 -8.5 8.5 -19.5q0 -12 -8 -26q-5 -10 -15 -24.5t-13 -19.5h-16l11 29l2 8q0 5 -4 9q-13 10 -13 24q0 12 8.5 20t19.5 8t19.5 -8.5zM166.5 694.5q8.5 -8.5 8.5 -19.5q0 -12 -8 -26q-5 -10 -15 -24.5t-13 -19.5h-16l11 29l2 8q0 5 -4 9q-13 10 -13 24
q0 12 8.5 20t19.5 8t19.5 -8.5z" />
    <glyph glyph-name="quotedblbase" unicode="&#x201e;" horiz-adv-x="216" 
d="M82.5 45.5q8.5 -8.5 8.5 -19.5q0 -12 -8 -26q-5 -10 -15 -24.5t-13 -19.5h-16l11 29l2 8q0 5 -4 9q-13 10 -13 24q0 12 8.5 20t19.5 8t19.5 -8.5zM166.5 45.5q8.5 -8.5 8.5 -19.5q0 -12 -8 -26q-5 -10 -15 -24.5t-13 -19.5h-16l11 29l2 8q0 5 -4 9q-13 10 -13 24
q0 12 8.5 20t19.5 8t19.5 -8.5z" />
    <glyph glyph-name="dagger" unicode="&#x2020;" horiz-adv-x="429" 
d="M394 502v37h-359v-37h359zM233 241v459h-37v-459h37z" />
    <glyph glyph-name="bullet" unicode="&#x2022;" horiz-adv-x="190" 
d="M63 393q-13 -13 -13 -32t13 -32t32 -13t32 13t13 32t-13 32t-32 13t-32 -13z" />
    <glyph glyph-name="ellipsis" unicode="&#x2026;" horiz-adv-x="326" 
d="M82.5 46.5q-8.5 8.5 -19.5 8.5t-19.5 -8.5t-8.5 -19.5t8.5 -19.5t19.5 -8.5t19.5 8.5t8.5 19.5t-8.5 19.5zM182.5 46.5q-8.5 8.5 -19.5 8.5t-19.5 -8.5t-8.5 -19.5t8.5 -19.5t19.5 -8.5t19.5 8.5t8.5 19.5t-8.5 19.5zM282.5 46.5q-8.5 8.5 -19.5 8.5t-19.5 -8.5
t-8.5 -19.5t8.5 -19.5t19.5 -8.5t19.5 8.5t8.5 19.5t-8.5 19.5z" />
    <glyph glyph-name="perthousand" unicode="&#x2030;" horiz-adv-x="753" 
d="M486.5 32.5q25.5 29.5 25.5 70.5v10q0 41 -25.5 70.5t-62.5 29.5t-63 -29.5t-26 -70.5v-10q0 -41 26 -70.5t63 -29.5t62.5 29.5zM460 157.5q15 -18.5 15 -44.5v-10q0 -26 -15 -44.5t-36 -18.5t-36.5 19t-15.5 44v10q0 26 15.5 44.5t36.5 18.5t36 -18.5zM184.5 517.5
q25.5 29.5 25.5 70.5v10q0 41 -25.5 70.5t-62.5 29.5t-62.5 -29.5t-25.5 -70.5v-10q0 -41 25.5 -70.5t62.5 -29.5t62.5 29.5zM158 642.5q15 -18.5 15 -44.5v-10q0 -26 -15 -44.5t-36 -18.5t-36 18.5t-15 44.5v10q0 26 15 44.5t36 18.5t36 -18.5zM361 700h39l-216 -700h-39z
M693.5 32.5q25.5 29.5 25.5 70.5v10q0 41 -25.5 70.5t-62.5 29.5t-63 -29.5t-26 -70.5v-10q0 -41 26 -70.5t63 -29.5t62.5 29.5zM667 157.5q15 -18.5 15 -44.5v-10q0 -26 -15 -44.5t-36 -18.5t-36.5 19t-15.5 44v10q0 26 15.5 44.5t36.5 18.5t36 -18.5z" />
    <glyph glyph-name="guilsinglleft" unicode="&#x2039;" horiz-adv-x="214" 
d="M58 359l140 -267h-42l-140 267l140 267h42z" />
    <glyph glyph-name="guilsinglright" unicode="&#x203a;" horiz-adv-x="214" 
d="M156 359l-140 267h42l140 -267l-141 -267h-41z" />
    <glyph glyph-name="Euro" unicode="&#x20ac;" horiz-adv-x="419" 
d="M394 5q-33 -15 -74 -15q-85 0 -137 64q-58 71 -58 206h-97v37h97v115h-97v37h97q2 132 58 200q52 64 137 64q37 0 64 -11l-13 -35q-23 9 -51 9q-66 0 -109 -51q-23 -29 -35 -71q-14 -47 -14 -105h193v-37h-193v-115h193v-37h-193q0 -67 14 -110q12 -43 35 -72
q41 -51 109 -51q32 0 59 12z" />
    <glyph glyph-name="uni20B9" unicode="&#x20b9;" horiz-adv-x="398" 
d="M169 313h-72l215 -313h-45l-241 350h143q50 0 76 25q30 29 30 88v10h-249v37h249v40q0 60 -30 88q-28 25 -76 25h-143v37h143h208v-37h-105q40 -39 40 -113v-40h66v-37h-66v-10q0 -76 -42 -115q-38 -35 -101 -35z" />
    <glyph glyph-name="uni2117" unicode="&#x2117;" horiz-adv-x="736" 
d="M284 516h106q57 0 89.5 -26t32.5 -62t-32.5 -62t-89.5 -26h-106v176zM284 303h106q50 0 85.5 18t53.5 46.5t18 60.5q0 33 -18 61.5t-53.5 46t-85.5 17.5h-143v-404h37v154zM102 186q40 -73 109.5 -114t156.5 -41t156.5 41t109.5 114t40 164t-40 164t-109.5 114t-156.5 41
t-156.5 -41t-109.5 -114t-40 -164t40 -164zM65.5 534q45.5 82 125 128t177.5 46t177.5 -46t125 -128t45.5 -184t-45.5 -184t-125 -128t-177.5 -46t-177.5 46t-125 128t-45.5 184t45.5 184z" />
    <glyph glyph-name="trademark" unicode="&#x2122;" horiz-adv-x="446" 
d="M30 667v33h139v-33h-53v-298h-33v298h-53zM322 479l83 221h21v-331h-33v205l-64 -172h-13l-64 172v-205h-33v331h21z" />
    <glyph glyph-name="minus" unicode="&#x2212;" horiz-adv-x="396" 
d="M361 340v37h-326v-37h326z" />
    <glyph glyph-name="uni2C64" unicode="&#x2c64;" 
d="M285 346q-24 -21 -58 -30l100 -316h-39l-98 311h-6h-107v-353q0 -10 7 -16.5t16 -6.5v-37q-25 0 -42.5 17.5t-17.5 42.5v742h144q63 0 101 -35q42 -39 42 -115v-89q0 -76 -42 -115zM290 461v89q0 60 -31 88q-27 25 -75 25h-107v-315h107q48 0 75 25q31 28 31 88z" />
    <glyph glyph-name="uni2C72" unicode="&#x2c72;" horiz-adv-x="563" 
d="M565.5 682.5q17.5 -17.5 17.5 -43.5h-37q0 10 -7 17t-17 7h-41l-82 -663h-20l-126 491l-126 -491h-20l-86 700h38l68 -566l116 455h20l116 -454l68 565h75q26 0 43.5 -17.5z" />
    <glyph glyph-name="uni2C73" unicode="&#x2c73;" horiz-adv-x="563" 
d="M565.5 682.5q17.5 -17.5 17.5 -43.5h-37q0 10 -7 17t-17 7h-41l-82 -663h-20l-126 491l-126 -491h-20l-86 700h38l68 -566l116 455h20l116 -454l68 565h75q26 0 43.5 -17.5z" />
    <glyph glyph-name="uniA7AA" unicode="&#xa7aa;" horiz-adv-x="414" 
d="M369 700v-700h-37v340h-213v-340h-37v663h-42q-10 0 -16.5 -7t-6.5 -16h-37q0 25 17.5 42.5t42.5 17.5h79v-323h213v323h37z" />
    <glyph glyph-name="uniAB53" unicode="&#xab53;" horiz-adv-x="600" 
 />
    <glyph glyph-name="NULL" horiz-adv-x="600" 
 />
    <glyph glyph-name="i.loclTRK" horiz-adv-x="128" 
d="M82 0v700h-37v-700h37zM84 784q-8 8 -20 8q-11 0 -19.5 -8t-8.5 -20q0 -11 8.5 -19t19.5 -8q12 0 20 8t8 19q0 12 -8 20z" />
    <glyph glyph-name="ampersand.001" horiz-adv-x="573" 
d="M524 1q-11 73 -59 153q25 40 43 71t25 43l-32 18q-5 -9 -20.5 -35t-37.5 -62q-54 76 -114 124q-17 13 -23 18q-28 20 -50 39v1q4 0 25.5 12t43.5 30q33 29 50.5 67t17.5 81v19q0 74 -60 107q-36 22 -83 22t-83 -22q-60 -33 -60 -107v-19q0 -95 81 -178q-26 -13 -44 -25
q-51 -33 -77.5 -74.5t-26.5 -87.5q0 -98 62 -152q28 -26 66.5 -39.5t81.5 -13.5q91 0 149 69q16 19 43 59q33 -58 45 -118h37zM283 301l23 -17q61 -49 115 -129q-29 -47 -50 -71q-47 -56 -121 -56q-37 0 -69 11t-54 32q-50 45 -50 125q0 74 86 131q20 13 53 28
q27 -24 67 -54zM282 668q18 -4 33 -13q41 -23 41 -75v-19q0 -71 -55 -119q-17 -15 -34 -24.5t-23 -11.5l-20 -7q-37 36 -58.5 75.5t-21.5 86.5v19q0 52 41 75q15 9 33 13t32 4t32 -4z" />
    <glyph glyph-name="dafrican" horiz-adv-x="360" 
d="M332 550v-404q0 -74 -43 -114q-37 -32 -101 -32h-143v331h-40v37h40v332h143q64 0 101 -35q43 -39 43 -115zM295 550q0 59 -31 88q-28 25 -76 25h-106v-295h80v-37h-80v-294h106q107 0 107 109v404z" />
    <glyph glyph-name="fhook" horiz-adv-x="310" 
d="M77 663v-286h152v-37h-152v-382q0 -25 -17.5 -42.5t-42.5 -17.5v37q9 0 16 6.5t7 16.5v742h251v-37h-214z" />
    <glyph glyph-name="rtail" 
d="M285 346q-24 -21 -58 -30l100 -316h-39l-98 311h-6h-107v-353q0 -10 7 -16.5t16 -6.5v-37q-25 0 -42.5 17.5t-17.5 42.5v742h144q63 0 101 -35q42 -39 42 -115v-89q0 -76 -42 -115zM290 461v89q0 60 -31 88q-27 25 -75 25h-107v-315h107q48 0 75 25q31 28 31 88z" />
    <glyph glyph-name="newGlyph" horiz-adv-x="600" 
 />
    </font>
</defs>
</svg>
