<?xml version="1.0" encoding="utf-8"?>
<!-- Generator: Adobe Illustrator 16.0.0, SVG Export Plug-In . SVG Version: 6.00 Build 0)  -->
<!DOCTYPE svg PUBLIC "-//W3C//DTD SVG 1.1//EN" "http://www.w3.org/Graphics/SVG/1.1/DTD/svg11.dtd">
<svg version="1.1" id="Layer_1" xmlns="http://www.w3.org/2000/svg" xmlns:xlink="http://www.w3.org/1999/xlink" x="0px" y="0px"
	 width="1024px" height="1024px" viewBox="0 0 1024 1024" enable-background="new 0 0 1024 1024" xml:space="preserve">
<title>StoriesEditor-icons-vector</title>
<g>
	<path fill-rule="evenodd" clip-rule="evenodd" d="M543.032,481.517c80.841,0,160.092,0,239.889,0c0,21.78,0,42.783,0,64.927
		c-79.646,0-159.101,0-239.442,0c0,80.354,0,159.584,0,239.602c-22.102,0-43.324,0-65.381,0c0-79.417,0-158.646,0-239.145
		c-80.228,0-159.643,0-239.526,0c0-22.295,0-43.324,0-65.274c79.429,0,158.635,0,238.827,0c0-80.083,0-159.256,0-239.234
		c22.199,0,43.417,0,65.633,0C543.032,321.659,543.032,400.847,543.032,481.517z"/>
	<path fill-rule="evenodd" clip-rule="evenodd" d="M493.477,5.592c10.703,0,19.437-0.429,28.11,0.106
		c11.482,0.708,19.361,9.185,18.633,19.122c-0.728,9.91-8.844,16.6-19.921,16.947c-18.634,0.583-37.266,1.294-55.885,2.228
		c-12.227,0.611-21.39-5.793-22.295-16.138c-0.89-10.207,6.201-18.284,17.998-19.582C471.854,6.984,483.669,6.356,493.477,5.592z"/>
	<path fill-rule="evenodd" clip-rule="evenodd" d="M3.589,553.945c-0.128-8.212,6.61-16.359,15.787-17.722
		c8.988-1.327,18.008,4.878,19.591,14.613c3.388,20.846,6.383,41.761,9.124,62.702c1.275,9.725-5.119,17.921-14.433,19.829
		c-9.106,1.863-18.451-3.886-20.695-14.468c-3.215-15.181-5.256-30.617-7.576-45.98C4.508,567.089,4.253,561.165,3.589,553.945z"/>
	<path fill-rule="evenodd" clip-rule="evenodd" d="M962.867,297.492c2.682,2.274,10.127,5.607,12.479,11.115
		c8.52,19.949,15.777,40.483,22.58,61.102c3.006,9.103-3.219,18.531-12.074,21.358c-8.11,2.589-17.884-1.696-21.334-10.524
		c-7.791-19.937-15.279-40.003-22.284-60.228C938.408,309.287,947.303,297.587,962.867,297.492z"/>
	<path fill-rule="evenodd" clip-rule="evenodd" d="M663.984,29.63c1.538,0.363,4.059,0.646,6.335,1.544
		c18.751,7.402,37.62,14.543,56.116,22.543c10.894,4.71,15.019,15.471,10.736,24.418c-4.62,9.653-14.819,12.584-26.185,7.929
		c-17.795-7.291-35.725-14.264-53.542-21.505c-9.131-3.711-13.803-12.082-11.909-20.726
		C647.244,36.041,654.944,29.807,663.984,29.63z"/>
	<path fill-rule="evenodd" clip-rule="evenodd" d="M902.504,197.636c-4.146,4.375-7.657,10.963-12.813,12.713
		c-5.18,1.757-13.969,0.85-17.751-2.624c-15.944-14.642-30.867-30.435-45.621-46.313c-6.648-7.153-5.889-17.042,0.34-23.598
		c6.256-6.589,16.544-8.28,23.544-1.654c16.175,15.311,31.554,31.479,46.803,47.722
		C899.711,186.764,900.228,191.697,902.504,197.636z"/>
	<path fill-rule="evenodd" clip-rule="evenodd" d="M1019.565,530.299c-1.418,15.773-2.655,31.564-4.319,47.306
		c-1.074,10.155-9.676,17.491-18.931,16.828c-9.507-0.684-17.005-8.816-16.506-19.052c1.025-21.099,2.342-42.181,3.984-63.239
		c0.7-8.978,9.165-15.98,17.838-15.878c9.127,0.109,17.02,7.703,17.504,17.205c0.284,5.578,0.051,11.181,0.051,16.776
		C1019.313,530.263,1019.44,530.282,1019.565,530.299z"/>
	<path fill-rule="evenodd" clip-rule="evenodd" d="M912.082,766.775c0.607-1.642,1.541-5.241,3.213-8.462
		c8.426-16.251,17.174-32.333,25.555-48.602c6.011-11.668,15.113-16.52,24.426-12.486c10.646,4.61,14.226,15.104,8.129,27.432
		c-8.803,17.785-18.13,35.334-27.845,52.643c-4.28,7.625-11.524,11.527-20.544,8.866
		C916.667,783.703,912.385,777.649,912.082,766.775z"/>
	<path fill-rule="evenodd" clip-rule="evenodd" d="M453.054,1020.385c-18.896-3.57-37.854-6.841-56.662-10.812
		c-12.308-2.6-18.672-11.851-16.231-21.955c2.588-10.708,12.218-15.362,25.083-12.905c17.056,3.258,34.162,6.358,51.347,8.813
		c13.148,1.879,20.994,8.868,20.313,19.684C476.195,1014.417,467.253,1020.527,453.054,1020.385z"/>
	<path fill-rule="evenodd" clip-rule="evenodd" d="M214.278,886.401c1.996,0.73,5.497,1.329,8.229,3.108
		c17.406,11.338,34.715,22.831,51.902,34.503c6.429,4.367,10.52,11.363,7.552,18.401c-2.327,5.523-8.116,10.332-13.511,13.523
		c-2.857,1.692-8.967,0.538-12.219-1.523c-18.063-11.456-35.834-23.391-53.416-35.577c-7.125-4.938-9.271-12.526-6.391-20.669
		C199.046,890.756,205.097,887.194,214.278,886.401z"/>
	<path fill-rule="evenodd" clip-rule="evenodd" d="M96.262,223.169c0.998-2.256,1.982-6.707,4.54-9.897
		c12.597-15.707,25.252-31.396,38.611-46.45c7.963-8.974,18.988-9.431,26.458-2.648c7.766,7.054,7.427,17.84-0.592,27.346
		c-12.191,14.45-24.317,28.958-36.305,43.576c-5.776,7.043-12.983,9.824-21.456,6.804
		C100.109,239.258,96.683,233.079,96.262,223.169z"/>
	<path fill-rule="evenodd" clip-rule="evenodd" d="M605.052,1014.1c-11.94,0.194-19.65-6.113-21.114-15.079
		c-1.363-8.359,3.698-17.141,12.307-19.511c20.639-5.687,41.366-11.063,62.158-16.166c8.763-2.148,17.903,3.63,20.628,12.07
		c2.812,8.726-0.817,17.845-10.038,21.474c-10.068,3.961-20.598,6.85-31.083,9.606
		C626.212,1009.573,614.337,1011.979,605.052,1014.1z"/>
	<path fill-rule="evenodd" clip-rule="evenodd" d="M47.711,333.677c11.566-0.235,20.182,11.636,16.874,23.577
		c-5.218,18.824-10.58,37.612-15.991,56.385c-3.467,12.025-12.298,17.855-22.699,15.228c-9.889-2.499-14.938-12.465-11.742-24.634
		c4.886-18.601,9.965-37.161,15.528-55.566C32.662,338.805,39.41,333.846,47.711,333.677z"/>
	<path fill-rule="evenodd" clip-rule="evenodd" d="M114.422,822.768c-6.653-4.664-13.187-7.182-16.477-11.934
		c-11.46-16.563-22.174-33.684-32.42-51.03c-6.015-10.188-3.028-20.67,5.906-25.968c8.624-5.109,18.729-1.659,25.234,8.558
		c10.319,16.218,21.294,32.07,30.647,48.826c2.881,5.166,3.261,13.429,1.306,19.063
		C126.989,814.982,120.267,817.911,114.422,822.768z"/>
	<path fill-rule="evenodd" clip-rule="evenodd" d="M792.026,935.028c-9.958,0.295-15.869-3.668-18.646-10.821
		c-2.909-7.489-1.389-14.905,5.217-20.184c12.352-9.863,24.962-19.397,37.4-29.152c3.898-3.06,7.425-6.598,11.404-9.539
		c8.115-6.003,18.186-5.263,24.466,1.516c6.216,6.704,7.388,17.146-0.002,23.515c-17.559,15.14-36.2,29.024-54.565,43.211
		C795.53,934.94,792.648,934.871,792.026,935.028z"/>
	<path fill-rule="evenodd" clip-rule="evenodd" d="M266.861,106.333c-8.994,0.017-14.796-3.834-17.72-11.049
		c-3.139-7.747-1.57-15.981,5.554-19.835c20.675-11.186,41.76-21.719,63.228-31.286c7.925-3.532,16.95,2.405,20.37,10.482
		c3.035,7.172,1.003,16.631-6.245,20.499C312.089,85.8,291.688,95.629,271.4,105.657
		C269.821,106.435,267.749,106.215,266.861,106.333z"/>
</g>
</svg>
