<?xml version="1.0" encoding="utf-8"?>
<!-- Generator: Adobe Illustrator 16.0.0, SVG Export Plug-In . SVG Version: 6.00 Build 0)  -->
<!DOCTYPE svg PUBLIC "-//W3C//DTD SVG 1.1//EN" "http://www.w3.org/Graphics/SVG/1.1/DTD/svg11.dtd">
<svg version="1.1" id="Layer_1" xmlns="http://www.w3.org/2000/svg" xmlns:xlink="http://www.w3.org/1999/xlink" x="0px" y="0px"
	 width="2000px" height="2000px" viewBox="0 0 2000 2000" enable-background="new 0 0 2000 2000" xml:space="preserve">
<g>
	<defs>
		<rect id="SVGID_1_" x="11.721" y="11.721" width="1976.558" height="1976.558"/>
	</defs>
	<clipPath id="SVGID_2_">
		<use xlink:href="#SVGID_1_"  overflow="visible"/>
	</clipPath>
	<path clip-path="url(#SVGID_2_)" fill="#D5E3EE" d="M1513.691,782.38c44.638,7.683,87.744,20.445,129.372,38.362
		c43.624,18.773,84.126,42.812,121.868,71.525c25.938,19.735,49.825,41.844,71.899,65.757
		c29.064,31.485,54.321,65.879,75.693,103.101c20.108,35.023,36.343,71.752,48.685,110.158
		c8.884,27.642,15.576,55.849,19.927,84.601c3.191,21.098,5.573,42.234,6.281,63.582c0.186,5.602,0.761,11.232,0.826,16.87
		c0.29,25.145-1.229,50.169-3.975,75.176c-4.299,39.18-12.801,77.397-25.276,114.716c-12.514,37.438-28.759,73.194-48.748,107.313
		c-14.214,24.258-30.135,47.285-47.505,69.305c-17.733,22.479-37.458,43.252-58.502,62.615
		c-31.657,29.132-66.168,54.504-103.587,75.89c-34.909,19.951-71.451,36.181-109.725,48.395
		c-29.943,9.556-60.481,16.678-91.684,20.919c-19.115,2.6-38.262,4.238-57.528,5.309c-14.228,0.792-28.454,1.166-42.599,0.521
		c-21.43-0.979-42.834-2.614-64.139-5.728c-35.076-5.124-69.376-13.22-102.874-24.703c-35.882-12.301-70.156-28.065-102.963-47.202
		c-24.285-14.168-47.358-30.047-69.309-47.493c-16.597-13.191-32.492-27.271-47.173-42.652c-4.017-4.205-8.352-8.106-12.54-12.146
		c-0.351-0.5-0.411-1.036-0.185-1.604c8.398-11.057,18.23-20.902,26.896-31.741c40.175-50.248,71.375-105.466,93.064-166.113
		c13.982-39.089,23.501-79.18,28.689-120.3c1.82-14.423,3.43-28.907,3.505-43.503c0.026-5.298,0.985-10.541,1.04-15.878
		c0.479-46.443-3.835-92.381-13.987-137.744c-0.857-3.825-2.2-7.587-2.168-11.586c0.076-0.538,0.259-1.046,0.528-1.518
		c4.296-2.976,9.42-3.989,14.197-5.787c55-20.659,105.687-48.925,152.177-84.92c24.776-19.183,47.559-40.487,68.829-63.321
		c31.445-33.758,58.163-71.074,80.42-111.565c17.404-31.669,31.797-64.621,42.902-98.984c5.695-17.623,10.943-35.397,14.449-53.626
		c0.388-2.009,0.648-4.079,1.827-5.852C1512.729,782.105,1513.189,782.059,1513.691,782.38"/>
	<path clip-path="url(#SVGID_2_)" fill="#F7F2EE" d="M1000.094,1735.564c0.004,0.334,0.012,0.669,0.024,1.004
		c-5.896,5.726-11.878,11.367-17.676,17.194c-17.388,17.477-36.324,33.107-55.921,48.039
		c-29.914,22.792-61.923,42.099-95.706,58.478c-32.077,15.55-65.449,27.649-99.859,37.027c-22.738,6.199-45.81,10.712-69.07,13.991
		c-17.693,2.495-35.523,4.244-53.481,4.608c-7.999,0.16-16.031,0.845-24.062,0.806c-25.104-0.123-50.089-1.766-75.014-4.975
		c-22.34-2.875-44.45-6.849-66.228-12.449c-29.991-7.714-59.269-17.573-87.702-29.979c-32.415-14.144-63.226-31.121-92.471-50.945
		c-18.658-12.647-36.424-26.461-53.568-41.141c-16.17-13.847-31.427-28.644-45.797-44.231
		c-17.575-19.062-33.931-39.202-48.725-60.605c-17.556-25.396-33.182-51.874-46.614-79.635
		c-15.98-33.024-28.354-67.398-37.724-102.863c-5.708-21.602-9.99-43.505-13.164-65.587c-1.645-11.442-2.487-23.022-3.479-34.565
		c-1.7-19.805-2.567-39.632-1.759-59.443c0.793-19.386,2.168-38.747,4.646-58.057c2.78-21.675,7.012-43.033,11.888-64.27
		c2.708-11.797,6.568-23.339,10.095-34.94c9.581-31.521,22.277-61.793,37.548-90.941c17.089-32.614,37.017-63.394,59.998-92.25
		c17.425-21.88,36.41-42.257,56.661-61.438c14.495-13.727,29.839-26.531,45.794-38.589c30.671-23.174,63.306-43.131,97.958-59.707
		c20.202-9.663,40.735-18.658,62.28-25.05c3.704,1.021,3.071,4.599,3.767,7.073c4.269,15.188,8.789,30.273,14.094,45.15
		c10.507,29.468,23.372,57.829,38.465,85.212c18.357,33.307,40.029,64.333,64.718,93.205c24.568,28.728,51.668,54.867,81.381,78.294
		c34.22,26.979,71.018,49.793,110.439,68.284c43.036,20.188,87.913,34.853,134.701,43.555c3.784,0.704,7.958,0.537,11.069,3.521
		c1.104,2.171,0.488,4.374,0.062,6.544c-4.519,23.058-7.667,46.331-9.19,69.744c-1.43,22.021-1.889,44.074-0.635,66.205
		c1.321,23.297,3.593,46.423,7.417,69.416c7.976,47.942,22.175,93.99,42.103,138.307c23.229,51.66,53.808,98.581,90.83,141.367
		C992.303,1725.688,997.237,1729.779,1000.094,1735.564"/>
	<path clip-path="url(#SVGID_2_)" fill="#F2D7CB" d="M1513.691,782.38c-0.332,0.01-0.664,0.022-0.995,0.034
		c-1.372,1.139-2.947,0.714-4.438,0.467c-16.908-2.781-33.921-4.991-51.005-5.891c-21.348-1.123-42.701-2.245-64.154-0.728
		c-14.337,1.014-28.687,1.697-42.982,3.326c-25.758,2.936-51.166,7.675-76.259,14.152c-32.615,8.419-64.242,19.669-94.825,33.739
		c-31.686,14.574-61.803,31.939-90.294,52.079c-29.331,20.733-56.487,44-81.359,69.928c-2.09,2.177-3.905,4.877-7.26,5.439
		c-3.372-0.51-5.187-3.218-7.274-5.396c-24.262-25.341-50.699-48.138-79.304-68.457c-34.251-24.327-70.704-44.647-109.375-61.055
		c-47.673-20.229-97.291-33.215-148.56-39.961c-14.25-1.875-28.62-2.733-42.981-3.653c-12.865-0.826-25.696-0.901-38.531-0.741
		c-38.153,0.471-75.875,4.94-113.156,13.064c-18.777,4.091-37.311,9.082-55.558,15.143c-2.063,0.688-4.203,1.797-6.342,0.106
		c-3.378-16.532-7.251-32.958-9.656-49.689c-2.061-14.345-3.96-28.679-4.933-43.156c-0.92-13.643-1.91-27.26-1.979-40.947
		c-0.118-23.438,1.499-46.744,3.985-70.046c2.718-25.5,7.389-50.622,13.693-75.413c8.317-32.705,19.629-64.382,33.587-95.168
		c17.975-39.639,40.418-76.53,66.662-111.139c19.8-26.112,42.023-50.135,66.093-72.306c31.78-29.274,66.449-54.736,104.063-76.169
		c34.939-19.907,71.483-36.11,109.775-48.288c29.8-9.478,60.177-16.557,91.213-20.782c19.12-2.602,38.25-4.514,57.552-5.3
		c8.196-0.336,16.397-0.686,24.596-0.715c22.055-0.079,43.997,1.55,65.931,3.909c25.326,2.724,50.27,7.349,74.913,13.581
		c32.896,8.316,64.771,19.557,95.67,33.677c30.455,13.918,59.507,30.216,87.043,49.235c20.692,14.29,40.354,29.859,59.066,46.695
		c12.894,11.597,25.197,23.784,36.98,36.426c16.657,17.874,31.981,36.902,46.169,56.856c19.703,27.711,36.835,56.893,51.326,87.615
		c14.406,30.538,25.929,62.148,34.732,94.769c6.814,25.239,11.822,50.836,15.091,76.724c1.685,13.34,2.825,26.786,3.575,40.263
		c0.904,16.268,1.315,32.542,0.673,48.775c-0.637,15.996-1.78,31.985-3.593,47.943
		C1519.321,748.452,1515.915,765.32,1513.691,782.38"/>
	<path clip-path="url(#SVGID_2_)" fill="#F4E7E0" d="M399.04,803.976c11.793-3.41,23.555-6.94,35.388-10.206
		c19.392-5.351,39.088-9.258,58.944-12.527c16.479-2.711,33.046-4.531,49.649-5.889c20.651-1.69,41.422-1.967,62.094-1.018
		c41.598,1.908,82.711,7.612,123.038,18.337c30.609,8.14,60.376,18.587,89.271,31.631c32.378,14.613,63.134,32.015,92.253,52.321
		c15.958,11.13,31.216,23.149,46.095,35.715c14.166,11.962,26.896,25.34,40.116,38.246c1.34,1.307,2.806,2.484,4.216,3.723
		c0.346,0.448,0.418,0.939,0.219,1.471c-10.159,12.483-21.187,24.235-31.111,36.927c-37.467,47.909-66.94,100.25-87.766,157.45
		c-8.874,24.365-16.251,49.137-21.466,74.545c-0.308,1.501-0.58,3.045-1.544,4.327c-0.434,0.42-0.901,0.455-1.396,0.111
		c-41.687-7.224-82.157-18.655-121.249-34.894c-37.254-15.473-72.564-34.519-105.736-57.487
		c-17.401-12.052-33.979-25.144-50.126-38.859c-15.833-13.448-30.606-27.981-44.713-43.104
		c-27.906-29.914-52.341-62.545-73.176-97.818c-21.749-36.819-39.112-75.616-52.355-116.251c-3.847-11.805-7.16-23.78-10.717-35.676
		C398.993,804.692,399.016,804.334,399.04,803.976"/>
	<path clip-path="url(#SVGID_2_)" fill="#CFCDD1" d="M1000.091,955.331c0.002-0.341,0.007-0.682,0.014-1.024
		c6.374-6.214,12.792-12.393,19.127-18.652c32.265-31.885,68.225-58.942,107.173-82.1c36.637-21.782,75.281-39.158,115.85-52.142
		c27.807-8.9,56.11-15.868,85.054-20.118c21.438-3.146,42.895-5.446,64.583-6.384c13.528-0.584,27.053-0.985,40.534-0.584
		c25.899,0.771,51.707,3.091,77.31,7.269c1.006,0.163,1.977,0.539,2.962,0.817c-1.661,13.072-5.329,25.682-8.858,38.316
		c-10.759,38.508-25.512,75.446-44.12,110.823c-16.585,31.526-36.081,61.146-58.067,89.205
		c-18.844,24.05-39.854,46.078-62.135,66.803c-26.039,24.223-54.512,45.459-84.802,64.19
		c-30.339,18.764-62.099,34.669-95.407,47.441c-6.993,2.684-13.779,6.039-21.263,7.322c-3.1-0.428-2.616-3.213-3.122-5.113
		c-6.043-22.73-13.252-45.082-22.015-66.902c-21.952-54.666-51.591-104.827-88.882-150.433c-6.832-8.356-14.13-16.324-21.131-24.543
		C1001.797,958.233,1000.328,957.192,1000.091,955.331"/>
	<path clip-path="url(#SVGID_2_)" fill="#D2DDE6" d="M857.041,1229.141c0.33-0.004,0.664-0.007,0.995-0.012
		c1.906-1.367,3.979-0.68,5.975-0.403c21.049,2.925,42.133,5.144,63.394,6.295c44.603,2.414,88.663-1.275,132.491-9.24
		c24.173-4.396,47.844-10.698,71.247-18.093c2.261-0.717,4.551-1.805,6.884-0.17c3.392,16.675,7.348,33.235,9.681,50.115
		c1.442,10.445,2.733,20.897,3.835,31.39c2.503,23.834,3.632,47.716,2.808,71.623c-0.582,16.825-1.868,33.635-3.757,50.418
		c-2.997,26.628-7.824,52.86-14.538,78.763c-7.214,27.826-16.617,54.907-27.976,81.321c-15.252,35.475-33.938,69.027-55.996,100.701
		c-11.412,16.381-23.445,32.286-36.861,47.122c-5.021,5.55-9.531,11.564-15.127,16.595c-7.081-5.992-12.667-13.383-18.625-20.38
		c-16.741-19.645-32.064-40.374-45.953-62.146c-22.716-35.613-41.297-73.248-55.741-112.96
		c-9.942-27.333-17.733-55.258-23.298-83.778c-3.455-17.703-5.958-35.559-7.839-53.532c-2.604-24.876-3.556-49.795-2.771-74.736
		c0.497-15.81,1.925-31.603,3.56-47.379C851.22,1263.345,855.022,1246.384,857.041,1229.141"/>
	<path clip-path="url(#SVGID_2_)" fill="#D0D6DD" d="M1138.025,1207.52c-10.98,3.143-21.972,6.239-32.938,9.438
		c-23.749,6.931-47.999,11.613-72.445,14.977c-17.008,2.339-34.136,3.925-51.366,4.662c-12.484,0.534-24.955,0.92-37.415,0.675
		c-21.285-0.42-42.524-1.757-63.64-4.838c-7.396-1.079-14.853-1.772-22.187-3.304c1.702-13.066,5.347-25.685,8.878-38.324
		c10.432-37.351,24.67-73.202,42.503-107.639c16.946-32.727,36.859-63.511,59.747-92.409c8.483-10.711,17.633-20.836,26.387-31.304
		c1.298-1.555,3.016-2.758,4.54-4.123c7.214,5.848,12.574,13.437,18.574,20.369c16.757,19.361,31.822,40.029,45.628,61.604
		c18.006,28.136,33.412,57.606,46.334,88.424c10.783,25.718,19.548,52.067,26.436,79.068c0.156,0.615,0.645,1.146,0.98,1.717
		C1138.036,1206.849,1138.031,1207.184,1138.025,1207.52"/>
</g>
</svg>
