<?xml version="1.0" encoding="utf-8"?>
<!-- Generator: Adobe Illustrator 21.0.0, SVG Export Plug-In . SVG Version: 6.00 Build 0)  -->
<svg version="1.1" id="Layer_1" xmlns="http://www.w3.org/2000/svg" xmlns:xlink="http://www.w3.org/1999/xlink" x="0px" y="0px"
	 viewBox="0 0 59 59" style="enable-background:new 0 0 59 59;" xml:space="preserve">
<style type="text/css">
	.st0{opacity:0.7;fill:#F2E8E3;}
	.st1{opacity:0.7;fill:#EACBBA;}
	.st2{opacity:0.7;fill:#ADC5D9;}
	.st3{fill:none;stroke:#000000;stroke-width:4;stroke-linecap:round;stroke-linejoin:round;stroke-miterlimit:10;}
</style>
<g id="border-color">
	<path d="M54.6,0H4.4C2,0,0,2,0,4.4v50.1C0,57,2,59,4.4,59h50.1c2.4,0,4.4-2,4.4-4.4V4.4C59,2,57,0,54.6,0z M55.2,51.3
		c0,2.1-1.7,3.9-3.9,3.9H7.7c-2.1,0-3.9-1.7-3.9-3.9V7.7c0-2.1,1.7-3.9,3.9-3.9h43.7c2.1,0,3.9,1.7,3.9,3.9V51.3z"/>
	<g>
		<circle class="st0" cx="21.2" cy="36.3" r="11.2"/>
		<circle class="st1" cx="28.5" cy="22.7" r="11.2"/>
		<circle class="st2" cx="37.8" cy="36.3" r="11.2"/>
	</g>
</g>
</svg>
