<?xml version="1.0" encoding="utf-8"?>
<!-- Generator: Adobe Illustrator 21.0.0, SVG Export Plug-In . SVG Version: 6.00 Build 0)  -->
<svg version="1.1" id="Layer_1" xmlns="http://www.w3.org/2000/svg" xmlns:xlink="http://www.w3.org/1999/xlink" x="0px" y="0px"
	 viewBox="0 0 59 59" style="enable-background:new 0 0 59 59;" xml:space="preserve">
<style type="text/css">
	.st0{fill:none;stroke:#000000;stroke-width:3;stroke-linecap:round;stroke-linejoin:round;stroke-miterlimit:10;}
</style>
<g>
	<g>
		<path d="M0.5,9.1c0.1-0.6,0.2-1.2,0.4-1.8c1-3.7,4.2-6.4,8.1-6.7c0.3,0,0.7,0,1,0c13,0,26.1,0,39.1,0c4.5,0,8.2,2.9,9.2,7.3
			c0.1,0.6,0.2,1.3,0.2,2c0,9.1,0,18.3,0,27.4c0,1.1-0.6,1.9-1.6,2c-1,0.1-1.9-0.7-1.9-1.7c0-9.2,0-18.4,0-27.6c0-1.6-0.5-3-1.6-4.1
			C52.3,4.6,50.9,4,49.3,4c-2.3,0-4.6,0-7,0C31.6,4,20.7,4,9.9,4C7.4,4,5.5,5.2,4.5,7.5C4.1,8.2,4,9,4,9.9c0,2.8,0,5.6,0,8.5
			c0,10.3,0,20.5,0,30.8c0,2.5,1.2,4.3,3.4,5.4C8.2,54.9,9,55,9.9,55c4.1,0,8.1,0,12.2,0c5.1,0,10.2,0,15.4,0c0.9,0,1.5,0.4,1.8,1.2
			c0.3,0.9-0.2,1.8-1,2.2c-0.1,0-0.2,0.1-0.3,0.1c-9.6,0-19.3,0-28.9,0c-0.1,0-0.1,0-0.2,0c-3.8-0.4-7-3-8-6.7
			c-0.2-0.6-0.2-1.2-0.4-1.8C0.5,36.3,0.5,22.7,0.5,9.1z"/>
		<path d="M47.8,44.2c0.2,0,0.3,0,0.4,0c2.8,0,5.6,0,8.3,0c1,0,1.7,0.6,1.8,1.5c0.2,0.9-0.6,1.9-1.5,2c-0.2,0-0.3,0-0.5,0
			c-2.7,0-5.5,0-8.2,0c-0.1,0-0.2,0-0.4,0c0,0.2,0,0.3,0,0.4c0,2.8,0,5.5,0,8.3c0,0.9-0.4,1.5-1.1,1.8c-1.2,0.5-2.4-0.4-2.4-1.6
			c0-2.8,0-5.6,0-8.5c0-0.1,0-0.2,0-0.4c-0.1,0-0.3,0-0.4,0c-2.8,0-5.6,0-8.3,0c-0.9,0-1.6-0.5-1.8-1.3c-0.3-1,0.4-2.1,1.5-2.2
			c0.1,0,0.3,0,0.4,0c2.7,0,5.5,0,8.2,0c0.1,0,0.3,0,0.4,0c0-0.2,0-0.3,0-0.4c0-2.8,0-5.6,0-8.4c0-0.9,0.6-1.6,1.5-1.8
			c0.9-0.2,1.8,0.5,2,1.4c0,0.2,0,0.4,0,0.6c0,2.8,0,5.5,0,8.3C47.8,43.9,47.8,44,47.8,44.2z"/>
	</g>
	<g>
		<path class="st0" d="M38.6,38.9c-1.8,1.3-4,2-6.4,2c-6,0-10.9-4.9-10.9-10.9s4.9-10.9,10.9-10.9c1.7,0,3.4,0.4,4.9,1.1"/>
	</g>
</g>
</svg>
