<?xml version="1.0" encoding="utf-8"?>
<!-- Generator: Adobe Illustrator 16.0.0, SVG Export Plug-In . SVG Version: 6.00 Build 0)  -->
<!DOCTYPE svg PUBLIC "-//W3C//DTD SVG 1.1//EN" "http://www.w3.org/Graphics/SVG/1.1/DTD/svg11.dtd">
<svg version="1.1" id="Layer_1" xmlns="http://www.w3.org/2000/svg" xmlns:xlink="http://www.w3.org/1999/xlink" x="0px" y="0px"
	 width="1064.264px" height="1064.264px" viewBox="0 0 1064.264 1064.264" enable-background="new 0 0 1064.264 1064.264"
	 xml:space="preserve">
<g>
	<defs>
		<rect id="SVGID_1_" x="-467.868" y="-467.868" width="2000" height="2000"/>
	</defs>
	<clipPath id="SVGID_2_">
		<use xlink:href="#SVGID_1_"  overflow="visible"/>
	</clipPath>
	<path clip-path="url(#SVGID_2_)" d="M984.307,0H79.958C35.871,0,0,35.871,0,79.958v904.348c0,44.087,35.871,79.958,79.958,79.958
		h904.349c44.086,0,79.957-35.871,79.957-79.958V79.958C1064.264,35.871,1028.393,0,984.307,0 M995.552,925.918
		c0,38.395-31.239,69.634-69.633,69.634H138.346c-38.395,0-69.633-31.239-69.633-69.634V138.345
		c0-38.394,31.238-69.633,69.633-69.633h787.573c38.394,0,69.633,31.239,69.633,69.633V925.918z"/>
	<path clip-path="url(#SVGID_2_)" d="M897.672,895.979h-725.1c-31.21,0-50.71-33.78-35.11-60.811l135.93-235.419
		c15.6-27.031,54.61-27.031,70.21,0l79.73,138.079l191.52-331.72c13.3-23.04,46.561-23.04,59.87,0l252.891,438.02
		C940.912,867.18,924.282,895.979,897.672,895.979"/>
	<path clip-path="url(#SVGID_2_)" d="M141.62,304.059c0-74.986,60.789-135.774,135.774-135.774
		c74.986,0,135.775,60.788,135.775,135.774c0,74.986-60.789,135.774-135.775,135.774C202.409,439.833,141.62,379.045,141.62,304.059
		"/>
</g>
</svg>
