<?xml version="1.0" encoding="utf-8"?>
<!-- Generator: Adobe Illustrator 16.0.0, SVG Export Plug-In . SVG Version: 6.00 Build 0)  -->
<!DOCTYPE svg PUBLIC "-//W3C//DTD SVG 1.1//EN" "http://www.w3.org/Graphics/SVG/1.1/DTD/svg11.dtd">
<svg version="1.1" id="Layer_1" xmlns="http://www.w3.org/2000/svg" xmlns:xlink="http://www.w3.org/1999/xlink" x="0px" y="0px"
	 width="930px" height="308px" viewBox="0 0 930 308" enable-background="new 0 0 930 308" xml:space="preserve">
<g>
	<defs>
		<rect id="SVGID_1_" x="-352" y="-637.929" width="1577.929" height="1577.929"/>
	</defs>
	<clipPath id="SVGID_2_">
		<use xlink:href="#SVGID_1_"  overflow="visible"/>
	</clipPath>
	<path clip-path="url(#SVGID_2_)" d="M7.087,184.39l-0.831-34.901l1.108,0.553l7.478,11.358
		c11.357,18.835,19.113,27.975,36.564,27.975c13.018,0,21.051-7.755,21.051-20.219c0-13.574-13.573-19.114-28.807-25.484
		c-20.774-8.309-37.117-16.62-37.117-38.225c0-24.929,19.666-40.718,48.197-40.718c9.14,0,19.943,2.216,27.145,4.709l12.741-2.493
		l1.386,37.948l-1.108,0.554L69.134,71.653c-4.432-2.493-9.141-4.432-14.958-4.432c-11.91,0-19.389,7.479-19.389,19.943
		c0,12.465,13.85,18.005,29.638,24.375c17.451,7.756,37.948,15.512,37.948,39.057c0,20.774-15.234,41.272-51.797,41.272
		C33.125,191.868,17.336,188.268,7.087,184.39"/>
	<path clip-path="url(#SVGID_2_)" d="M131.46,150.873l1.385-65.37l-22.99-0.276l9.972-14.958l25.76-17.728l23.544-16.619h1.385
		l-0.277,32.684h41.272l-4.432,16.066h-37.394l-0.831,60.385c-0.554,21.328,5.817,28.807,21.329,28.807
		c11.357,0,17.45-4.154,22.159-8.587l1.108,1.108c-13.849,14.404-26.868,24.376-45.427,24.376
		C142.263,190.761,131.183,178.296,131.46,150.873"/>
	<path clip-path="url(#SVGID_2_)" d="M217.054,127.882c0-35.178,27.977-63.43,69.802-63.43c42.103,0,67.587,28.53,67.587,62.877
		c0,36.008-27.422,64.539-69.802,64.539C241.983,191.868,217.054,162.784,217.054,127.882 M312.063,129.267
		c0-36.009-6.371-50.689-13.296-57.614c-3.6-3.324-7.202-4.432-12.464-4.432c-18.282,0-27.423,22.99-27.423,59.276
		c0,36.009,6.648,51.245,13.296,58.446c3.324,3.324,7.202,4.431,12.741,4.431C302.645,189.374,312.063,165.277,312.063,129.267"/>
	<path clip-path="url(#SVGID_2_)" d="M368.572,186.328l3.324-0.276c8.587-0.555,11.634-1.108,11.634-4.432v-76.45
		c0-17.174-1.939-19.39-11.357-21.883l-6.371-1.385l0.277-1.108l57.615-15.788l-0.831,43.764h0.554
		c8.586-29.638,20.22-44.318,37.671-44.318c12.464,0,21.882,7.479,21.882,21.605c0,9.141-8.032,18.835-18.559,18.835
		c-12.741,0-18.835-9.694-21.605-18.835c-8.31,0.554-13.85,11.08-19.943,35.456v60.107c0,2.216,2.493,3.601,15.234,4.432
		l3.602,0.276l0.832,1.662h-74.789L368.572,186.328z"/>
	<path clip-path="url(#SVGID_2_)" d="M493.498,186.328l3.325-0.277c8.586-0.554,11.633-1.107,11.633-4.431v-76.45
		c0-17.174-1.939-19.39-11.357-21.883l-6.37-1.385l0.276-1.108l56.784-15.788v117.167c0,2.216,1.662,2.494,14.404,3.878l2.215,0.277
		l0.832,1.662h-72.573L493.498,186.328z M503.47,27.611c0-11.356,8.587-22.713,23.545-22.713c15.234,0,23.544,11.357,23.544,22.713
		c0,11.08-8.31,22.714-23.544,22.714C512.057,50.325,503.47,38.691,503.47,27.611"/>
	<path clip-path="url(#SVGID_2_)" d="M576.872,130.653c0-38.78,30.471-66.756,67.863-66.756c35.455,0,49.582,22.99,49.582,40.164
		c0,1.939-0.277,3.601-0.554,5.263c0,0-59.277-0.831-74.788-1.385c-0.554,3.324-0.277,8.587-0.277,11.911
		c0,29.361,15.788,50.689,41.549,50.689c15.789,0,26.868-7.202,33.517-21.605l1.662,0.831
		c-10.526,27.422-29.084,42.657-58.999,42.657C602.355,192.422,576.872,165.553,576.872,130.653 M658.031,104.892
		c0-16.619-3.047-37.117-17.174-37.117c-9.694,0-19.389,13.018-21.605,37.117H658.031z"/>
	<path clip-path="url(#SVGID_2_)" d="M711.216,184.39l-0.831-34.901l1.108,0.553l7.479,11.358
		c11.356,18.835,19.112,27.975,36.563,27.975c13.019,0,21.051-7.755,21.051-20.219c0-13.574-13.572-19.114-28.807-25.484
		c-20.774-8.309-37.117-16.62-37.117-38.225c0-24.929,19.666-40.718,48.197-40.718c9.141,0,19.943,2.216,27.145,4.709l12.742-2.493
		l1.385,37.948l-1.107,0.554l-25.761-33.793c-4.432-2.493-9.141-4.432-14.958-4.432c-11.91,0-19.39,7.479-19.39,19.943
		c0,12.465,13.85,18.005,29.639,24.375c17.45,7.756,37.948,15.512,37.948,39.057c0,20.774-15.235,41.272-51.798,41.272
		C737.254,191.868,721.465,188.268,711.216,184.39"/>
	<path clip-path="url(#SVGID_2_)" d="M628.148,248.907c7.334-10.216,14.159-20.173,21.448-29.778
		c16.896-22.271,34.364-44.082,55.56-62.518c5.661-4.924,11.782-9.383,18.043-13.528c2.71-1.795,6.237-2.751,9.516-3.197
		c4.895-0.668,7.318,1.474,7.158,6.324c-0.123,3.695-0.817,7.517-2.059,10.998c-2.764,7.753-7.473,14.45-13.299,20.177
		c-28.967,28.479-59.024,55.694-92.529,78.854c-5.947,4.11-10.414,14.934-8.962,21.933c0.678,3.256,2.148,4.831,6.03,4.666
		c4.671-0.198,9.59-0.433,13.911-2.002c21.984-7.982,42.507-18.543,59.115-35.558c0.753-0.771,2.529-1.554,3.169-1.185
		c0.894,0.517,1.654,2.145,1.58,3.235c-0.095,1.383-1.07,2.711-1.688,4.052c-0.937,2.034-2.311,3.975-2.745,6.11
		c-0.676,3.325,1.359,5.172,4.604,4.223c3.236-0.946,6.419-2.23,9.438-3.74c12.238-6.118,23.009-14.468,33.479-23.103
		c16.739-13.808,33.094-28.079,49.632-42.129c1.127-0.956,2.436-1.698,3.66-2.54c-0.243-0.432-0.485-0.862-0.729-1.293
		c-1.583-0.078-3.171-0.281-4.749-0.213c-14.514,0.618-29.026,1.294-43.542,1.923c-1.493,0.064-3.046,0.146-4.472-0.196
		c-0.659-0.159-1.49-1.324-1.485-2.029c0.005-0.687,0.88-1.84,1.535-1.969c2.582-0.507,5.222-0.858,7.852-0.968
		c13.195-0.552,26.394-1.132,39.597-1.464c12.259-0.309,12.284-0.151,21.378-8.685c5.093-4.776,10.062-9.687,15.162-14.456
		c1.675-1.565,3.54-4.749,5.957-2.521c2.567,2.368-0.672,4.2-2.176,5.905c-4.37,4.952-8.803,9.85-13.188,14.789
		c-0.585,0.659-1.038,1.436-1.756,2.442c5.427,0,10.26,0.28,15.052-0.046c25.647-1.749,51.306-1.263,76.967-0.636
		c2.255,0.056,4.546,0.257,6.728,0.778c0.749,0.18,1.745,1.6,1.664,2.349c-0.085,0.78-1.224,1.764-2.104,2.055
		c-1.006,0.333-2.231,0.015-3.361-0.043c-25.843-1.324-51.684-1.218-77.52,0.22c-6.402,0.356-12.803,0.772-19.208,1.105
		c-2.144,0.111-3.879,0.551-5.34,2.473c-11.421,15.021-23.229,29.753-34.331,45.003c-4.622,6.35-8.016,13.638-11.588,20.69
		c-2.488,4.911-3.647,10.308-3.543,15.878c0.125,6.68,3.853,10.174,10.458,9.419c2.561-0.292,5.199-1.159,7.488-2.363
		c9.843-5.175,18.259-11.968,23.788-21.902c0.521-0.937,1.868-1.411,2.834-2.1c0.525,1.264,1.388,2.505,1.471,3.798
		c0.063,0.976-0.753,2.097-1.379,3.016c-6.962,10.231-16.04,17.96-27.419,22.905c-4.298,1.868-8.666,2.313-13.221,0.735
		c-5.448-1.888-8.317-5.643-8.691-11.322c-0.391-5.92,0.479-11.682,2.641-17.205c3.733-9.535,8.572-18.505,14.728-26.68
		c7.489-9.948,15.25-19.692,22.876-29.537c0.994-1.284,1.887-2.646,2.288-4.496c-1.5,1.288-3.024,2.55-4.496,3.869
		c-20.244,18.15-40.828,35.903-62.948,51.751c-6.563,4.702-13.79,8.483-20.749,12.626c-1.121,0.668-2.41,1.077-3.652,1.519
		c-9.177,3.261-12.579,1.53-15.309-8.038c-1.144,0.772-2.254,1.422-3.251,2.211c-12.69,10.052-26.962,17.35-41.845,23.399
		c-5.697,2.316-11.923,3.37-17.958,4.784c-1.791,0.419-3.776,0.306-5.632,0.092c-6.297-0.721-9.618-4.015-9.73-10.379
		c-0.078-4.435,0.724-8.886,1.164-13.668c-6.031,1.63-12.158,5.283-17.75,1.591c-18.066,8.875-35.44,17.522-52.921,25.946
		c-7.986,3.849-16.194,7.231-25.038,8.684c-1.486,0.243-2.988,0.46-4.489,0.521c-8.509,0.349-14.404-2.584-15.426-12.58
		c-0.055-0.537-0.335-1.051-0.639-1.961c-6.66,2.147-13.285,4.204-19.858,6.415c-22.803,7.671-46.15,11.139-70.203,9.174
		c-2.242-0.183-4.545-0.444-6.645-1.172c-0.926-0.321-1.416-1.898-2.104-2.906c1.056-0.501,2.134-1.474,3.163-1.424
		c5.08,0.25,10.14,0.962,15.22,1.162c16.747,0.656,33.116-1.847,49.138-6.562c9.762-2.874,19.398-6.17,29.106-9.233
		c2.427-0.765,4.02-2.064,5.387-4.429c8.754-15.144,21.366-26.2,37.109-33.661c2.319-1.1,5.061-1.631,7.646-1.784
		c5.384-0.318,8.144,2.639,7.479,8.05c-0.263,2.142-1.143,4.452-2.436,6.161c-1.793,2.369-4.081,4.446-6.434,6.297
		c-10.916,8.592-23.125,14.873-36.045,19.859c-4.928,1.903-5.551,2.853-4.997,6.707c0.613,4.268,2.701,6.623,6.969,6.772
		c3.539,0.123,7.169-0.23,10.645-0.936c3.486-0.708,6.95-1.839,10.219-3.256c19.558-8.477,38.952-17.295,57.423-28.007
		c2.994-1.736,5.365-3.676,6.636-7.252c1.754-4.942,5.704-8.368,10.115-11.107C618.72,239.843,623.042,240.855,628.148,248.907
		 M636.482,245.211c0.379,0.41,0.758,0.819,1.136,1.229c1.903-1.401,3.889-2.708,5.699-4.22
		c16.625-13.889,33.38-27.628,49.762-41.799c9.254-8.005,17.987-16.625,26.754-25.175c6.396-6.239,11.543-13.42,14.414-22.021
		c0.943-2.83,1.688-5.686-0.088-9.261c-2.962,1.091-5.944,1.743-8.448,3.213c-4.203,2.468-8.434,5.08-12.066,8.294
		c-12.851,11.365-25.252,23.221-36.253,36.432c-6.752,8.105-13.448,16.268-19.855,24.645
		C650.334,225.961,643.484,235.645,636.482,245.211 M512.283,276.629c11.52-3.215,30.739-14.119,38.017-21.441
		c1.05-1.056,2.223-2.188,2.746-3.517c0.6-1.529,0.539-3.317,0.773-5.062C542.13,246.141,521.128,261.499,512.283,276.629
		 M626.021,253.703c-1.352-1.679-2.318-2.724-3.107-3.889c-2.323-3.427-3.316-3.946-6.899-2.332
		c-5.66,2.551-10.062,6.411-12.086,13.287c1.493,0.434,2.923,1.352,4.119,1.111C614.502,260.583,620.565,258.296,626.021,253.703"/>
	<path clip-path="url(#SVGID_2_)" d="M720.265,225.283c-0.146,2.394-3.041,4.268-5.338,3.718c-0.995-0.239-2.267-1.409-2.48-2.365
		c-0.381-1.699,2.488-3.347,5.162-2.9C718.655,223.911,719.573,224.859,720.265,225.283"/>
</g>
</svg>
