<?xml version="1.0" standalone="no"?>
<!DOCTYPE svg PUBLIC "-//W3C//DTD SVG 20010904//EN"
 "http://www.w3.org/TR/2001/REC-SVG-20010904/DTD/svg10.dtd">
<svg version="1.0" xmlns="http://www.w3.org/2000/svg"
 width="8334.000000pt" height="8334.000000pt" viewBox="0 0 8334.000000 8334.000000"
 preserveAspectRatio="xMidYMid meet">
<metadata>
Created by potrace 1.15, written by Peter Selinger 2001-2017
</metadata>
<g transform="translate(0.000000,8334.000000) scale(0.100000,-0.100000)"
fill="#000000" stroke="none">
<path d="M41038 61799 c-3730 -113 -7323 -1250 -10443 -3304 -915 -602 -1775
-1276 -2610 -2046 -270 -248 -846 -824 -1094 -1094 -1722 -1868 -3049 -3977
-3966 -6304 -1270 -3224 -1683 -6754 -1194 -10221 493 -3498 1902 -6799 4096
-9592 757 -964 1655 -1911 2583 -2723 2394 -2095 5246 -3593 8310 -4365 1305
-329 2563 -515 3980 -590 560 -30 1563 -23 2200 15 4015 242 7842 1674 11035
4129 1385 1065 2636 2316 3701 3701 1952 2539 3268 5497 3838 8630 235 1289
337 2505 323 3850 -6 567 -13 760 -47 1240 -311 4373 -2033 8499 -4925 11805
-393 448 -931 1007 -1355 1405 -1023 960 -2103 1787 -3275 2507 -3352 2057
-7202 3078 -11157 2957z m1407 -1680 c4060 -166 7921 -1659 11055 -4273 969
-808 1902 -1769 2681 -2761 1407 -1792 2458 -3791 3124 -5940 687 -2221 948
-4554 769 -6900 -207 -2727 -1019 -5369 -2380 -7742 -1636 -2851 -4006 -5221
-6857 -6857 -3310 -1898 -7113 -2715 -10947 -2350 -4972 473 -9522 2943
-12664 6874 -968 1211 -1802 2581 -2434 4001 -880 1978 -1401 4086 -1546 6259
-53 791 -53 1671 -1 2480 182 2779 992 5474 2375 7899 1162 2037 2714 3849
4550 5311 1427 1136 3007 2052 4695 2723 2043 811 4208 1244 6465 1291 222 5
846 -4 1115 -15z"/>
<path d="M41570 51149 c-211 -24 -415 -136 -550 -301 -58 -71 -139 -231 -167
-328 -17 -62 -18 -219 -21 -4037 l-2 -3973 -3973 -2 c-3818 -3 -3975 -4 -4037
-21 -101 -29 -258 -110 -332 -171 -482 -400 -365 -1174 215 -1414 161 -67
-184 -62 4177 -62 l3950 0 0 -3934 c0 -3474 2 -3944 15 -4021 86 -490 576
-797 1052 -659 275 79 487 292 575 574 l23 75 3 3982 2 3983 3983 2 3982 3 75
23 c282 88 495 300 574 575 138 477 -169 966 -660 1052 -76 13 -566 15 -4020
15 l-3934 0 0 3950 c0 3566 -2 3958 -16 4028 -86 420 -486 709 -914 661z"/>
</g>
</svg>
