<?xml version="1.0" encoding="utf-8"?>
<!-- Generator: Adobe Illustrator 16.0.0, SVG Export Plug-In . SVG Version: 6.00 Build 0)  -->
<!DOCTYPE svg PUBLIC "-//W3C//DTD SVG 1.1//EN" "http://www.w3.org/Graphics/SVG/1.1/DTD/svg11.dtd">
<svg version="1.1" id="Layer_1" xmlns="http://www.w3.org/2000/svg" xmlns:xlink="http://www.w3.org/1999/xlink" x="0px" y="0px"
	 width="2000px" height="2000px" viewBox="0 0 2000 2000" enable-background="new 0 0 2000 2000" xml:space="preserve">
<g>
	<defs>
		<rect id="SVGID_1_" width="2000" height="2000"/>
	</defs>
	<clipPath id="SVGID_2_">
		<use xlink:href="#SVGID_1_"  overflow="visible"/>
	</clipPath>
	<path clip-path="url(#SVGID_2_)" d="M443.93,1960.36c-33.573-14.138-45.836-40.052-48.044-75.744
		c-7.753-125.4-17.708-250.666-26.664-375.995c-8.921-124.803-17.558-249.628-26.476-374.434
		c-8.953-125.328-18.174-250.637-27.145-375.965c-7.843-109.596-15.503-219.205-23.232-328.811
		c-1.255-17.83-2.928-35.652-3.469-53.507c-0.322-10.61-4.012-14.486-15.042-14.328c-33.118,0.478-66.288,0.798-99.358-0.639
		c-25.979-1.127-44.349-15.88-54.227-39.562c-9.628-23.086-6.527-45.578,8.95-65.426c13.843-17.756,32.612-25.163,55.189-25.123
		c137.787,0.237,275.575,0.117,413.362,0.117h20.575v-18.197c0.007-37.866-0.455-75.738,0.149-113.594
		c0.658-41.356,27.456-68.122,68.745-68.164c221.933-0.223,443.867-0.238,665.798,0.017c41.049,0.047,67.762,27.335,68.176,68.691
		c0.431,43.048,0.097,86.106,0.097,131.246h19.554c137.79,0,275.577-0.2,413.363,0.351c12.154,0.049,25.391,2.778,36.221,8.121
		c27.57,13.607,37.7,42.596,30.063,79.004c-4.347,20.708-29.68,41.474-55.312,42.537c-32.551,1.35-65.202,1.288-97.781,0.549
		c-12.611-0.287-15.914,4.223-16.723,15.995c-11.594,168.884-23.472,337.751-35.543,506.601
		c-13.122,183.532-26.622,367.04-39.762,550.569c-10.999,153.644-21.865,307.299-32.445,460.973
		c-2.201,31.93-18.779,52.4-47.203,64.716H443.93z M1620.711,363.131H419.01c35.003,489.758,69.908,978.143,104.818,1466.588
		h992.066C1550.847,1340.668,1585.722,852.698,1620.711,363.131 M1289.004,162.779h-537.72v67.399h537.72V162.779z"/>
	<path clip-path="url(#SVGID_2_)" fill="none" stroke="#000000" stroke-width="29" stroke-miterlimit="10" d="M443.93,1960.36
		c-33.573-14.138-45.836-40.052-48.044-75.744c-7.753-125.4-17.708-250.666-26.664-375.995
		c-8.921-124.803-17.558-249.628-26.476-374.434c-8.953-125.328-18.174-250.637-27.145-375.965
		c-7.843-109.596-15.503-219.205-23.232-328.811c-1.255-17.83-2.928-35.652-3.469-53.507c-0.322-10.61-4.012-14.486-15.042-14.328
		c-33.118,0.478-66.288,0.798-99.358-0.639c-25.979-1.127-44.349-15.88-54.227-39.562c-9.628-23.086-6.527-45.578,8.95-65.426
		c13.843-17.756,32.612-25.163,55.189-25.123c137.787,0.237,275.575,0.117,413.362,0.117h20.575v-18.197
		c0.007-37.866-0.455-75.738,0.149-113.594c0.658-41.356,27.456-68.122,68.745-68.164c221.933-0.223,443.867-0.238,665.798,0.017
		c41.049,0.047,67.762,27.335,68.176,68.691c0.431,43.048,0.097,86.106,0.097,131.246h19.554c137.79,0,275.577-0.2,413.363,0.351
		c12.154,0.049,25.391,2.778,36.221,8.121c27.57,13.607,37.7,42.596,30.063,79.004c-4.347,20.708-29.68,41.474-55.312,42.537
		c-32.551,1.35-65.202,1.288-97.781,0.549c-12.611-0.287-15.914,4.223-16.723,15.995c-11.594,168.884-23.472,337.751-35.543,506.601
		c-13.122,183.532-26.622,367.04-39.762,550.569c-10.999,153.644-21.865,307.299-32.445,460.973
		c-2.201,31.93-18.779,52.4-47.203,64.716H443.93z M1620.711,363.131H419.01c35.003,489.758,69.908,978.143,104.818,1466.588
		h992.066C1550.847,1340.668,1585.722,852.698,1620.711,363.131z M1289.004,162.779h-537.72v67.399h537.72V162.779z"/>
	<path clip-path="url(#SVGID_2_)" fill="#FFFFFF" d="M1620.711,363.132c-34.989,489.567-69.864,977.536-104.816,1466.589H523.828
		c-34.911-488.447-69.814-976.831-104.819-1466.589H1620.711z M793.815,1544.005c-0.93-12.574-1.891-25.149-2.783-37.731
		c-7.745-109.021-15.438-218.049-23.22-327.071c-8.007-112.164-16.056-224.325-24.171-336.484
		c-4.928-68.13-9.29-136.313-15.324-204.347c-3.21-36.193-33.844-59.756-70.365-57.191c-33.5,2.35-59.688,30.978-59.332,65.812
		c0.155,15.211,1.863,30.408,2.934,45.607c7.749,110.079,15.462,220.16,23.29,330.231c9.132,128.416,18.306,256.829,27.589,385.234
		c3.6,49.778,6.081,99.701,11.838,149.235c4.046,34.807,36.202,57.678,69.812,54.111
		C769.328,1607.673,794.286,1579.512,793.815,1544.005 M1441.27,651.394c0,0.746,0.064-2.937-0.012-6.612
		c-0.653-31.856-24.463-59.078-55.328-63.285c-32.781-4.468-62.875,14.016-72.211,45.229c-2.675,8.944-3.585,18.557-4.264,27.94
		c-9.724,134.167-19.271,268.351-28.86,402.527c-11.421,159.861-22.782,319.727-34.305,479.58
		c-2.881,39.985,21.817,71.021,60.042,74.721c36.438,3.527,67.881-23.335,70.882-62.561c7.054-92.212,13.163-184.495,19.739-276.743
		c6.877-96.442,13.891-192.872,20.777-289.311C1425.513,873.86,1433.218,764.833,1441.27,651.394 M1085.187,1095.705
		c0-56.27,0.005-112.537-0.002-168.805c-0.013-93.607,0.24-187.213-0.193-280.818c-0.158-33.694-24.045-60.557-55.495-64.621
		c-33.489-4.327-63.881,14.971-72.411,47.157c-2.505,9.457-2.494,19.759-2.498,29.674c-0.12,291.862-0.1,583.723-0.081,875.585
		c0,6.307-0.084,12.64,0.413,18.918c2.815,35.446,35.664,62.49,71.001,58.612c36.608-4.018,59.188-30.705,59.218-70.811
		C1085.25,1392.301,1085.183,1244.002,1085.187,1095.705"/>
	<rect x="751.284" y="162.779" clip-path="url(#SVGID_2_)" fill="#FFFFFF" width="537.72" height="67.399"/>
	<path clip-path="url(#SVGID_2_)" d="M793.818,1544.005c0.468,35.507-24.491,63.67-59.735,67.406
		c-33.61,3.568-65.765-19.305-69.812-54.111c-5.76-49.534-8.239-99.457-11.838-149.233c-9.283-128.407-18.458-256.82-27.589-385.236
		c-7.826-110.071-15.541-220.152-23.29-330.23c-1.071-15.2-2.779-30.396-2.934-45.608c-0.356-34.833,25.832-63.461,59.332-65.811
		c36.522-2.564,67.155,20.997,70.365,57.191c6.034,68.033,10.395,136.216,15.324,204.347
		c8.113,112.158,16.164,224.319,24.171,336.483c7.782,109.022,15.475,218.051,23.218,327.073
		C791.924,1518.855,792.885,1531.431,793.818,1544.005"/>
	<path clip-path="url(#SVGID_2_)" fill="none" stroke="#000000" stroke-width="10" stroke-miterlimit="10" d="M793.818,1544.005
		c0.468,35.507-24.491,63.67-59.735,67.406c-33.61,3.568-65.765-19.305-69.812-54.111c-5.76-49.534-8.239-99.457-11.838-149.233
		c-9.283-128.407-18.458-256.82-27.589-385.236c-7.826-110.071-15.541-220.152-23.29-330.23c-1.071-15.2-2.779-30.396-2.934-45.608
		c-0.356-34.833,25.832-63.461,59.332-65.811c36.522-2.564,67.155,20.997,70.365,57.191c6.034,68.033,10.395,136.216,15.324,204.347
		c8.113,112.158,16.164,224.319,24.171,336.483c7.782,109.022,15.475,218.051,23.218,327.073
		C791.924,1518.855,792.885,1531.431,793.818,1544.005z"/>
	<path clip-path="url(#SVGID_2_)" d="M1441.27,651.393c-8.054,113.439-15.757,222.467-23.539,331.488
		c-6.885,96.438-13.9,192.867-20.777,289.31c-6.576,92.249-12.686,184.531-19.739,276.743
		c-3.001,39.226-34.443,66.088-70.882,62.563c-38.225-3.701-62.923-34.737-60.042-74.723
		c11.524-159.854,22.884-319.719,34.307-479.58c9.589-134.178,19.135-268.359,28.858-402.528c0.681-9.381,1.589-18.994,4.264-27.94
		c9.336-31.214,39.43-49.695,72.211-45.227c30.865,4.206,54.675,31.427,55.328,63.284
		C1441.334,648.458,1441.27,652.139,1441.27,651.393"/>
	<path clip-path="url(#SVGID_2_)" fill="none" stroke="#000000" stroke-width="10" stroke-miterlimit="10" d="M1441.27,651.393
		c-8.054,113.439-15.757,222.467-23.539,331.488c-6.885,96.438-13.9,192.867-20.777,289.31
		c-6.576,92.249-12.686,184.531-19.739,276.743c-3.001,39.226-34.443,66.088-70.882,62.563
		c-38.225-3.701-62.923-34.737-60.042-74.723c11.524-159.854,22.884-319.719,34.307-479.58
		c9.589-134.178,19.135-268.359,28.858-402.528c0.681-9.381,1.589-18.994,4.264-27.94c9.336-31.214,39.43-49.695,72.211-45.227
		c30.865,4.206,54.675,31.427,55.328,63.284C1441.334,648.458,1441.27,652.139,1441.27,651.393z"/>
	<path clip-path="url(#SVGID_2_)" d="M1085.185,1095.705c-0.002,148.297,0.065,296.596-0.046,444.892
		c-0.029,40.105-22.609,66.793-59.216,70.811c-35.339,3.878-68.188-23.166-71.003-58.612c-0.497-6.278-0.413-12.611-0.413-18.918
		c-0.019-291.862-0.039-583.723,0.081-875.585c0.004-9.915-0.007-20.217,2.499-29.674c8.529-32.186,38.921-51.483,72.41-47.157
		c31.45,4.064,55.337,30.926,55.492,64.621c0.437,93.604,0.184,187.211,0.196,280.818
		C1085.191,983.168,1085.187,1039.436,1085.185,1095.705"/>
	<path clip-path="url(#SVGID_2_)" fill="none" stroke="#000000" stroke-width="10" stroke-miterlimit="10" d="M1085.185,1095.705
		c-0.002,148.297,0.065,296.596-0.046,444.892c-0.029,40.105-22.609,66.793-59.216,70.811
		c-35.339,3.878-68.188-23.166-71.003-58.612c-0.497-6.278-0.413-12.611-0.413-18.918c-0.019-291.862-0.039-583.723,0.081-875.585
		c0.004-9.915-0.007-20.217,2.499-29.674c8.529-32.186,38.921-51.483,72.41-47.157c31.45,4.064,55.337,30.926,55.492,64.621
		c0.437,93.604,0.184,187.211,0.196,280.818C1085.191,983.168,1085.187,1039.436,1085.185,1095.705z"/>
</g>
</svg>
