<?xml version="1.0" encoding="utf-8"?>
<!-- Generator: Adobe Illustrator 16.0.0, SVG Export Plug-In . SVG Version: 6.00 Build 0)  -->
<!DOCTYPE svg PUBLIC "-//W3C//DTD SVG 1.1//EN" "http://www.w3.org/Graphics/SVG/1.1/DTD/svg11.dtd">
<svg version="1.1" id="Layer_1" xmlns="http://www.w3.org/2000/svg" xmlns:xlink="http://www.w3.org/1999/xlink" x="0px" y="0px"
	 width="2000px" height="2000px" viewBox="0 0 2000 2000" enable-background="new 0 0 2000 2000" xml:space="preserve">
<g>
	<path fill="#FFFFFF" d="M1918.776,269.308c-6.39-17.168-18.633-30.618-35.406-38.896c-12.446-6.142-27.568-9.558-42.58-9.618
		c-85.272-0.341-169.146-0.387-239.944-0.387c-28.911,0-57.826,0.009-86.742,0.018c-28.913,0.009-57.826,0.018-86.734,0.018h-5.043
		c0.012-8.907,0.031-17.74,0.052-26.515c0.071-31.09,0.14-60.455-0.16-90.376c-0.496-49.616-33.715-82.989-82.659-83.045
		c-108.548-0.125-220.915-0.188-333.979-0.188c-107.563,0-219.213,0.057-331.85,0.17c-48.998,0.05-82.445,33.177-83.229,82.433
		c-0.422,26.43-0.324,53.238-0.231,79.164c0.042,11.554,0.083,23.107,0.081,34.662v3.696h-6.075
		c-34.712,0-69.419,0.008-104.127,0.015c-34.705,0.008-69.41,0.016-104.121,0.016c-82.651,0-145.903-0.045-205.089-0.147l-0.207,0
		c-28.203,0-50.557,10.332-66.441,30.707c-18.584,23.832-22.454,52.216-10.898,79.925c12.48,29.921,36.269,47.134,66.98,48.466
		c16.357,0.711,34.211,1.057,54.583,1.057c15.401,0,31.024-0.194,45.612-0.405l0.331-0.002c0.003,0.087,0.007,0.178,0.01,0.27
		c0.405,13.38,1.435,26.794,2.43,39.766c0.366,4.773,0.731,9.546,1.068,14.322c2.124,30.128,4.244,60.257,6.363,90.385
		c5.497,78.151,11.183,158.963,16.87,238.442c4.334,60.559,8.801,122.123,13.12,181.66c4.62,63.684,9.397,129.534,14.024,194.303
		c4.433,62.037,8.869,125.12,13.16,186.127c4.341,61.719,8.83,125.539,13.316,188.308c2.797,39.133,5.738,78.906,8.582,117.37
		c6.266,84.713,12.744,172.312,18.072,258.486c1.752,28.322,9.557,68.28,56.889,88.212l2.699,1.135h1157.751l2.758-1.195
		c34.605-14.994,53.415-40.909,55.904-77.024c9.511-138.137,19.819-284.602,32.442-460.935
		c6.409-89.522,13.014-180.542,19.4-268.564c6.706-92.425,13.64-187.996,20.361-282.005
		c12.949-181.121,24.576-346.845,35.546-506.64c0.071-1.035,0.157-1.851,0.244-2.487c0.475-0.017,1.066-0.02,1.685-0.006
		c15.521,0.353,29.719,0.523,43.401,0.523c19.673,0,37.764-0.354,55.31-1.081c31.472-1.306,63.024-26.055,68.902-54.048
		C1925.619,304.365,1924.801,285.494,1918.776,269.308z M752.285,219.678v-38.399h508.721v38.399H752.285z M523.829,1819.219
		L421.085,381.631h1170.555l-102.745,1437.588H523.829z"/>
	<g>
		<path fill="#FFFFFF" d="M782.518,1509.921c-2.806-39.505-5.605-79.012-8.404-118.519c-4.926-69.52-9.852-139.039-14.813-208.557
			c-8.548-119.74-16.454-229.806-24.171-336.487c-1.248-17.25-2.46-34.503-3.672-51.756c-3.514-50.059-7.148-101.822-11.659-152.671
			c-1.573-17.741-9.58-33.696-22.544-44.927c-12.666-10.971-29.5-17.013-47.4-17.013c-1.9,0-3.836,0.068-5.752,0.203
			c-36.256,2.543-64.361,33.664-63.98,70.849c0.111,10.971,1.025,22.023,1.908,32.712c0.358,4.33,0.729,8.808,1.037,13.197
			l5.451,77.483c5.826,82.841,11.85,168.503,17.84,252.75c10.658,149.891,19.424,272.304,27.59,385.242
			c0.914,12.657,1.771,25.542,2.601,38.004c2.433,36.577,4.949,74.399,9.257,111.446c3.904,33.578,33.084,58.898,67.874,58.898
			c2.472,0,4.973-0.132,7.433-0.394c37.704-3.996,64.707-34.463,64.207-72.442l-0.848-11.481
			C783.809,1527.614,783.147,1518.768,782.518,1509.921z"/>
		<path fill="#FFFFFF" d="M1432.76,648.68c-0.703-34.306-26.349-63.598-59.652-68.136c-3.446-0.47-6.935-0.708-10.367-0.708
			c-31.411,0-58.461,19.875-67.309,49.458c-2.87,9.599-3.777,19.595-4.461,29.01c-7.828,108.019-15.67,217.852-23.254,324.069
			l-5.604,78.464c-3.163,44.269-6.321,88.537-9.479,132.806c-8.109,113.658-16.494,231.186-24.827,346.771
			c-1.486,20.632,4.086,39.971,15.691,54.454c11.692,14.593,29.043,23.687,48.856,25.604c2.289,0.222,4.604,0.334,6.879,0.334
			c17.731-0.001,34.518-6.746,47.267-18.991c12.871-12.361,20.756-29.586,22.203-48.501c4.722-61.733,9.093-124.523,13.319-185.246
			c2.088-29.999,4.247-61.019,6.422-91.522c3.543-49.69,7.123-99.378,10.703-149.064c3.368-46.748,6.736-93.495,10.073-140.245
			c5.272-73.859,10.509-147.722,15.842-222.957c2.537-35.793,5.097-71.895,7.692-108.457
			C1432.876,654.436,1432.833,652.312,1432.76,648.68z"/>
		<path fill="#FFFFFF" d="M1016.639,580.502c-3.307-0.427-6.651-0.644-9.941-0.644c-32.48,0-59.783,20.688-67.942,51.479
			c-2.657,10.031-2.662,20.579-2.666,30.78v0.173c-0.12,291.565-0.101,588.01-0.081,874.693l-0.003,3.275
			c-0.009,5.528-0.019,11.245,0.432,16.932c1.368,17.225,9.349,33.288,22.474,45.233c13.004,11.836,29.605,18.354,46.744,18.354
			c2.434,0,4.895-0.134,7.314-0.4c39.243-4.307,63.64-33.343,63.671-75.776c0.08-106.989,0.067-215.771,0.055-320.97
			c-0.005-41.309-0.01-82.618-0.009-123.927l0.001-27.093c0.002-47.237,0.004-94.475-0.001-141.711
			c-0.003-25.938,0.014-51.876,0.031-77.813c0.043-66.542,0.089-135.348-0.228-203.027
			C1076.326,614.216,1051.155,584.963,1016.639,580.502z"/>
	</g>
</g>
</svg>
