<?xml version="1.0" encoding="utf-8"?>
<!-- Generator: Adobe Illustrator 16.0.0, SVG Export Plug-In . SVG Version: 6.00 Build 0)  -->
<!DOCTYPE svg PUBLIC "-//W3C//DTD SVG 1.1//EN" "http://www.w3.org/Graphics/SVG/1.1/DTD/svg11.dtd">
<svg version="1.1" id="Layer_1" xmlns="http://www.w3.org/2000/svg" xmlns:xlink="http://www.w3.org/1999/xlink" x="0px" y="0px"
	 width="100px" height="100px" viewBox="950 950 100 100" enable-background="new 950 950 100 100" xml:space="preserve">
<rect x="950" y="950" fill="none" width="100" height="100"/>
<path d="M972.196,1048.018c-1.678-0.706-2.292-2.002-2.402-3.787c-0.388-6.27-0.885-12.533-1.333-18.8
	c-0.446-6.239-0.878-12.481-1.324-18.722c-0.447-6.266-0.909-12.532-1.357-18.798c-0.392-5.48-0.775-10.96-1.162-16.44
	c-0.063-0.892-0.146-1.783-0.174-2.675c-0.016-0.531-0.2-0.725-0.752-0.717c-1.656,0.024-3.314,0.04-4.968-0.032
	c-1.299-0.056-2.217-0.794-2.711-1.978c-0.481-1.154-0.326-2.279,0.447-3.271c0.692-0.888,1.631-1.258,2.76-1.256
	c6.889,0.012,13.779,0.005,20.668,0.005h1.029v-0.91c0-1.893-0.023-3.787,0.007-5.68c0.033-2.068,1.373-3.406,3.438-3.408
	c11.097-0.011,22.193-0.012,33.29,0.001c2.052,0.002,3.388,1.367,3.408,3.435c0.021,2.152,0.005,4.305,0.005,6.562h0.978
	c6.89,0,13.779-0.01,20.669,0.018c0.607,0.002,1.27,0.139,1.811,0.406c1.379,0.68,1.885,2.13,1.503,3.95
	c-0.217,1.035-1.483,2.074-2.766,2.127c-1.627,0.067-3.26,0.064-4.889,0.027c-0.631-0.014-0.796,0.211-0.836,0.8
	c-0.58,8.444-1.174,16.888-1.777,25.33c-0.656,9.177-1.331,18.352-1.988,27.528c-0.55,7.683-1.093,15.365-1.622,23.049
	c-0.11,1.597-0.938,2.62-2.36,3.235H972.196L972.196,1048.018z M1031.036,968.157H970.95c1.75,24.488,3.495,48.907,5.241,73.33
	h49.604C1027.542,1017.033,1029.286,992.635,1031.036,968.157 M1014.45,958.139h-26.886v3.37h26.886V958.139z"/>
<rect x="950" y="950" fill="none" width="100" height="100"/>
<path fill="none" d="M972.196,1048.018c-1.678-0.706-2.292-2.002-2.402-3.787c-0.388-6.27-0.885-12.533-1.333-18.8
	c-0.446-6.239-0.878-12.481-1.324-18.722c-0.447-6.266-0.909-12.532-1.357-18.798c-0.392-5.48-0.775-10.96-1.162-16.44
	c-0.063-0.892-0.146-1.783-0.174-2.675c-0.016-0.531-0.2-0.725-0.752-0.717c-1.656,0.024-3.314,0.04-4.968-0.032
	c-1.299-0.056-2.217-0.794-2.711-1.978c-0.481-1.154-0.326-2.279,0.447-3.271c0.692-0.888,1.631-1.258,2.76-1.256
	c6.889,0.012,13.779,0.005,20.668,0.005h1.029v-0.91c0-1.893-0.023-3.787,0.007-5.68c0.033-2.068,1.373-3.406,3.438-3.408
	c11.097-0.011,22.193-0.012,33.29,0.001c2.052,0.002,3.388,1.367,3.408,3.435c0.021,2.152,0.005,4.305,0.005,6.562h0.978
	c6.89,0,13.779-0.01,20.669,0.018c0.607,0.002,1.27,0.139,1.811,0.406c1.379,0.68,1.885,2.13,1.503,3.95
	c-0.217,1.035-1.483,2.074-2.766,2.127c-1.627,0.067-3.26,0.064-4.889,0.027c-0.631-0.014-0.796,0.211-0.836,0.8
	c-0.58,8.444-1.174,16.888-1.777,25.33c-0.656,9.177-1.331,18.352-1.988,27.528c-0.55,7.683-1.093,15.365-1.622,23.049
	c-0.11,1.597-0.938,2.62-2.36,3.235H972.196L972.196,1048.018z M1031.036,968.157H970.95c1.75,24.488,3.495,48.907,5.241,73.33
	h49.604C1027.542,1017.033,1029.286,992.635,1031.036,968.157z M1014.45,958.139h-26.886v3.37h26.886V958.139z"/>
<rect x="950" y="950" fill="none" width="100" height="100"/>
<path fill="#FFFFFF" d="M989.691,1027.2c-0.047-0.629-0.095-1.258-0.139-1.887c-0.387-5.451-0.772-10.902-1.161-16.354
	c-0.4-5.608-0.803-11.216-1.208-16.824c-0.247-3.406-0.464-6.815-0.766-10.217c-0.161-1.81-1.692-2.988-3.519-2.859
	c-1.675,0.118-2.984,1.549-2.966,3.291c0.008,0.761,0.093,1.521,0.146,2.28c0.388,5.504,0.773,11.008,1.165,16.512
	c0.457,6.421,0.916,12.842,1.379,19.262c0.18,2.489,0.304,4.985,0.592,7.462c0.203,1.74,1.811,2.884,3.491,2.705
	C988.466,1030.384,989.714,1028.976,989.691,1027.2"/>
<path fill="#FFFFFF" d="M1022.063,982.571c0,0.037,0.003-0.147-0.001-0.331c-0.032-1.593-1.223-2.954-2.766-3.165
	c-1.64-0.223-3.145,0.701-3.611,2.262c-0.133,0.447-0.179,0.928-0.213,1.397c-0.486,6.708-0.963,13.417-1.442,20.125
	c-0.571,7.994-1.14,15.986-1.716,23.98c-0.144,1.998,1.091,3.551,3.002,3.734c1.822,0.178,3.395-1.166,3.544-3.127
	c0.353-4.611,0.658-9.225,0.987-13.838c0.344-4.822,0.694-9.643,1.039-14.465C1021.275,993.694,1021.661,988.242,1022.063,982.571"
	/>
<path fill="#FFFFFF" d="M1004.272,1005.91c0-2.813,0.001-5.627,0-8.439c0-4.682,0.013-9.361-0.009-14.042
	c-0.008-1.685-1.203-3.028-2.775-3.231c-1.674-0.216-3.194,0.749-3.62,2.357c-0.125,0.473-0.125,0.988-0.125,1.484
	c-0.006,14.593-0.005,29.186-0.004,43.78c0,0.314-0.004,0.632,0.021,0.945c0.141,1.772,1.783,3.125,3.55,2.931
	c1.83-0.201,2.96-1.535,2.961-3.541C1004.276,1020.74,1004.272,1013.325,1004.272,1005.91"/>
<rect x="950" y="950" fill="none" width="100" height="100"/>
<rect x="987.564" y="958.139" fill="#FFFFFF" width="26.886" height="3.37"/>
<rect x="950" y="950" fill="none" width="100" height="100"/>
<path d="M989.691,1027.2c0.023,1.775-1.225,3.184-2.987,3.37c-1.68,0.179-3.288-0.965-3.491-2.705
	c-0.288-2.477-0.412-4.973-0.592-7.462c-0.464-6.42-0.923-12.841-1.379-19.262c-0.391-5.503-0.777-11.008-1.165-16.512
	c-0.053-0.76-0.139-1.52-0.146-2.28c-0.018-1.742,1.292-3.173,2.966-3.291c1.826-0.128,3.358,1.05,3.519,2.859
	c0.302,3.402,0.52,6.811,0.766,10.217c0.406,5.608,0.808,11.216,1.208,16.824c0.389,5.451,0.774,10.902,1.161,16.354
	C989.596,1025.943,989.644,1026.572,989.691,1027.2"/>
<rect x="950" y="950" fill="none" width="100" height="100"/>
<path fill="none" d="M989.691,1027.2c0.023,1.775-1.225,3.184-2.987,3.37c-1.68,0.179-3.288-0.965-3.491-2.705
	c-0.288-2.477-0.412-4.973-0.592-7.462c-0.464-6.42-0.923-12.841-1.379-19.262c-0.391-5.503-0.777-11.008-1.165-16.512
	c-0.053-0.76-0.139-1.52-0.146-2.28c-0.018-1.742,1.292-3.173,2.966-3.291c1.826-0.128,3.358,1.05,3.519,2.859
	c0.302,3.402,0.52,6.811,0.766,10.217c0.406,5.608,0.808,11.216,1.208,16.824c0.389,5.451,0.774,10.902,1.161,16.354
	C989.596,1025.943,989.644,1026.572,989.691,1027.2z"/>
<rect x="950" y="950" fill="none" width="100" height="100"/>
<path d="M1022.063,982.57c-0.402,5.672-0.788,11.124-1.177,16.575c-0.345,4.821-0.695,9.643-1.039,14.465
	c-0.329,4.612-0.635,9.227-0.987,13.837c-0.149,1.962-1.722,3.305-3.544,3.129c-1.911-0.186-3.146-1.737-3.002-3.736
	c0.576-7.993,1.145-15.986,1.716-23.979c0.479-6.709,0.956-13.417,1.442-20.126c0.034-0.469,0.08-0.95,0.213-1.397
	c0.468-1.561,1.972-2.485,3.611-2.262c1.543,0.21,2.733,1.572,2.767,3.165C1022.066,982.423,1022.063,982.607,1022.063,982.57"/>
<rect x="950" y="950" fill="none" width="100" height="100"/>
<path fill="none" d="M1022.063,982.57c-0.402,5.672-0.788,11.123-1.177,16.574c-0.345,4.822-0.695,9.643-1.039,14.465
	c-0.329,4.612-0.635,9.227-0.987,13.837c-0.149,1.962-1.722,3.305-3.544,3.129c-1.911-0.186-3.146-1.737-3.002-3.736
	c0.576-7.993,1.145-15.986,1.716-23.979c0.479-6.708,0.956-13.417,1.442-20.126c0.034-0.469,0.08-0.95,0.213-1.397
	c0.468-1.561,1.972-2.485,3.611-2.262c1.543,0.21,2.733,1.572,2.767,3.165C1022.066,982.423,1022.063,982.607,1022.063,982.57z"/>
<rect x="950" y="950" fill="none" width="100" height="100"/>
<path d="M1004.272,1005.91c0,7.415,0.004,14.83-0.002,22.245c-0.001,2.005-1.13,3.339-2.961,3.54
	c-1.767,0.194-3.409-1.158-3.55-2.931c-0.025-0.313-0.021-0.63-0.021-0.945c-0.001-14.594-0.002-29.187,0.004-43.78
	c0-0.496-0.001-1.011,0.125-1.483c0.427-1.609,1.946-2.574,3.62-2.358c1.572,0.203,2.768,1.546,2.775,3.231
	c0.021,4.68,0.009,9.36,0.009,14.041C1004.273,1000.283,1004.272,1003.097,1004.272,1005.91"/>
<rect x="950" y="950" fill="none" width="100" height="100"/>
<path fill="none" d="M1004.259,1004.785c0,7.415,0.004,14.83-0.002,22.245c-0.001,2.005-1.13,3.339-2.961,3.54
	c-1.767,0.194-3.409-1.158-3.55-2.931c-0.025-0.313-0.021-0.63-0.021-0.945c-0.001-14.594-0.002-29.187,0.004-43.78
	c0-0.496,0-1.011,0.125-1.483c0.426-1.609,1.946-2.574,3.62-2.358c1.572,0.203,2.768,1.546,2.775,3.231
	c0.021,4.68,0.009,9.36,0.009,14.041C1004.26,999.158,1004.259,1001.972,1004.259,1004.785z"/>
</svg>
