<?xml version="1.0" standalone="no"?>
<!DOCTYPE svg PUBLIC "-//W3C//DTD SVG 1.1//EN" "http://www.w3.org/Graphics/SVG/1.1/DTD/svg11.dtd" >
<svg xmlns="http://www.w3.org/2000/svg" xmlns:xlink="http://www.w3.org/1999/xlink" version="1.1">
<metadata>
Created by FontForge 20170731 at Fri Jan 19 03:30:25 2018
 By Aleksey,,,
Copyright (c) 2017 by  Valerio Dell'Edera. All rights reserved.
</metadata>
<defs>
<font id="MontagnaLTD" horiz-adv-x="523" >
  <font-face 
    font-family="Montagna LTD"
    font-weight="500"
    font-stretch="normal"
    units-per-em="1000"
    panose-1="2 14 6 6 5 0 0 2 0 4"
    ascent="800"
    descent="-200"
    x-height="640"
    cap-height="875"
    bbox="-103 -264 1263 1114"
    underline-thickness="0"
    underline-position="0"
    unicode-range="U+000D-FB06"
  />
<missing-glyph horiz-adv-x="898" 
d="M848 0h-798v875h798v-875zM377 298l72 72l72 -71q77 -79 91 -108l81 81q-26 11 -108 91l-71 71l71 72q76 74 108 91l-81 81q-17 -32 -91 -108l-72 -71l-71 71q-79 79 -91 108l-81 -81q32 -15 108 -91l71 -72l-72 -72q-71 -71 -107 -90l81 -81q19 36 90 107z" />
    <glyph glyph-name="R_E" unicode="RE" horiz-adv-x="1005" 
d="M307 497q50 -20 77.5 -54t45.5 -85q10 -28 23.5 -74t22.5 -77.5t27 -69t40 -60.5t59.5 -38.5t87.5 -15.5q71 0 147 28t134 77l-46 -153q-114 -54 -229 -54q-73 0 -129 18.5t-89.5 50t-57.5 72t-38 84.5t-25.5 87.5t-23.5 81.5t-30 66t-48 41t-73 7v-429q-34 0 -112 9v847
q100 18 203 18q102 0 161.5 -46t60.5 -131q1 -84 -47 -131.5t-141 -57.5v-11zM938 364v-102q-70 -20 -183 -20q-66 0 -168 9v604q84 20 200 20q78 0 151 -20v-108q-45 41 -146 41q-46 0 -97 -6v-157h101q93 0 142 47v-168q-53 37 -151 37h-92v-208q22 -3 92 -3q99 0 151 34z
M182 779v-273q89 7 145.5 51t56.5 134q0 97 -105 97q-56 0 -97 -9z" />
    <glyph glyph-name="R_I" unicode="RI" horiz-adv-x="828" 
d="M307 494q56 -18 84 -49.5t45 -81.5q11 -30 25 -84.5t25.5 -91.5t31.5 -77.5t53 -65t79 -31.5q49 -8 84 15l-48 -105q-90 -9 -151 16.5t-90.5 72.5t-48 105t-31 116t-30 105t-55.5 73t-98 18v-429q-34 0 -112 9v847q100 18 203 18q102 0 161.5 -46t60.5 -131
q1 -84 -47 -131.5t-141 -57.5v-14zM738 875v-633q-62 3 -112 10v609q45 9 112 14zM182 779v-273q89 7 145.5 51t56.5 134q0 97 -105 97q-56 0 -97 -9z" />
    <glyph glyph-name="L_E" unicode="LE" horiz-adv-x="816" 
d="M711 364v-102q-70 -20 -183 -20q-66 0 -168 9v604q84 20 200 20q78 0 151 -20v-108q-45 41 -146 41q-46 0 -97 -6v-157h101q93 0 142 47v-168q-53 37 -151 37h-92v-208q22 -3 92 -3q99 0 151 34zM181 875v-754q49 1 110.5 -23t113.5 -48t110 -38.5t123.5 6t132.5 84.5
l-34 -130q-46 -38 -93 -55t-88 -15t-84.5 13t-82 30.5t-80.5 37t-79.5 31.5t-79 15t-80.5 -12v844q46 9 111 14z" />
    <glyph glyph-name="R_O" unicode="RO" horiz-adv-x="1232" 
d="M310 498q85 -19 136 -67q40 -36 81 -94.5t74 -108t75 -97t103.5 -75t140.5 -27.5q141 0 218 98l-35 -163q-31 -16 -85 -29.5t-102 -13.5q-90 0 -162 28.5t-119 73.5t-86.5 100t-75 109t-74 98t-93.5 70.5t-124 23.5v-424q-34 0 -112 9v847q100 18 203 18q102 0 161.5 -46
t60.5 -131q1 -82 -46.5 -130t-138.5 -59v-10zM904 882q130 0 214 -92.5t84 -227.5t-83.5 -227.5t-214.5 -92.5t-215 92.5t-84 227.5q0 134 84 227t215 93zM904 330q87 0 139.5 66.5t52.5 165.5t-53 165.5t-139 66.5t-139 -66.5t-53 -165.5t52.5 -165.5t139.5 -66.5zM182 779
v-273q89 7 145.5 51t56.5 134q0 97 -105 97q-56 0 -97 -9z" />
    <glyph glyph-name="L_O" unicode="LO" horiz-adv-x="941" 
d="M613 882q130 0 214 -92.5t84 -227.5t-83.5 -227.5t-214.5 -92.5t-215 92.5t-84 227.5q0 134 84 227t215 93zM181 875v-754q65 3 136.5 -20.5t129 -49.5t121.5 -42t139 5t156 88l-50 -130q-46 -38 -96.5 -55t-97 -15t-96.5 13t-95.5 30.5t-94 37t-91.5 31.5t-88 15
t-84 -12v844q46 9 111 14zM613 330q87 0 139.5 66.5t52.5 165.5t-53 165.5t-139 66.5t-139 -66.5t-53 -165.5t52.5 -165.5t139.5 -66.5z" />
    <glyph glyph-name="R_A" unicode="RA" horiz-adv-x="986" 
d="M307 497q54 -22 81.5 -60t46.5 -95q8 -24 21.5 -71.5t22 -75t27.5 -65t41 -57.5t58.5 -35t84.5 -15q71 0 147 28t134 77l-46 -153q-114 -54 -229 -54q-73 0 -129 18.5t-89.5 50t-57.5 72t-38 84.5t-25.5 87.5t-23.5 81.5t-30 66t-48 41t-73 7v-429q-34 0 -112 9v847
q100 18 203 18q102 0 161.5 -46t60.5 -131q1 -84 -47 -131.5t-141 -57.5v-11zM818 361q-77 19 -145 -6q-14 -59 -7 -113h-127q33 42 47 104l117 514q47 10 108 14l120 -529q14 -60 45 -103h-150q6 49 -8 119zM182 779v-273q89 7 145.5 51t56.5 134q0 97 -105 97
q-56 0 -97 -9zM722 577l-29 -133q52 13 107 4l-26 129q-3 13 -9 56t-12 61h-9q-6 -18 -12.5 -61.5t-9.5 -55.5z" />
    <glyph glyph-name="L_A" unicode="LA" horiz-adv-x="761" 
d="M181 875v-754q50 1 107.5 -23t105.5 -48t101.5 -38.5t116 6t129.5 84.5l-34 -130q-46 -38 -92 -55t-85 -15t-79.5 13t-76 30.5t-74.5 37t-74.5 31.5t-76 15t-79.5 -12v844q46 9 111 14zM567 361q-77 19 -145 -6q-14 -59 -7 -113h-127q33 42 47 104l117 514q47 10 108 14
l120 -529q14 -60 45 -103h-150q6 49 -8 119zM471 577l-29 -133q52 13 107 4l-26 129q-3 13 -9 56t-12 61h-9q-6 -18 -12.5 -61.5t-9.5 -55.5z" />
    <glyph glyph-name="L_I" unicode="LI" horiz-adv-x="538" 
d="M181 92h1q32 -5 114 -5q105 0 172 37v-102q-84 -22 -205 -22q-111 0 -193 10v851q46 9 111 14v-783zM458 875v-633q-62 3 -112 10v609q45 9 112 14z" />
    <glyph glyph-name="C_O" unicode="CO" horiz-adv-x="753" 
d="M509 668q101 0 167.5 -66t66.5 -160q0 -98 -66.5 -166t-167.5 -68t-167.5 68t-66.5 166q0 94 66.5 160t167.5 66zM639 162v-115q-92 -53 -205 -53q-181 0 -297.5 128.5t-116.5 315.5t116.5 315.5t297.5 128.5q111 0 205 -54v-122q-80 90 -205 90q-134 0 -215 -102.5
t-81 -255.5t81 -255.5t215 -102.5q112 0 205 82zM509 294q54 0 85 42.5t31 105.5q0 60 -31 100t-85 40t-85 -40t-31 -100q0 -63 31 -105.5t85 -42.5z" />
    <glyph glyph-name="E_V" unicode="EV" horiz-adv-x="943" 
d="M295 875l26 -102q-27 17 -63 17q-47 0 -75 -8v-221h51q75 0 117 48v-171q-45 38 -125 38h-42v-383q38 -5 134 -5t152 36v-102q-75 -22 -187 -22q-123 0 -213 10v847q88 18 225 18zM675 255h9l116 506q13 68 8 114h145q-30 -37 -47 -106l-169 -755q-21 -4 -111 -14
l-173 769q-13 64 -47 106h147q-9 -44 5 -114z" />
    <glyph glyph-name="C_H" unicode="CH" horiz-adv-x="1039" 
d="M450 498q61 0 100 21v342q46 9 111 14v-310h10q85 39 177 0h9v299h-2q27 5 114 11v-875q-62 3 -112 10v449q-97 42 -195 0v-459q-62 3 -112 10v406h-7q-38 -23 -102 -23q-72 0 -133 33v155q74 -83 142 -83zM430 124v-102q-52 -22 -97 -22q-48 0 -89.5 12.5t-82 46
t-68.5 85.5t-45.5 136t-17.5 193q0 182 74 292t206 110q30 0 51.5 -2.5t30 -5t37.5 -11.5v-108q-30 22 -54.5 32t-63.5 10q-78 0 -123.5 -86t-45.5 -231q0 -94 13.5 -165.5t34.5 -112t49 -66t53 -34t51 -8.5q39 0 87 37z" />
    <glyph glyph-name="L_U" unicode="LU" horiz-adv-x="842" 
d="M760 875v-528q0 -65 22 -105h-129q-4 51 -6 88h-10q-43 -93 -132 -93q-85 0 -135.5 60.5t-50.5 159.5v408q48 7 114 10v-418q0 -135 107 -135q56 0 81 37.5t25 97.5v408q48 7 114 10zM181 875v-754q49 1 110.5 -23t113.5 -48t110 -38.5t123.5 6t132.5 84.5l-34 -130
q-46 -38 -93 -55t-88 -15t-84.5 13t-82 30.5t-80.5 37t-79.5 31.5t-79 15t-80.5 -12v844q46 9 111 14z" />
    <glyph glyph-name="L_G" unicode="LG" horiz-adv-x="845" 
d="M776 614l-1 -267q-1 -63 22 -105h-122q-4 51 -6 88h-9q-45 -93 -140 -93q-102 6 -155 78.5t-53 204.5q0 167 90.5 261t222.5 94q66 0 119 -21v-122q-48 57 -122 57q-86 0 -137.5 -63.5t-51.5 -205.5q0 -109 31.5 -152.5t92.5 -45.5q46 0 78.5 37t32.5 94v71
q-76 0 -123 -30v121q128 13 231 -1zM181 875v-754q49 1 110.5 -23t113.5 -48t110 -38.5t123.5 6t132.5 84.5l-34 -130q-46 -38 -93 -55t-88 -15t-84.5 13t-82 30.5t-80.5 37t-79.5 31.5t-79 15t-80.5 -12v844q46 9 111 14z" />
    <glyph glyph-name="T_T" unicode="TT" horiz-adv-x="756" 
d="M216 875q94 0 165 -13q66 11 158 13q132 0 207 -22v-102q-47 31 -151 37v-788q-65 5 -111 14v773q-38 -7 -105 -7t-107 7v-787q-65 5 -111 14v773q-104 -6 -151 -37v102q72 21 206 23z" />
    <glyph glyph-name="C_A" unicode="CA" horiz-adv-x="853" 
d="M509 242h-137q33 42 47 104l118 515q63 10 138 14l173 -772q14 -60 45 -103h-150q6 52 -9 123q-2 0 -49 227q-88 22 -171 -5q-11 -58 -5 -103zM540 134v-102q-81 -32 -187 -32q-51 0 -95.5 12.5t-87.5 46t-73 85.5t-48.5 136t-18.5 193q0 182 74 292t206 110q56 0 99 -24
v-108q-19 17 -28 24t-28.5 15t-41.5 8q-78 0 -123.5 -86t-45.5 -231q0 -109 18.5 -187.5t51 -120t70 -60t81.5 -18.5q95 0 177 47zM638 578q-3 15 -13 97t-16 100h-8q-6 -18 -19.5 -101.5t-15.5 -95.5l-30 -135q62 17 130 1q-11 48 -28 134z" />
    <glyph glyph-name="R_G" unicode="RG" horiz-adv-x="1096" 
d="M306 496q62 -24 92.5 -64.5t51.5 -103.5q7 -20 18.5 -59.5t19.5 -62.5t22.5 -55.5t31.5 -52t41.5 -38.5t59 -28t77.5 -9q71 0 147 28t134 77l-46 -153q-114 -54 -229 -54q-77 0 -136.5 18.5t-95 50t-61 72t-40 84.5t-26.5 87.5t-25.5 81.5t-32 66t-50.5 41t-77 7v-429
q-34 0 -112 9v847q100 18 203 18q102 0 161.5 -46t60.5 -131q1 -84 -47.5 -131.5t-141.5 -57.5v-12zM1026 614l-1 -267q-1 -63 22 -105h-122q-4 51 -6 88h-9q-45 -93 -140 -93q-102 6 -155 78.5t-53 204.5q0 167 90.5 261t222.5 94q66 0 119 -21v-122q-48 57 -122 57
q-86 0 -137.5 -63.5t-51.5 -205.5q0 -109 31.5 -152.5t92.5 -45.5q46 0 78.5 37t32.5 94v71q-76 0 -123 -30v121q128 13 231 -1zM182 779v-273q89 7 145.5 51t56.5 134q0 97 -105 97q-56 0 -97 -9z" />
    <glyph glyph-name="E_W" unicode="EW" horiz-adv-x="1348" 
d="M826 414l-92 -414l-40 5t-41.5 5t-30.5 5l-169 754q-15 64 -47 106h143v-31q0 -21 19 -112t104 -477h14q8 43 42.5 191.5t41.5 193.5q9 61 -3 124t-47 111h142v-31q2 -50 10 -84l115 -506h13q85 386 104 477.5t19 112.5v31h140q-30 -45 -44 -106l-171 -769l-40 5t-41.5 5
t-30.5 5l-99 487h-11v-88zM295 875l26 -102q-27 17 -63 17q-47 0 -75 -8v-221h51q75 0 117 48v-171q-45 38 -125 38h-42v-383q38 -5 134 -5t152 36v-102q-75 -22 -187 -22q-123 0 -213 10v847q88 18 225 18z" />
    <glyph glyph-name="O_O" unicode="OO" horiz-adv-x="1236" 
d="M802 882q181 0 297.5 -128.5t116.5 -315.5t-116.5 -315.5t-297.5 -128.5q-100 0 -184 42q-84 -42 -184 -42q-181 0 -297.5 128.5t-116.5 315.5t116.5 315.5t297.5 128.5q98 0 184 -43q86 43 184 43zM705 96q46 -16 97 -16q133 0 214 103t81 255q0 153 -80.5 255.5
t-214.5 102.5q-52 0 -97 -17v-7q69 -60 106 -147t37 -187q0 -208 -143 -330v-12zM434 80q49 0 97 16v12q-143 122 -143 330q0 100 37 187t106 147v7q-46 17 -97 17q-134 0 -214.5 -102.5t-80.5 -255.5q0 -152 81 -255t214 -103zM612 143h12q106 122 106 295q0 172 -106 294
h-12q-106 -118 -106 -294q0 -177 106 -295z" />
    <glyph glyph-name="F_I" unicode="FI" horiz-adv-x="652" 
d="M184 480l-2 -1v-479q-62 3 -112 10v847q117 18 274 18q146 0 238 -19v-118q-63 52 -232 52q-99 0 -167 -8v-217h41q96 0 147 48v-171q-58 38 -155 38h-32zM582 640v-640q-62 3 -112 10v616q45 9 112 14z" />
    <glyph glyph-name="L_L" unicode="LL" horiz-adv-x="655" 
d="M418 333q18 -3 72 -3q81 0 120 33v-102q-58 -19 -152 -19q-58 0 -148 9v604q42 10 108 16v-538zM182 92q48 -5 174 -5q122 0 202 37v-102q-97 -22 -235 -22q-147 0 -253 10v851q46 9 111 14v-783h1z" />
    <glyph glyph-name="C_K" unicode="CK" horiz-adv-x="985" 
d="M639 162v-115q-92 -53 -205 -53q-181 0 -297.5 128.5t-116.5 315.5t116.5 315.5t297.5 128.5q111 0 205 -54v-122q-80 90 -205 90q-134 0 -215 -102.5t-81 -255.5t81 -255.5t215 -102.5q112 0 205 82zM862 374v1l56 -271q14 -62 47 -104h-145q6 49 -8 113l-45 222
q-14 59 -43.5 87.5t-84.5 33.5v-238q-62 3 -112 10v416q45 9 112 14v-115q40 0 66 24t46 68l85 227q45 13 117 13l-95 -236q-52 -114 -124 -114v-9q36 0 73.5 -34t54.5 -108z" />
    <glyph glyph-name=".notdef" horiz-adv-x="898" 
d="M848 0h-798v875h798v-875zM377 298l72 72l72 -71q77 -79 91 -108l81 81q-26 11 -108 91l-71 71l71 72q76 74 108 91l-81 81q-17 -32 -91 -108l-72 -71l-71 71q-79 79 -91 108l-81 -81q32 -15 108 -91l71 -72l-72 -72q-71 -71 -107 -90l81 -81q19 36 90 107z" />
    <glyph glyph-name=".null" horiz-adv-x="0" 
 />
    <glyph glyph-name="nonmarkingreturn" horiz-adv-x="333" 
 />
    <glyph glyph-name="NULL" horiz-adv-x="0" 
 />
    <glyph glyph-name="NULL" horiz-adv-x="0" 
 />
    <glyph glyph-name="CR" unicode="&#xd;" horiz-adv-x="200" 
 />
    <glyph glyph-name="space" unicode=" " horiz-adv-x="200" 
 />
    <glyph glyph-name="exclam" unicode="!" horiz-adv-x="254" 
d="M184 116v-116q-78 3 -114 10v93q36 7 114 13zM183 875v-640q-62 3 -112 10v616q45 9 112 14z" />
    <glyph glyph-name="quotedbl" unicode="&#x22;" horiz-adv-x="384" 
d="M141 643h-65v116q-2 77 -26 116h111q22 -40 7 -104zM301 643h-65v116q-2 77 -26 116h111q22 -40 7 -104z" />
    <glyph glyph-name="numbersign" unicode="#" horiz-adv-x="712" 
d="M305 621h150l38 240q47 9 114 14l-40 -245v-9h28q39 0 72 9v-92q-4 1 -33.5 9.5t-46.5 8.5h-31l-30 -178v-13h68q39 0 72 9v-92q-4 1 -33.5 9.5t-46.5 8.5h-71l-47 -300q-63 3 -110 10l46 279v11h-151l-47 -300q-63 3 -110 10l46 282v8h-117v65h127l30 178v13h-107v65
h118l38 240q47 9 114 14l-40 -245v-9zM264 365h150l30 176v15h-150l-30 -177v-14z" />
    <glyph glyph-name="dollar" unicode="$" horiz-adv-x="519" 
d="M213 89h6v306q-41 33 -66 56.5t-54.5 59.5t-44 78t-14.5 90q0 77 48.5 129t130.5 64q0 17 -3 33t-8 32.5t-7 24.5h92q-9 -33 -9 -88q62 -4 121 -30v-156q-15 41 -46 69t-69 36h-6v-286q43 -34 69.5 -58.5t58 -62.5t47 -82.5t15.5 -95.5q0 -82 -52 -139t-138 -67
q0 -16 3 -32t8 -32.5t7 -24.5h-92q9 33 9 88q-92 5 -149 43v168q16 -42 56.5 -76.5t86.5 -46.5zM284 89h10q75 26 75 110q0 35 -17.5 66t-54.5 77h-13v-253zM208 560h11v229h-7q-35 -11 -54 -37.5t-19 -63.5q0 -50 69 -128z" />
    <glyph glyph-name="percent" unicode="%" horiz-adv-x="590" 
d="M200 0h-116l287 783q17 47 13 92h116l-292 -785q-17 -47 -8 -90zM425 -2q-52 0 -86 33.5t-34 83.5t34.5 85.5t85.5 35.5q49 0 84.5 -34.5t35.5 -86.5q0 -49 -35 -83t-85 -34zM166 639q-50 0 -86 33.5t-36 83.5t34.5 85t84.5 35t86 -33.5t36 -82.5q0 -50 -35 -85.5
t-84 -35.5zM215 759q0 21 -15 35t-36 14q-23 0 -37 -15t-14 -36t15 -36t36 -15q23 0 37 15t14 38zM476 115q0 24 -14.5 38t-37.5 14q-21 0 -35 -14.5t-14 -37.5q0 -19 14.5 -33.5t35.5 -14.5q22 0 36.5 14t14.5 34z" />
    <glyph glyph-name="ampersand" unicode="&#x26;" horiz-adv-x="693" 
d="M328 463l100 -124h8q84 156 177 154v-101q-32 -5 -60 -36t-66 -109q71 -109 92 -149t21 -79v-19h-108v19q0 8 -3 18.5t-6.5 19t-11 21.5t-11.5 19t-13 20.5t-11 17.5h-8q-20 -68 -69.5 -106t-110.5 -38q-92 0 -146 66t-54 160q0 86 39.5 149t112.5 99v9
q-42 39 -64.5 94.5t-23.5 111.5q-2 82 53.5 140.5t158.5 58.5q87 0 142.5 -53t55.5 -139q0 -72 -61 -132.5t-133 -82.5v-9zM255 97q41 0 76.5 35t46.5 94q-22 34 -74 99.5t-72 95.5h-6q-41 -38 -60 -76t-19 -98q0 -68 31 -109t77 -41zM326 785q-46 0 -75.5 -32t-28.5 -82
q2 -87 60 -152q50 20 93.5 66t43.5 98q0 44 -24.5 73t-68.5 29z" />
    <glyph glyph-name="quotesingle" unicode="'" horiz-adv-x="224" 
d="M141 643h-65v116q-2 77 -26 116h111q22 -40 7 -104z" />
    <glyph glyph-name="parenleft" unicode="(" horiz-adv-x="389" 
d="M100 368q0 146 38.5 264t120.5 243h100q-136 -249 -136 -507q0 -259 136 -506h-100q-78 118 -118.5 236t-40.5 270z" />
    <glyph glyph-name="parenright" unicode=")" horiz-adv-x="389" 
d="M289 368q0 -152 -40.5 -270t-118.5 -236h-100q136 247 136 506q0 258 -136 507h100q82 -125 120.5 -243t38.5 -264z" />
    <glyph glyph-name="asterisk" unicode="*" horiz-adv-x="417" 
d="M64 809l118 -72l6 5q-7 31 -34 133h108l-32 -133l5 -5q76 44 117 72l35 -104l-135 -10l-2 -8q19 -18 102 -87l-88 -64l-52 124h-8q-39 -92 -51 -124l-89 64l103 87l-2 8q-76 8 -135 10z" />
    <glyph glyph-name="plus" unicode="+" horiz-adv-x="715" 
d="M312 274h-102q-104 0 -140 -12v115q36 -12 140 -12h102v101q0 107 -12 141h115q-12 -30 -12 -141v-101h101q105 0 141 12v-115q-36 12 -141 12h-101v-101q0 -111 12 -141h-115q12 34 12 141v101z" />
    <glyph glyph-name="comma" unicode="," horiz-adv-x="279" 
d="M145 -146h-75l19 146q10 79 -5 116h121q11 -30 -11 -104z" />
    <glyph glyph-name="hyphen" unicode="-" horiz-adv-x="515" 
d="M304 274h-94q-104 0 -140 -12v115q36 -12 140 -12h94q105 0 141 12v-115q-36 12 -141 12z" />
    <glyph glyph-name="period" unicode="." horiz-adv-x="254" 
d="M184 116v-116q-78 3 -114 10v93q36 7 114 13z" />
    <glyph glyph-name="slash" unicode="/" horiz-adv-x="331" 
d="M334 866l-232 -866q-3 -12 -3.5 -26t0 -31t0.5 -25l-89 24q16 28 27 67l232 866q3 12 3.5 26t0 31t-0.5 25l89 -24q-16 -28 -27 -67z" />
    <glyph glyph-name="zero" unicode="0" horiz-adv-x="615" 
d="M307 875q77 0 135.5 -60t88 -158.5t29.5 -219.5q0 -187 -68.5 -312t-184.5 -125q-117 0 -184.5 124.5t-67.5 312.5q0 122 29 220t87 158t136 60zM307 84q125 0 125 353q0 351 -125 351q-126 0 -126 -351q0 -353 126 -353z" />
    <glyph glyph-name="one" unicode="1" horiz-adv-x="338" 
d="M258 878v-878q-64 3 -113 10v702h-10q-87 -64 -115 -95v120q98 84 238 141z" />
    <glyph glyph-name="two" unicode="2" horiz-adv-x="519" 
d="M45 8v128q0 77 34 143.5t82 113.5t96.5 90t82.5 92t34 101q0 54 -32.5 83.5t-87.5 29.5q-58 0 -108 -36t-71 -90v165q74 47 180 47q100 0 162 -59t62 -149q0 -59 -17.5 -109.5t-45.5 -86.5t-61.5 -68t-67.5 -61.5t-62 -58.5t-45.5 -66.5t-17.5 -80.5v-47q85 -10 132 -10
q93 0 153 35v-100q-80 -24 -186 -24q-93 0 -216 18z" />
    <glyph glyph-name="three" unicode="3" horiz-adv-x="488" 
d="M288 531q65 -25 105.5 -70.5t52.5 -87.5t12 -88q0 -125 -73.5 -210t-184.5 -85q-105 0 -170 44v168q19 -51 69 -88.5t100 -37.5q59 0 96.5 55t37.5 145q0 82 -46.5 141t-131.5 59h-29l163 298v14h-95q-101 0 -164 -37v102q79 22 197 22q149 0 213 -20l-152 -311v-13z" />
    <glyph glyph-name="four" unicode="4" horiz-adv-x="528" 
d="M397 213v-213q-62 3 -112 10v200q-176 2 -265 17l265 634q45 9 112 14v-573h13q68 11 108 32v-100q-52 -14 -121 -21zM285 299v185q0 20 6 98t6 98l-11 2q-7 -17 -26 -77t-25 -75l-94 -226q32 -5 144 -5z" />
    <glyph glyph-name="five" unicode="5" horiz-adv-x="499" 
d="M65 482v369q106 24 192 24q105 0 190 -24v-122q-65 59 -167 59q-65 0 -93 -7v-237q35 -4 71.5 -17t74 -38t67 -58t48 -81.5t18.5 -105.5q0 -110 -68 -177t-165 -67q-95 0 -168 39v129q73 -79 150 -79q57 0 94 39t37 113q0 106 -75 173.5t-206 67.5z" />
    <glyph glyph-name="six" unicode="6" horiz-adv-x="553" 
d="M508 287q0 -118 -56.5 -202.5t-166.5 -84.5q-53 0 -94.5 19.5t-66.5 55t-42 74.5t-25 89t-10.5 87t-2.5 78q0 80 16 159t48.5 151t90 117t131.5 45q62 0 119 -19v-118q-56 42 -118 42q-42 0 -74.5 -28.5t-51 -76.5t-28 -96t-13.5 -100h13q17 35 51.5 56.5t76.5 21.5
q90 0 146.5 -75t56.5 -195zM284 87q47 0 75.5 55t28.5 145q0 180 -118 180q-34 0 -64.5 -28.5t-43.5 -85.5q0 -31 3.5 -66t14.5 -85t38 -82.5t66 -32.5z" />
    <glyph glyph-name="seven" unicode="7" horiz-adv-x="486" 
d="M359 561h97v-85h-117l-110 -476q-60 4 -106 15l105 450v11h-23q-97 0 -155 -38v171q51 -48 147 -48h51l51 223q-20 2 -76 2q-93 0 -153 -35v100q80 24 186 24q95 0 173 -12l-70 -292v-10z" />
    <glyph glyph-name="eight" unicode="8" horiz-adv-x="553" 
d="M276 875q91 0 143 -50.5t52 -119.5q0 -58 -29 -101.5t-83 -54.5v-15q69 -21 116.5 -92.5t47.5 -186.5q0 -117 -67.5 -191t-179.5 -74q-110 0 -176.5 68.5t-66.5 173.5q0 92 47.5 154.5t116.5 80.5v15q-55 16 -87.5 67t-32.5 113q0 97 53.5 155t145.5 58zM277 76
q58 1 93 51.5t35 127.5q0 91 -38.5 145.5t-90.5 54.5q-59 0 -94 -51.5t-35 -148.5q0 -77 35 -127.5t95 -51.5zM276 541q39 0 65 33t26 98q0 58 -24.5 87.5t-66.5 29.5t-66.5 -29.5t-24.5 -87.5q0 -60 27 -95.5t64 -35.5z" />
    <glyph glyph-name="nine" unicode="9" horiz-adv-x="553" 
d="M45 588q0 118 56.5 202.5t166.5 84.5q53 0 94.5 -19.5t66.5 -55t42 -74.5t25 -89t10.5 -87t2.5 -78q0 -80 -16 -159t-48.5 -151t-90 -117t-131.5 -45q-62 0 -119 19v118q56 -42 118 -42q42 0 74.5 28.5t51 76.5t28 96t13.5 100h-13q-17 -35 -51.5 -56.5t-76.5 -21.5
q-90 0 -146.5 75t-56.5 195zM269 788q-47 0 -75.5 -55t-28.5 -145q0 -180 118 -180q34 0 64.5 28.5t43.5 85.5q0 31 -3.5 66t-14.5 85t-38 82.5t-66 32.5z" />
    <glyph glyph-name="colon" unicode=":" horiz-adv-x="254" 
d="M184 512v-116q-78 3 -114 10v93q36 7 114 13zM184 116v-116q-78 3 -114 10v93q36 7 114 13z" />
    <glyph glyph-name="semicolon" unicode=";" horiz-adv-x="279" 
d="M145 -146h-75l19 146q10 79 -5 116h121q11 -30 -11 -104zM193 512v-116q-78 3 -114 10v93q36 7 114 13z" />
    <glyph glyph-name="less" unicode="&#x3c;" horiz-adv-x="448" 
d="M166 184l-136 135l136 136q76 76 91 108l81 -81q-29 -12 -108 -91l-71 -72l71 -71q76 -74 108 -91l-81 -81q-17 32 -91 108z" />
    <glyph glyph-name="equal" unicode="=" horiz-adv-x="605" 
d="M394 154h-184q-104 0 -140 -12v115q36 -12 140 -12h184q105 0 141 12v-115q-36 12 -141 12zM394 394h-184q-104 0 -140 -12v115q36 -12 140 -12h184q105 0 141 12v-115q-36 12 -141 12z" />
    <glyph glyph-name="greater" unicode="&#x3e;" horiz-adv-x="488" 
d="M418 319l-136 -135q-74 -76 -91 -108l-81 81q32 17 108 91l71 71l-71 72q-79 79 -108 91l81 81q15 -32 91 -108z" />
    <glyph glyph-name="question" unicode="?" horiz-adv-x="504" 
d="M143 251q-3 56 15.5 105t47.5 83.5t58 66t49.5 68.5t20.5 76q0 68 -33 103.5t-87 35.5t-97.5 -34t-71.5 -92v168q65 44 170 44q116 0 180 -64t64 -161q0 -54 -21 -98.5t-50.5 -76.5t-59 -63.5t-50.5 -76.5t-21 -100q-31 2 -114 16zM257 116v-116q-78 3 -114 10v93
q36 7 114 13z" />
    <glyph glyph-name="at" unicode="@" horiz-adv-x="888" 
d="M490 508h10v30q0 66 -69 66q-54 0 -96 -38v92q55 20 118 20q57 0 97.5 -38t40.5 -102v-228q0 -59 51 -59q38 0 68 46.5t30 140.5q0 156 -77.5 253.5t-218.5 97.5t-218.5 -97.5t-77.5 -253.5q0 -152 80.5 -252t215.5 -100q56 0 88 24l28 -95q-57 -15 -116 -15
q-181 0 -297.5 126t-116.5 312q0 187 114.5 312t299.5 125t299.5 -125t114.5 -312q0 -132 -61.5 -204t-144.5 -72q-50 0 -89.5 31.5t-54.5 92.5h-12q-23 -69 -87 -69q-50 0 -82.5 40t-32.5 99q-2 76 59.5 124t136.5 28zM500 440h-35q-77 0 -77 -84q0 -30 14.5 -48t36.5 -18
q61 0 61 88v62z" />
    <glyph glyph-name="A" unicode="A" horiz-adv-x="543" 
d="M543 0h-150q6 52 -9 123q-56 29 -120 27.5t-119 -34.5q-14 -64 -8 -116h-137q33 42 47 104l170 757q47 10 108 14l173 -772q14 -60 45 -103zM348 225h10l-70 353q-2 12 -6 36.5t-10 42.5h-10q-4 -14 -6.5 -25t-4.5 -25.5t-5 -28.5l-71 -353h10q79 36 163 0z" />
    <glyph glyph-name="B" unicode="B" horiz-adv-x="560" 
d="M481 712q0 -45 -32.5 -87t-85.5 -53v-15q72 -11 119.5 -71.5t47.5 -190.5t-73.5 -212.5t-192.5 -82.5q-124 0 -194 19v838q88 18 194 18q217 0 217 -163zM182 86h83q67 1 107.5 59.5t40.5 149.5q0 116 -38.5 163.5t-127.5 47.5h-65v-420zM182 781v-190h91q46 0 74 25
t28 76q0 97 -104 97q-51 0 -89 -8z" />
    <glyph glyph-name="C" unicode="C" horiz-adv-x="460" 
d="M430 124v-102q-52 -22 -97 -22q-48 0 -89.5 12.5t-82 46t-68.5 85.5t-45.5 136t-17.5 193q0 182 74 292t206 110q30 0 51.5 -2.5t30 -5t37.5 -11.5v-108q-30 22 -54.5 32t-63.5 10q-78 0 -123.5 -86t-45.5 -231q0 -94 13.5 -165.5t34.5 -112t49 -66t53 -34t51 -8.5
q39 0 87 37z" />
    <glyph glyph-name="D" unicode="D" horiz-adv-x="537" 
d="M506 526q3 -111 -12 -205t-48 -166.5t-90 -113.5t-132 -41q-84 0 -154 19v838q88 18 175 18q131 0 194 -82t67 -267zM181 86h53q73 1 114.5 119.5t39.5 320.5q-5 263 -140 263q-29 0 -67 -8v-695z" />
    <glyph glyph-name="E" unicode="E" horiz-adv-x="471" 
d="M425 124v-102q-75 -22 -187 -22q-99 0 -173 10v847q88 18 204 18q94 0 155 -19v-108q-48 42 -148 42q-62 0 -98 -8v-221h101q96 0 147 48v-171q-58 38 -155 38h-92v-383q27 -5 94 -5q96 0 152 36z" />
    <glyph glyph-name="F" unicode="F" horiz-adv-x="451" 
d="M184 480l-2 -1v-479q-62 3 -112 10v847q88 18 204 18q94 0 155 -19v-108q-48 42 -148 42q-62 0 -98 -8v-217h101q96 0 147 48v-171q-58 38 -155 38h-92z" />
    <glyph glyph-name="G" unicode="G" horiz-adv-x="560" 
d="M493 562v-457q0 -65 22 -105h-122q-4 51 -6 88h-9q-45 -93 -140 -93q-102 6 -155 103t-53 270q0 242 90 374.5t223 132.5q66 0 119 -21v-132q-48 57 -122 57q-86 0 -137.5 -97.5t-51.5 -313.5q0 -160 31.5 -223t92.5 -65q46 0 78.5 37t32.5 94v261q-76 0 -123 -30v121
q127 13 230 -1z" />
    <glyph glyph-name="H" unicode="H" horiz-adv-x="559" 
d="M368 565h9v299h-2q27 5 114 11v-875q-62 3 -112 10v449q-97 42 -195 0v-459q-62 3 -112 10v851q46 9 111 14v-310h10q85 39 177 0z" />
    <glyph glyph-name="I" unicode="I" horiz-adv-x="252" 
d="M182 875v-875q-62 3 -112 10v851q45 9 112 14z" />
    <glyph glyph-name="J" unicode="J" horiz-adv-x="345" 
d="M20 746v108q91 29 255 16v-708q0 -162 -149 -162q-44 0 -106 16v108q54 -34 92 -34q29 0 40.5 16.5t11.5 55.5v626q-96 -2 -144 -42z" />
    <glyph glyph-name="K" unicode="K" horiz-adv-x="525" 
d="M402 374v1l56 -271q14 -62 47 -104h-145q6 49 -8 113l-45 222q-14 59 -42.5 87.5t-82.5 33.5v-456q-62 3 -112 10v851q46 9 111 14v-332q40 0 65 23.5t45 68.5l85 227q45 13 117 13l-95 -236q-52 -114 -124 -114v-9q36 0 73.5 -34t54.5 -108z" />
    <glyph glyph-name="L" unicode="L" horiz-adv-x="450" 
d="M181 92h1q28 -5 94 -5q96 0 154 37v-102q-75 -22 -187 -22q-99 0 -173 10v851q46 9 111 14v-783z" />
    <glyph glyph-name="M" unicode="M" horiz-adv-x="666" 
d="M484 862q54 9 112 13v-875q-62 3 -112 10v550h-9q-14 -42 -33 -79.5t-30.5 -55.5t-40.5 -57t-38 -52q-10 14 -38.5 52t-40.5 56.5t-30.5 56t-32.5 79.5h-9v-560q-62 3 -112 10v851q46 9 111 14q17 -133 51 -231t100 -179q67 81 101 175.5t51 221.5z" />
    <glyph glyph-name="N" unicode="N" horiz-adv-x="584" 
d="M395 568h7v292q53 11 112 15v-875q-34 0 -112 9v390q-25 48 -108.5 128.5t-96.5 95.5h-8v-623q-41 0 -101 6v689q0 96 -38 147l139 33v-39q5 -31 18 -60t37.5 -57.5t43.5 -48.5t54.5 -52.5t52.5 -49.5z" />
    <glyph glyph-name="O" unicode="O" horiz-adv-x="868" 
d="M434 80q129 0 212 103.5t83 254.5q0 153 -80.5 255.5t-214.5 102.5t-214.5 -102.5t-80.5 -255.5q0 -151 83 -254.5t212 -103.5zM434 882q181 0 297.5 -128.5t116.5 -315.5t-116.5 -315.5t-297.5 -128.5t-297.5 128.5t-116.5 315.5t116.5 315.5t297.5 128.5z" />
    <glyph glyph-name="P" unicode="P" horiz-adv-x="509" 
d="M498 698q3 -94 -59.5 -143t-177.5 -49q-31 0 -71 10h-8v-516q-62 3 -112 10v847q88 18 204 18q103 0 161.5 -45.5t62.5 -131.5zM182 591h100q49 0 75.5 26.5t26.5 74.5q0 97 -104 97q-60 0 -98 -8v-190z" />
    <glyph glyph-name="Q" unicode="Q" horiz-adv-x="909" 
d="M490 8v-10q37 -27 61 -43t59 -34.5t63 -25.5t62.5 -6t66.5 14l1 1q49 21 96 66q-9 -66 -22 -120q-49 -45 -98 -61.5t-93 -8t-88.5 31t-87 54t-85 62.5t-86.5 54.5t-87.5 33t-93 -5t-97.5 -57.5q-6 37 -5 97q53 40 109 56v8q-135 126 -135 326q0 187 116.5 315.5
t297.5 128.5t297.5 -128.5t116.5 -315.5q0 -163 -95 -280.5t-273 -151.5zM444 797q-131 0 -214 -103.5t-83 -254.5t83 -254.5t214 -103.5t214 103.5t83 254.5t-83 254.5t-214 103.5z" />
    <glyph glyph-name="R" unicode="R" horiz-adv-x="536" 
d="M506 0h-149q6 49 -8 113l-91 393h-76v-506q-62 3 -112 10v847q88 18 204 18q104 0 163.5 -46t59.5 -130q0 -67 -44.5 -110t-94.5 -49l101 -436q14 -62 47 -104zM182 591h91q51 0 81.5 26.5t30.5 74.5q0 97 -104 97q-61 0 -99 -8v-190z" />
    <glyph glyph-name="S" unicode="S" horiz-adv-x="489" 
d="M140 685q0 -10 2.5 -20.5t6 -19.5t11.5 -20.5t13.5 -19t17.5 -19.5t19 -18.5t22 -19t22 -18.5t24.5 -20t24.5 -19q79 -64 124 -129t45 -154q0 -90 -62 -149t-162 -59q-111 0 -180 44v168q20 -51 73 -88.5t106 -37.5q56 0 88 27.5t32 80.5q0 38 -25 77t-51.5 63t-77.5 65
l-15 12q-49 40 -79.5 72t-55.5 84.5t-25 111.5q0 88 61.5 142t160.5 54q76 0 143 -31v-156q-19 49 -58 78t-85 29q-57 0 -88.5 -29.5t-31.5 -80.5z" />
    <glyph glyph-name="T" unicode="T" horiz-adv-x="433" 
d="M216 875q132 0 207 -22v-102q-47 31 -151 37v-788q-65 5 -111 14v773q-104 -6 -151 -37v102q72 21 206 23z" />
    <glyph glyph-name="U" unicode="U" horiz-adv-x="569" 
d="M164 875v-547q0 -142 26 -194t86 -54q111 0 111 131l-1 650q45 9 112 14l-1 -770q0 -65 22 -105h-125q-4 48 -6 88h-9q-43 -93 -133 -93q-106 6 -151 84.5t-45 248.5v533q44 9 114 14z" />
    <glyph glyph-name="V" unicode="V" horiz-adv-x="527" 
d="M259 255h9l117 506q10 56 8 92h128q-22 -37 -31 -84l-173 -769q-90 10 -111 14l-169 755q-12 48 -32 84h129q-2 -44 9 -92z" />
    <glyph glyph-name="W" unicode="W" horiz-adv-x="877" 
d="M437 414l-92 -414q-17 2 -63 7t-63 8l-169 754q-12 50 -32 84h128v-9q0 -21 19 -112t104 -477h28q8 43 42.5 191.5t41.5 193.5q17 118 -36 213h128v-9q2 -50 10 -84l115 -506h13q85 386 104 477.5t19 112.5v9h126q-21 -39 -30 -84l-171 -769l-40 5t-41.5 5t-30.5 5
l-99 487h-11v-88z" />
    <glyph glyph-name="X" unicode="X" horiz-adv-x="536" 
d="M261 600h14q7 46 60 158q24 53 33 95h132q-33 -40 -53 -86l-60 -136l-64 -121q6 -4 11.5 -11t11 -18.5t9.5 -19.5t10 -24.5t8.5 -24t9 -26.5t8.5 -24l87 -253q28 -81 48 -109h-153q6 74 -10 118l-69 206q-9 26 -18 76h-16q-17 -72 -18 -76l-69 -206q-18 -50 -7 -118h-156
q20 28 48 109l88 253q4 11 11 32.5t11.5 35.5t11.5 31t13.5 28.5t13.5 17.5q-39 88 -58 124l-60 136q-21 45 -53 86h132q5 -26 33 -95q52 -111 60 -158z" />
    <glyph glyph-name="Y" unicode="Y" horiz-adv-x="486" 
d="M250 573h11l59 187q13 43 10 93h135q-19 -36 -33 -84l-232 -769q-89 6 -116 12l156 495q-73 0 -121 52q-61 66 -82 203q-11 79 -13 91h121q-11 -45 0 -100q20 -112 56 -153q19 -23 49 -27z" />
    <glyph glyph-name="Z" unicode="Z" horiz-adv-x="500" 
d="M332 566h136v-85h-158l-114 -401q29 -3 70 -3q96 0 154 37v-102q-75 -22 -187 -22q-97 0 -173 10l137 473v7h-20q-96 0 -147 -48v171q58 -38 155 -38h35l65 228q-30 3 -72 3q-96 0 -154 -37v102q75 22 187 22q99 0 173 -10l-87 -300v-7z" />
    <glyph glyph-name="bracketleft" unicode="[" horiz-adv-x="397" 
d="M315 -138h-103q-62 3 -112 10v989q45 9 112 14h103q39 0 72 9v-92q-4 1 -33.5 9.5t-46.5 8.5h-95v-883h95q17 0 46.5 8.5t33.5 9.5v-92q-33 9 -72 9z" />
    <glyph glyph-name="backslash" unicode="\" horiz-adv-x="429" 
d="M129 883l232 -866q4 -16 20 -42t18 -31l-89 -23q0 35 -10 71l-232 866q-4 16 -20 42t-18 31l89 23q0 -35 10 -71z" />
    <glyph glyph-name="bracketright" unicode="]" horiz-adv-x="397" 
d="M185 -138h-103q-39 0 -72 -9v92q4 -1 33.5 -9.5t46.5 -8.5h95v883h-95q-17 0 -46.5 -8.5t-33.5 -9.5v92q33 -9 72 -9h103q67 -5 112 -14v-989q-50 -7 -112 -10z" />
    <glyph glyph-name="asciicircum" unicode="^" horiz-adv-x="461" 
d="M127 770l104 104l103 -104q60 -58 82 -69l-62 -62q-12 24 -69 83l-54 54l-55 -54q-58 -58 -69 -83l-62 62q26 11 82 69z" />
    <glyph glyph-name="underscore" unicode="_" horiz-adv-x="515" 
d="M304 0h-94q-104 0 -140 -12v115q36 -12 140 -12h94q105 0 141 12v-115q-36 12 -141 12z" />
    <glyph glyph-name="grave" unicode="`" horiz-adv-x="189" 
d="M114 701l-73 88q-36 51 -30 72h111q-11 -30 16 -80l41 -80h-65z" />
    <glyph glyph-name="a" unicode="a" horiz-adv-x="498" 
d="M431 477v-372q-1 -63 22 -105h-125q-4 51 -6 88h-7q-32 -93 -132 -93q-69 0 -113 53t-44 133q-5 95 58.5 163t174.5 68q30 0 61 -7v72q0 49 -20.5 70t-73.5 21q-92 0 -144 -47v112q75 22 177 22q82 0 127 -47.5t45 -130.5zM320 325h-61q-54 0 -86.5 -37.5t-32.5 -106.5
q0 -47 22.5 -74t57.5 -27q100 0 100 131v114z" />
    <glyph glyph-name="b" unicode="b" horiz-adv-x="517" 
d="M177 559h10q40 96 132 96q64 0 113.5 -73t49.5 -205v-95q-3 -128 -68 -205t-175 -77q-30 0 -60 5t-70 16t-44 12v828q45 9 112 14v-316zM369 282v95q0 96 -28 143.5t-73 47.5q-91 0 -91 -165v-294q30 -23 68 -23q57 0 89.5 52t34.5 144z" />
    <glyph glyph-name="c" unicode="c" horiz-adv-x="430" 
d="M415 124v-102q-52 -22 -97 -22q-57 0 -104.5 17t-89.5 56t-65.5 113t-23.5 177q0 132 68.5 212t191.5 80h18.5t17 -1t13.5 -1t13 -1.5t10.5 -2t11.5 -3t10.5 -3t12.5 -3.5t13 -4v-108q-30 22 -55 32t-64 10q-69 0 -109 -56t-40 -151q0 -67 12.5 -118.5t31 -80.5t44 -47
t47.5 -24t46 -6q39 0 87 37z" />
    <glyph glyph-name="d" unicode="d" horiz-adv-x="512" 
d="M323 559h12v302q45 9 112 14v-842q-4 -1 -44 -12t-70 -16t-60 -5q-110 0 -175 77t-68 205v95q0 132 49.5 205t113.5 73q46 0 77.5 -22.5t52.5 -73.5zM143 377v-95q2 -92 34.5 -144t89.5 -52q38 0 68 23v294q0 165 -91 165q-45 0 -73 -47.5t-28 -143.5z" />
    <glyph glyph-name="e" unicode="e" horiz-adv-x="475" 
d="M405 124v-102q-52 -22 -97 -22q-43 0 -80.5 10t-74 35.5t-62 65t-41 104t-15.5 148.5q0 132 60 212t170 80q85 0 134.5 -55.5t49.5 -130.5q5 -91 -56.5 -141t-176.5 -50q-40 0 -64 5q7 -59 26 -100t44 -60.5t48 -27.5t48 -8q39 0 87 37zM255 570q-48 0 -78 -54t-30 -151
h69q61 0 90 19.5t29 84.5q0 47 -22.5 74t-57.5 27z" />
    <glyph glyph-name="f" unicode="f" horiz-adv-x="350" 
d="M177 536v-536q-62 3 -112 10v686q0 83 43 130.5t120 47.5q73 0 117 -22v-102q-31 37 -84 37q-47 0 -65.5 -21t-18.5 -70v-75h96q39 0 72 9v-112q-4 1 -33.5 9.5t-46.5 8.5h-88z" />
    <glyph glyph-name="g" unicode="g" horiz-adv-x="517" 
d="M452 622v-604q0 -97 -56.5 -157.5t-155.5 -60.5q-95 0 -157 22v102q50 -37 134 -37q69 0 96 32t27 99v78h-11q-22 -51 -53 -73.5t-78 -22.5q-64 0 -113.5 75.5t-49.5 212.5v75q3 133 68 212.5t175 79.5q30 0 60 -5t70 -16t44 -12zM148 363v-75q0 -101 28 -151t73 -50
q87 0 91 148v311q-30 23 -68 23q-57 0 -89.5 -55t-34.5 -151z" />
    <glyph glyph-name="h" unicode="h" horiz-adv-x="556" 
d="M179 559h12q45 96 144 96q70 0 115.5 -66.5t45.5 -191.5v-397q-66 3 -114 10v387q0 89 -22.5 130t-69.5 41q-48 0 -79.5 -42t-31.5 -123v-403q-66 3 -114 10v851q44 9 114 14v-316z" />
    <glyph glyph-name="i" unicode="i" horiz-adv-x="264" 
d="M189 640v-640q-66 3 -114 10v616q44 9 114 14zM189 875v-116q-78 3 -114 10v93q36 7 114 13z" />
    <glyph glyph-name="j" unicode="j" horiz-adv-x="345" 
d="M20 512v108q91 29 255 16v-674q0 -162 -149 -162q-44 0 -106 16v108q54 -34 92 -34q29 0 40.5 16.5t11.5 55.5v592q-96 -2 -144 -42zM275 875v-116q-78 3 -114 10v93q36 7 114 13z" />
    <glyph glyph-name="k" unicode="k" horiz-adv-x="495" 
d="M407 244v1l31 -141q14 -62 47 -104h-147q5 44 -8 113l-18 92q-14 59 -45 87.5t-90 33.5v-326q-62 3 -112 10v851q46 9 111 14v-462q92 0 130 92l45 132q45 13 117 13l-55 -141q-51 -114 -144 -114v-9q38 0 79 -34t59 -108z" />
    <glyph glyph-name="l" unicode="l" horiz-adv-x="285" 
d="M177 875v-727q0 -32 9.5 -44t34.5 -12q35 0 54 32v-102q-32 -22 -87 -22q-59 0 -91 39.5t-32 108.5v717q50 7 112 10z" />
    <glyph glyph-name="m" unicode="m" horiz-adv-x="845" 
d="M795 430v-430q-66 3 -114 10v420q0 63 -24 101.5t-73 38.5q-40 0 -68 -48.5t-28 -111.5v-410q-66 3 -114 10v420q0 75 -23 107.5t-74 32.5q-40 0 -68 -48.5t-28 -111.5v-410q-66 3 -114 10v505q2 82 -22 125h119q14 -51 16 -88h8q12 49 47.5 76t81.5 27q126 0 150 -142h7
q13 63 51.5 102.5t98.5 39.5q81 0 126 -59t45 -166z" />
    <glyph glyph-name="n" unicode="n" horiz-adv-x="568" 
d="M180 562h11q41 93 131 93q85 0 135.5 -60.5t50.5 -159.5v-435q-66 3 -114 10v425q0 135 -107 135q-56 0 -81 -37.5t-25 -97.5v-435q-66 3 -114 10v515q2 73 -22 115h119q14 -39 16 -78z" />
    <glyph glyph-name="o" unicode="o" 
d="M254 655q119 0 179 -97t60 -266q0 -54 -13.5 -104.5t-39.5 -93t-70 -68.5t-99 -26q-241 0 -241 363q0 73 22.5 137.5t75.5 109.5t126 45zM268 82q31 0 53.5 22t33.5 56.5t16 67.5t5 64q0 53 -6 100.5t-19.5 89.5t-38 66.5t-57.5 24.5q-31 0 -53.5 -22t-33.5 -56.5
t-16 -67.5t-5 -64q0 -53 6 -100.5t19.5 -89.5t38 -66.5t57.5 -24.5z" />
    <glyph glyph-name="p" unicode="p" horiz-adv-x="517" 
d="M482 373v-95q0 -132 -49.5 -205t-113.5 -73q-93 0 -133 96h-9v-296q-67 5 -112 14v808q4 1 44 12t70 16t60 5q110 0 175 -77t68 -205zM369 278v95q-2 92 -34.5 144t-89.5 52q-38 0 -68 -23v-294q0 -165 91 -165q44 0 72.5 47.5t28.5 143.5z" />
    <glyph glyph-name="q" unicode="q" horiz-adv-x="527" 
d="M462 622v-822q-67 5 -112 14v282h-9q-22 -50 -53.5 -73t-79.5 -23q-64 0 -113.5 73t-49.5 205v95q3 128 68 205t175 77q30 0 60 -5.5t68.5 -15.5t45.5 -12zM158 373v-95q0 -96 28.5 -143.5t72.5 -47.5q91 0 91 165v294q-30 23 -68 23q-57 0 -89.5 -52t-34.5 -144z" />
    <glyph glyph-name="r" unicode="r" horiz-adv-x="345" 
d="M335 632v-102q-33 24 -69 24q-42 0 -65.5 -32t-23.5 -94v-428q-64 4 -110 14v521q1 63 -22 105h125q4 -51 6 -88h10q33 103 99 103q39 0 50 -23z" />
    <glyph glyph-name="s" unicode="s" horiz-adv-x="430" 
d="M142 493q0 -51 98 -108q35 -20 49 -28.5t43 -31t42 -40.5t24.5 -46.5t11.5 -60.5q0 -76 -53.5 -127t-136.5 -51q-99 0 -164 44v168q19 -52 66 -89t97 -37q38 0 62 19.5t24 58.5q0 17 -8.5 32.5t-30 32.5t-35 26t-46.5 29q-32 20 -53 36t-44.5 41t-35.5 57t-12 70
q0 75 53.5 121t138.5 46q76 0 143 -31v-156q-19 49 -58 78t-85 29q-43 0 -66.5 -22t-23.5 -60z" />
    <glyph glyph-name="t" unicode="t" horiz-adv-x="367" 
d="M169 536v-358q0 -49 18.5 -70t65.5 -21q53 0 84 37v-102q-44 -22 -117 -22q-77 0 -121 48t-44 130v558q57 21 114 32v-147h95q39 0 72 9v-112q-4 1 -33.5 9.5t-46.5 8.5h-87z" />
    <glyph glyph-name="u" unicode="u" horiz-adv-x="558" 
d="M491 650v-545q0 -65 22 -105h-125q-8 51 -10 88h-10q-43 -93 -132 -93q-85 0 -135.5 60.5t-50.5 159.5v425q48 7 114 10v-435q0 -135 107 -135q56 0 81 37.5t25 97.5v425q48 7 114 10z" />
    <glyph glyph-name="v" unicode="v" horiz-adv-x="489" 
d="M133 620l89 -373q3 -13 8.5 -52t11.5 -57h10q5 16 17 109l89 373v20h136q-11 -16 -33 -64.5t-35 -94.5l-127 -481q-66 5 -110 14l-126 467q-13 45 -35 93t-33 66h138v-20z" />
    <glyph glyph-name="w" unicode="w" horiz-adv-x="723" 
d="M129 620l83 -432h14l58 300q15 77 -17 152h143v-20l93 -432h10l81 432v20h141q-10 -13 -32 -67.5t-32 -97.5l-103 -475q-83 6 -121 14l-80 425h-10l-81 -439q-88 6 -125 14l-105 473q-7 31 -29.5 88t-28.5 65h141v-20z" />
    <glyph glyph-name="x" unicode="x" horiz-adv-x="459" 
d="M152 640v-20l72 -198h11l72 198v20h145q-1 -1 -5 -5.5t-6 -7t-7 -8.5t-8.5 -11.5t-9 -14.5t-11.5 -20t-13 -24.5t-15 -31t-17 -37.5l-60 -141l113 -276q10 -22 46 -63h-149v32l-48 148l-26 75h-13l-26 -75l-48 -148v-32h-149q35 40 45 63l114 276l-60 141
q-10 23 -19.5 42.5t-16 33t-14 26t-11.5 19t-10 14.5t-8 10t-8 9l-5 6h145z" />
    <glyph glyph-name="y" unicode="y" horiz-adv-x="474" 
d="M124 620l97 -373q4 -17 6.5 -54.5t7.5 -54.5h10q5 17 7.5 54.5t6.5 54.5l93 373v20h132q-37 -74 -62 -159l-154 -567q-22 -114 -145 -114q-44 0 -106 16v108q54 -34 92 -34q30 0 43.5 23.5t26.5 100.5l-126 463q-29 99 -63 163h134v-20z" />
    <glyph glyph-name="z" unicode="z" horiz-adv-x="449" 
d="M181 90q29 -3 70 -3q96 0 154 37v-102q-75 -22 -187 -22q-105 0 -183 14l235 540v10q-30 3 -72 3q-96 0 -154 -37v102q75 22 187 22q118 0 183 -14l-233 -539v-11z" />
    <glyph glyph-name="braceleft" unicode="{" horiz-adv-x="387" 
d="M274 875h103q-73 -48 -97.5 -89t-18.5 -96q2 -16 17.5 -76t15.5 -86q0 -49 -15 -78.5t-55 -68.5v-6q41 -41 55 -68.5t14 -78.5q0 -25 -14.5 -83.5t-15.5 -76.5q-4 -62 22.5 -109.5t91.5 -96.5h-103q-69 41 -101 99.5t-24 118.5q4 34 20.5 78t16.5 72t-14.5 53t-27.5 37.5
t-41 33t-33 24.5q5 4 33 24.5t41 33t27.5 37.5t14.5 53t-16.5 73.5t-20.5 76.5q-19 135 125 199z" />
    <glyph glyph-name="bar" unicode="|" horiz-adv-x="281" 
d="M173 890v-897q0 -17 8.5 -46.5t9.5 -33.5h-92q9 33 9 72v897q0 17 -8.5 46.5t-9.5 33.5h92q-9 -33 -9 -72z" />
    <glyph glyph-name="braceright" unicode="}" horiz-adv-x="387" 
d="M10 875h103q144 -64 125 -199q-4 -31 -20.5 -76.5t-16.5 -73.5t14.5 -53t27.5 -37.5t41 -33t33 -24.5q-5 -4 -33 -24.5t-41 -33t-27.5 -37.5t-14.5 -53t16.5 -72t20.5 -78q8 -60 -24 -118.5t-101 -99.5h-103q65 49 91.5 96.5t22.5 109.5q-1 18 -15.5 76.5t-14.5 83.5
q0 51 14 78.5t55 68.5v6q-40 39 -55 68.5t-15 78.5q0 26 15.5 86t17.5 76q6 55 -18.5 96t-97.5 89z" />
    <glyph glyph-name="asciitilde" unicode="~" horiz-adv-x="480" 
d="M334 240q-39 0 -103 33q-58 28 -83 28q-48 0 -70 -46l-48 48q5 39 38.5 67.5t83.5 28.5q37 0 103 -32q56 -29 79 -29q47 0 65 51l51 -51q-5 -41 -38.5 -69.5t-77.5 -28.5z" />
    <glyph glyph-name="exclamdown" unicode="&#xa1;" horiz-adv-x="254" 
d="M184 810v-116q-78 6 -114 13v93q36 7 114 10zM183 575v-640q-67 5 -112 14v616q50 7 112 10z" />
    <glyph glyph-name="cent" unicode="&#xa2;" horiz-adv-x="445" 
d="M318 657v-2q47 -1 107 -19v-108q-51 36 -98 42h-9v-482q51 -6 107 36v-102q-52 -22 -107 -22q0 -17 8.5 -46.5t9.5 -33.5l-92 1q9 32 9 87q-208 46 -208 355q0 116 54.5 193.5t153.5 94.5q-1 16 -9 44t-9 34l92 -1q-9 -32 -9 -71zM245 110h8v449h-10q-86 -52 -86 -196
q0 -180 88 -253z" />
    <glyph glyph-name="sterling" unicode="&#xa3;" horiz-adv-x="491" 
d="M237 0q-155 0 -207 21v95q28 -23 88 -28q98 116 99 245q0 120 -82 203h-105v65h110v95q0 83 43 130.5t120 47.5q73 0 117 -22v-102q-31 37 -84 37q-47 0 -65.5 -21t-18.5 -70v-95h107q39 0 72 9v-92q-4 1 -33.5 9.5t-46.5 8.5h-107v-11q25 -17 54 -66.5t30 -116.5
q2 -127 -88 -245v-9q24 -1 27 -1q85 0 152 37v-102q-76 -21 -182 -22z" />
    <glyph glyph-name="currency" unicode="&#xa4;" horiz-adv-x="833" 
d="M260 157q-50 -54 -65 -81l-81 81q26 14 81 64q-21 43 -21 98t21 98q-61 56 -81 65l81 81q9 -23 65 -82q42 20 96.5 20t97.5 -20q54 59 66 82l81 -81q-23 -12 -82 -66q20 -42 20 -96.5t-20 -97.5q60 -56 82 -65l-81 -81q-10 22 -66 81q-43 -20 -97.5 -20t-96.5 20z
M357 210q39 0 65 29.5t26 80.5t-26 80.5t-65 29.5t-64.5 -28.5t-26.5 -81.5q1 -53 26.5 -81.5t64.5 -28.5z" />
    <glyph glyph-name="yen" unicode="&#xa5;" horiz-adv-x="486" 
d="M274 244h161v-65h-180l-54 -179q-89 6 -116 12l52 159v8h-4q-18 0 -34 -3.5t-32.5 -8.5t-23.5 -6v92q33 -9 72 -9h43l35 103v8h-71q-17 0 -46.5 -8.5t-33.5 -9.5v92q33 -9 72 -9h99l28 87q-156 0 -203 255q-13 72 -19 91h128q-13 -44 -1 -100q11 -58 26 -96.5t31.5 -55.5
t29.5 -22.5t29 -5.5l59 187q13 43 10 93h135q-20 -36 -33 -84l-106 -339v-10h107v-65h-126l-34 -102v-9z" />
    <glyph glyph-name="brokenbar" unicode="&#xa6;" horiz-adv-x="281" 
d="M173 890v-360q-17 6 -33 6q-15 0 -32 -5v351q0 17 -8.5 46.5t-9.5 33.5h92q-9 -33 -9 -72zM191 -87h-92q9 33 9 72v358q12 -5 32 -5q15 0 33 5v-350q0 -17 8.5 -46.5t9.5 -33.5z" />
    <glyph glyph-name="section" unicode="&#xa7;" horiz-adv-x="440" 
d="M294 236q101 -50 101 -147q0 -76 -53.5 -127t-136.5 -51q-99 0 -164 44v168q19 -52 66 -89t97 -37q38 0 62 19.5t24 58.5q0 30 -28 55.5t-83 58.5q-34 21 -56 37t-47.5 41.5t-38 58.5t-12.5 73q0 93 101 131v12q-101 69 -101 172q0 74 53 117.5t139 43.5q76 0 143 -31
v-156q-19 49 -58 78t-85 29q-90 0 -90 -76q0 -31 27.5 -57t78.5 -56q38 -22 58.5 -36t49 -40t41.5 -57t13 -69q0 -51 -26.5 -92.5t-74.5 -63.5v-12zM122 409q0 -52 104 -115q69 12 69 91q0 49 -104 112q-32 -5 -50.5 -27.5t-18.5 -60.5z" />
    <glyph glyph-name="dieresis" unicode="&#xa8;" horiz-adv-x="308" 
d="M124 817v-116q-78 3 -114 10v93q36 7 114 13zM298 817v-116q-78 3 -114 10v93q36 7 114 13z" />
    <glyph glyph-name="copyright" unicode="&#xa9;" horiz-adv-x="741" 
d="M373 655q133 0 225.5 -95.5t92.5 -230.5q0 -137 -92.5 -233t-225.5 -96q-135 0 -229 96t-94 233q0 135 94 230.5t229 95.5zM373 607q-113 0 -189 -81t-76 -200q0 -117 76 -197t189 -80q110 0 185 80.5t75 199.5q0 116 -75.5 197t-184.5 81zM443 217v-55q-29 -12 -53 -12
q-154 0 -154 197q0 72 37 115t104 43q32 0 66 -10v-58q-32 22 -65 22q-38 0 -60 -30t-22 -82q0 -85 30 -117.5t69 -32.5q21 0 48 20z" />
    <glyph glyph-name="ordfeminine" unicode="&#xaa;" horiz-adv-x="212" 
d="M170 710v-104q0 -20 7 -30h-47q-1 14 -2 25h-2q-9 -27 -41 -27q-20 0 -37 15t-17 40q-1 28 19.5 46.5t58.5 18.5q6 0 18 -3v15q0 26 -27 26q-22 0 -42 -13v43q21 6 51 6q28 0 44.5 -16.5t16.5 -41.5zM127 666h-18q-15 0 -25.5 -9.5t-10.5 -24.5q0 -27 25 -27q29 0 29 41
v20zM192 531l-1 -37h-91q-40 0 -80 -8v49q29 -4 72 -4h100z" />
    <glyph glyph-name="guillemotleft" unicode="&#xab;" horiz-adv-x="698" 
d="M166 184l-136 135l136 136q76 76 91 108l81 -81q-29 -12 -108 -91l-71 -72l71 -71q76 -74 108 -91l-81 -81q-17 32 -91 108zM416 184l-136 135l136 136q76 76 91 108l81 -81q-29 -12 -108 -91l-71 -72l71 -71q76 -74 108 -91l-81 -81q-17 32 -91 108z" />
    <glyph glyph-name="registered" unicode="&#xae;" horiz-adv-x="437" 
d="M219 840q71 0 119.5 -47.5t48.5 -116.5q0 -70 -48.5 -118t-119.5 -48t-120 48t-49 118q0 68 49.5 116t119.5 48zM219 813q-56 0 -94.5 -40t-38.5 -97t38.5 -97t95.5 -40q56 0 93.5 39.5t37.5 96.5q0 58 -38 98t-94 40zM218 670h-19v-69q-14 0 -26 2v151q22 4 48 4
q54 0 54 -42q0 -16 -11 -26.5t-22 -11.5l19 -52q4 -15 13 -25h-35q2 12 -5 27zM199 690h22q27 0 27 24q0 23 -25 23q-18 0 -24 -2v-45z" />
    <glyph glyph-name="macron" unicode="&#xaf;" horiz-adv-x="307" 
d="M297 766v-65h-207q-17 0 -46.5 -8.5t-33.5 -9.5v92q33 -9 72 -9h215z" />
    <glyph glyph-name="degree" unicode="&#xb0;" horiz-adv-x="281" 
d="M142 639q-50 0 -86 33.5t-36 83.5t34.5 85t84.5 35t86 -33.5t36 -82.5q0 -50 -35 -85.5t-84 -35.5zM191 759q0 21 -15 35t-36 14q-23 0 -37 -15t-14 -36t15 -36t36 -15q23 0 37 15t14 38z" />
    <glyph glyph-name="plusminus" unicode="&#xb1;" horiz-adv-x="715" 
d="M474 0h-234q-104 0 -140 -12v115q36 -12 140 -12h69q3 36 3 82v101h-102q-104 0 -140 -12v115q36 -12 140 -12h102v101q0 107 -12 141h115q-12 -30 -12 -141v-101h101q105 0 141 12v-115q-36 12 -141 12h-101v-101q0 -58 2 -82h69q105 0 141 12v-115q-36 12 -141 12z" />
    <glyph glyph-name="twosuperior" unicode="&#xb2;" horiz-adv-x="403" 
d="M157 464q15 -3 63 -3q60 0 97 23v-64q-45 -16 -106 -16q-57 0 -131 12v45q0 37 29 78t63 70.5t63 62.5t29 57q0 55 -57 55q-56 0 -108 -55v79q45 32 109 32q57 0 91 -30.5t34 -83.5q0 -37 -27.5 -75t-60.5 -64.5t-60.5 -58.5t-27.5 -58v-6z" />
    <glyph glyph-name="threesuperior" unicode="&#xb3;" horiz-adv-x="395" 
d="M229 675q106 -33 106 -128q0 -60 -44.5 -102t-111.5 -42q-66 0 -109 29v89q47 -63 108 -63q35 0 56 23t21 61q0 40 -28.5 68t-82.5 28h-19l91 126v10h-48q-59 0 -98 -24v65q46 14 120 14q80 0 123 -13l-84 -134v-7z" />
    <glyph glyph-name="acute" unicode="&#xb4;" horiz-adv-x="189" 
d="M75 701h-65l41 80q27 50 16 80h111q6 -21 -30 -72z" />
    <glyph glyph-name="mu" unicode="&#xb5;" horiz-adv-x="558" 
d="M158 8l6 -208q-65 3 -114 10v820q48 7 114 10v-425q0 -135 107 -135q56 0 81 37.5t25 97.5v415q48 7 114 10v-535q0 -65 22 -105h-129q-4 51 -6 88h-10q-43 -93 -132 -93q-42 0 -66 19z" />
    <glyph glyph-name="paragraph" unicode="&#xb6;" horiz-adv-x="649" 
d="M321 875q37 0 137 -5.5t126 -5.5v-864q-62 3 -112 10v772q-24 8 -64 8q-42 0 -65 -8v-782q-62 3 -112 10v506h-9q-28 -10 -50 -10q-82 0 -121.5 39.5t-40.5 122.5q2 100 81.5 153.5t229.5 53.5z" />
    <glyph glyph-name="periodcentered" unicode="&#xb7;" horiz-adv-x="254" 
d="M184 418v-116q-78 3 -114 10v93q36 7 114 13z" />
    <glyph glyph-name="cedilla" unicode="&#xb8;" horiz-adv-x="231" 
d="M42 -42l17 52q20 4 30 4q49 0 85 -29t36 -77t-34 -78t-83 -30q-35 0 -72 21l6 43q28 -15 56 -15t46 15.5t18 43.5q0 24 -21 40.5t-47 16.5q-24 0 -37 -7z" />
    <glyph glyph-name="onesuperior" unicode="&#xb9;" horiz-adv-x="248" 
d="M168 829v-426q-51 3 -72 7v338h-10q-55 -35 -66 -45v70q72 43 148 56z" />
    <glyph glyph-name="ordmasculine" unicode="&#xba;" horiz-adv-x="212" 
d="M192 531l-1 -37h-91q-40 0 -80 -8v49q29 -4 72 -4h100zM104 785q39 0 59 -32t20 -88q0 -39 -18.5 -68t-54.5 -29q-80 0 -80 120q0 38 19 67.5t55 29.5zM109 600q26 0 26 65q0 88 -30 88q-26 0 -26 -65q0 -88 30 -88z" />
    <glyph glyph-name="guillemotright" unicode="&#xbb;" horiz-adv-x="698" 
d="M668 319l-136 -135q-74 -76 -91 -108l-81 81q32 17 108 91l71 71l-71 72q-79 79 -108 91l81 81q15 -32 91 -108zM418 319l-136 -135q-74 -76 -91 -108l-81 81q32 17 108 91l71 71l-71 72q-79 79 -108 91l81 81q15 -32 91 -108z" />
    <glyph glyph-name="onequarter" unicode="&#xbc;" horiz-adv-x="928" 
d="M610 875l-292 -785q-17 -45 -8 -90h-116l287 783q20 55 13 92h116zM761 164v-111q-40 1 -72 7v102q-116 2 -169 11l169 300q31 7 72 8v-260q51 6 77 20v-64q-34 -10 -77 -13zM689 219v62q0 12 3 40t3 42l-7 2q-7 -10 -13.5 -23.5t-13.5 -29.5t-9 -21l-32 -70q11 -2 69 -2
zM216 403q-51 3 -72 7v338h-7q-54 -31 -69 -45v70q72 43 148 56v-426z" />
    <glyph glyph-name="onehalf" unicode="&#xbd;" horiz-adv-x="902" 
d="M610 875l-292 -785q-17 -45 -8 -90h-116l287 783q20 55 13 92h116zM644 114q15 -3 63 -3q60 0 97 23v-64q-45 -16 -106 -16q-58 0 -131 12v45q0 31 19 63t46 59t54 52t46 49.5t19 44.5q0 55 -57 55q-56 0 -108 -55v79q45 32 109 32q57 0 91 -30.5t34 -83.5q0 -37 -26 -75
t-58 -64.5t-60.5 -58.5t-31.5 -57v-7zM216 829v-426q-51 3 -72 7v338h-7q-54 -31 -69 -45v70q72 43 148 56z" />
    <glyph glyph-name="threequarters" unicode="&#xbe;" horiz-adv-x="1020" 
d="M712 875l-292 -785q-17 -45 -8 -90h-116l287 783q20 55 13 92h116zM853 164v-111q-40 1 -72 7v102q-116 2 -169 11l169 300q31 7 72 8v-260q51 6 77 20v-64q-34 -10 -77 -13zM242 675q106 -33 106 -128q0 -60 -44.5 -102t-111.5 -42q-66 0 -109 29v89q47 -63 108 -63
q35 0 56 23t21 61q0 40 -28.5 68t-82.5 28h-19l91 129v7h-48q-59 0 -98 -24v65q46 14 120 14q80 0 123 -13l-84 -134v-7zM781 219v62q0 12 3 40t3 42l-7 2q-7 -10 -13.5 -23.5t-13.5 -29.5t-9 -21l-32 -70q11 -2 69 -2z" />
    <glyph glyph-name="questiondown" unicode="&#xbf;" horiz-adv-x="504" 
d="M351 538q3 -56 -15.5 -105t-47.5 -83.5t-58 -66t-49.5 -68.5t-20.5 -76q0 -68 33 -103.5t87 -35.5t97.5 34t71.5 92v-168q-65 -44 -170 -44q-116 0 -180 64t-64 161q0 54 21 98.5t50.5 76.5t59 63.5t50.5 76.5t21 100q31 -2 114 -16zM351 810v-116q-78 6 -114 13v93
q36 7 114 10z" />
    <glyph glyph-name="Agrave" unicode="&#xc0;" horiz-adv-x="543" 
d="M543 0h-150q6 52 -9 123q-56 29 -120 27.5t-119 -34.5q-14 -64 -8 -116h-137q33 42 47 104l170 757q47 10 108 14l173 -772q14 -60 45 -103zM348 225h10l-70 353q-2 12 -6 36.5t-10 42.5h-10q-4 -14 -6.5 -25t-4.5 -25.5t-5 -28.5l-71 -353h10q79 36 163 0zM243 936
l-73 88q-36 51 -30 72h111q-11 -30 16 -80l41 -80h-65z" />
    <glyph glyph-name="Aacute" unicode="&#xc1;" horiz-adv-x="543" 
d="M543 0h-150q6 52 -9 123q-56 29 -120 27.5t-119 -34.5q-14 -64 -8 -116h-137q33 42 47 104l170 757q47 10 108 14l173 -772q14 -60 45 -103zM348 225h10l-70 353q-2 12 -6 36.5t-10 42.5h-10q-4 -14 -6.5 -25t-4.5 -25.5t-5 -28.5l-71 -353h10q79 36 163 0zM300 936h-65
l41 80q27 50 16 80h111q6 -21 -30 -72z" />
    <glyph glyph-name="Acircumflex" unicode="&#xc2;" horiz-adv-x="543" 
d="M543 0h-150q6 52 -9 123q-56 29 -120 27.5t-119 -34.5q-14 -64 -8 -116h-137q33 42 47 104l170 757q47 10 108 14l173 -772q14 -60 45 -103zM348 225h10l-70 353q-2 12 -6 36.5t-10 42.5h-10q-4 -14 -6.5 -25t-4.5 -25.5t-5 -28.5l-71 -353h10q79 36 163 0zM222 936h-65
l41 80q27 50 16 80h115q-11 -30 16 -80l41 -80h-65l-50 69z" />
    <glyph glyph-name="Atilde" unicode="&#xc3;" horiz-adv-x="543" 
d="M543 0h-150q6 52 -9 123q-56 29 -120 27.5t-119 -34.5q-14 -64 -8 -116h-137q33 42 47 104l170 757q47 10 108 14l173 -772q14 -60 45 -103zM348 225h10l-70 353q-2 12 -6 36.5t-10 42.5h-10q-4 -14 -6.5 -25t-4.5 -25.5t-5 -28.5l-71 -353h10q79 36 163 0zM175 932h-54
q13 113 89 113q22 0 65 -11t64 -11q24 0 29 29h54q-3 -44 -26 -80t-63 -36q-22 0 -64 11t-63 11q-24 0 -31 -26z" />
    <glyph glyph-name="Adieresis" unicode="&#xc4;" horiz-adv-x="543" 
d="M543 0h-150q6 52 -9 123q-56 29 -120 27.5t-119 -34.5q-14 -64 -8 -116h-137q33 42 47 104l170 757q47 10 108 14l173 -772q14 -60 45 -103zM348 225h10l-70 353q-2 12 -6 36.5t-10 42.5h-10q-4 -14 -6.5 -25t-4.5 -25.5t-5 -28.5l-71 -353h10q79 36 163 0zM241 1052
v-116q-78 3 -114 10v93q36 7 114 13zM415 1052v-116q-78 3 -114 10v93q36 7 114 13z" />
    <glyph glyph-name="Aring" unicode="&#xc5;" horiz-adv-x="543" 
d="M543 0h-150q6 52 -9 123q-56 29 -120 27.5t-119 -34.5q-14 -64 -8 -116h-137q33 42 47 104l165 734q-30 27 -30 67q0 37 26 63t63 26t63 -26t26 -63q0 -38 -28 -64l166 -738q14 -60 45 -103zM348 225h10l-70 353q-3 17 -7 59.5t-9 59.5h-10q-5 -17 -9 -59.5t-7 -59.5
l-71 -353h10q79 36 163 0zM271 868q16 0 27 11t11 26q0 16 -11 27t-27 11t-27 -11t-11 -27q0 -15 11 -26t27 -11z" />
    <glyph glyph-name="AE" unicode="&#xc6;" horiz-adv-x="681" 
d="M448 0q-69 0 -123 10v140q-95 -2 -170 -34q-14 -64 -8 -116h-137q33 42 47 104l170 730q152 41 252 41q94 0 155 -19v-108q-48 42 -148 42q-32 0 -48 -8v-221h51q96 0 147 48v-171q-58 38 -155 38h-42v-386q11 -2 44 -2q96 0 152 36v-102q-75 -22 -187 -22zM180 210h13
q50 27 132 29v528l-25 -4q-15 -50 -44 -185z" />
    <glyph glyph-name="Ccedilla" unicode="&#xc7;" horiz-adv-x="460" 
d="M344 -5q60 -28 60 -87q0 -48 -34 -78t-83 -30q-35 0 -72 21l6 43q28 -15 56 -15t46 15.5t18 43.5q0 24 -21 40.5t-47 16.5q-24 0 -37 -7l17 52h1q-224 61 -224 463q0 182 74 292t206 110q30 0 51.5 -2.5t30 -5t37.5 -11.5v-108q-30 22 -54.5 32t-63.5 10
q-78 0 -123.5 -86t-45.5 -231q0 -94 13.5 -165.5t34.5 -112t49 -66t53 -34t51 -8.5q39 0 87 37v-102q-48 -21 -86 -22v-5z" />
    <glyph glyph-name="Egrave" unicode="&#xc8;" horiz-adv-x="476" 
d="M430 124v-102q-75 -22 -187 -22q-99 0 -173 10v847q88 18 204 18q94 0 155 -19v-108q-48 42 -148 42q-62 0 -98 -8v-221h101q96 0 147 48v-171q-58 38 -155 38h-92v-383q28 -5 94 -5q96 0 152 36zM209 936l-73 88q-36 51 -30 72h111q-11 -30 16 -80l41 -80h-65z" />
    <glyph glyph-name="Eacute" unicode="&#xc9;" horiz-adv-x="476" 
d="M430 124v-102q-75 -22 -187 -22q-99 0 -173 10v847q88 18 204 18q94 0 155 -19v-108q-48 42 -148 42q-62 0 -98 -8v-221h101q96 0 147 48v-171q-58 38 -155 38h-92v-383q28 -5 94 -5q96 0 152 36zM266 936h-65l41 80q27 50 16 80h111q6 -21 -30 -72z" />
    <glyph glyph-name="Ecircumflex" unicode="&#xca;" horiz-adv-x="476" 
d="M430 124v-102q-75 -22 -187 -22q-99 0 -173 10v847q88 18 204 18q94 0 155 -19v-108q-48 42 -148 42q-62 0 -98 -8v-221h101q96 0 147 48v-171q-58 38 -155 38h-92v-383q28 -5 94 -5q96 0 152 36zM198 936h-65l41 80q27 50 16 80h115q-11 -30 16 -80l41 -80h-65l-50 69z
" />
    <glyph glyph-name="Edieresis" unicode="&#xcb;" horiz-adv-x="476" 
d="M430 124v-102q-75 -22 -187 -22q-99 0 -173 10v847q88 18 204 18q94 0 155 -19v-108q-48 42 -148 42q-62 0 -98 -8v-221h101q96 0 147 48v-171q-58 38 -155 38h-92v-383q28 -5 94 -5q96 0 152 36zM218 1052v-116q-78 3 -114 10v93q36 7 114 13zM392 1052v-116
q-78 3 -114 10v93q36 7 114 13z" />
    <glyph glyph-name="Igrave" unicode="&#xcc;" horiz-adv-x="252" 
d="M182 875v-875q-62 3 -112 10v851q45 9 112 14zM97 936l-73 88q-36 51 -30 72h111q-11 -30 16 -80l41 -80h-65z" />
    <glyph glyph-name="Iacute" unicode="&#xcd;" horiz-adv-x="252" 
d="M182 875v-875q-62 3 -112 10v851q45 9 112 14zM154 936h-65l41 80q27 50 16 80h111q6 -21 -30 -72z" />
    <glyph glyph-name="Icircumflex" unicode="&#xce;" horiz-adv-x="252" 
d="M182 875v-875q-62 3 -112 10v851q45 9 112 14zM76 936h-65l41 80q27 50 16 80h115q-11 -30 16 -80l41 -80h-65l-50 69z" />
    <glyph glyph-name="Idieresis" unicode="&#xcf;" horiz-adv-x="252" 
d="M182 875v-875q-62 3 -112 10v851q45 9 112 14zM96 1052v-116q-78 3 -114 10v93q36 7 114 13zM270 1052v-116q-78 3 -114 10v93q36 7 114 13z" />
    <glyph glyph-name="Eth" unicode="&#xd0;" horiz-adv-x="537" 
d="M506 526q3 -111 -12 -205t-48 -166.5t-90 -113.5t-132 -41q-84 0 -154 19v517q-16 0 -31.5 -3t-32 -8t-24.5 -7v92q33 -9 88 -9v256q88 18 175 18q131 0 194 -82t67 -267zM269 601v-65h-88v-450h53q73 1 114.5 119.5t39.5 320.5q-5 263 -140 263q-29 0 -67 -8v-180h88z
" />
    <glyph glyph-name="Ntilde" unicode="&#xd1;" horiz-adv-x="584" 
d="M395 568h7v292q53 11 112 15v-875q-34 0 -112 9v390q-25 48 -108.5 128.5t-96.5 95.5h-8v-623q-41 0 -101 6v689q0 96 -38 147l139 33v-39q5 -31 18 -60t37.5 -57.5t43.5 -48.5t54.5 -52.5t52.5 -49.5zM200 932h-54q13 113 89 113q22 0 65 -11t64 -11q24 0 29 29h54
q-3 -44 -26 -80t-63 -36q-22 0 -64 11t-63 11q-24 0 -31 -26z" />
    <glyph glyph-name="Ograve" unicode="&#xd2;" horiz-adv-x="868" 
d="M405 936l-73 88q-36 51 -30 72h111q-11 -30 16 -80l41 -80h-65zM434 80q129 0 212 103.5t83 254.5q0 153 -80.5 255.5t-214.5 102.5t-214.5 -102.5t-80.5 -255.5q0 -151 83 -254.5t212 -103.5zM434 882q181 0 297.5 -128.5t116.5 -315.5t-116.5 -315.5t-297.5 -128.5
t-297.5 128.5t-116.5 315.5t116.5 315.5t297.5 128.5z" />
    <glyph glyph-name="Oacute" unicode="&#xd3;" horiz-adv-x="868" 
d="M462 936h-65l41 80q27 50 16 80h111q6 -21 -30 -72zM434 80q129 0 212 103.5t83 254.5q0 153 -80.5 255.5t-214.5 102.5t-214.5 -102.5t-80.5 -255.5q0 -151 83 -254.5t212 -103.5zM434 882q181 0 297.5 -128.5t116.5 -315.5t-116.5 -315.5t-297.5 -128.5t-297.5 128.5
t-116.5 315.5t116.5 315.5t297.5 128.5z" />
    <glyph glyph-name="Ocircumflex" unicode="&#xd4;" horiz-adv-x="868" 
d="M384 936h-65l41 80q27 50 16 80h115q-11 -30 16 -80l41 -80h-65l-50 69zM434 80q129 0 212 103.5t83 254.5q0 153 -80.5 255.5t-214.5 102.5t-214.5 -102.5t-80.5 -255.5q0 -151 83 -254.5t212 -103.5zM434 882q181 0 297.5 -128.5t116.5 -315.5t-116.5 -315.5
t-297.5 -128.5t-297.5 128.5t-116.5 315.5t116.5 315.5t297.5 128.5z" />
    <glyph glyph-name="Otilde" unicode="&#xd5;" horiz-adv-x="868" 
d="M337 932h-54q13 113 89 113q22 0 65 -11t64 -11q24 0 29 29h54q-3 -44 -26 -80t-63 -36q-22 0 -64 11t-63 11q-24 0 -31 -26zM434 80q129 0 212 103.5t83 254.5q0 153 -80.5 255.5t-214.5 102.5t-214.5 -102.5t-80.5 -255.5q0 -151 83 -254.5t212 -103.5zM434 882
q181 0 297.5 -128.5t116.5 -315.5t-116.5 -315.5t-297.5 -128.5t-297.5 128.5t-116.5 315.5t116.5 315.5t297.5 128.5z" />
    <glyph glyph-name="Odieresis" unicode="&#xd6;" horiz-adv-x="868" 
d="M404 1052v-116q-78 3 -114 10v93q36 7 114 13zM578 1052v-116q-78 3 -114 10v93q36 7 114 13zM434 80q129 0 212 103.5t83 254.5q0 153 -80.5 255.5t-214.5 102.5t-214.5 -102.5t-80.5 -255.5q0 -151 83 -254.5t212 -103.5zM434 882q181 0 297.5 -128.5t116.5 -315.5
t-116.5 -315.5t-297.5 -128.5t-297.5 128.5t-116.5 315.5t116.5 315.5t297.5 128.5z" />
    <glyph glyph-name="multiply" unicode="&#xd7;" horiz-adv-x="627" 
d="M313 255l-72 -72q-71 -71 -90 -107l-81 81q36 19 107 90l72 72l-71 72q-76 76 -108 91l81 81q12 -29 91 -108l71 -71l72 71q74 76 91 108l81 -81q-32 -17 -108 -91l-71 -72l71 -71q82 -80 108 -91l-81 -81q-14 29 -91 108z" />
    <glyph glyph-name="Oslash" unicode="&#xd8;" horiz-adv-x="868" 
d="M579 856q123 -46 196 -159.5t73 -258.5q0 -187 -116.5 -315.5t-297.5 -128.5q-41 0 -84 8q-3 -13 -3.5 -27.5t0 -31.5t0.5 -25l-89 24q16 28 30 78q-123 46 -195.5 159.5t-72.5 258.5q0 187 116.5 315.5t297.5 128.5q40 0 82 -8l1 1q3 12 3.5 26t0 31t-0.5 25l89 -24
q-16 -27 -30 -77zM434 80q131 0 213 102.5t82 255.5q0 107 -41.5 194.5t-116.5 136.5h-15l-183 -683q29 -6 61 -6zM299 107h12l183 683q-28 6 -60 6q-134 0 -214.5 -102.5t-80.5 -255.5q0 -111 41.5 -197.5t118.5 -133.5z" />
    <glyph glyph-name="Ugrave" unicode="&#xd9;" horiz-adv-x="569" 
d="M164 875v-547q0 -142 26 -194t86 -54q111 0 111 131l-1 650q45 9 112 14l-1 -770q0 -65 22 -105h-125q-4 48 -6 88h-9q-43 -93 -133 -93q-106 6 -151 84.5t-45 248.5v533q44 9 114 14zM256 936l-73 88q-36 51 -30 72h111q-11 -30 16 -80l41 -80h-65z" />
    <glyph glyph-name="Uacute" unicode="&#xda;" horiz-adv-x="569" 
d="M164 875v-547q0 -142 26 -194t86 -54q111 0 111 131l-1 650q45 9 112 14l-1 -770q0 -65 22 -105h-125q-4 48 -6 88h-9q-43 -93 -133 -93q-106 6 -151 84.5t-45 248.5v533q44 9 114 14zM313 936h-65l41 80q27 50 16 80h111q6 -21 -30 -72z" />
    <glyph glyph-name="Ucircumflex" unicode="&#xdb;" horiz-adv-x="569" 
d="M164 875v-547q0 -142 26 -194t86 -54q111 0 111 131l-1 650q45 9 112 14l-1 -770q0 -65 22 -105h-125q-4 48 -6 88h-9q-43 -93 -133 -93q-106 6 -151 84.5t-45 248.5v533q44 9 114 14zM235 936h-65l41 80q27 50 16 80h115q-11 -30 16 -80l41 -80h-65l-50 69z" />
    <glyph glyph-name="Udieresis" unicode="&#xdc;" horiz-adv-x="569" 
d="M164 875v-547q0 -142 26 -194t86 -54q111 0 111 131l-1 650q45 9 112 14l-1 -770q0 -65 22 -105h-125q-4 48 -6 88h-9q-43 -93 -133 -93q-106 6 -151 84.5t-45 248.5v533q44 9 114 14zM254 1052v-116q-78 3 -114 10v93q36 7 114 13zM428 1052v-116q-78 3 -114 10v93
q36 7 114 13z" />
    <glyph glyph-name="Yacute" unicode="&#xdd;" horiz-adv-x="486" 
d="M271 936h-65l41 80q27 50 16 80h111q6 -21 -30 -72zM250 573h11l59 187q13 43 10 93h135q-19 -36 -33 -84l-232 -769q-89 6 -116 12l156 495q-73 0 -121 52q-61 66 -82 203q-11 79 -13 91h121q-11 -45 0 -100q20 -112 56 -153q19 -23 49 -27z" />
    <glyph glyph-name="Thorn" unicode="&#xde;" horiz-adv-x="539" 
d="M518 463q3 -94 -59.5 -143t-177.5 -49l-79 10v-281q-62 3 -112 10v851q45 9 112 14v-239q58 4 92 4q103 0 161.5 -45.5t62.5 -131.5zM202 356h100q49 0 75.5 26.5t26.5 74.5q0 97 -104 97q-60 0 -98 -8v-190z" />
    <glyph glyph-name="germandbls" unicode="&#xdf;" horiz-adv-x="638" 
d="M414 544q55 -17 95 -49t60.5 -71t29.5 -76t9 -73q0 -122 -64 -198.5t-173 -76.5q-48 0 -95.5 26t-72.5 78h-10v-104q-65 5 -111 14v721q2 92 -22 135h122q5 -16 9 -88h12q24 53 67.5 73t106.5 20q106 0 186 -24l-149 -301v-6zM483 266q0 83 -51.5 146.5t-146.5 63.5h-29
l151 303v6q-26 1 -67 1q-70 0 -108.5 -32t-38.5 -95v-447q18 -56 61 -91t95 -35q60 0 97 48t37 132z" />
    <glyph glyph-name="agrave" unicode="&#xe0;" horiz-adv-x="498" 
d="M431 477v-372q-1 -63 22 -105h-125q-4 51 -6 88h-7q-32 -93 -132 -93q-69 0 -113 53t-44 133q-5 95 58.5 163t174.5 68q30 0 61 -7v72q0 49 -20.5 70t-73.5 21q-92 0 -144 -47v112q75 22 177 22q82 0 127 -47.5t45 -130.5zM320 325h-61q-54 0 -86.5 -37.5t-32.5 -106.5
q0 -47 22.5 -74t57.5 -27q100 0 100 131v114zM213 701l-73 88q-36 51 -30 72h111q-11 -30 16 -80l41 -80h-65z" />
    <glyph glyph-name="aacute" unicode="&#xe1;" horiz-adv-x="498" 
d="M431 477v-372q-1 -63 22 -105h-125q-4 51 -6 88h-7q-32 -93 -132 -93q-69 0 -113 53t-44 133q-5 95 58.5 163t174.5 68q30 0 61 -7v72q0 49 -20.5 70t-73.5 21q-92 0 -144 -47v112q75 22 177 22q82 0 127 -47.5t45 -130.5zM320 325h-61q-54 0 -86.5 -37.5t-32.5 -106.5
q0 -47 22.5 -74t57.5 -27q100 0 100 131v114zM270 701h-65l41 80q27 50 16 80h111q6 -21 -30 -72z" />
    <glyph glyph-name="acircumflex" unicode="&#xe2;" horiz-adv-x="498" 
d="M431 477v-372q-1 -63 22 -105h-125q-4 51 -6 88h-7q-32 -93 -132 -93q-69 0 -113 53t-44 133q-5 95 58.5 163t174.5 68q30 0 61 -7v72q0 49 -20.5 70t-73.5 21q-92 0 -144 -47v112q75 22 177 22q82 0 127 -47.5t45 -130.5zM320 325h-61q-54 0 -86.5 -37.5t-32.5 -106.5
q0 -47 22.5 -74t57.5 -27q100 0 100 131v114zM192 701h-65l41 80q27 50 16 80h115q-11 -30 16 -80l41 -80h-65l-50 69z" />
    <glyph glyph-name="atilde" unicode="&#xe3;" horiz-adv-x="498" 
d="M431 477v-372q-1 -63 22 -105h-125q-4 51 -6 88h-7q-32 -93 -132 -93q-69 0 -113 53t-44 133q-5 95 58.5 163t174.5 68q30 0 61 -7v72q0 49 -20.5 70t-73.5 21q-92 0 -144 -47v112q75 22 177 22q82 0 127 -47.5t45 -130.5zM320 325h-61q-54 0 -86.5 -37.5t-32.5 -106.5
q0 -47 22.5 -74t57.5 -27q100 0 100 131v114zM145 697h-54q13 113 89 113q22 0 65 -11t64 -11q24 0 29 29h54q-3 -44 -26 -80t-63 -36q-22 0 -64 11t-63 11q-24 0 -31 -26z" />
    <glyph glyph-name="adieresis" unicode="&#xe4;" horiz-adv-x="498" 
d="M431 477v-372q-1 -63 22 -105h-125q-4 51 -6 88h-7q-32 -93 -132 -93q-69 0 -113 53t-44 133q-5 95 58.5 163t174.5 68q30 0 61 -7v72q0 49 -20.5 70t-73.5 21q-92 0 -144 -47v112q75 22 177 22q82 0 127 -47.5t45 -130.5zM320 325h-61q-54 0 -86.5 -37.5t-32.5 -106.5
q0 -47 22.5 -74t57.5 -27q100 0 100 131v114zM211 817v-116q-78 3 -114 10v93q36 7 114 13zM385 817v-116q-78 3 -114 10v93q36 7 114 13z" />
    <glyph glyph-name="aring" unicode="&#xe5;" horiz-adv-x="498" 
d="M431 477v-372q-1 -63 22 -105h-125q-4 51 -6 88h-7q-32 -93 -132 -93q-69 0 -113 53t-44 133q-5 95 58.5 163t174.5 68q30 0 61 -7v72q0 49 -20.5 70t-73.5 21q-92 0 -144 -47v112q75 22 177 22q82 0 127 -47.5t45 -130.5zM320 325h-61q-54 0 -86.5 -37.5t-32.5 -106.5
q0 -47 22.5 -74t57.5 -27q100 0 100 131v114zM241 701q-37 0 -63 26t-26 63t26 63t63 26t63 -26t26 -63t-26 -63t-63 -26zM241 753q16 0 27 11t11 26q0 16 -11 27t-27 11t-27 -11t-11 -27q0 -15 11 -26t27 -11z" />
    <glyph glyph-name="ae" unicode="&#xe6;" horiz-adv-x="759" 
d="M689 124v-102q-52 -22 -107 -22q-134 0 -204 106h-12q-18 -55 -58.5 -83t-92.5 -28q-84 0 -136.5 51.5t-52.5 134.5q-5 91 58.5 161t174.5 70q30 0 61 -7v72q0 49 -20.5 70t-73.5 21q-92 0 -144 -47v112q75 22 167 22q44 0 83.5 -17.5t61.5 -45.5q60 63 155 63
q85 0 134.5 -55.5t49.5 -130.5q5 -91 -56.5 -141t-176.5 -50q-40 0 -64 5q25 -196 156 -196q49 0 97 37zM320 325h-61q-54 0 -87.5 -36t-33.5 -98q0 -47 24 -75.5t63 -28.5q43 0 69 28t26 86v124zM539 570q-48 0 -78 -54t-30 -151h69q61 0 90 19.5t29 84.5q0 47 -22.5 74
t-57.5 27z" />
    <glyph glyph-name="ccedilla" unicode="&#xe7;" horiz-adv-x="430" 
d="M336 -8q61 -25 61 -84q0 -48 -34 -78t-83 -30q-35 0 -72 21l6 43q28 -15 56 -15t46 15.5t18 43.5q0 24 -21 40.5t-47 16.5q-24 0 -37 -7l16 49q-210 46 -210 356q0 132 68.5 212t191.5 80h18.5t17 -1t13.5 -1t13 -1.5t10.5 -2t11.5 -3t10.5 -3t12.5 -3.5t13 -4v-108
q-30 22 -55 32t-64 10q-69 0 -109 -56t-40 -151q0 -67 12.5 -118.5t31 -80.5t44 -47t47.5 -24t46 -6q39 0 87 37v-102q-46 -20 -79 -22v-8z" />
    <glyph glyph-name="egrave" unicode="&#xe8;" horiz-adv-x="475" 
d="M405 124v-102q-52 -22 -97 -22q-43 0 -80.5 10t-74 35.5t-62 65t-41 104t-15.5 148.5q0 132 60 212t170 80q85 0 134.5 -55.5t49.5 -130.5q5 -91 -56.5 -141t-176.5 -50q-40 0 -64 5q7 -59 26 -100t44 -60.5t48 -27.5t48 -8q39 0 87 37zM255 570q-48 0 -78 -54t-30 -151
h69q61 0 90 19.5t29 84.5q0 47 -22.5 74t-57.5 27zM209 701l-73 88q-36 51 -30 72h111q-11 -30 16 -80l41 -80h-65z" />
    <glyph glyph-name="eacute" unicode="&#xe9;" horiz-adv-x="475" 
d="M405 124v-102q-52 -22 -97 -22q-43 0 -80.5 10t-74 35.5t-62 65t-41 104t-15.5 148.5q0 132 60 212t170 80q85 0 134.5 -55.5t49.5 -130.5q5 -91 -56.5 -141t-176.5 -50q-40 0 -64 5q7 -59 26 -100t44 -60.5t48 -27.5t48 -8q39 0 87 37zM255 570q-48 0 -78 -54t-30 -151
h69q61 0 90 19.5t29 84.5q0 47 -22.5 74t-57.5 27zM266 701h-65l41 80q27 50 16 80h111q6 -21 -30 -72z" />
    <glyph glyph-name="ecircumflex" unicode="&#xea;" horiz-adv-x="475" 
d="M405 124v-102q-52 -22 -97 -22q-43 0 -80.5 10t-74 35.5t-62 65t-41 104t-15.5 148.5q0 132 60 212t170 80q85 0 134.5 -55.5t49.5 -130.5q5 -91 -56.5 -141t-176.5 -50q-40 0 -64 5q7 -59 26 -100t44 -60.5t48 -27.5t48 -8q39 0 87 37zM255 570q-48 0 -78 -54t-30 -151
h69q61 0 90 19.5t29 84.5q0 47 -22.5 74t-57.5 27zM198 701h-65l41 80q27 50 16 80h115q-11 -30 16 -80l41 -80h-65l-50 69z" />
    <glyph glyph-name="edieresis" unicode="&#xeb;" horiz-adv-x="475" 
d="M405 124v-102q-52 -22 -97 -22q-43 0 -80.5 10t-74 35.5t-62 65t-41 104t-15.5 148.5q0 132 60 212t170 80q85 0 134.5 -55.5t49.5 -130.5q5 -91 -56.5 -141t-176.5 -50q-40 0 -64 5q7 -59 26 -100t44 -60.5t48 -27.5t48 -8q39 0 87 37zM255 570q-48 0 -78 -54t-30 -151
h69q61 0 90 19.5t29 84.5q0 47 -22.5 74t-57.5 27zM217 817v-116q-78 3 -114 10v93q36 7 114 13zM391 817v-116q-78 3 -114 10v93q36 7 114 13z" />
    <glyph glyph-name="igrave" unicode="&#xec;" horiz-adv-x="264" 
d="M189 640v-640q-66 3 -114 10v616q44 9 114 14zM103 701l-73 88q-36 51 -30 72h111q-11 -30 16 -80l41 -80h-65z" />
    <glyph glyph-name="iacute" unicode="&#xed;" horiz-adv-x="264" 
d="M189 640v-640q-66 3 -114 10v616q44 9 114 14zM160 701h-65l41 80q27 50 16 80h111q6 -21 -30 -72z" />
    <glyph glyph-name="icircumflex" unicode="&#xee;" horiz-adv-x="264" 
d="M189 640v-640q-66 3 -114 10v616q44 9 114 14zM82 701h-65l41 80q27 50 16 80h115q-11 -30 16 -80l41 -80h-65l-50 69z" />
    <glyph glyph-name="idieresis" unicode="&#xef;" horiz-adv-x="264" 
d="M189 640v-640q-66 3 -114 10v616q44 9 114 14zM102 817v-116q-78 3 -114 10v93q36 7 114 13zM276 817v-116q-78 3 -114 10v93q36 7 114 13z" />
    <glyph glyph-name="eth" unicode="&#xf0;" horiz-adv-x="553" 
d="M437 725q71 -136 71 -322q0 -41 -3 -78.5t-11 -86.5t-25.5 -88.5t-43.5 -75t-67.5 -55t-94.5 -19.5q-75 0 -126 43.5t-71.5 106t-20.5 137.5q0 54 11.5 101.5t35 86.5t64.5 61.5t95 22.5q33 0 68 -20.5t57 -59.5h13q-10 123 -41 199l-111 -74v98l81 26v7q-40 55 -96 55
q-62 0 -118 -42v108q57 19 119 19q109 0 182 -98l108 77v-99l-76 -22v-8zM263 87q39 0 67 32.5t40 82t16.5 86.5t4.5 65q-13 55 -44.5 80.5t-63.5 25.5q-60 0 -89 -40t-29 -132q0 -200 98 -200z" />
    <glyph glyph-name="ntilde" unicode="&#xf1;" horiz-adv-x="568" 
d="M187 697h-54q13 113 89 113q22 0 65 -11t64 -11q24 0 29 29h54q-3 -44 -26 -80t-63 -36q-22 0 -64 11t-63 11q-24 0 -31 -26zM191 562q41 93 131 93q85 0 135.5 -60.5t50.5 -159.5v-435q-66 3 -114 10v425q0 135 -107 135q-56 0 -81 -37.5t-25 -97.5v-435q-66 3 -114 10
v515q2 73 -22 115h119q14 -39 16 -78h11z" />
    <glyph glyph-name="ograve" unicode="&#xf2;" 
d="M254 655q119 0 179 -97t60 -266q0 -54 -13.5 -104.5t-39.5 -93t-70 -68.5t-99 -26q-241 0 -241 363q0 73 22.5 137.5t75.5 109.5t126 45zM268 82q31 0 53.5 22t33.5 56.5t16 67.5t5 64q0 53 -6 100.5t-19.5 89.5t-38 66.5t-57.5 24.5q-31 0 -53.5 -22t-33.5 -56.5
t-16 -67.5t-5 -64q0 -53 6 -100.5t19.5 -89.5t38 -66.5t57.5 -24.5zM233 701l-73 88q-36 51 -30 72h111q-11 -30 16 -80l41 -80h-65z" />
    <glyph glyph-name="oacute" unicode="&#xf3;" 
d="M254 655q119 0 179 -97t60 -266q0 -54 -13.5 -104.5t-39.5 -93t-70 -68.5t-99 -26q-241 0 -241 363q0 73 22.5 137.5t75.5 109.5t126 45zM268 82q31 0 53.5 22t33.5 56.5t16 67.5t5 64q0 53 -6 100.5t-19.5 89.5t-38 66.5t-57.5 24.5q-31 0 -53.5 -22t-33.5 -56.5
t-16 -67.5t-5 -64q0 -53 6 -100.5t19.5 -89.5t38 -66.5t57.5 -24.5zM290 701h-65l41 80q27 50 16 80h111q6 -21 -30 -72z" />
    <glyph glyph-name="ocircumflex" unicode="&#xf4;" 
d="M254 655q119 0 179 -97t60 -266q0 -54 -13.5 -104.5t-39.5 -93t-70 -68.5t-99 -26q-241 0 -241 363q0 73 22.5 137.5t75.5 109.5t126 45zM268 82q31 0 53.5 22t33.5 56.5t16 67.5t5 64q0 53 -6 100.5t-19.5 89.5t-38 66.5t-57.5 24.5q-31 0 -53.5 -22t-33.5 -56.5
t-16 -67.5t-5 -64q0 -53 6 -100.5t19.5 -89.5t38 -66.5t57.5 -24.5zM212 701h-65l41 80q27 50 16 80h115q-11 -30 16 -80l41 -80h-65l-50 69z" />
    <glyph glyph-name="otilde" unicode="&#xf5;" 
d="M254 655q119 0 179 -97t60 -266q0 -54 -13.5 -104.5t-39.5 -93t-70 -68.5t-99 -26q-241 0 -241 363q0 73 22.5 137.5t75.5 109.5t126 45zM268 82q31 0 53.5 22t33.5 56.5t16 67.5t5 64q0 53 -6 100.5t-19.5 89.5t-38 66.5t-57.5 24.5q-31 0 -53.5 -22t-33.5 -56.5
t-16 -67.5t-5 -64q0 -53 6 -100.5t19.5 -89.5t38 -66.5t57.5 -24.5zM165 697h-54q13 113 89 113q22 0 65 -11t64 -11q24 0 29 29h54q-3 -44 -26 -80t-63 -36q-22 0 -64 11t-63 11q-24 0 -31 -26z" />
    <glyph glyph-name="odieresis" unicode="&#xf6;" 
d="M254 655q119 0 179 -97t60 -266q0 -54 -13.5 -104.5t-39.5 -93t-70 -68.5t-99 -26q-241 0 -241 363q0 73 22.5 137.5t75.5 109.5t126 45zM268 82q31 0 53.5 22t33.5 56.5t16 67.5t5 64q0 53 -6 100.5t-19.5 89.5t-38 66.5t-57.5 24.5q-31 0 -53.5 -22t-33.5 -56.5
t-16 -67.5t-5 -64q0 -53 6 -100.5t19.5 -89.5t38 -66.5t57.5 -24.5zM231 817v-116q-78 3 -114 10v93q36 7 114 13zM405 817v-116q-78 3 -114 10v93q36 7 114 13z" />
    <glyph glyph-name="divide" unicode="&#xf7;" horiz-adv-x="595" 
d="M384 274h-174q-104 0 -140 -12v115q36 -12 140 -12h174q105 0 141 12v-115q-36 12 -141 12zM354 575v-116q-78 3 -114 10v93q36 7 114 13zM354 179v-116q-78 3 -114 10v93q36 7 114 13z" />
    <glyph glyph-name="oslash" unicode="&#xf8;" 
d="M254 650q34 0 64 -9q4 14 4.5 29.5t0 32.5t-0.5 25l89 -24q-16 -27 -34 -91q116 -81 116 -321q0 -54 -13.5 -104.5t-39.5 -93t-70 -68.5t-99 -26q-27 0 -57 5q-3 -13 -3.5 -27.5t0 -31.5t0.5 -25l-89 24q16 28 31 84q-123 73 -123 334q0 54 13.5 104t40 91.5t70.5 66.5
t100 25zM172 144h12l111 413q-19 11 -40 11q-31 0 -53.5 -21t-33.5 -55t-16 -66t-5 -63q0 -104 25 -219zM268 82q31 0 53.5 22t33.5 56.5t16 67.5t5 64q0 77 -19 201h-12v-1l-109 -404q15 -6 32 -6z" />
    <glyph glyph-name="ugrave" unicode="&#xf9;" horiz-adv-x="558" 
d="M491 650v-545q0 -65 22 -105h-129q-4 51 -6 88h-10q-43 -93 -132 -93q-85 0 -135.5 60.5t-50.5 159.5v425q48 7 114 10v-435q0 -135 107 -135q56 0 81 37.5t25 97.5v425q48 7 114 10zM245 701l-73 88q-36 51 -30 72h111q-11 -30 16 -80l41 -80h-65z" />
    <glyph glyph-name="uacute" unicode="&#xfa;" horiz-adv-x="558" 
d="M491 650v-545q0 -65 22 -105h-129q-4 51 -6 88h-10q-43 -93 -132 -93q-85 0 -135.5 60.5t-50.5 159.5v425q48 7 114 10v-435q0 -135 107 -135q56 0 81 37.5t25 97.5v425q48 7 114 10zM302 701h-65l41 80q27 50 16 80h111q6 -21 -30 -72z" />
    <glyph glyph-name="ucircumflex" unicode="&#xfb;" horiz-adv-x="558" 
d="M491 650v-545q0 -65 22 -105h-129q-4 51 -6 88h-10q-43 -93 -132 -93q-85 0 -135.5 60.5t-50.5 159.5v425q48 7 114 10v-435q0 -135 107 -135q56 0 81 37.5t25 97.5v425q48 7 114 10zM224 701h-65l41 80q27 50 16 80h115q-11 -30 16 -80l41 -80h-65l-50 69z" />
    <glyph glyph-name="udieresis" unicode="&#xfc;" horiz-adv-x="558" 
d="M491 650v-545q0 -65 22 -105h-129q-4 51 -6 88h-10q-43 -93 -132 -93q-85 0 -135.5 60.5t-50.5 159.5v425q48 7 114 10v-435q0 -135 107 -135q56 0 81 37.5t25 97.5v425q48 7 114 10zM418 817v-116q-78 3 -114 10v93q36 7 114 13zM244 817v-116q-78 3 -114 10v93
q36 7 114 13z" />
    <glyph glyph-name="yacute" unicode="&#xfd;" horiz-adv-x="474" 
d="M124 620l97 -373q4 -17 6.5 -54.5t7.5 -54.5h10q5 17 7.5 54.5t6.5 54.5l93 373v20h132q-37 -74 -62 -159l-154 -567q-22 -114 -145 -114q-44 0 -106 16v108q54 -34 92 -34q30 0 43.5 23.5t26.5 100.5l-126 463q-29 99 -63 163h134v-20zM265 701h-65l41 80q27 50 16 80
h111q6 -21 -30 -72z" />
    <glyph glyph-name="thorn" unicode="&#xfe;" horiz-adv-x="522" 
d="M182 559h10q40 96 132 96q64 0 113.5 -73t49.5 -205v-95q-3 -128 -68 -205t-175 -77q-22 0 -62 6v-206q-62 3 -112 10v1051q45 9 112 14v-316zM374 282v95q0 96 -28 143.5t-73 47.5q-87 0 -91 -149v-310q30 -23 68 -23q57 0 89.5 52t34.5 144z" />
    <glyph glyph-name="ydieresis" unicode="&#xff;" horiz-adv-x="474" 
d="M124 620l97 -373q4 -17 6.5 -54.5t7.5 -54.5h10q5 17 7.5 54.5t6.5 54.5l93 373v20h132q-37 -74 -62 -159l-154 -567q-22 -114 -145 -114q-44 0 -106 16v108q54 -34 92 -34q30 0 43.5 23.5t26.5 100.5l-126 463q-29 99 -63 163h134v-20zM207 817v-116q-78 3 -114 10v93
q36 7 114 13zM381 817v-116q-78 3 -114 10v93q36 7 114 13z" />
    <glyph glyph-name="Amacron" unicode="&#x100;" horiz-adv-x="543" 
d="M543 0h-150q6 52 -9 123q-56 29 -120 27.5t-119 -34.5q-14 -64 -8 -116h-137q33 42 47 104l170 757q47 10 108 14l173 -772q14 -60 45 -103zM348 225h10l-70 353q-2 12 -6 36.5t-10 42.5h-10q-4 -14 -6.5 -25t-4.5 -25.5t-5 -28.5l-71 -353h10q79 36 163 0zM415 1001v-65
h-207q-17 0 -46.5 -8.5t-33.5 -9.5v92q33 -9 72 -9h215z" />
    <glyph glyph-name="amacron" unicode="&#x101;" horiz-adv-x="498" 
d="M431 477v-372q-1 -63 22 -105h-125q-4 51 -6 88h-7q-32 -93 -132 -93q-69 0 -113 53t-44 133q-5 95 58.5 163t174.5 68q30 0 61 -7v72q0 49 -20.5 70t-73.5 21q-92 0 -144 -47v112q75 22 177 22q82 0 127 -47.5t45 -130.5zM320 325h-61q-54 0 -86.5 -37.5t-32.5 -106.5
q0 -47 22.5 -74t57.5 -27q100 0 100 131v114zM385 766v-65h-207q-17 0 -46.5 -8.5t-33.5 -9.5v92q33 -9 72 -9h215z" />
    <glyph glyph-name="Abreve" unicode="&#x102;" horiz-adv-x="543" 
d="M543 0h-150q6 52 -9 123q-56 29 -120 27.5t-119 -34.5q-14 -64 -8 -116h-137q33 42 47 104l170 757q47 10 108 14l173 -772q14 -60 45 -103zM348 225h10l-70 353q-2 12 -6 36.5t-10 42.5h-10q-4 -14 -6.5 -25t-4.5 -25.5t-5 -28.5l-71 -353h10q79 36 163 0zM271 996
q42 0 56 30t5 71q44 8 81 0q10 -62 -25.5 -111t-116.5 -50q-81 1 -116.5 50t-25.5 111q41 7 81 0q-9 -41 5 -71t56 -30z" />
    <glyph glyph-name="abreve" unicode="&#x103;" horiz-adv-x="498" 
d="M431 477v-372q-1 -63 22 -105h-125q-4 51 -6 88h-7q-32 -93 -132 -93q-69 0 -113 53t-44 133q-5 95 58.5 163t174.5 68q30 0 61 -7v72q0 49 -20.5 70t-73.5 21q-92 0 -144 -47v112q75 22 177 22q82 0 127 -47.5t45 -130.5zM320 325h-61q-54 0 -86.5 -37.5t-32.5 -106.5
q0 -47 22.5 -74t57.5 -27q100 0 100 131v114zM241 761q42 0 56 30t5 71q44 8 81 0q10 -62 -25.5 -111t-116.5 -50q-81 1 -116.5 50t-25.5 111q41 8 81 0q-9 -41 5 -71t56 -30z" />
    <glyph glyph-name="Aogonek" unicode="&#x104;" horiz-adv-x="543" 
d="M316 -95q0 61 78 100q4 48 -10 118q-56 29 -120 27.5t-119 -34.5q-14 -64 -8 -116h-137q33 42 47 104l170 757q47 10 108 14l173 -772q14 -60 45 -103q-93 0 -130.5 -28.5t-37.5 -66.5q0 -29 19 -44.5t48 -15.5q19 0 41 5l-2 -39q-21 -11 -49 -11q-50 0 -83 28.5
t-33 76.5zM348 225h10l-70 353q-2 12 -6 36.5t-10 42.5h-10q-4 -14 -6.5 -25t-4.5 -25.5t-5 -28.5l-71 -353h10q79 36 163 0z" />
    <glyph glyph-name="aogonek" unicode="&#x105;" horiz-adv-x="498" 
d="M259 -95q0 58 69 95q0 1 -1 14.5t-2.5 35.5t-2.5 38h-7q-32 -93 -132 -93q-69 0 -113 53t-44 133q-5 95 58.5 163t174.5 68q30 0 61 -7v72q0 49 -20.5 70t-73.5 21q-92 0 -144 -47v112q75 22 177 22q82 0 127 -47.5t45 -130.5v-372q-1 -63 22 -105q-135 -31 -135 -95
q0 -29 19 -44.5t48 -15.5q19 0 41 5l-2 -39q-21 -11 -49 -11q-50 0 -83 28.5t-33 76.5zM320 325h-61q-54 0 -86.5 -37.5t-32.5 -106.5q0 -47 22.5 -74t57.5 -27q100 0 100 131v114z" />
    <glyph glyph-name="Cacute" unicode="&#x106;" horiz-adv-x="460" 
d="M430 124v-102q-52 -22 -97 -22q-48 0 -89.5 12.5t-82 46t-68.5 85.5t-45.5 136t-17.5 193q0 182 74 292t206 110q30 0 51.5 -2.5t30 -5t37.5 -11.5v-108q-30 22 -54.5 32t-63.5 10q-78 0 -123.5 -86t-45.5 -231q0 -94 13.5 -165.5t34.5 -112t49 -66t53 -34t51 -8.5
q39 0 87 37zM308 936h-65l41 80q27 50 16 80h111q6 -21 -30 -72z" />
    <glyph glyph-name="cacute" unicode="&#x107;" horiz-adv-x="430" 
d="M415 124v-102q-52 -22 -97 -22q-57 0 -104.5 17t-89.5 56t-65.5 113t-23.5 177q0 132 68.5 212t191.5 80h18.5t17 -1t13.5 -1t13 -1.5t10.5 -2t11.5 -3t10.5 -3t12.5 -3.5t13 -4v-108q-30 22 -55 32t-64 10q-69 0 -109 -56t-40 -151q0 -67 12.5 -118.5t31 -80.5t44 -47
t47.5 -24t46 -6q39 0 87 37zM261 701h-65l41 80q27 50 16 80h111q6 -21 -30 -72z" />
    <glyph glyph-name="Ccircumflex" unicode="&#x108;" horiz-adv-x="460" 
d="M430 124v-102q-52 -22 -97 -22q-48 0 -89.5 12.5t-82 46t-68.5 85.5t-45.5 136t-17.5 193q0 182 74 292t206 110q30 0 51.5 -2.5t30 -5t37.5 -11.5v-108q-30 22 -54.5 32t-63.5 10q-78 0 -123.5 -86t-45.5 -231q0 -94 13.5 -165.5t34.5 -112t49 -66t53 -34t51 -8.5
q39 0 87 37zM230 936h-65l41 80q27 50 16 80h115q-11 -30 16 -80l41 -80h-65l-50 69z" />
    <glyph glyph-name="ccircumflex" unicode="&#x109;" horiz-adv-x="430" 
d="M415 124v-102q-52 -22 -97 -22q-57 0 -104.5 17t-89.5 56t-65.5 113t-23.5 177q0 132 68.5 212t191.5 80h18.5t17 -1t13.5 -1t13 -1.5t10.5 -2t11.5 -3t10.5 -3t12.5 -3.5t13 -4v-108q-30 22 -55 32t-64 10q-69 0 -109 -56t-40 -151q0 -67 12.5 -118.5t31 -80.5t44 -47
t47.5 -24t46 -6q39 0 87 37zM223 701h-65l41 80q27 50 16 80h115q-11 -30 16 -80l41 -80h-65l-50 69z" />
    <glyph glyph-name="Cdotaccent" unicode="&#x10a;" horiz-adv-x="460" 
d="M430 124v-102q-52 -22 -97 -22q-48 0 -89.5 12.5t-82 46t-68.5 85.5t-45.5 136t-17.5 193q0 182 74 292t206 110q30 0 51.5 -2.5t30 -5t37.5 -11.5v-108q-30 22 -54.5 32t-63.5 10q-78 0 -123.5 -86t-45.5 -231q0 -94 13.5 -165.5t34.5 -112t49 -66t53 -34t51 -8.5
q39 0 87 37zM347 1052v-116q-78 3 -114 10v93q36 7 114 13z" />
    <glyph glyph-name="cdotaccent" unicode="&#x10b;" horiz-adv-x="430" 
d="M415 124v-102q-52 -22 -97 -22q-57 0 -104.5 17t-89.5 56t-65.5 113t-23.5 177q0 132 68.5 212t191.5 80h18.5t17 -1t13.5 -1t13 -1.5t10.5 -2t11.5 -3t10.5 -3t12.5 -3.5t13 -4v-108q-30 22 -55 32t-64 10q-69 0 -109 -56t-40 -151q0 -67 12.5 -118.5t31 -80.5t44 -47
t47.5 -24t46 -6q39 0 87 37zM319 817v-116q-78 3 -114 10v93q36 7 114 13z" />
    <glyph glyph-name="Ccaron" unicode="&#x10c;" horiz-adv-x="460" 
d="M430 124v-102q-52 -22 -97 -22q-48 0 -89.5 12.5t-82 46t-68.5 85.5t-45.5 136t-17.5 193q0 182 74 292t206 110q30 0 51.5 -2.5t30 -5t37.5 -11.5v-108q-30 22 -54.5 32t-63.5 10q-78 0 -123.5 -86t-45.5 -231q0 -94 13.5 -165.5t34.5 -112t49 -66t53 -34t51 -8.5
q39 0 87 37zM230 1096l49 -69l50 69h65l-41 -80q-27 -50 -16 -80h-115q11 30 -16 80l-41 80h65z" />
    <glyph glyph-name="ccaron" unicode="&#x10d;" horiz-adv-x="430" 
d="M415 124v-102q-52 -22 -97 -22q-57 0 -104.5 17t-89.5 56t-65.5 113t-23.5 177q0 132 68.5 212t191.5 80h18.5t17 -1t13.5 -1t13 -1.5t10.5 -2t11.5 -3t10.5 -3t12.5 -3.5t13 -4v-108q-30 22 -55 32t-64 10q-69 0 -109 -56t-40 -151q0 -67 12.5 -118.5t31 -80.5t44 -47
t47.5 -24t46 -6q39 0 87 37zM223 861l49 -69l50 69h65l-41 -80q-27 -50 -16 -80h-115q11 30 -16 80l-41 80h65z" />
    <glyph glyph-name="Dcaron" unicode="&#x10e;" horiz-adv-x="537" 
d="M506 526q3 -111 -12 -205t-48 -166.5t-90 -113.5t-132 -41q-84 0 -154 19v838q88 18 175 18q131 0 194 -82t67 -267zM181 86h53q73 1 114.5 119.5t39.5 320.5q-5 263 -140 263q-29 0 -67 -8v-695zM209 1096l49 -69l50 69h65l-41 -80q-27 -50 -16 -80h-115q11 30 -16 80
l-41 80h65z" />
    <glyph glyph-name="dcaron" unicode="&#x10f;" horiz-adv-x="574" 
d="M323 559h12v302q45 9 112 14v-842q-4 -1 -44 -12t-70 -16t-60 -5q-110 0 -175 77t-68 205v95q0 132 49.5 205t113.5 73q46 0 77.5 -22.5t52.5 -73.5zM143 377v-95q2 -92 34.5 -144t89.5 -52q38 0 68 23v294q0 165 -91 165q-45 0 -73 -47.5t-28 -143.5zM549 708h-65l19 80
q13 51 -5 80q56 14 111 0q14 -27 -11 -72z" />
    <glyph glyph-name="Dcroat" unicode="&#x110;" horiz-adv-x="537" 
d="M506 526q3 -111 -12 -205t-48 -166.5t-90 -113.5t-132 -41q-84 0 -154 19v517q-16 0 -31.5 -3t-32 -8t-24.5 -7v92q33 -9 88 -9v256q88 18 175 18q131 0 194 -82t67 -267zM269 601v-65h-88v-450h53q73 1 114.5 119.5t39.5 320.5q-5 263 -140 263q-29 0 -67 -8v-180h88z
" />
    <glyph glyph-name="dcroat" unicode="&#x111;" horiz-adv-x="512" 
d="M531 798v-62h-84v-703q-4 -1 -44 -12t-70 -16t-60 -5q-110 0 -175 77t-68 205v95q0 132 49.5 205t113.5 73q46 0 77.5 -22.5t52.5 -73.5h12v177q-59 0 -83 -9v82q40 -11 83 -11v63q45 9 112 14v-77h84zM143 377v-95q2 -92 34.5 -144t89.5 -52q38 0 68 23v294
q0 165 -91 165q-45 0 -73 -47.5t-28 -143.5z" />
    <glyph glyph-name="Emacron" unicode="&#x112;" horiz-adv-x="476" 
d="M430 124v-102q-75 -22 -187 -22q-99 0 -173 10v847q88 18 204 18q94 0 155 -19v-108q-48 42 -148 42q-62 0 -98 -8v-221h101q96 0 147 48v-171q-58 38 -155 38h-92v-383q28 -5 94 -5q96 0 152 36zM381 1001v-65h-207q-17 0 -46.5 -8.5t-33.5 -9.5v92q33 -9 72 -9h215z
" />
    <glyph glyph-name="emacron" unicode="&#x113;" horiz-adv-x="475" 
d="M405 124v-102q-52 -22 -97 -22q-43 0 -80.5 10t-74 35.5t-62 65t-41 104t-15.5 148.5q0 132 60 212t170 80q85 0 134.5 -55.5t49.5 -130.5q5 -91 -56.5 -141t-176.5 -50q-40 0 -64 5q7 -59 26 -100t44 -60.5t48 -27.5t48 -8q39 0 87 37zM255 570q-48 0 -78 -54t-30 -151
h69q61 0 90 19.5t29 84.5q0 47 -22.5 74t-57.5 27zM381 766v-65h-207q-17 0 -46.5 -8.5t-33.5 -9.5v92q33 -9 72 -9h215z" />
    <glyph glyph-name="Ebreve" unicode="&#x114;" horiz-adv-x="476" 
d="M430 124v-102q-75 -22 -187 -22q-99 0 -173 10v847q88 18 204 18q94 0 155 -19v-108q-48 42 -148 42q-62 0 -98 -8v-221h101q96 0 147 48v-171q-58 38 -155 38h-92v-383q28 -5 94 -5q96 0 152 36zM248 996q42 0 56 30t5 71q44 8 81 0q10 -62 -25.5 -111t-116.5 -50
q-81 1 -116.5 50t-25.5 111q40 7 81 0q-9 -41 5 -71t56 -30z" />
    <glyph glyph-name="ebreve" unicode="&#x115;" horiz-adv-x="475" 
d="M405 124v-102q-52 -22 -97 -22q-43 0 -80.5 10t-74 35.5t-62 65t-41 104t-15.5 148.5q0 132 60 212t170 80q85 0 134.5 -55.5t49.5 -130.5q5 -91 -56.5 -141t-176.5 -50q-40 0 -64 5q7 -59 26 -100t44 -60.5t48 -27.5t48 -8q39 0 87 37zM255 570q-48 0 -78 -54t-30 -151
h69q61 0 90 19.5t29 84.5q0 47 -22.5 74t-57.5 27zM237 761q42 0 56 30t5 71q44 8 81 0q10 -62 -25.5 -111t-116.5 -50q-81 1 -116.5 50t-25.5 111q41 8 81 0q-9 -41 5 -71t56 -30z" />
    <glyph glyph-name="Edotaccent" unicode="&#x116;" horiz-adv-x="476" 
d="M430 124v-102q-75 -22 -187 -22q-99 0 -173 10v847q88 18 204 18q94 0 155 -19v-108q-48 42 -148 42q-62 0 -98 -8v-221h101q96 0 147 48v-171q-58 38 -155 38h-92v-383q28 -5 94 -5q96 0 152 36zM305 1052v-116q-78 3 -114 10v93q36 7 114 13z" />
    <glyph glyph-name="edotaccent" unicode="&#x117;" horiz-adv-x="475" 
d="M405 124v-102q-52 -22 -97 -22q-43 0 -80.5 10t-74 35.5t-62 65t-41 104t-15.5 148.5q0 132 60 212t170 80q85 0 134.5 -55.5t49.5 -130.5q5 -91 -56.5 -141t-176.5 -50q-40 0 -64 5q7 -59 26 -100t44 -60.5t48 -27.5t48 -8q39 0 87 37zM255 570q-48 0 -78 -54t-30 -151
h69q61 0 90 19.5t29 84.5q0 47 -22.5 74t-57.5 27zM304 817v-116q-78 3 -114 10v93q36 7 114 13z" />
    <glyph glyph-name="Eogonek" unicode="&#x118;" horiz-adv-x="476" 
d="M225 -99q0 63 67 94v6q-16 -1 -49 -1q-99 0 -173 10v847q88 18 204 18q94 0 155 -19v-108q-48 42 -148 42q-62 0 -98 -8v-221h101q96 0 147 48v-171q-58 38 -155 38h-92v-383q28 -5 94 -5q96 0 152 36v-102q-60 0 -104 -34t-44 -83q0 -29 19 -44.5t48 -15.5q19 0 41 5
l-2 -39q-21 -11 -49 -11q-50 0 -82 26.5t-32 74.5z" />
    <glyph glyph-name="eogonek" unicode="&#x119;" horiz-adv-x="475" 
d="M405 124v-102q-29 -13 -42 -20t-37 -22.5t-35 -34t-11 -40.5q0 -29 19 -44.5t48 -15.5q19 0 41 5l-2 -39q-21 -11 -49 -11q-50 0 -83 28.5t-33 76.5q0 57 68 85v10q-41 2 -76 13.5t-68.5 38t-57 66.5t-38 102.5t-14.5 142.5q0 132 60 212t170 80q85 0 134.5 -55.5
t49.5 -130.5q5 -91 -56.5 -141t-176.5 -50q-40 0 -64 5q7 -59 26 -100t44 -60.5t48 -27.5t48 -8q39 0 87 37zM255 570q-48 0 -78 -54t-30 -151h69q61 0 90 19.5t29 84.5q0 47 -22.5 74t-57.5 27z" />
    <glyph glyph-name="Ecaron" unicode="&#x11a;" horiz-adv-x="476" 
d="M430 124v-102q-75 -22 -187 -22q-99 0 -173 10v847q88 18 204 18q94 0 155 -19v-108q-48 42 -148 42q-62 0 -98 -8v-221h101q96 0 147 48v-171q-58 38 -155 38h-92v-383q28 -5 94 -5q96 0 152 36zM198 1096l49 -69l50 69h65l-41 -80q-27 -50 -16 -80h-115q11 30 -16 80
l-41 80h65z" />
    <glyph glyph-name="ecaron" unicode="&#x11b;" horiz-adv-x="475" 
d="M405 124v-102q-52 -22 -97 -22q-43 0 -80.5 10t-74 35.5t-62 65t-41 104t-15.5 148.5q0 132 60 212t170 80q85 0 134.5 -55.5t49.5 -130.5q5 -91 -56.5 -141t-176.5 -50q-40 0 -64 5q7 -59 26 -100t44 -60.5t48 -27.5t48 -8q39 0 87 37zM255 570q-48 0 -78 -54t-30 -151
h69q61 0 90 19.5t29 84.5q0 47 -22.5 74t-57.5 27zM188 861l49 -69l50 69h65l-41 -80q-27 -50 -16 -80h-115q11 30 -16 80l-41 80h65z" />
    <glyph glyph-name="Gcircumflex" unicode="&#x11c;" horiz-adv-x="560" 
d="M493 562v-457q0 -65 22 -105h-122q-4 51 -6 88h-9q-45 -93 -140 -93q-102 6 -155 103t-53 270q0 242 90 374.5t223 132.5q66 0 119 -21v-132q-48 57 -122 57q-86 0 -137.5 -97.5t-51.5 -313.5q0 -160 31.5 -223t92.5 -65q46 0 78.5 37t32.5 94v261q-76 0 -123 -30v121
q127 13 230 -1zM260 936h-65l41 80q27 50 16 80h115q-11 -30 16 -80l41 -80h-65l-50 69z" />
    <glyph glyph-name="gcircumflex" unicode="&#x11d;" horiz-adv-x="517" 
d="M452 622v-604q0 -97 -56.5 -157.5t-155.5 -60.5q-95 0 -157 22v102q50 -37 134 -37q69 0 96 32t27 99v78h-11q-22 -51 -53 -73.5t-78 -22.5q-64 0 -113.5 75.5t-49.5 212.5v75q3 133 68 212.5t175 79.5q30 0 60 -5t70 -16t44 -12zM148 363v-75q0 -101 28 -151t73 -50
q87 0 91 148v311q-30 23 -68 23q-57 0 -89.5 -55t-34.5 -151zM204 701h-65l41 80q27 50 16 80h115q-11 -30 16 -80l41 -80h-65l-50 69z" />
    <glyph glyph-name="Gbreve" unicode="&#x11e;" horiz-adv-x="560" 
d="M493 562v-457q0 -65 22 -105h-122q-4 51 -6 88h-9q-45 -93 -140 -93q-102 6 -155 103t-53 270q0 242 90 374.5t223 132.5q66 0 119 -21v-132q-48 57 -122 57q-86 0 -137.5 -97.5t-51.5 -313.5q0 -160 31.5 -223t92.5 -65q46 0 78.5 37t32.5 94v261q-76 0 -123 -30v121
q127 13 230 -1zM310 996q42 0 56 30t5 71q44 8 81 0q10 -62 -25.5 -111t-116.5 -50q-81 1 -116.5 50t-25.5 111q40 7 81 0q-9 -41 5 -71t56 -30z" />
    <glyph glyph-name="gbreve" unicode="&#x11f;" horiz-adv-x="517" 
d="M452 622v-604q0 -97 -56.5 -157.5t-155.5 -60.5q-95 0 -157 22v102q50 -37 134 -37q69 0 96 32t27 99v78h-11q-22 -51 -53 -73.5t-78 -22.5q-64 0 -113.5 75.5t-49.5 212.5v75q3 133 68 212.5t175 79.5q30 0 60 -5t70 -16t44 -12zM148 363v-75q0 -101 28 -151t73 -50
q87 0 91 148v311q-30 23 -68 23q-57 0 -89.5 -55t-34.5 -151zM253 761q42 0 56 30t5 71q44 8 81 0q10 -62 -25.5 -111t-116.5 -50q-81 1 -116.5 50t-25.5 111q41 8 81 0q-9 -41 5 -71t56 -30z" />
    <glyph glyph-name="Gdotaccent" unicode="&#x120;" horiz-adv-x="560" 
d="M493 562v-457q0 -65 22 -105h-122q-4 51 -6 88h-9q-45 -93 -140 -93q-102 6 -155 103t-53 270q0 242 90 374.5t223 132.5q66 0 119 -21v-132q-48 57 -122 57q-86 0 -137.5 -97.5t-51.5 -313.5q0 -160 31.5 -223t92.5 -65q46 0 78.5 37t32.5 94v261q-76 0 -123 -30v121
q127 13 230 -1zM367 1052v-116q-78 3 -114 10v93q36 7 114 13z" />
    <glyph glyph-name="gdotaccent" unicode="&#x121;" horiz-adv-x="517" 
d="M452 622v-604q0 -97 -56.5 -157.5t-155.5 -60.5q-95 0 -157 22v102q50 -37 134 -37q69 0 96 32t27 99v78h-11q-22 -51 -53 -73.5t-78 -22.5q-64 0 -113.5 75.5t-49.5 212.5v75q3 133 68 212.5t175 79.5q30 0 60 -5t70 -16t44 -12zM148 363v-75q0 -101 28 -151t73 -50
q87 0 91 148v311q-30 23 -68 23q-57 0 -89.5 -55t-34.5 -151zM310 817v-116q-78 3 -114 10v93q36 7 114 13z" />
    <glyph glyph-name="Gcommaaccent" unicode="&#x122;" horiz-adv-x="560" 
d="M493 562v-457q0 -65 22 -105h-122q-4 51 -6 88h-9q-45 -93 -140 -93q-102 6 -155 103t-53 270q0 242 90 374.5t223 132.5q66 0 119 -21v-132q-48 57 -122 57q-86 0 -137.5 -97.5t-51.5 -313.5q0 -160 31.5 -223t92.5 -65q46 0 78.5 37t32.5 94v261q-76 0 -123 -30v121
q127 13 230 -1zM308 -200h-65l19 80q13 51 -5 80q55 14 111 0q14 -27 -11 -72z" />
    <glyph glyph-name="gcommaaccent" unicode="&#x123;" horiz-adv-x="517" 
d="M452 622v-604q0 -97 -56.5 -157.5t-155.5 -60.5q-95 0 -157 22v102q50 -37 134 -37q69 0 96 32t27 99v78h-11q-22 -51 -53 -73.5t-78 -22.5q-64 0 -113.5 75.5t-49.5 212.5v75q3 133 68 212.5t175 79.5q30 0 60 -5t70 -16t44 -12zM148 363v-75q0 -101 28 -151t73 -50
q87 0 91 148v311q-30 23 -68 23q-57 0 -89.5 -55t-34.5 -151zM265 875h65l-19 -80q-13 -51 5 -80q-56 -13 -111 0q-14 27 11 72z" />
    <glyph glyph-name="Hcircumflex" unicode="&#x124;" horiz-adv-x="559" 
d="M368 565h9v299h-2q27 5 114 11v-875q-62 3 -112 10v449q-97 42 -195 0v-459q-62 3 -112 10v851q46 9 111 14v-310h10q85 39 177 0zM230 936h-65l41 80q27 50 16 80h115q-11 -30 16 -80l41 -80h-65l-50 69z" />
    <glyph glyph-name="hcircumflex" unicode="&#x125;" horiz-adv-x="556" 
d="M184 559h12q45 96 144 96q70 0 115.5 -66.5t45.5 -191.5v-397q-66 3 -114 10v387q0 89 -22.5 130t-69.5 41q-48 0 -79.5 -42t-31.5 -123v-403q-66 3 -114 10v851q44 9 114 14v-316zM286 701h-65l41 80q27 50 16 80h115q-11 -30 16 -80l41 -80h-65l-50 69z" />
    <glyph glyph-name="Hbar" unicode="&#x126;" horiz-adv-x="559" 
d="M567 768v-65h-78v-703q-62 3 -112 10v449q-97 42 -195 0v-459q-62 3 -112 10v693q-16 0 -31.5 -3t-32 -8t-24.5 -7v92q33 -9 88 -9v93q46 9 111 14v-107h196v96h-2q27 5 114 11v-107h78zM368 565h9v138h-196v-138h10q85 39 177 0z" />
    <glyph glyph-name="hbar" unicode="&#x127;" horiz-adv-x="556" 
d="M278 798v-61h-94v-178h12q45 96 144 96q70 0 115.5 -66.5t45.5 -191.5v-397q-66 3 -114 10v387q0 89 -22.5 130t-69.5 41q-48 0 -79.5 -42t-31.5 -123v-403q-66 3 -114 10v727h-9q-30 0 -80 -10v80q33 -9 72 -9h17v63q44 9 114 14v-77h94z" />
    <glyph glyph-name="Itilde" unicode="&#x128;" horiz-adv-x="252" 
d="M182 875v-875q-62 3 -112 10v851q45 9 112 14zM30 932h-54q13 113 89 113q22 0 65 -11t64 -11q24 0 29 29h54q-3 -44 -26 -80t-63 -36q-22 0 -64 11t-63 11q-24 0 -31 -26z" />
    <glyph glyph-name="itilde" unicode="&#x129;" horiz-adv-x="264" 
d="M189 640v-640q-66 3 -114 10v616q44 9 114 14zM36 697h-54q13 113 89 113q22 0 65 -11t64 -11q24 0 29 29h54q-3 -44 -26 -80t-63 -36q-22 0 -64 11t-63 11q-24 0 -31 -26z" />
    <glyph glyph-name="Imacron" unicode="&#x12a;" horiz-adv-x="252" 
d="M182 875v-875q-62 3 -112 10v851q45 9 112 14zM270 1001v-65h-207q-17 0 -46.5 -8.5t-33.5 -9.5v92q33 -9 72 -9h215z" />
    <glyph glyph-name="imacron" unicode="&#x12b;" horiz-adv-x="264" 
d="M189 640v-640q-66 3 -114 10v616q44 9 114 14zM276 766v-65h-207q-17 0 -46.5 -8.5t-33.5 -9.5v92q33 -9 72 -9h215z" />
    <glyph glyph-name="Ibreve" unicode="&#x12c;" horiz-adv-x="252" 
d="M182 875v-875q-62 3 -112 10v851q45 9 112 14zM126 996q42 0 56 30t5 71q44 8 81 0q10 -62 -25.5 -111t-116.5 -50q-81 1 -116.5 50t-25.5 111q40 7 81 0q-9 -41 5 -71t56 -30z" />
    <glyph glyph-name="ibreve" unicode="&#x12d;" horiz-adv-x="264" 
d="M189 640v-640q-66 3 -114 10v616q44 9 114 14zM132 761q42 0 56 30t5 71q44 8 81 0q10 -62 -25.5 -111t-116.5 -50q-81 1 -116.5 50t-25.5 111q40 8 81 0q-9 -41 5 -71t56 -30z" />
    <glyph glyph-name="Iogonek" unicode="&#x12e;" horiz-adv-x="252" 
d="M30 -95q0 62 77 95v5q-5 1 -18 2.5t-19 2.5v851q45 9 112 14v-875q-44 -10 -68.5 -36.5t-24.5 -58.5q0 -29 19 -44.5t48 -15.5q19 0 41 5l-2 -39q-21 -11 -49 -11q-50 0 -83 28.5t-33 76.5z" />
    <glyph glyph-name="iogonek" unicode="&#x12f;" horiz-adv-x="264" 
d="M37 -95q0 59 77 89v11q-18 1 -39 5v616q44 9 114 14v-640q-93 -38 -93 -95q0 -29 19 -44.5t48 -15.5q19 0 41 5l-2 -39q-21 -11 -49 -11q-50 0 -83 28.5t-33 76.5zM189 875v-116q-78 3 -114 10v93q36 7 114 13z" />
    <glyph glyph-name="Idotaccent" unicode="&#x130;" horiz-adv-x="252" 
d="M182 875v-875q-62 3 -112 10v851q45 9 112 14zM183 1052v-116q-78 3 -114 10v93q36 7 114 13z" />
    <glyph glyph-name="dotlessi" unicode="&#x131;" horiz-adv-x="264" 
d="M189 640v-640q-66 3 -114 10v616q44 9 114 14z" />
    <glyph glyph-name="IJ" unicode="&#x132;" horiz-adv-x="617" 
d="M272 746v108q91 29 255 16v-708q0 -162 -149 -162q-44 0 -106 16v108q54 -34 92 -34q29 0 40.5 16.5t11.5 55.5v626q-96 -2 -144 -42zM182 875v-875q-62 3 -112 10v851q45 9 112 14z" />
    <glyph glyph-name="ij" unicode="&#x133;" horiz-adv-x="614" 
d="M189 640v-640q-66 3 -114 10v616q44 9 114 14zM189 875v-116q-78 3 -114 10v93q36 7 114 13zM284 512v108q91 29 255 16v-674q0 -162 -149 -162q-44 0 -106 16v108q54 -34 92 -34q29 0 40.5 16.5t11.5 55.5v592q-96 -2 -144 -42zM539 875v-116q-78 3 -114 10v93
q36 7 114 13z" />
    <glyph glyph-name="Jcircumflex" unicode="&#x134;" horiz-adv-x="345" 
d="M20 746v108q91 29 255 16v-708q0 -162 -149 -162q-44 0 -106 16v108q54 -34 92 -34q29 0 40.5 16.5t11.5 55.5v626q-96 -2 -144 -42zM158 936h-65l41 80q27 50 16 80h115q-11 -30 16 -80l41 -80h-65l-50 69z" />
    <glyph glyph-name="jcircumflex" unicode="&#x135;" horiz-adv-x="345" 
d="M20 512v108q91 29 255 16v-674q0 -162 -149 -162q-44 0 -106 16v108q54 -34 92 -34q29 0 40.5 16.5t11.5 55.5v592q-96 -2 -144 -42zM150 701h-65l41 80q27 50 16 80h115q-11 -30 16 -80l41 -80h-65l-50 69z" />
    <glyph glyph-name="Kcommaaccent" unicode="&#x136;" horiz-adv-x="525" 
d="M402 374v1l56 -271q14 -62 47 -104h-145q6 49 -8 113l-45 222q-14 59 -42.5 87.5t-82.5 33.5v-456q-62 3 -112 10v851q46 9 111 14v-332q40 0 65 23.5t45 68.5l85 227q45 13 117 13l-95 -236q-52 -114 -124 -114v-9q36 0 73.5 -34t54.5 -108zM250 -200h-65l19 80
q13 51 -5 80q55 14 111 0q14 -27 -11 -72z" />
    <glyph glyph-name="kcommaaccent" unicode="&#x137;" horiz-adv-x="495" 
d="M407 244v1l31 -141q14 -62 47 -104h-147q5 44 -8 113l-18 92q-14 59 -45 87.5t-90 33.5v-326q-62 3 -112 10v851q46 9 111 14v-462q92 0 130 92l45 132q45 13 117 13l-55 -141q-51 -114 -144 -114v-9q38 0 79 -34t59 -108zM248 -200h-65l19 80q13 51 -5 80q55 14 111 0
q14 -27 -11 -72z" />
    <glyph glyph-name="kgreenlandic" unicode="&#x138;" horiz-adv-x="515" 
d="M274 325q40 0 70 -46t64 -137l14 -37q6 -18 27.5 -19t35.5 19v-105q-13 -4 -31 -4q-94 3 -129 87q-55 138 -77 170q-28 40 -67 40v-293q-65 5 -111 14v623q46 9 111 14v-283q43 0 68.5 39t75.5 161q35 84 129 87q18 0 31 -4v-105q-14 20 -35.5 19t-27.5 -19l-14 -37
q-33 -86 -63 -129.5t-71 -43.5v-11z" />
    <glyph glyph-name="Lacute" unicode="&#x139;" horiz-adv-x="450" 
d="M181 92h1q28 -5 94 -5q96 0 154 37v-102q-75 -22 -187 -22q-99 0 -173 10v851q46 9 111 14v-783zM153 936h-65l41 80q27 50 16 80h111q6 -21 -30 -72z" />
    <glyph glyph-name="lacute" unicode="&#x13a;" horiz-adv-x="285" 
d="M177 875v-727q0 -32 9.5 -44t34.5 -12q35 0 54 32v-102q-32 -22 -87 -22q-59 0 -91 39.5t-32 108.5v717q50 7 112 10zM148 935h-65l41 80q27 50 16 80h111q6 -21 -30 -72z" />
    <glyph glyph-name="Lcommaaccent" unicode="&#x13b;" horiz-adv-x="450" 
d="M181 92h1q28 -5 94 -5q96 0 154 37v-102q-75 -22 -187 -22q-99 0 -173 10v851q46 9 111 14v-783zM223 -200h-65l19 80q13 51 -5 80q56 14 111 0q14 -27 -11 -72z" />
    <glyph glyph-name="lcommaaccent" unicode="&#x13c;" horiz-adv-x="285" 
d="M177 875v-727q0 -32 9.5 -44t34.5 -12q35 0 54 32v-102q-32 -22 -87 -22q-59 0 -91 39.5t-32 108.5v717q50 7 112 10zM138 -200h-65l19 80q13 51 -5 80q55 14 111 0q14 -27 -11 -72z" />
    <glyph glyph-name="Lcaron" unicode="&#x13d;" horiz-adv-x="450" 
d="M181 92h1q28 -5 94 -5q96 0 154 37v-102q-75 -22 -187 -22q-99 0 -173 10v851q46 9 111 14v-783zM75 1096l49 -69l50 69h65l-41 -80q-27 -50 -16 -80h-115q11 30 -16 80l-41 80h65z" />
    <glyph glyph-name="lcaron" unicode="&#x13e;" horiz-adv-x="351" 
d="M177 875v-727q0 -32 9.5 -44t34.5 -12q35 0 54 32v-102q-32 -22 -87 -22q-59 0 -91 39.5t-32 108.5v717q50 7 112 10zM297 708h-65l19 80q13 51 -5 80q56 14 111 0q14 -27 -11 -72z" />
    <glyph glyph-name="Ldot" unicode="&#x13f;" horiz-adv-x="450" 
d="M181 92h1q28 -5 94 -5q96 0 154 37v-102q-75 -22 -187 -22q-99 0 -173 10v851q46 9 111 14v-783zM393 456v-116q-78 3 -114 10v93q36 7 114 13z" />
    <glyph glyph-name="ldot" unicode="&#x140;" horiz-adv-x="336" 
d="M177 875v-727q0 -32 9.5 -44t34.5 -12q35 0 54 32v-102q-32 -22 -87 -22q-59 0 -91 39.5t-32 108.5v717q50 7 112 10zM345 456v-116q-78 3 -114 10v93q36 7 114 13z" />
    <glyph glyph-name="Lslash" unicode="&#x141;" horiz-adv-x="450" 
d="M181 398h5l89 71v-99l-94 -36v-242h1q28 -5 94 -5q96 0 154 37v-102q-75 -22 -187 -22q-99 0 -173 10v261h-5l-66 -52v98l71 28v516q46 9 111 14v-477z" />
    <glyph glyph-name="lslash" unicode="&#x142;" horiz-adv-x="285" 
d="M184 399l86 63v-92l-93 -36v-186q0 -32 9.5 -44t34.5 -12q35 0 54 32v-102q-32 -22 -87 -22q-59 0 -91 39.5t-32 108.5v125h-7l-64 -45v91l71 28v518q50 7 112 10v-476h7z" />
    <glyph glyph-name="Nacute" unicode="&#x143;" horiz-adv-x="584" 
d="M395 568h7v292q53 11 112 15v-875q-34 0 -112 9v390q-25 48 -108.5 128.5t-96.5 95.5h-8v-623q-41 0 -101 6v689q0 96 -38 147l139 33v-39q5 -31 18 -60t37.5 -57.5t43.5 -48.5t54.5 -52.5t52.5 -49.5zM325 936h-65l41 80q27 50 16 80h111q6 -21 -30 -72z" />
    <glyph glyph-name="nacute" unicode="&#x144;" horiz-adv-x="568" 
d="M312 701h-65l41 80q27 50 16 80h111q6 -21 -30 -72zM191 562q41 93 131 93q85 0 135.5 -60.5t50.5 -159.5v-435q-66 3 -114 10v425q0 135 -107 135q-56 0 -81 -37.5t-25 -97.5v-435q-66 3 -114 10v515q2 73 -22 115h119q14 -39 16 -78h11z" />
    <glyph glyph-name="Ncommaaccent" unicode="&#x145;" horiz-adv-x="584" 
d="M395 568h7v292q53 11 112 15v-875q-34 0 -112 9v390q-25 48 -108.5 128.5t-96.5 95.5h-8v-623q-41 0 -101 6v689q0 96 -38 147l139 33v-39q5 -31 18 -60t37.5 -57.5t43.5 -48.5t54.5 -52.5t52.5 -49.5zM295 -200h-65l19 80q13 51 -5 80q56 14 111 0q14 -27 -11 -72z" />
    <glyph glyph-name="ncommaaccent" unicode="&#x146;" horiz-adv-x="568" 
d="M282 -200h-65l19 80q13 51 -5 80q55 14 111 0q14 -27 -11 -72zM191 562q41 93 131 93q85 0 135.5 -60.5t50.5 -159.5v-435q-66 3 -114 10v425q0 135 -107 135q-56 0 -81 -37.5t-25 -97.5v-435q-66 3 -114 10v515q2 73 -22 115h119q14 -39 16 -78h11z" />
    <glyph glyph-name="Ncaron" unicode="&#x147;" horiz-adv-x="584" 
d="M395 568h7v292q53 11 112 15v-875q-34 0 -112 9v390q-25 48 -108.5 128.5t-96.5 95.5h-8v-623q-41 0 -101 6v689q0 96 -38 147l139 33v-39q5 -31 18 -60t37.5 -57.5t43.5 -48.5t54.5 -52.5t52.5 -49.5zM247 1096l49 -69l50 69h65l-41 -80q-27 -50 -16 -80h-115
q11 30 -16 80l-41 80h65z" />
    <glyph glyph-name="ncaron" unicode="&#x148;" horiz-adv-x="568" 
d="M234 861l49 -69l50 69h65l-41 -80q-27 -50 -16 -80h-115q11 30 -16 80l-41 80h65zM191 562q41 93 131 93q85 0 135.5 -60.5t50.5 -159.5v-435q-66 3 -114 10v425q0 135 -107 135q-56 0 -81 -37.5t-25 -97.5v-435q-66 3 -114 10v515q2 73 -22 115h119q14 -39 16 -78h11z
" />
    <glyph glyph-name="napostrophe" unicode="&#x149;" horiz-adv-x="568" 
d="M110 708h-65l19 80q13 51 -5 80q55 14 111 0q14 -27 -11 -72zM191 562q41 93 131 93q85 0 135.5 -60.5t50.5 -159.5v-435q-66 3 -114 10v425q0 135 -107 135q-56 0 -81 -37.5t-25 -97.5v-435q-66 3 -114 10v515q2 73 -22 115h119q14 -39 16 -78h11z" />
    <glyph glyph-name="Eng" unicode="&#x14a;" horiz-adv-x="614" 
d="M402 568h10v292q53 11 112 15v-913q0 -162 -150 -162q-44 0 -106 16v108q54 -34 92 -34q29 0 40.5 16.5t11.5 55.5v437q-25 48 -108.5 128.5t-96.5 95.5h-8v-623q-41 0 -101 6v689q0 96 -38 147l139 33v-39q5 -31 17.5 -60t37 -58t42.5 -48t54.5 -53t51.5 -49z" />
    <glyph glyph-name="eng" unicode="&#x14b;" horiz-adv-x="568" 
d="M342 -110q29 0 40.5 16.5t11.5 55.5v473q0 135 -107 135q-56 0 -81 -37.5t-25 -97.5v-435q-66 3 -114 10v535q1 53 -22 95h129q4 -39 6 -78h11q41 93 131 93q85 0 135.5 -60.5t50.5 -159.5v-473q0 -78 -38 -120t-114 -42q-44 0 -106 16v108q54 -34 92 -34z" />
    <glyph glyph-name="Omacron" unicode="&#x14c;" horiz-adv-x="868" 
d="M577 1001v-65h-207q-17 0 -46.5 -8.5t-33.5 -9.5v92q33 -9 72 -9h215zM434 80q129 0 212 103.5t83 254.5q0 153 -80.5 255.5t-214.5 102.5t-214.5 -102.5t-80.5 -255.5q0 -151 83 -254.5t212 -103.5zM434 882q181 0 297.5 -128.5t116.5 -315.5t-116.5 -315.5
t-297.5 -128.5t-297.5 128.5t-116.5 315.5t116.5 315.5t297.5 128.5z" />
    <glyph glyph-name="omacron" unicode="&#x14d;" 
d="M254 655q119 0 179 -97t60 -266q0 -54 -13.5 -104.5t-39.5 -93t-70 -68.5t-99 -26q-241 0 -241 363q0 73 22.5 137.5t75.5 109.5t126 45zM268 82q31 0 53.5 22t33.5 56.5t16 67.5t5 64q0 53 -6 100.5t-19.5 89.5t-38 66.5t-57.5 24.5q-31 0 -53.5 -22t-33.5 -56.5
t-16 -67.5t-5 -64q0 -53 6 -100.5t19.5 -89.5t38 -66.5t57.5 -24.5zM405 766v-65h-207q-17 0 -46.5 -8.5t-33.5 -9.5v92q33 -9 72 -9h215z" />
    <glyph glyph-name="Obreve" unicode="&#x14e;" horiz-adv-x="868" 
d="M434 996q42 0 56 30t5 71q44 8 81 0q10 -62 -25.5 -111t-116.5 -50q-81 1 -116.5 50t-25.5 111q40 7 81 0q-9 -41 5 -71t56 -30zM434 80q129 0 212 103.5t83 254.5q0 153 -80.5 255.5t-214.5 102.5t-214.5 -102.5t-80.5 -255.5q0 -151 83 -254.5t212 -103.5zM434 882
q181 0 297.5 -128.5t116.5 -315.5t-116.5 -315.5t-297.5 -128.5t-297.5 128.5t-116.5 315.5t116.5 315.5t297.5 128.5z" />
    <glyph glyph-name="obreve" unicode="&#x14f;" 
d="M254 655q119 0 179 -97t60 -266q0 -54 -13.5 -104.5t-39.5 -93t-70 -68.5t-99 -26q-241 0 -241 363q0 73 22.5 137.5t75.5 109.5t126 45zM268 82q31 0 53.5 22t33.5 56.5t16 67.5t5 64q0 53 -6 100.5t-19.5 89.5t-38 66.5t-57.5 24.5q-31 0 -53.5 -22t-33.5 -56.5
t-16 -67.5t-5 -64q0 -53 6 -100.5t19.5 -89.5t38 -66.5t57.5 -24.5zM261 761q42 0 56 30t5 71q44 8 81 0q10 -62 -25.5 -111t-116.5 -50q-81 1 -116.5 50t-25.5 111q41 8 81 0q-9 -41 5 -71t56 -30z" />
    <glyph glyph-name="Ohungarumlaut" unicode="&#x150;" horiz-adv-x="868" 
d="M387 936h-65l41 80q27 50 16 80h111q6 -21 -30 -72zM538 936h-65l41 80q27 50 16 80h111q6 -21 -30 -72zM434 80q129 0 212 103.5t83 254.5q0 153 -80.5 255.5t-214.5 102.5t-214.5 -102.5t-80.5 -255.5q0 -151 83 -254.5t212 -103.5zM434 882q181 0 297.5 -128.5
t116.5 -315.5t-116.5 -315.5t-297.5 -128.5t-297.5 128.5t-116.5 315.5t116.5 315.5t297.5 128.5z" />
    <glyph glyph-name="ohungarumlaut" unicode="&#x151;" 
d="M254 655q119 0 179 -97t60 -266q0 -54 -13.5 -104.5t-39.5 -93t-70 -68.5t-99 -26q-241 0 -241 363q0 73 22.5 137.5t75.5 109.5t126 45zM268 82q31 0 53.5 22t33.5 56.5t16 67.5t5 64q0 53 -6 100.5t-19.5 89.5t-38 66.5t-57.5 24.5q-31 0 -53.5 -22t-33.5 -56.5
t-16 -67.5t-5 -64q0 -53 6 -100.5t19.5 -89.5t38 -66.5t57.5 -24.5zM214 701h-65l41 80q27 50 16 80h111q6 -21 -30 -72zM365 701h-65l41 80q27 50 16 80h111q6 -21 -30 -72z" />
    <glyph glyph-name="OE" unicode="&#x152;" horiz-adv-x="981" 
d="M935 124v-102q-62 -22 -157 -22t-153 28q-86 -34 -191 -34q-181 0 -297.5 128.5t-116.5 315.5t116.5 315.5t297.5 128.5q94 0 191 -35q63 28 154 28q94 0 155 -19v-108q-48 42 -148 42q-44 0 -98 -12v-217h101q96 0 147 48v-171q-58 38 -155 38h-92v-379q40 -9 94 -9
q96 0 152 36zM434 80q89 0 141 24v659q-56 33 -141 33q-134 0 -214.5 -102.5t-80.5 -255.5t80.5 -255.5t214.5 -102.5z" />
    <glyph glyph-name="oe" unicode="&#x153;" horiz-adv-x="815" 
d="M745 124v-102q-52 -22 -97 -22q-138 0 -207 97q-61 -97 -170 -97q-241 0 -241 363q0 73 22.5 137.5t75.5 109.5t126 45q107 0 173 -92q60 92 178 92q85 0 134.5 -55.5t49.5 -130.5q5 -91 -56.5 -141t-176.5 -50q-44 0 -63 4q15 -110 62 -152.5t103 -42.5q39 0 87 37z
M268 82q31 0 53.5 22t33.5 56.5t16 67.5t5 64q0 53 -6 100.5t-19.5 89.5t-38 66.5t-57.5 24.5q-31 0 -53.5 -22t-33.5 -56.5t-16 -67.5t-5 -64q0 -53 6 -100.5t19.5 -89.5t38 -66.5t57.5 -24.5zM595 570q-48 0 -78 -54t-30 -151h69q61 0 90 19.5t29 84.5q0 47 -22.5 74
t-57.5 27z" />
    <glyph glyph-name="Racute" unicode="&#x154;" horiz-adv-x="536" 
d="M506 0h-149q6 49 -8 113l-91 393h-76v-506q-62 3 -112 10v847q88 18 204 18q104 0 163.5 -46t59.5 -130q0 -67 -44.5 -110t-94.5 -49l101 -436q14 -62 47 -104zM182 591h91q51 0 81.5 26.5t30.5 74.5q0 97 -104 97q-61 0 -99 -8v-190zM276 936h-65l41 80q27 50 16 80h111
q6 -21 -30 -72z" />
    <glyph glyph-name="racute" unicode="&#x155;" horiz-adv-x="345" 
d="M335 632v-102q-33 24 -69 24q-42 0 -65.5 -32t-23.5 -94v-428q-64 4 -110 14v521q1 63 -22 105h125q4 -51 6 -88h10q33 103 99 103q39 0 50 -23zM181 701h-65l41 80q27 50 16 80h111q6 -21 -30 -72z" />
    <glyph glyph-name="Rcommaaccent" unicode="&#x156;" horiz-adv-x="536" 
d="M506 0h-149q6 49 -8 113l-91 393h-76v-506q-62 3 -112 10v847q88 18 204 18q104 0 163.5 -46t59.5 -130q0 -67 -44.5 -110t-94.5 -49l101 -436q14 -62 47 -104zM182 591h91q51 0 81.5 26.5t30.5 74.5q0 97 -104 97q-61 0 -99 -8v-190zM266 -200h-65l19 80q13 51 -5 80
q55 14 111 0q14 -27 -11 -72z" />
    <glyph glyph-name="rcommaaccent" unicode="&#x157;" horiz-adv-x="345" 
d="M335 632v-102q-33 24 -69 24q-42 0 -65.5 -32t-23.5 -94v-428q-64 4 -110 14v521q1 63 -22 105h125q4 -51 6 -88h10q33 103 99 103q39 0 50 -23zM115 -200h-65l19 80q13 51 -5 80q56 14 111 0q14 -27 -11 -72z" />
    <glyph glyph-name="Rcaron" unicode="&#x158;" horiz-adv-x="536" 
d="M506 0h-149q6 49 -8 113l-91 393h-76v-506q-62 3 -112 10v847q88 18 204 18q104 0 163.5 -46t59.5 -130q0 -67 -44.5 -110t-94.5 -49l101 -436q14 -62 47 -104zM182 591h91q51 0 81.5 26.5t30.5 74.5q0 97 -104 97q-61 0 -99 -8v-190zM218 1096l49 -69l50 69h65l-41 -80
q-27 -50 -16 -80h-115q11 30 -16 80l-41 80h65z" />
    <glyph glyph-name="rcaron" unicode="&#x159;" horiz-adv-x="345" 
d="M335 632v-102q-33 24 -69 24q-42 0 -65.5 -32t-23.5 -94v-428q-64 4 -110 14v521q1 63 -22 105h125q4 -51 6 -88h10q33 103 99 103q39 0 50 -23zM123 861l49 -69l50 69h65l-41 -80q-27 -50 -16 -80h-115q11 30 -16 80l-41 80h65z" />
    <glyph glyph-name="Sacute" unicode="&#x15a;" horiz-adv-x="489" 
d="M268 936h-65l41 80q27 50 16 80h111q6 -21 -30 -72zM140 685q0 -10 2.5 -20.5t6 -19.5t11.5 -20.5t13.5 -19t17.5 -19.5t19 -18.5t22 -19t22 -18.5t24.5 -20t24.5 -19q79 -64 124 -129t45 -154q0 -90 -62 -149t-162 -59q-111 0 -180 44v168q20 -51 73 -88.5t106 -37.5
q56 0 88 27.5t32 80.5q0 38 -25 77t-51.5 63t-77.5 65l-15 12q-49 40 -79.5 72t-55.5 84.5t-25 111.5q0 88 61.5 142t160.5 54q76 0 143 -31v-156q-19 49 -58 78t-85 29q-57 0 -88.5 -29.5t-31.5 -80.5z" />
    <glyph glyph-name="sacute" unicode="&#x15b;" horiz-adv-x="430" 
d="M142 493q0 -51 98 -108q35 -20 49 -28.5t43 -31t42 -40.5t24.5 -46.5t11.5 -60.5q0 -76 -53.5 -127t-136.5 -51q-99 0 -164 44v168q19 -52 66 -89t97 -37q38 0 62 19.5t24 58.5q0 17 -8.5 32.5t-30 32.5t-35 26t-46.5 29q-32 20 -53 36t-44.5 41t-35.5 57t-12 70
q0 75 53.5 121t138.5 46q76 0 143 -31v-156q-19 49 -58 78t-85 29q-43 0 -66.5 -22t-23.5 -60zM248 701h-65l41 80q27 50 16 80h111q6 -21 -30 -72z" />
    <glyph glyph-name="Scircumflex" unicode="&#x15c;" horiz-adv-x="489" 
d="M200 936h-65l41 80q27 50 16 80h115q-11 -30 16 -80l41 -80h-65l-50 69zM140 685q0 -10 2.5 -20.5t6 -19.5t11.5 -20.5t13.5 -19t17.5 -19.5t19 -18.5t22 -19t22 -18.5t24.5 -20t24.5 -19q79 -64 124 -129t45 -154q0 -90 -62 -149t-162 -59q-111 0 -180 44v168
q20 -51 73 -88.5t106 -37.5q56 0 88 27.5t32 80.5q0 38 -25 77t-51.5 63t-77.5 65l-15 12q-49 40 -79.5 72t-55.5 84.5t-25 111.5q0 88 61.5 142t160.5 54q76 0 143 -31v-156q-19 49 -58 78t-85 29q-57 0 -88.5 -29.5t-31.5 -80.5z" />
    <glyph glyph-name="scircumflex" unicode="&#x15d;" horiz-adv-x="430" 
d="M142 493q0 -51 98 -108q35 -20 49 -28.5t43 -31t42 -40.5t24.5 -46.5t11.5 -60.5q0 -76 -53.5 -127t-136.5 -51q-99 0 -164 44v168q19 -52 66 -89t97 -37q38 0 62 19.5t24 58.5q0 17 -8.5 32.5t-30 32.5t-35 26t-46.5 29q-32 20 -53 36t-44.5 41t-35.5 57t-12 70
q0 75 53.5 121t138.5 46q76 0 143 -31v-156q-19 49 -58 78t-85 29q-43 0 -66.5 -22t-23.5 -60zM170 701h-65l41 80q27 50 16 80h115q-11 -30 16 -80l41 -80h-65l-50 69z" />
    <glyph glyph-name="Scedilla" unicode="&#x15e;" horiz-adv-x="489" 
d="M140 685q0 -10 2.5 -20.5t6 -19.5t11.5 -20.5t13.5 -19t17.5 -19.5t19 -18.5t22 -19t22 -18.5t24.5 -20t24.5 -19q79 -64 124 -129t45 -154q0 -81 -51 -138.5t-136 -67.5v-6q64 -25 64 -88q0 -48 -34 -78t-83 -30q-35 0 -72 21l6 43q28 -15 56 -15t46 15.5t18 43.5
q0 24 -21 40.5t-47 16.5q-24 0 -37 -7l13 45q-75 8 -126 41v168q20 -51 73 -88.5t106 -37.5q56 0 88 27.5t32 80.5q0 38 -25 77t-51.5 63t-77.5 65l-15 12q-49 40 -79.5 72t-55.5 84.5t-25 111.5q0 88 61.5 142t160.5 54q76 0 143 -31v-156q-19 49 -58 78t-85 29
q-57 0 -88.5 -29.5t-31.5 -80.5z" />
    <glyph glyph-name="scedilla" unicode="&#x15f;" horiz-adv-x="430" 
d="M264 -6q70 -25 70 -86q0 -48 -34 -78t-83 -30q-35 0 -72 21l6 43q28 -15 56 -15t46 15.5t18 43.5q0 24 -21 40.5t-47 16.5q-24 0 -37 -7l14 44q-76 8 -124 42v168q19 -52 66 -89t97 -37q38 0 62 19.5t24 58.5q0 17 -8.5 32.5t-30 32.5t-35 26t-46.5 29q-32 20 -53 36
t-44.5 41t-35.5 57t-12 70q0 75 53.5 121t138.5 46q76 0 143 -31v-156q-19 49 -58 78t-85 29q-43 0 -66.5 -22t-23.5 -60q0 -51 98 -108q35 -20 49 -28.5t43 -31t42 -40.5t24.5 -46.5t11.5 -60.5q0 -65 -40 -113t-106 -61v-10z" />
    <glyph glyph-name="Scaron" unicode="&#x160;" horiz-adv-x="489" 
d="M200 1096l49 -69l50 69h65l-41 -80q-27 -50 -16 -80h-115q11 30 -16 80l-41 80h65zM140 685q0 -10 2.5 -20.5t6 -19.5t11.5 -20.5t13.5 -19t17.5 -19.5t19 -18.5t22 -19t22 -18.5t24.5 -20t24.5 -19q79 -64 124 -129t45 -154q0 -90 -62 -149t-162 -59q-111 0 -180 44v168
q20 -51 73 -88.5t106 -37.5q56 0 88 27.5t32 80.5q0 38 -25 77t-51.5 63t-77.5 65l-15 12q-49 40 -79.5 72t-55.5 84.5t-25 111.5q0 88 61.5 142t160.5 54q76 0 143 -31v-156q-19 49 -58 78t-85 29q-57 0 -88.5 -29.5t-31.5 -80.5z" />
    <glyph glyph-name="scaron" unicode="&#x161;" horiz-adv-x="430" 
d="M142 493q0 -51 98 -108q35 -20 49 -28.5t43 -31t42 -40.5t24.5 -46.5t11.5 -60.5q0 -76 -53.5 -127t-136.5 -51q-99 0 -164 44v168q19 -52 66 -89t97 -37q38 0 62 19.5t24 58.5q0 17 -8.5 32.5t-30 32.5t-35 26t-46.5 29q-32 20 -53 36t-44.5 41t-35.5 57t-12 70
q0 75 53.5 121t138.5 46q76 0 143 -31v-156q-19 49 -58 78t-85 29q-43 0 -66.5 -22t-23.5 -60zM170 861l49 -69l50 69h65l-41 -80q-27 -50 -16 -80h-115q11 30 -16 80l-41 80h65z" />
    <glyph glyph-name="Tcommaaccent" unicode="&#x162;" horiz-adv-x="433" 
d="M216 875q132 0 207 -22v-102q-47 31 -151 37v-788q-65 5 -111 14v773q-104 -6 -151 -37v102q72 21 206 23zM214 -200h-65l19 80q13 51 -5 80q55 14 111 0q14 -27 -11 -72z" />
    <glyph glyph-name="tcommaaccent" unicode="&#x163;" horiz-adv-x="367" 
d="M169 536v-358q0 -49 18.5 -70t65.5 -21q53 0 84 37v-102q-44 -22 -117 -22q-77 0 -121 48t-44 130v558q57 21 114 32v-147h95q39 0 72 9v-112q-4 1 -33.5 9.5t-46.5 8.5h-87zM174 -200h-65l19 80q13 51 -5 80q55 14 111 0q14 -27 -11 -72z" />
    <glyph glyph-name="Tcaron" unicode="&#x164;" horiz-adv-x="433" 
d="M216 875q132 0 207 -22v-102q-47 31 -151 37v-788q-65 5 -111 14v773q-104 -6 -151 -37v102q72 21 206 23zM167 1096l49 -69l50 69h65l-41 -80q-27 -50 -16 -80h-115q11 30 -16 80l-41 80h65z" />
    <glyph glyph-name="tcaron" unicode="&#x165;" horiz-adv-x="367" 
d="M169 536v-358q0 -49 18.5 -70t65.5 -21q53 0 84 37v-102q-44 -22 -117 -22q-77 0 -121 48t-44 130v558q57 21 114 32v-147h95q39 0 72 9v-112q-4 1 -33.5 9.5t-46.5 8.5h-87zM302 708h-65l19 80q13 51 -5 80q55 14 111 0q14 -27 -11 -72z" />
    <glyph glyph-name="Tbar" unicode="&#x166;" horiz-adv-x="433" 
d="M360 662v-65h-88v-597q-65 5 -111 14v583q-16 0 -31.5 -3t-32 -8t-24.5 -7v92q33 -9 88 -9v125q-104 -6 -151 -37v102q72 21 206 23q132 0 207 -22v-102q-47 31 -151 37v-126h88z" />
    <glyph glyph-name="tbar" unicode="&#x167;" horiz-adv-x="367" 
d="M264 380v-65h-95v-137q0 -49 18.5 -70t65.5 -21q53 0 84 37v-102q-44 -22 -117 -22q-77 0 -121 48t-44 130v137h-11q-13 -2 -35 -9t-32 -9v92q33 -9 78 -9v356q57 21 114 32v-147h95q39 0 72 9v-112q-4 1 -33.5 9.5t-46.5 8.5h-87v-156h95z" />
    <glyph glyph-name="Utilde" unicode="&#x168;" horiz-adv-x="569" 
d="M164 875v-547q0 -142 26 -194t86 -54q111 0 111 131l-1 650q45 9 112 14l-1 -770q0 -65 22 -105h-125q-4 48 -6 88h-9q-43 -93 -133 -93q-106 6 -151 84.5t-45 248.5v533q44 9 114 14zM188 932h-54q13 113 89 113q22 0 65 -11t64 -11q24 0 29 29h54q-3 -44 -26 -80
t-63 -36q-22 0 -64 11t-63 11q-24 0 -31 -26z" />
    <glyph glyph-name="utilde" unicode="&#x169;" horiz-adv-x="558" 
d="M491 650v-545q0 -65 22 -105h-129q-4 51 -6 88h-10q-43 -93 -132 -93q-85 0 -135.5 60.5t-50.5 159.5v425q48 7 114 10v-435q0 -135 107 -135q56 0 81 37.5t25 97.5v425q48 7 114 10zM177 697h-54q13 113 89 113q22 0 65 -11t64 -11q24 0 29 29h54q-3 -44 -26 -80
t-63 -36q-22 0 -64 11t-63 11q-24 0 -31 -26z" />
    <glyph glyph-name="Umacron" unicode="&#x16a;" horiz-adv-x="569" 
d="M164 875v-547q0 -142 26 -194t86 -54q111 0 111 131l-1 650q45 9 112 14l-1 -770q0 -65 22 -105h-125q-4 48 -6 88h-9q-43 -93 -133 -93q-106 6 -151 84.5t-45 248.5v533q44 9 114 14zM428 1001v-65h-207q-17 0 -46.5 -8.5t-33.5 -9.5v92q33 -9 72 -9h215z" />
    <glyph glyph-name="umacron" unicode="&#x16b;" horiz-adv-x="558" 
d="M491 650v-545q0 -65 22 -105h-129q-4 51 -6 88h-10q-43 -93 -132 -93q-85 0 -135.5 60.5t-50.5 159.5v425q48 7 114 10v-435q0 -135 107 -135q56 0 81 37.5t25 97.5v425q48 7 114 10zM417 766v-65h-207q-17 0 -46.5 -8.5t-33.5 -9.5v92q33 -9 72 -9h215z" />
    <glyph glyph-name="Ubreve" unicode="&#x16c;" horiz-adv-x="569" 
d="M164 875v-547q0 -142 26 -194t86 -54q111 0 111 131l-1 650q45 9 112 14l-1 -770q0 -65 22 -105h-125q-4 48 -6 88h-9q-43 -93 -133 -93q-106 6 -151 84.5t-45 248.5v533q44 9 114 14zM284 996q42 0 56 30t5 71q44 8 81 0q10 -62 -25.5 -111t-116.5 -50q-81 1 -116.5 50
t-25.5 111q40 7 81 0q-9 -41 5 -71t56 -30z" />
    <glyph glyph-name="ubreve" unicode="&#x16d;" horiz-adv-x="558" 
d="M491 650v-545q0 -65 22 -105h-129q-4 51 -6 88h-10q-43 -93 -132 -93q-85 0 -135.5 60.5t-50.5 159.5v425q48 7 114 10v-435q0 -135 107 -135q56 0 81 37.5t25 97.5v425q48 7 114 10zM274 761q42 0 56 30t5 71q44 8 81 0q10 -62 -25.5 -111t-116.5 -50q-81 1 -116.5 50
t-25.5 111q40 8 81 0q-9 -41 5 -71t56 -30z" />
    <glyph glyph-name="Uring" unicode="&#x16e;" horiz-adv-x="569" 
d="M164 875v-547q0 -142 26 -194t86 -54q111 0 111 131l-1 650q45 9 112 14l-1 -770q0 -65 22 -105h-125q-4 48 -6 88h-9q-43 -93 -133 -93q-106 6 -151 84.5t-45 248.5v533q44 9 114 14zM284 936q-37 0 -63 26t-26 63t26 63t63 26t63 -26t26 -63t-26 -63t-63 -26zM284 988
q16 0 27 11t11 26q0 16 -11 27t-27 11t-27 -11t-11 -27q0 -15 11 -26t27 -11z" />
    <glyph glyph-name="uring" unicode="&#x16f;" horiz-adv-x="558" 
d="M491 650v-545q0 -65 22 -105h-129q-4 51 -6 88h-10q-43 -93 -132 -93q-85 0 -135.5 60.5t-50.5 159.5v425q48 7 114 10v-435q0 -135 107 -135q56 0 81 37.5t25 97.5v425q48 7 114 10zM274 701q-37 0 -63 26t-26 63t26 63t63 26t63 -26t26 -63t-26 -63t-63 -26zM274 753
q16 0 27 11t11 26q0 16 -11 27t-27 11t-27 -11t-11 -27q0 -15 11 -26t27 -11z" />
    <glyph glyph-name="Uhungarumlaut" unicode="&#x170;" horiz-adv-x="569" 
d="M164 875v-547q0 -142 26 -194t86 -54q111 0 111 131l-1 650q45 9 112 14l-1 -770q0 -65 22 -105h-125q-4 48 -6 88h-9q-43 -93 -133 -93q-106 6 -151 84.5t-45 248.5v533q44 9 114 14zM237 936h-65l41 80q27 50 16 80h111q6 -21 -30 -72zM388 936h-65l41 80q27 50 16 80
h111q6 -21 -30 -72z" />
    <glyph glyph-name="uhungarumlaut" unicode="&#x171;" horiz-adv-x="558" 
d="M491 650v-545q0 -65 22 -105h-129q-4 51 -6 88h-10q-43 -93 -132 -93q-85 0 -135.5 60.5t-50.5 159.5v425q48 7 114 10v-435q0 -135 107 -135q56 0 81 37.5t25 97.5v425q48 7 114 10zM378 701h-65l41 80q27 50 16 80h111q6 -21 -30 -72zM227 701h-65l41 80q27 50 16 80
h111q6 -21 -30 -72z" />
    <glyph glyph-name="Uogonek" unicode="&#x172;" horiz-adv-x="569" 
d="M326 -95q0 57 68 95q-4 48 -6 88h-9q-43 -93 -133 -93q-106 6 -151 84.5t-45 248.5v533q44 9 114 14v-547q0 -142 26 -194t86 -54q111 0 111 131l-1 650q45 9 112 14l-1 -770q-1 -63 22 -105q-134 -31 -134 -95q0 -29 19 -44.5t48 -15.5q19 0 41 5l-2 -39
q-21 -11 -49 -11q-50 0 -83 28.5t-33 76.5z" />
    <glyph glyph-name="uogonek" unicode="&#x173;" horiz-adv-x="558" 
d="M314 -95q0 58 70 96q-1 4 -6 87h-10q-43 -93 -132 -93q-85 0 -135.5 60.5t-50.5 159.5v425q48 7 114 10v-435q0 -135 107 -135q56 0 81 37.5t25 97.5v425q48 7 114 10v-545q0 -65 22 -105q-140 -31 -140 -95q0 -29 19 -44.5t48 -15.5q19 0 41 5l-2 -39q-21 -11 -49 -11
q-50 0 -83 28.5t-33 76.5z" />
    <glyph glyph-name="Wcircumflex" unicode="&#x174;" horiz-adv-x="877" 
d="M437 414l-92 -414q-17 2 -63 7t-63 8l-169 754q-12 50 -32 84h128v-9q0 -21 19 -112t104 -477h28q8 43 42.5 191.5t41.5 193.5q17 118 -36 213h128v-9q2 -50 10 -84l115 -506h13q85 386 104 477.5t19 112.5v9h126q-21 -39 -30 -84l-171 -769l-40 5t-41.5 5t-30.5 5
l-99 487h-11v-88zM359 936h-65l41 80q27 50 16 80h115q-11 -30 16 -80l41 -80h-65l-50 69z" />
    <glyph glyph-name="wcircumflex" unicode="&#x175;" horiz-adv-x="723" 
d="M302 701h-65l41 80q27 50 16 80h115q-11 -30 16 -80l41 -80h-65l-50 69zM129 620l83 -432h14l58 300q15 77 -17 152h143v-20l93 -432h10l81 432v20h141q-10 -13 -32 -67.5t-32 -97.5l-103 -475q-83 6 -121 14l-80 425h-10l-81 -439q-88 6 -125 14l-105 473
q-7 31 -29.5 88t-28.5 65h141v-20z" />
    <glyph glyph-name="Ycircumflex" unicode="&#x176;" horiz-adv-x="486" 
d="M203 936h-65l41 80q27 50 16 80h115q-11 -30 16 -80l41 -80h-65l-50 69zM250 573h11l59 187q13 43 10 93h135q-19 -36 -33 -84l-232 -769q-89 6 -116 12l156 495q-73 0 -121 52q-61 66 -82 203q-11 79 -13 91h121q-11 -45 0 -100q20 -112 56 -153q19 -23 49 -27z" />
    <glyph glyph-name="ycircumflex" unicode="&#x177;" horiz-adv-x="474" 
d="M124 620l97 -373q4 -17 6.5 -54.5t7.5 -54.5h10q5 17 7.5 54.5t6.5 54.5l93 373v20h132q-37 -74 -62 -159l-154 -567q-22 -114 -145 -114q-44 0 -106 16v108q54 -34 92 -34q30 0 43.5 23.5t26.5 100.5l-126 463q-29 99 -63 163h134v-20zM187 701h-65l41 80q27 50 16 80
h115q-11 -30 16 -80l41 -80h-65l-50 69z" />
    <glyph glyph-name="Ydieresis" unicode="&#x178;" horiz-adv-x="486" 
d="M223 1052v-116q-78 3 -114 10v93q36 7 114 13zM397 1052v-116q-78 3 -114 10v93q36 7 114 13zM250 573h11l59 187q13 43 10 93h135q-19 -36 -33 -84l-232 -769q-89 6 -116 12l156 495q-73 0 -121 52q-61 66 -82 203q-11 79 -13 91h121q-11 -45 0 -100q20 -112 56 -153
q19 -23 49 -27z" />
    <glyph glyph-name="Zacute" unicode="&#x179;" horiz-adv-x="500" 
d="M332 566h136v-85h-158l-114 -401q29 -3 70 -3q96 0 154 37v-102q-75 -22 -187 -22q-97 0 -173 10l137 473v7h-20q-96 0 -147 -48v171q58 -38 155 -38h35l65 228q-30 3 -72 3q-96 0 -154 -37v102q75 22 187 22q99 0 173 -10l-87 -300v-7zM278 936h-65l41 80q27 50 16 80
h111q6 -21 -30 -72z" />
    <glyph glyph-name="zacute" unicode="&#x17a;" horiz-adv-x="449" 
d="M253 701h-65l41 80q27 50 16 80h111q6 -21 -30 -72zM181 90q29 -3 70 -3q96 0 154 37v-102q-75 -22 -187 -22q-105 0 -183 14l235 540v10q-30 3 -72 3q-96 0 -154 -37v102q75 22 187 22q118 0 183 -14l-233 -539v-11z" />
    <glyph glyph-name="Zdotaccent" unicode="&#x17b;" horiz-adv-x="500" 
d="M332 566h136v-85h-158l-114 -401q29 -3 70 -3q96 0 154 37v-102q-75 -22 -187 -22q-97 0 -173 10l137 473v7h-20q-96 0 -147 -48v171q58 -38 155 -38h35l65 228q-30 3 -72 3q-96 0 -154 -37v102q75 22 187 22q99 0 173 -10l-87 -300v-7zM307 1052v-116q-78 3 -114 10v93
q36 7 114 13z" />
    <glyph glyph-name="zdotaccent" unicode="&#x17c;" horiz-adv-x="449" 
d="M281 817v-116q-78 3 -114 10v93q36 7 114 13zM181 90q29 -3 70 -3q96 0 154 37v-102q-75 -22 -187 -22q-105 0 -183 14l235 540v10q-30 3 -72 3q-96 0 -154 -37v102q75 22 187 22q118 0 183 -14l-233 -539v-11z" />
    <glyph glyph-name="Zcaron" unicode="&#x17d;" horiz-adv-x="500" 
d="M332 566h136v-85h-158l-114 -401q29 -3 70 -3q96 0 154 37v-102q-75 -22 -187 -22q-97 0 -173 10l137 473v7h-20q-96 0 -147 -48v171q58 -38 155 -38h35l65 228q-30 3 -72 3q-96 0 -154 -37v102q75 22 187 22q99 0 173 -10l-87 -300v-7zM200 1096l49 -69l50 69h65
l-41 -80q-27 -50 -16 -80h-115q11 30 -16 80l-41 80h65z" />
    <glyph glyph-name="zcaron" unicode="&#x17e;" horiz-adv-x="449" 
d="M185 861l49 -69l50 69h65l-41 -80q-27 -50 -16 -80h-115q11 30 -16 80l-41 80h65zM181 90q29 -3 70 -3q96 0 154 37v-102q-75 -22 -187 -22q-105 0 -183 14l235 540v10q-30 3 -72 3q-96 0 -154 -37v102q75 22 187 22q118 0 183 -14l-233 -539v-11z" />
    <glyph glyph-name="longs" unicode="&#x17f;" horiz-adv-x="360" 
d="M182 696v-696q-62 3 -112 10v686q0 83 43 130.5t120 47.5q73 0 117 -22v-102q-31 37 -84 37q-47 0 -65.5 -21t-18.5 -70z" />
    <glyph glyph-name="florin" unicode="&#x192;" horiz-adv-x="350" 
d="M-63 536v85h128v75q0 83 43 130.5t120 47.5q73 0 117 -22v-102q-31 37 -84 37q-47 0 -65.5 -21t-18.5 -70v-75h96q39 0 72 9v-112q-4 1 -33.5 9.5t-46.5 8.5h-88v-558q0 -83 -43 -130.5t-120 -47.5q-73 0 -117 22v102q31 -37 84 -37q47 0 65.5 21t18.5 70v558h-128z" />
    <glyph glyph-name="AEacute" unicode="&#x1fc;" horiz-adv-x="681" 
d="M448 0q-69 0 -123 10v140q-95 -2 -170 -34q-14 -64 -8 -116h-137q33 42 47 104l170 730q152 41 252 41q94 0 155 -19v-108q-48 42 -148 42q-32 0 -48 -8v-221h51q96 0 147 48v-171q-58 38 -155 38h-42v-386q11 -2 44 -2q96 0 152 36v-102q-75 -22 -187 -22zM180 210h13
q50 27 132 29v528l-25 -4q-15 -50 -44 -185zM419 936h-65l41 80q27 50 16 80h111q6 -21 -30 -72z" />
    <glyph glyph-name="aeacute" unicode="&#x1fd;" horiz-adv-x="759" 
d="M689 124v-102q-52 -22 -107 -22q-134 0 -204 106h-12q-18 -55 -58.5 -83t-92.5 -28q-84 0 -136.5 51.5t-52.5 134.5q-5 91 58.5 161t174.5 70q30 0 61 -7v72q0 49 -20.5 70t-73.5 21q-92 0 -144 -47v112q75 22 167 22q44 0 83.5 -17.5t61.5 -45.5q60 63 155 63
q85 0 134.5 -55.5t49.5 -130.5q5 -91 -56.5 -141t-176.5 -50q-40 0 -64 5q25 -196 156 -196q49 0 97 37zM320 325h-61q-54 0 -87.5 -36t-33.5 -98q0 -47 24 -75.5t63 -28.5q43 0 69 28t26 86v124zM539 570q-48 0 -78 -54t-30 -151h69q61 0 90 19.5t29 84.5q0 47 -22.5 74
t-57.5 27zM400 701h-65l41 80q27 50 16 80h111q6 -21 -30 -72z" />
    <glyph glyph-name="Oslashacute" unicode="&#x1fe;" horiz-adv-x="868" 
d="M579 856q123 -46 196 -159.5t73 -258.5q0 -187 -116.5 -315.5t-297.5 -128.5q-41 0 -84 8q-3 -13 -3.5 -27.5t0 -31.5t0.5 -25l-89 24q16 28 30 78q-123 46 -195.5 159.5t-72.5 258.5q0 187 116.5 315.5t297.5 128.5q40 0 82 -8l1 1q3 12 3.5 26t0 31t-0.5 25l89 -24
q-16 -27 -30 -77zM434 80q134 0 214.5 102.5t80.5 255.5q0 107 -41.5 194.5t-116.5 136.5h-15l-183 -683q29 -6 61 -6zM299 107h12l183 683q-28 6 -60 6q-134 0 -214.5 -102.5t-80.5 -255.5q0 -109 42 -196.5t118 -134.5zM412 936h-65l41 80q27 50 16 80h111q6 -21 -30 -72z
" />
    <glyph glyph-name="oslashacute" unicode="&#x1ff;" 
d="M254 650q34 0 64 -9q4 14 4.5 29.5t0 32.5t-0.5 25l89 -24q-16 -27 -34 -91q116 -81 116 -321q0 -54 -13.5 -104.5t-39.5 -93t-70 -68.5t-99 -26q-27 0 -57 5q-3 -13 -3.5 -27.5t0 -31.5t0.5 -25l-89 24q16 28 31 84q-123 73 -123 334q0 54 13.5 104t40 91.5t70.5 66.5
t100 25zM172 144h12l111 413q-19 11 -40 11q-31 0 -53.5 -21t-33.5 -55t-16 -66t-5 -63q0 -104 25 -219zM268 82q31 0 53.5 22t33.5 56.5t16 67.5t5 64q0 77 -19 201h-12v-1l-109 -404q15 -6 32 -6zM240 701h-65l41 80q27 50 16 80h111q6 -21 -30 -72z" />
    <glyph glyph-name="Scommaaccent" unicode="&#x218;" horiz-adv-x="489" 
d="M259 -200h-65l19 80q13 51 -5 80q56 14 111 0q14 -27 -11 -72zM140 685q0 -10 2.5 -20.5t6 -19.5t11.5 -20.5t13.5 -19t17.5 -19.5t19 -18.5t22 -19t22 -18.5t24.5 -20t24.5 -19q79 -64 124 -129t45 -154q0 -90 -62 -149t-162 -59q-111 0 -180 44v168q20 -51 73 -88.5
t106 -37.5q56 0 88 27.5t32 80.5q0 38 -25 77t-51.5 63t-77.5 65l-15 12q-49 40 -79.5 72t-55.5 84.5t-25 111.5q0 88 61.5 142t160.5 54q76 0 143 -31v-156q-19 49 -58 78t-85 29q-57 0 -88.5 -29.5t-31.5 -80.5z" />
    <glyph glyph-name="scommaaccent" unicode="&#x219;" horiz-adv-x="430" 
d="M142 493q0 -51 98 -108q35 -20 49 -28.5t43 -31t42 -40.5t24.5 -46.5t11.5 -60.5q0 -76 -53.5 -127t-136.5 -51q-99 0 -164 44v168q19 -52 66 -89t97 -37q38 0 62 19.5t24 58.5q0 17 -8.5 32.5t-30 32.5t-35 26t-46.5 29q-32 20 -53 36t-44.5 41t-35.5 57t-12 70
q0 75 53.5 121t138.5 46q76 0 143 -31v-156q-19 49 -58 78t-85 29q-43 0 -66.5 -22t-23.5 -60zM218 -200h-65l19 80q13 51 -5 80q55 14 111 0q14 -27 -11 -72z" />
    <glyph glyph-name="dotlessj" unicode="&#x237;" horiz-adv-x="345" 
d="M20 512v108q91 29 255 16v-674q0 -162 -149 -162q-44 0 -106 16v108q54 -34 92 -34q29 0 40.5 16.5t11.5 55.5v592q-96 -2 -144 -42z" />
    <glyph glyph-name="circumflex" unicode="&#x2c6;" horiz-adv-x="249" 
d="M75 701h-65l41 80q27 50 16 80h115q-11 -30 16 -80l41 -80h-65l-50 69z" />
    <glyph glyph-name="caron" unicode="&#x2c7;" horiz-adv-x="249" 
d="M75 861l49 -69l50 69h65l-41 -80q-27 -50 -16 -80h-115q11 30 -16 80l-41 80h65z" />
    <glyph glyph-name="breve" unicode="&#x2d8;" horiz-adv-x="310" 
d="M155 761q42 0 56 30t5 71q44 8 81 0q10 -62 -25.5 -111t-116.5 -50q-81 1 -116.5 50t-25.5 111q41 8 81 0q-9 -41 5 -71t56 -30z" />
    <glyph glyph-name="dotaccent" unicode="&#x2d9;" horiz-adv-x="134" 
d="M124 817v-116q-78 3 -114 10v93q36 7 114 13z" />
    <glyph glyph-name="ring" unicode="&#x2da;" horiz-adv-x="198" 
d="M99 701q-37 0 -63 26t-26 63t26 63t63 26t63 -26t26 -63t-26 -63t-63 -26zM99 753q16 0 27 11t11 26q0 16 -11 27t-27 11t-27 -11t-11 -27q0 -15 11 -26t27 -11z" />
    <glyph glyph-name="ogonek" unicode="&#x2db;" horiz-adv-x="187" 
d="M10 -95q0 64 89 106h63q-93 -54 -93 -106q0 -29 19 -44.5t48 -15.5q19 0 41 5l-2 -39q-21 -11 -49 -11q-50 0 -83 28.5t-33 76.5z" />
    <glyph glyph-name="tilde" unicode="&#x2dc;" horiz-adv-x="321" 
d="M64 697h-54q13 113 89 113q22 0 65 -11t64 -11q24 0 29 29h54q-3 -44 -26 -80t-63 -36q-22 0 -64 11t-63 11q-24 0 -31 -26z" />
    <glyph glyph-name="hungarumlaut" unicode="&#x2dd;" horiz-adv-x="340" 
d="M75 701h-65l41 80q27 50 16 80h111q6 -21 -30 -72zM226 701h-65l41 80q27 50 16 80h111q6 -21 -30 -72z" />
    <glyph glyph-name="afii10023" unicode="&#x401;" horiz-adv-x="471" 
d="M425 124v-102q-75 -22 -187 -22q-99 0 -173 10v847q88 18 204 18q94 0 155 -19v-108q-48 42 -148 42q-62 0 -98 -8v-221h101q96 0 147 48v-171q-58 38 -155 38h-92v-383q27 -5 94 -5q96 0 152 36zM223 1048v-116q-78 3 -114 10v93q36 7 114 13zM397 1048v-116
q-78 3 -114 10v93q36 7 114 13z" />
    <glyph glyph-name="afii10051" unicode="&#x402;" horiz-adv-x="557" 
d="M202 566h11q41 89 131 89q64 0 113.5 -73t49.5 -205v-175q0 -108 -53 -158.5t-174 -43.5v103q60 -11 88 12q26 18 26 82v180q0 96 -28 143.5t-73 47.5q-87 0 -91 -149v-419q-65 5 -111 14v773q-104 -6 -151 -37v102q72 21 206 23q132 0 207 -22v-102q-47 31 -151 37v-222
z" />
    <glyph glyph-name="afii10052" unicode="&#x403;" horiz-adv-x="435" 
d="M177 783h-1v-783q-65 5 -111 14v851q74 10 173 10q112 0 187 -22v-102q-58 37 -154 37q-67 0 -94 -5zM243 936h-65l41 80q27 50 16 80h111q6 -21 -30 -72z" />
    <glyph glyph-name="afii10053" unicode="&#x404;" horiz-adv-x="469" 
d="M157 561h135q96 0 147 48v-171q-58 38 -155 38h-132q0 -95 13.5 -167t34.5 -113t49 -66.5t53 -34t51 -8.5q38 0 86 37v-102q-52 -22 -96 -22q-48 0 -89.5 12.5t-82 46t-68.5 85.5t-45.5 136t-17.5 193q0 182 74 292t206 110q30 0 51.5 -2.5t30 -5t37.5 -11.5v-108
q-30 22 -54.5 32t-63.5 10q-67 0 -115.5 -62t-48.5 -167z" />
    <glyph glyph-name="afii10054" unicode="&#x405;" horiz-adv-x="489" 
d="M140 685q0 -10 2.5 -20.5t6 -19.5t11.5 -20.5t13.5 -19t17.5 -19.5t19 -18.5t22 -19t22 -18.5t24.5 -20t24.5 -19q79 -64 124 -129t45 -154q0 -90 -62 -149t-162 -59q-111 0 -180 44v168q20 -51 73 -88.5t106 -37.5q56 0 88 27.5t32 80.5q0 38 -25 77t-51.5 63t-77.5 65
l-15 12q-49 40 -79.5 72t-55.5 84.5t-25 111.5q0 88 61.5 142t160.5 54q76 0 143 -31v-156q-19 49 -58 78t-85 29q-57 0 -88.5 -29.5t-31.5 -80.5z" />
    <glyph glyph-name="afii10055" unicode="&#x406;" horiz-adv-x="252" 
d="M182 875v-875q-62 3 -112 10v851q45 9 112 14z" />
    <glyph glyph-name="afii10056" unicode="&#x407;" horiz-adv-x="292" 
d="M182 875v-875q-62 3 -112 10v851q45 9 112 14zM270 1052v-116q-78 3 -114 10v93q36 7 114 13zM96 1052v-116q-78 3 -114 10v93q36 7 114 13z" />
    <glyph glyph-name="afii10057" unicode="&#x408;" horiz-adv-x="355" 
d="M30 746v108q91 29 255 16v-708q0 -162 -149 -162q-44 0 -106 16v108q54 -34 92 -34q29 0 40.5 16.5t11.5 55.5v626q-96 -2 -144 -42z" />
    <glyph glyph-name="afii10058" unicode="&#x409;" horiz-adv-x="847" 
d="M250 875h282v-300h42q114 0 182 -71.5t71 -190.5v-51q-3 -119 -71 -190.5t-182 -71.5h-154v787h-170v-629q0 -72 -37.5 -115t-105.5 -43q-57 0 -97 22v102q27 -37 74 -37q54 0 54 71v707q50 7 112 10zM714 262v51q-2 83 -37.5 129.5t-96.5 46.5h-48v-403h48
q61 0 96.5 46.5t37.5 129.5z" />
    <glyph glyph-name="afii10059" unicode="&#x40a;" horiz-adv-x="804" 
d="M366 565h11v299h-2q27 5 114 11v-300h42q114 0 182 -71.5t71 -190.5v-51q-3 -119 -71 -190.5t-182 -71.5h-154v459q-46 20 -95 20q-54 0 -100 -20v-459q-62 3 -112 10v851q46 9 111 14v-310h13q42 18 86 18q46 0 86 -18zM671 262v51q-2 83 -37.5 129.5t-96.5 46.5h-48
v-403h48q61 0 96.5 46.5t37.5 129.5z" />
    <glyph glyph-name="afii10060" unicode="&#x40b;" horiz-adv-x="569" 
d="M192 551h10q47 99 141 99q72 0 119 -66.5t47 -191.5v-392q-66 3 -114 10v382q0 90 -23 130.5t-74 40.5q-47 0 -76.5 -43t-29.5 -125v-395q-66 3 -114 10v773q-84 -11 -108 -33v102q58 21 166 23q125 0 197 -22v-102q-32 23 -141 33v-233z" />
    <glyph glyph-name="afii10061" unicode="&#x40c;" horiz-adv-x="544" 
d="M397 374v1l56 -271q14 -62 47 -104h-145q6 49 -8 113l-45 222q-14 61 -43 91t-82 30v-456q-62 3 -112 10v851q46 9 111 14v-332q40 0 65 23.5t45 68.5l48 127l37 100q45 13 117 13l-55 -137l-40 -99q-52 -114 -124 -114v-10q36 0 73.5 -34t54.5 -107zM288 932h-65l41 80
q27 50 16 80h111q6 -21 -30 -72z" />
    <glyph glyph-name="afii10062" unicode="&#x40e;" horiz-adv-x="521" 
d="M284 0h-166q36 47 52 94l25 89l-185 682q59 12 114 10l110 -469q3 -16 7 -53.5t9 -55.5h10q5 17 9 55t7 54l121 459q52 13 114 10l-219 -762q-15 -56 -8 -113zM260 992q42 0 56 30t5 71q44 8 81 0q10 -62 -25.5 -111t-116.5 -50q-81 1 -116.5 50t-25.5 111q40 7 81 0
q-9 -41 5 -71t56 -30z" />
    <glyph glyph-name="afii10145" unicode="&#x40f;" horiz-adv-x="543" 
d="M315 0v-48q0 -16 8.5 -44t9.5 -36h-112q9 22 9 72v57q-101 3 -165 22v838q45 9 112 14v-780q50 -7 94 -7q42 0 94 7v766q45 9 113 14v-853q-64 -19 -163 -22z" />
    <glyph glyph-name="afii10017" unicode="&#x410;" horiz-adv-x="543" 
d="M543 0h-150q6 52 -9 123q-56 29 -120 27.5t-119 -34.5q-14 -64 -8 -116h-137q33 42 47 104l170 757q47 10 108 14l173 -772q14 -60 45 -103zM348 225h10l-70 353q-2 12 -6 36.5t-10 42.5h-10q-4 -14 -6.5 -25t-4.5 -25.5t-5 -28.5l-71 -353h10q79 36 163 0z" />
    <glyph glyph-name="afii10018" unicode="&#x411;" horiz-adv-x="497" 
d="M70 0v857q99 18 206 18q94 0 155 -19v-108q-48 42 -148 42q-61 0 -101 -9v-206h42q114 0 182 -71.5t71 -190.5v-51q-3 -119 -71 -190.5t-182 -71.5h-154zM364 262v51q-2 83 -37.5 129.5t-96.5 46.5h-48v-403h48q61 0 96.5 46.5t37.5 129.5z" />
    <glyph glyph-name="afii10019" unicode="&#x412;" horiz-adv-x="555" 
d="M476 712q0 -45 -32.5 -87t-85.5 -53v-15q72 -11 119.5 -71.5t47.5 -190.5t-73.5 -212.5t-192.5 -82.5q-124 0 -194 19v838q88 18 194 18q217 0 217 -163zM177 86h83q67 1 107.5 59.5t40.5 149.5q0 116 -38.5 163.5t-127.5 47.5h-65v-420zM177 781v-190h91q46 0 74 25
t28 76q0 97 -104 97q-51 0 -89 -8z" />
    <glyph glyph-name="afii10020" unicode="&#x413;" horiz-adv-x="435" 
d="M177 783h-1v-783q-65 5 -111 14v851q74 10 173 10q112 0 187 -22v-102q-58 37 -154 37q-67 0 -94 -5z" />
    <glyph glyph-name="afii10021" unicode="&#x414;" horiz-adv-x="553" 
d="M122 0v-99q-62 3 -112 10v176h71q26 28 35 144t8 419v202q58 21 166 23q117 0 187 -22v-766h56v-186q-62 3 -112 10v89h-299zM192 87h173v697q-40 8 -75 8q-17 0 -28 -1.5t-18 -4.5l-8 -3v-133q0 -276 -10 -395t-34 -157v-11z" />
    <glyph glyph-name="afii10022" unicode="&#x415;" horiz-adv-x="471" 
d="M425 124v-102q-75 -22 -187 -22q-99 0 -173 10v847q88 18 204 18q94 0 155 -19v-108q-48 42 -148 42q-62 0 -98 -8v-221h101q96 0 147 48v-171q-58 38 -155 38h-92v-383q27 -5 94 -5q96 0 152 36z" />
    <glyph glyph-name="afii10024" unicode="&#x416;" horiz-adv-x="789" 
d="M329 537h6v323q56 11 115 15v-339h7q12 0 21 4.5t19.5 21t14 23t16.5 33.5q3 5 4 8l62 133q26 63 36 116h149q-42 -40 -74 -106l-63 -137q-26 -58 -56 -87t-72 -29v-9q36 0 76 -36t58 -112l57 -253q13 -60 49 -106h-151q10 54 -9 116l-47 203q-29 118 -97 118v-437
q-73 0 -115 9v427q-67 0 -94 -117l-49 -203q-14 -62 -9 -116h-149q36 46 49 106l58 253q16 76 55 112t75 36v9q-75 0 -127 116l-61 137q-32 65 -73 106h149q5 -52 36 -116l61 -133q28 -63 44 -77q14 -12 29 -12z" />
    <glyph glyph-name="afii10025" unicode="&#x417;" horiz-adv-x="512" 
d="M380 461v-8q59 -28 88 -87.5t29 -109.5q0 -113 -75.5 -184.5t-211.5 -71.5q-111 0 -180 44v168q20 -51 73 -88.5t106 -37.5q71 0 117.5 48.5t46.5 128.5q0 42 -15 78.5t-56 68.5t-104 40v14q88 8 131.5 59t43.5 106q0 76 -45 118t-119 42q-53 0 -106 -37.5t-73 -88.5v168
q69 44 180 44q130 0 203 -68.5t73 -162.5q0 -21 -4.5 -44.5t-15 -51.5t-33 -51.5t-53.5 -35.5z" />
    <glyph glyph-name="afii10026" unicode="&#x418;" horiz-adv-x="556" 
d="M177 860v-292h15q18 18 65 61.5t69 66.5t43 62.5t21 77.5v39l101 -24v-143v-13v-689q-60 -6 -101 -6v624h-10q-24 -27 -71.5 -71.5t-80 -80.5t-51.5 -73v-390q-78 -9 -112 -9v875q59 -4 112 -15z" />
    <glyph glyph-name="afii10027" unicode="&#x419;" horiz-adv-x="556" 
d="M491 6q-60 -6 -101 -6v624h-10q-24 -27 -71.5 -71.5t-80 -80.5t-51.5 -73v-390q-78 -9 -112 -9v875q59 -4 112 -15v-292h15q18 18 65 61.5t69 66.5t43 62.5t21 77.5v39l101 -24v-845zM287 992q42 0 56 30t5 71q44 8 81 0q10 -62 -25.5 -111t-116.5 -50q-81 1 -116.5 50
t-25.5 111q41 7 81 0q-9 -41 5 -71t56 -30z" />
    <glyph glyph-name="afii10028" unicode="&#x41a;" horiz-adv-x="530" 
d="M397 374l56 -270q14 -62 47 -104h-145q6 49 -8 113l-45 222q-14 60 -41 90.5t-76 30.5h-8v-456q-62 3 -112 10v851q46 9 111 14v-332h4q37 0 61 23.5t45 68.5l48 127l37 100q45 13 117 13l-55 -137l-40 -99q-52 -114 -124 -114v-9q36 0 74.5 -34.5t53.5 -107.5z" />
    <glyph glyph-name="afii10029" unicode="&#x41b;" horiz-adv-x="597" 
d="M532 875v-875q-67 5 -112 14v773h-170v-629q0 -72 -37.5 -115t-105.5 -43q-57 0 -97 22v102q27 -37 74 -37q54 0 54 71v707q50 7 112 10h282z" />
    <glyph glyph-name="afii10030" unicode="&#x41c;" horiz-adv-x="656" 
d="M479 862q54 9 112 13v-875q-62 3 -112 10v550h-9q-14 -42 -33 -79t-31 -55.5t-40 -56.5t-38 -53q-10 14 -38.5 52t-40.5 56.5t-30.5 56t-32.5 79.5h-9v-560q-62 3 -112 10v851q46 9 111 14q17 -133 51 -231t100 -179q67 81 101 175.5t51 221.5z" />
    <glyph glyph-name="afii10031" unicode="&#x41d;" horiz-adv-x="549" 
d="M360 565h12v299h-2q27 5 114 11v-875q-62 3 -112 10v449q-46 20 -95 20q-54 0 -100 -20v-459q-62 3 -112 10v851q46 9 111 14v-310h12q38 19 89 19q46 0 83 -19z" />
    <glyph glyph-name="afii10032" unicode="&#x41e;" horiz-adv-x="868" 
d="M434 882q181 0 297.5 -128.5t116.5 -315.5t-116.5 -315.5t-297.5 -128.5t-297.5 128.5t-116.5 315.5t116.5 315.5t297.5 128.5zM434 80q129 0 212 103.5t83 254.5q0 153 -80.5 255.5t-214.5 102.5t-214.5 -102.5t-80.5 -255.5q0 -151 83 -254.5t212 -103.5z" />
    <glyph glyph-name="afii10033" unicode="&#x41f;" horiz-adv-x="543" 
d="M271 875q132 0 207 -22v-853q-68 5 -113 14v766q-52 7 -94 7q-36 0 -94 -8v-779q-67 5 -112 14v838q72 21 206 23z" />
    <glyph glyph-name="afii10034" unicode="&#x420;" horiz-adv-x="504" 
d="M493 698q3 -94 -59.5 -143t-177.5 -49q-31 0 -71 10h-8v-516q-62 3 -112 10v847q88 18 204 18q103 0 161.5 -45.5t62.5 -131.5zM177 591h100q49 0 75.5 26.5t26.5 74.5q0 97 -104 97q-60 0 -98 -8v-190z" />
    <glyph glyph-name="afii10035" unicode="&#x421;" horiz-adv-x="460" 
d="M430 124v-102q-52 -22 -97 -22q-48 0 -89.5 12.5t-82 46t-68.5 85.5t-45.5 136t-17.5 193q0 182 74 292t206 110q30 0 51.5 -2.5t30 -5t37.5 -11.5v-108q-30 22 -54.5 32t-63.5 10q-78 0 -123.5 -86t-45.5 -231q0 -94 13.5 -165.5t34.5 -112t49 -66t53 -34t51 -8.5
q39 0 87 37z" />
    <glyph glyph-name="afii10036" unicode="&#x422;" horiz-adv-x="433" 
d="M216 875q132 0 207 -22v-102q-47 31 -151 37v-788q-65 5 -111 14v773q-104 -6 -151 -37v102q72 21 206 23z" />
    <glyph glyph-name="afii10037" unicode="&#x423;" horiz-adv-x="521" 
d="M284 0h-166q36 47 52 94l25 89l-185 682q59 12 114 10l110 -469q3 -16 7 -53.5t9 -55.5h10q5 17 9 55t7 54l121 459q52 13 114 10l-219 -762q-15 -56 -8 -113z" />
    <glyph glyph-name="afii10038" unicode="&#x424;" horiz-adv-x="648" 
d="M381 79v-79q-62 3 -112 10v69q-116 22 -187.5 122t-71.5 237t71.5 237t187.5 122v64q45 9 112 14v-79q115 -22 186 -122t71 -236t-71 -236.5t-186 -122.5zM259 169h10v538h-10q-63 -30 -98.5 -103t-35.5 -166q0 -94 35.5 -167t98.5 -102zM381 169h10q62 30 97 103t35 166
q0 92 -35.5 165t-96.5 103h-10v-537z" />
    <glyph glyph-name="afii10039" unicode="&#x425;" horiz-adv-x="496" 
d="M244 596h8q2 5 4.5 16t4.5 16l54 130q31 65 37 117h148q-46 -48 -73 -108l-60 -136l-64 -121q6 -5 13 -15t12 -19.5t12 -27t10 -27.5t10.5 -31t9.5 -28l88 -253q28 -81 48 -109h-148q6 75 -10 118l-73 201q-3 8 -10.5 36.5t-12.5 40.5h-8q-5 -11 -12.5 -39.5t-10.5 -37.5
l-73 -201q-18 -49 -7 -118h-151q20 28 48 109l88 253q4 11 11 32.5t11.5 35.5t11.5 31t13.5 28.5t13.5 17.5q-39 88 -58 124l-60 136q-27 60 -73 108h149q3 -37 36 -117l53 -130q3 -7 6 -17.5t4 -14.5z" />
    <glyph glyph-name="afii10040" unicode="&#x426;" horiz-adv-x="544" 
d="M271 0q-134 2 -206 23v838q45 9 112 14v-780q50 -7 94 -7q43 0 95 7v766q45 9 112 14v-797q37 -5 56 -10v-167q-62 3 -112 10v99h-11q-55 -10 -140 -10z" />
    <glyph glyph-name="afii10041" unicode="&#x427;" horiz-adv-x="544" 
d="M40 580v285q48 7 114 10v-295q0 -135 107 -135q56 0 81 37.5t25 97.5v281q45 9 112 14v-875q-62 3 -112 10v441h-11q-42 -91 -130 -91q-85 0 -135.5 60.5t-50.5 159.5z" />
    <glyph glyph-name="afii10042" unicode="&#x428;" horiz-adv-x="694" 
d="M177 875v-775q47 -6 114 -10v771q45 9 112 14v-785q65 4 114 10v761q45 9 112 14v-853q-103 -22 -283 -22q-182 2 -281 23v838q45 9 112 14z" />
    <glyph glyph-name="afii10043" unicode="&#x429;" horiz-adv-x="715" 
d="M403 875v-785q65 4 114 10v761q45 9 112 14v-797q37 -5 56 -10v-167q-62 3 -112 10v101h-14q-78 -12 -213 -12q-182 2 -281 23v838q45 9 112 14v-775q47 -6 114 -10v771q45 9 112 14z" />
    <glyph glyph-name="afii10044" unicode="&#x42a;" horiz-adv-x="480" 
d="M175 868v-293h42q114 0 182 -71.5t71 -190.5v-51q-3 -119 -71 -190.5t-182 -71.5h-154v788q-79 0 -123 -16v97q130 13 235 -1zM357 262v51q-2 83 -37.5 129.5t-96.5 46.5h-48v-403h48q61 0 96.5 46.5t37.5 129.5z" />
    <glyph glyph-name="afii10045" unicode="&#x42b;" horiz-adv-x="749" 
d="M182 875v-300h42q114 0 182 -71.5t71 -190.5v-51q-3 -119 -71 -190.5t-182 -71.5h-154v861q45 9 112 14zM364 262v51q-2 83 -37.5 129.5t-96.5 46.5h-48v-403h48q61 0 96.5 46.5t37.5 129.5zM684 875v-875q-62 3 -112 10v851q45 9 112 14z" />
    <glyph glyph-name="afii10046" unicode="&#x42c;" horiz-adv-x="517" 
d="M177 875v-300h42q114 0 182 -71.5t71 -190.5v-51q-3 -119 -71 -190.5t-182 -71.5h-154v861q45 9 112 14zM359 262v51q-2 83 -37.5 129.5t-96.5 46.5h-48v-403h48q61 0 96.5 46.5t37.5 129.5z" />
    <glyph glyph-name="afii10047" unicode="&#x42d;" horiz-adv-x="449" 
d="M177 561h135v11q0 98 -48.5 158t-115.5 60q-39 0 -63.5 -10t-54.5 -32v108q2 1 11.5 4t11 3.5t9.5 2.5l10 2.5t9 2t11 1.5t11 1t13.5 1t15 0.5t17.5 0.5q132 0 206 -110t74 -292q0 -109 -17.5 -193t-45.5 -136t-68.5 -85.5t-82 -46t-89.5 -12.5q-44 0 -96 22v102
q48 -37 86 -37q26 0 51 8.5t53 34t49 66.5t34.5 113t13.5 167h-132q-97 0 -155 -38v171q51 -48 147 -48z" />
    <glyph glyph-name="afii10048" unicode="&#x42e;" horiz-adv-x="1143" 
d="M709 882q181 0 297.5 -128.5t116.5 -315.5t-116.5 -315.5t-297.5 -128.5q-171 0 -285.5 115.5t-127.5 289.5h-58q-25 0 -61 -4v-395q-62 3 -112 10v851q45 9 112 14v-388q23 -3 53 -3h67q15 171 129 284.5t283 113.5zM709 80q133 0 215.5 103t82.5 255q0 153 -81.5 255.5
t-216.5 102.5t-216.5 -102.5t-81.5 -255.5q0 -152 82.5 -255t215.5 -103z" />
    <glyph glyph-name="afii10049" unicode="&#x42f;" horiz-adv-x="521" 
d="M456 857v-857q-62 3 -112 10v496h-76l-91 -393q-14 -64 -8 -113h-149q33 42 47 104l101 436q-50 6 -94.5 49t-44.5 110q0 84 59.5 130t163.5 46q116 0 204 -18zM253 591h91v190q-38 8 -99 8q-104 0 -104 -97q0 -48 30.5 -74.5t81.5 -26.5z" />
    <glyph glyph-name="afii10065" unicode="&#x430;" horiz-adv-x="498" 
d="M431 472v-367q0 -65 22 -105h-125q-4 51 -6 88h-8q-32 -93 -131 -93q-69 0 -113 53t-44 133q-5 95 58.5 163t174.5 68q30 0 61 -7v67q0 49 -20.5 70t-73.5 21q-92 0 -144 -47v112q75 22 177 22q82 0 127 -47.5t45 -130.5zM320 325h-61q-54 0 -86.5 -37.5t-32.5 -106.5
q0 -47 22.5 -74t57.5 -27q100 0 100 131v114z" />
    <glyph glyph-name="afii10066" unicode="&#x431;" 
d="M135 546h13q18 52 55.5 76.5t80.5 24.5q101 0 155 -95t54 -260q0 -54 -13.5 -104.5t-39.5 -93t-70 -68.5t-99 -26q-241 0 -241 363q0 265 66 389t209 122q130 -11 180 1l-57 -114q-47 -10 -125 2q-73 10 -115 -37t-53 -180zM268 82q31 0 53.5 22t33.5 56.5t16 67.5t5 64
q0 53 -6 99.5t-19.5 87.5t-38 65t-57.5 24q-31 0 -53.5 -21t-33.5 -55t-16 -66t-5 -63q0 -53 6 -100.5t19.5 -89.5t38 -66.5t57.5 -24.5z" />
    <glyph glyph-name="afii10067" unicode="&#x432;" horiz-adv-x="520" 
d="M449 494q0 -40 -29 -78t-77 -48v-11q64 -8 105.5 -52.5t41.5 -117.5q0 -85 -64.5 -136t-181.5 -51q-111 0 -174 19v618q82 18 164 18q105 0 160 -44t55 -117zM182 86h63q63 1 97.5 29t34.5 74q0 117 -150 117h-45v-220zM182 561v-170h71q41 0 66.5 20t25.5 61
q0 45 -27.5 71t-76.5 26q-35 0 -59 -8z" />
    <glyph glyph-name="afii10068" unicode="&#x433;" horiz-adv-x="440" 
d="M182 558h-1v-558q-65 5 -111 14v626q74 10 173 10q112 0 187 -22v-102q-58 37 -154 37q-66 0 -94 -5z" />
    <glyph glyph-name="afii10069" unicode="&#x434;" horiz-adv-x="543" 
d="M411 0h-299v-99q-62 3 -112 10v166l71 10q31 9 37.5 59.5t5.5 219.5v59v202q58 21 166 23q117 0 187 -22v-541h56v-186q-62 3 -112 10v89zM182 87h173v472q-40 8 -75 8q-17 0 -28 -1.5t-18 -4.5l-8 -3v-133q0 -169 -8 -233t-36 -92v-13z" />
    <glyph glyph-name="afii10070" unicode="&#x435;" horiz-adv-x="475" 
d="M405 124v-102q-52 -22 -97 -22q-43 0 -80.5 10t-74 35.5t-62 65t-41 104t-15.5 148.5q0 132 60 212t170 80q85 0 134.5 -55.5t49.5 -130.5q5 -91 -56.5 -141t-176.5 -50q-40 0 -64 5q7 -59 26 -100t44 -60.5t48 -27.5t48 -8q39 0 87 37zM255 570q-48 0 -78 -54t-30 -151
h69q61 0 90 19.5t29 84.5q0 47 -22.5 74t-57.5 27z" />
    <glyph glyph-name="afii10072" unicode="&#x436;" horiz-adv-x="749" 
d="M661 244v1l31 -141q14 -62 47 -104h-147q5 44 -8 113l-18 92q-14 61 -46 91t-90 30v-326q-61 3 -111 10v316q-58 0 -90 -30t-46 -91l-18 -92q-13 -69 -8 -113h-147q33 42 47 104l31 141v-1q18 74 59 108t79 34v9q-86 0 -134 114l-55 141q72 0 117 -13l45 -132
q35 -92 120 -92v224q46 9 111 14v-238q85 0 120 92l45 132q45 13 117 13l-55 -141q-47 -114 -134 -114v-9q38 0 79 -34t59 -108z" />
    <glyph glyph-name="afii10073" unicode="&#x437;" horiz-adv-x="444" 
d="M320 348v-11q51 -26 77.5 -71.5t26.5 -79.5q0 -91 -65 -142.5t-169 -51.5q-89 0 -160 52v138q17 -36 63.5 -70t95.5 -34q58 0 89 28.5t31 82.5q0 43 -39 90.5t-104 59.5v7q63 10 98.5 52.5t35.5 85.5q0 39 -30.5 62.5t-80.5 23.5q-99 0 -159 -102v138q68 50 160 50
q105 0 165 -47.5t60 -120.5q0 -36 -22 -75t-73 -65z" />
    <glyph glyph-name="afii10074" unicode="&#x438;" horiz-adv-x="577" 
d="M181 313h12q171 182 185 200q16 21 16 38v89q67 -5 112 -14l1 -616q-59 -10 -113 -10v388h-10q-17 -18 -80.5 -82t-93 -102.5t-29.5 -62.5l1 -132q-78 -9 -112 -9v640q57 -4 111 -15v-312z" />
    <glyph glyph-name="afii10075" unicode="&#x439;" horiz-adv-x="577" 
d="M181 313h12q171 182 185 200q16 21 16 38v89q67 -5 112 -14l1 -616q-59 -10 -113 -10v388h-10q-17 -18 -80.5 -82t-93 -102.5t-29.5 -62.5l1 -132q-78 -9 -112 -9v640q57 -4 111 -15v-312zM288 761q42 0 56 30t5 71q44 8 81 0q10 -62 -25.5 -111t-116.5 -50
q-81 1 -116.5 50t-25.5 111q40 8 81 0q-9 -41 5 -71t56 -30z" />
    <glyph glyph-name="afii10076" unicode="&#x43a;" horiz-adv-x="500" 
d="M412 244v1l31 -141q14 -62 47 -104h-147q5 44 -8 113l-18 92q-14 61 -46 91t-89 30v-326q-62 3 -112 10v617q46 9 111 14v-228q85 0 120 92l45 132q45 13 117 13l-55 -141q-48 -114 -134 -114v-10q39 0 79.5 -34t58.5 -107z" />
    <glyph glyph-name="afii10077" unicode="&#x43b;" horiz-adv-x="572" 
d="M108 148v497q50 7 112 10h282v-655q-67 5 -112 14v553h-170v-419q0 -69 -32 -108.5t-91 -39.5q-55 0 -87 22v102q19 -32 54 -32q25 0 34.5 12t9.5 44z" />
    <glyph glyph-name="afii10078" unicode="&#x43c;" horiz-adv-x="606" 
d="M182 335v-335q-62 3 -112 10v626q46 9 111 14q15 -136 41.5 -233t79.5 -177q54 80 80.5 173.5t41.5 223.5q54 9 112 13v-650q-62 3 -112 10v325h-9q-11 -42 -25.5 -79.5t-24.5 -56t-32 -56t-30 -52.5q-7 13 -30.5 52t-32.5 57t-24 55.5t-26 79.5h-8z" />
    <glyph glyph-name="afii10079" unicode="&#x43d;" horiz-adv-x="559" 
d="M365 469h10v161q27 5 114 11v-641q-62 3 -112 10v363q-48 20 -97 20q-54 0 -98 -20v-373q-62 3 -112 10v617q46 9 111 14v-172h11q38 19 87 19q48 0 86 -19z" />
    <glyph glyph-name="afii10080" unicode="&#x43e;" horiz-adv-x="543" 
d="M264 650q119 0 179 -95t60 -263q0 -54 -13.5 -104.5t-39.5 -93t-70 -68.5t-99 -26q-241 0 -241 363q0 54 13.5 104t40 91.5t70.5 66.5t100 25zM278 82q31 0 53.5 22t33.5 56.5t16 67.5t5 64q0 53 -6 99.5t-19.5 87.5t-38 65t-57.5 24q-31 0 -53.5 -21t-33.5 -55t-16 -66
t-5 -63q0 -53 6 -100.5t19.5 -89.5t38 -66.5t57.5 -24.5z" />
    <glyph glyph-name="afii10081" unicode="&#x43f;" horiz-adv-x="543" 
d="M271 655q131 0 206 -22v-633q-67 5 -112 14v546q-52 7 -94 7q-36 0 -94 -8v-559q-67 5 -112 14v618q72 21 206 23z" />
    <glyph glyph-name="afii10082" unicode="&#x440;" horiz-adv-x="517" 
d="M482 373v-95q0 -132 -49.5 -205t-113.5 -73q-93 0 -133 96h-9v-296q-67 5 -112 14v808q4 1 44 12t70 16t60 5q110 0 175 -77t68 -205zM369 278v95q-2 92 -34.5 144t-89.5 52q-38 0 -68 -23v-294q0 -165 91 -165q44 0 72.5 47.5t28.5 143.5z" />
    <glyph glyph-name="afii10083" unicode="&#x441;" horiz-adv-x="430" 
d="M415 124v-102q-52 -22 -97 -22q-57 0 -104.5 17t-89.5 56t-65.5 113t-23.5 177q0 132 68.5 212t191.5 80h18.5t17 -1t13.5 -1t13 -1.5t10.5 -2t11.5 -3t10.5 -3t12.5 -3.5t13 -4v-108q-30 22 -55 32t-64 10q-69 0 -109 -56t-40 -151q0 -67 12.5 -118.5t31 -80.5t44 -47
t47.5 -24t46 -6q39 0 87 37z" />
    <glyph glyph-name="afii10084" unicode="&#x442;" horiz-adv-x="393" 
d="M196 655q120 0 187 -22v-102q-37 27 -121 37h-10v-568q-65 5 -111 14v553h-10q-85 -10 -121 -37v102q65 21 186 23z" />
    <glyph glyph-name="afii10085" unicode="&#x443;" horiz-adv-x="494" 
d="M122 620l107 -373q3 -16 7 -54t9 -55h10q5 18 9 55.5t7 53.5l103 373v20h130q-37 -74 -62 -159l-164 -567q-22 -114 -145 -114q-44 0 -106 16v108q54 -34 92 -34q30 0 43.5 23.5t26.5 100.5l-136 463q-29 99 -63 163h132v-20z" />
    <glyph glyph-name="afii10086" unicode="&#x444;" horiz-adv-x="812" 
d="M343 639h7v226q50 7 112 10v-236h8q23 16 54 16q110 0 175 -77t68 -205v-95q0 -132 -49.5 -205t-113.5 -73q-48 0 -80 23t-53 73h-9v-296q-67 5 -112 14v282h-8q-22 -50 -54 -73t-80 -23q-64 0 -113.5 73t-49.5 205v95q3 128 68 205t175 77q31 0 55 -16zM158 373v-95
q0 -96 28.5 -143.5t72.5 -47.5q87 0 91 148v311q-30 23 -68 23q-57 0 -89.5 -52t-34.5 -144zM654 278v95q-2 92 -34.5 144t-89.5 52q-38 0 -68 -23v-294q0 -165 91 -165q44 0 72.5 47.5t28.5 143.5z" />
    <glyph glyph-name="afii10087" unicode="&#x445;" horiz-adv-x="459" 
d="M152 640v-20l72 -198h11l72 198v20h145q-36 -40 -92 -160l-60 -141l113 -276q20 -34 46 -63h-149v32l-48 148l-26 75h-13l-26 -75l-48 -148v-32h-149q27 30 45 63l114 276l-60 141q-56 120 -92 160h145z" />
    <glyph glyph-name="afii10088" unicode="&#x446;" horiz-adv-x="544" 
d="M271 0q-134 2 -206 23v603q45 9 112 14v-545q50 -7 94 -7q43 0 95 7v531q45 9 112 14v-562q37 -5 56 -10v-167q-62 3 -112 10v99h-14q-54 -10 -137 -10z" />
    <glyph glyph-name="afii10089" unicode="&#x447;" horiz-adv-x="514" 
d="M30 425v205q48 7 114 10v-215q0 -135 97 -135q50 0 73 37.5t23 97.5v201q45 9 112 14v-640q-62 3 -112 10v286h-10q-39 -91 -121 -91q-81 0 -128.5 60.5t-47.5 159.5z" />
    <glyph glyph-name="afii10090" unicode="&#x448;" horiz-adv-x="694" 
d="M177 640v-540q47 -6 114 -10v536q45 9 112 14v-550q65 4 114 10v526q45 9 112 14v-618q-103 -22 -283 -22q-182 2 -281 23v603q45 9 112 14z" />
    <glyph glyph-name="afii10091" unicode="&#x449;" horiz-adv-x="705" 
d="M403 640v-550q65 4 114 10v526q45 9 112 14v-562q37 -5 56 -10v-167q-62 3 -112 10v101h-12q-87 -12 -215 -12q-182 2 -281 23v603q45 9 112 14v-540q47 -6 114 -10v536q45 9 112 14z" />
    <glyph glyph-name="afii10092" unicode="&#x44a;" horiz-adv-x="550" 
d="M245 631v-147h42q115 0 184 -66.5t69 -175.5t-69 -175.5t-184 -66.5h-154v551q-79 0 -123 -16v97q130 13 235 -1zM427 242q0 73 -36 114.5t-98 41.5h-48v-312h48q62 0 98 41.5t36 114.5z" />
    <glyph glyph-name="afii10093" unicode="&#x44b;" horiz-adv-x="740" 
d="M65 0v626q45 9 112 14v-156h42q115 0 184 -66.5t69 -175.5t-69 -175.5t-184 -66.5h-154zM675 640v-640q-66 3 -114 10v616q44 9 114 14zM359 242q0 73 -36 114.5t-98 41.5h-48v-312h48q62 0 98 41.5t36 114.5z" />
    <glyph glyph-name="afii10094" unicode="&#x44c;" horiz-adv-x="482" 
d="M177 484h42q115 0 184 -66.5t69 -175.5t-69 -175.5t-184 -66.5h-154v626q45 9 112 14v-156zM359 242q0 73 -36 114.5t-98 41.5h-48v-312h48q62 0 98 41.5t36 114.5z" />
    <glyph glyph-name="afii10095" unicode="&#x44d;" horiz-adv-x="455" 
d="M127 87q27 0 52.5 9t53 30.5t47.5 67.5t26 112v7h-186q-17 0 -46.5 -8.5t-33.5 -9.5v112q33 -9 72 -9h194v11q-10 75 -48.5 118t-98.5 43q-39 0 -64 -10t-55 -32v108q3 1 12 3.5t11 3.5t9.5 3t10.5 2.5t9.5 2t10.5 1.5t11 1t13.5 1.5t15 0.5h17.5q123 0 191.5 -80
t68.5 -212q0 -103 -23.5 -177t-65.5 -113t-89.5 -56t-104.5 -17q-45 0 -97 22v102q48 -37 87 -37z" />
    <glyph glyph-name="afii10096" unicode="&#x44e;" horiz-adv-x="787" 
d="M508 650q119 0 179 -95t60 -263q0 -54 -13.5 -104.5t-39.5 -93t-70 -68.5t-99 -26q-225 0 -240 313h-66q-23 0 -40 -5v-308q-66 3 -114 10v616q44 9 114 14v-242h106q9 106 66 179t157 73zM522 82q31 0 53.5 22t33.5 56.5t16 67.5t5 64q0 53 -6 99.5t-19.5 87.5t-38 65
t-57.5 24q-31 0 -53.5 -21t-33.5 -55t-16 -66t-5 -63q0 -53 6 -100.5t19.5 -89.5t38 -66.5t57.5 -24.5z" />
    <glyph glyph-name="afii10097" unicode="&#x44f;" horiz-adv-x="517" 
d="M340 10v276h-76l-40 -173q-14 -64 -8 -113h-149q33 42 47 104l50 209v7q-50 6 -94.5 49t-44.5 110q0 84 59.5 130t163.5 46q116 0 204 -18v-637q-62 3 -112 10zM249 371h91v190q-38 8 -99 8q-104 0 -104 -97q0 -48 30.5 -74.5t81.5 -26.5z" />
    <glyph glyph-name="afii10071" unicode="&#x451;" horiz-adv-x="475" 
d="M405 124v-102q-52 -22 -97 -22q-43 0 -80.5 10t-74 35.5t-62 65t-41 104t-15.5 148.5q0 132 60 212t170 80q85 0 134.5 -55.5t49.5 -130.5q5 -91 -56.5 -141t-176.5 -50q-40 0 -64 5q7 -59 26 -100t44 -60.5t48 -27.5t48 -8q39 0 87 37zM255 570q-48 0 -78 -54t-30 -151
h69q61 0 90 19.5t29 84.5q0 47 -22.5 74t-57.5 27zM207 817v-116q-78 3 -114 10v93q36 7 114 13zM381 817v-116q-78 3 -114 10v93q36 7 114 13z" />
    <glyph glyph-name="afii10099" unicode="&#x452;" horiz-adv-x="513" 
d="M146 398v-398q-66 3 -114 10v727q-60 0 -92 -13v83q33 -9 92 -9v63q44 9 114 14v-77h101v-61h-101v-183h11q45 96 151 96q66 0 110.5 -66.5t44.5 -191.5v-430q0 -162 -149 -162q-44 0 -106 16v108q54 -34 92 -34q29 0 39 16t10 56v430q0 89 -22.5 130t-69.5 41
q-48 0 -79.5 -42t-31.5 -123z" />
    <glyph glyph-name="afii10100" unicode="&#x453;" horiz-adv-x="440" 
d="M182 558h-1v-558q-65 5 -111 14v626q74 10 173 10q112 0 187 -22v-102q-58 37 -154 37q-66 0 -94 -5zM248 701h-65l41 80q27 50 16 80h111q6 -21 -30 -72z" />
    <glyph glyph-name="afii10101" unicode="&#x454;" horiz-adv-x="435" 
d="M128 398h195q39 0 72 9v-112q-4 1 -33.5 9.5t-46.5 8.5h-186v-11q5 -52 19.5 -92t32.5 -62.5t41.5 -37t43.5 -19t42 -4.5q39 0 87 37v-102q-52 -22 -97 -22q-57 0 -104.5 17t-89.5 56t-65.5 113t-23.5 177q0 132 68.5 212t191.5 80h18.5t17 -1t13.5 -1t13 -1.5t10.5 -2
t11.5 -3t10.5 -3t12.5 -3.5t13 -4v-108q-30 22 -55 32t-64 10q-61 0 -99.5 -43t-48.5 -120v-9z" />
    <glyph glyph-name="afii10102" unicode="&#x455;" horiz-adv-x="430" 
d="M142 488q0 -29 27.5 -54.5t67 -47.5t79 -48t67 -67t27.5 -93q0 -76 -53.5 -127t-136.5 -51q-99 0 -164 44v168q19 -52 66 -89t97 -37q37 0 61.5 22t24.5 61q0 28 -27.5 52.5t-66.5 47t-77.5 49t-66 70.5t-27.5 100q0 74 53 117.5t139 43.5q76 0 143 -31v-156
q-19 49 -58 78t-85 29q-43 0 -66.5 -21.5t-23.5 -59.5z" />
    <glyph glyph-name="afii10103" unicode="&#x456;" horiz-adv-x="264" 
d="M189 640v-640q-66 3 -114 10v616q44 9 114 14zM189 875v-116q-78 3 -114 10v93q36 7 114 13z" />
    <glyph glyph-name="afii10104" unicode="&#x457;" horiz-adv-x="264" 
d="M189 640v-640q-66 3 -114 10v616q44 9 114 14zM102 817v-116q-78 3 -114 10v93q36 7 114 13zM276 817v-116q-78 3 -114 10v93q36 7 114 13z" />
    <glyph glyph-name="afii10105" unicode="&#x458;" horiz-adv-x="340" 
d="M20 512v108q91 29 255 16v-674q0 -162 -149 -162q-44 0 -106 16v108q54 -34 92 -34q29 0 40.5 16.5t11.5 55.5v592q-96 -2 -144 -42zM275 875v-116q-78 3 -114 10v93q36 7 114 13z" />
    <glyph glyph-name="afii10106" unicode="&#x459;" horiz-adv-x="807" 
d="M108 148v497q50 7 112 10h282v-171h42q115 0 184 -66.5t69 -175.5t-69 -175.5t-184 -66.5h-154v567h-170v-419q0 -69 -32 -108.5t-91 -39.5q-55 0 -87 22v102q19 -32 54 -32q25 0 34.5 12t9.5 44zM684 242q0 73 -36 114.5t-98 41.5h-48v-312h48q62 0 98 41.5t36 114.5z
" />
    <glyph glyph-name="afii10107" unicode="&#x45a;" horiz-adv-x="789" 
d="M361 469h9v161q27 5 114 11v-157h42q115 0 184 -66.5t69 -175.5t-69 -175.5t-184 -66.5h-154v373q-46 20 -101 20q-48 0 -94 -20v-373q-62 3 -112 10v617q46 9 111 14v-172h9q37 19 88 19q49 0 88 -19zM666 242q0 73 -36 114.5t-98 41.5h-48v-312h48q62 0 98 41.5
t36 114.5z" />
    <glyph glyph-name="afii10108" unicode="&#x45b;" horiz-adv-x="561" 
d="M184 398v-398q-66 3 -114 10v717h-2q-42 0 -80 -18v88q33 -9 72 -9h10v73q44 9 114 14v-87h91v-61h-91v-173h15q44 96 147 96q66 0 110.5 -66.5t44.5 -191.5v-392q-66 3 -114 10v382q0 89 -22.5 130t-69.5 41q-48 0 -79.5 -42t-31.5 -123z" />
    <glyph glyph-name="afii10109" unicode="&#x45c;" horiz-adv-x="490" 
d="M402 244v1l31 -141q14 -62 47 -104h-147q5 44 -8 113l-18 92q-14 59 -45 87.5t-90 33.5v-326q-62 3 -112 10v617q46 9 111 14v-228q85 0 120 92l45 132q45 13 117 13l-55 -141q-48 -114 -134 -114v-10q39 0 79.5 -34t58.5 -107zM268 701h-65l41 80q27 50 16 80h111
q6 -21 -30 -72z" />
    <glyph glyph-name="afii10110" unicode="&#x45e;" horiz-adv-x="494" 
d="M122 620l107 -373q3 -16 7 -54t9 -55h10q5 18 9 55.5t7 53.5l103 373v20h130q-37 -74 -62 -159l-164 -567q-22 -114 -145 -114q-44 0 -106 16v108q54 -34 92 -34q30 0 43.5 23.5t26.5 100.5l-136 463q-29 99 -63 163h132v-20zM252 761q42 0 56 30t5 71q44 8 81 0
q10 -62 -25.5 -111t-116.5 -50q-81 1 -116.5 50t-25.5 111q40 8 81 0q-9 -41 5 -71t56 -30z" />
    <glyph glyph-name="afii10193" unicode="&#x45f;" horiz-adv-x="543" 
d="M315 0v-48q0 -16 8.5 -44t9.5 -36h-112q9 22 9 72v57q-101 3 -165 22v603q45 9 112 14v-545q50 -7 94 -7q42 0 94 7v531q45 9 113 14v-618q-64 -19 -163 -22z" />
    <glyph glyph-name="afii10146" unicode="&#x462;" horiz-adv-x="515" 
d="M200 484h42q115 0 184 -66.5t69 -175.5t-69 -175.5t-184 -66.5h-154v646q-77 -11 -98 -33v102q55 21 156 23q118 0 187 -22v-92q-41 23 -133 23v-163zM382 242q0 73 -36 114.5t-98 41.5h-48v-312h48q62 0 98 41.5t36 114.5z" />
    <glyph glyph-name="afii10194" unicode="&#x463;" horiz-adv-x="479" 
d="M267 652v-65h-103v-103h42q115 0 184 -66.5t69 -175.5t-69 -175.5t-184 -66.5h-154v587h-10q-20 -1 -48.5 -9t-33.5 -9v92q33 -9 92 -9v102q45 9 112 14v-116h103zM346 242q0 73 -36 114.5t-98 41.5h-48v-312h48q62 0 98 41.5t36 114.5z" />
    <glyph glyph-name="afii10147" unicode="&#x472;" horiz-adv-x="868" 
d="M434 882q181 0 297.5 -128.5t116.5 -315.5t-116.5 -315.5t-297.5 -128.5t-297.5 128.5t-116.5 315.5t116.5 315.5t297.5 128.5zM163 615l12 -12q93 -6 228 -109q84 -64 134.5 -92t98 -29t93.5 32q0 5 0.5 16t0.5 17q0 153 -81 255.5t-215 102.5q-90 0 -159 -48t-112 -133
zM434 80q96 0 167.5 55t111.5 149l-12 12q-37 -17 -73.5 -19t-74 12t-67.5 31.5t-70 45.5q-10 7 -43.5 31.5t-47 34t-42.5 28t-48 27t-44 16.5t-48 10q-5 -30 -5 -75q0 -153 81 -255.5t215 -102.5z" />
    <glyph glyph-name="afii10195" unicode="&#x473;" horiz-adv-x="553" 
d="M269 650q119 0 179 -95t60 -263q0 -54 -13.5 -104.5t-39.5 -93t-70 -68.5t-99 -26q-241 0 -241 363q0 54 13.5 104t40 91.5t70.5 66.5t100 25zM283 82q80 0 112 166l-12 12q-41 -37 -81 -12q-20 11 -51.5 42t-50.5 42q-19 10 -38 -3q4 -105 33.5 -176t87.5 -71zM158 411
l12 -12q34 32 78 9q20 -11 52 -43t51 -43q21 -11 39 7q-3 65 -14.5 116.5t-39 87t-66.5 35.5q-81 0 -112 -157z" />
    <glyph glyph-name="afii10148" unicode="&#x474;" horiz-adv-x="489" 
d="M114 875q55 -90 55 -235q0 -63 -9 -155t-8 -125q4 -83 26.5 -138.5t66.5 -115.5h15q-4 124 2.5 225t28.5 199.5t39 157t55 172.5q51 17 124 15q-81 -210 -119.5 -400.5t-38.5 -474.5q-29 -2 -82 2.5t-78 11.5q-151 161 -160 349q-3 51 11 144.5t14 132.5q0 105 -49 220
q55 16 107 15z" />
    <glyph glyph-name="afii10196" unicode="&#x475;" horiz-adv-x="489" 
d="M10 640h114q25 -28 34 -79t9.5 -109t5 -118.5t28 -122t69.5 -105.5h10q0 329 97 534h132q-76 -129 -107 -281t-31 -359q-132 9 -155 14q-59 59 -94.5 135t-47 147.5t-17.5 137.5t-15.5 122t-31.5 84z" />
    <glyph glyph-name="afii10050" unicode="&#x490;" horiz-adv-x="444" 
d="M340 869v45q0 16 -8.5 44t-9.5 36h112q-9 -22 -9 -72v-171q-58 37 -154 37q-67 0 -94 -5h-1v-783q-65 5 -111 14v851q74 10 173 10q56 0 102 -6z" />
    <glyph glyph-name="afii10098" unicode="&#x491;" horiz-adv-x="434" 
d="M310 650v44q0 16 -8.5 44t-9.5 36h112q-9 -22 -9 -72v-171q-50 37 -134 37q-59 0 -84 -5h-1v-563q-65 5 -111 14v631q70 10 163 10q39 0 82 -5z" />
    <glyph glyph-name="afii10846" unicode="&#x4d9;" horiz-adv-x="479" 
d="M89 531v102q61 22 117 22q51 0 93.5 -17t80 -56t58.5 -113t21 -177q0 -132 -60 -212t-170 -80q-85 0 -134.5 55.5t-49.5 130.5v191h297q-2 26 -4 41.5t-11 47.5t-23 51t-42 35t-66 16q-47 0 -107 -37zM239 85q48 0 78 54t30 151h-188v-104q0 -47 22.5 -74t57.5 -27z" />
    <glyph glyph-name="Wgrave" unicode="&#x1e80;" horiz-adv-x="877" 
d="M437 414l-92 -414q-17 2 -63 7t-63 8l-169 754q-12 50 -32 84h128v-9q0 -21 19 -112t104 -477h28q8 43 42.5 191.5t41.5 193.5q17 118 -36 213h128v-9q2 -50 10 -84l115 -506h13q85 386 104 477.5t19 112.5v9h126q-21 -39 -30 -84l-171 -769l-40 5t-41.5 5t-30.5 5
l-99 487h-11v-88zM380 936l-73 88q-36 51 -30 72h111q-11 -30 16 -80l41 -80h-65z" />
    <glyph glyph-name="wgrave" unicode="&#x1e81;" horiz-adv-x="723" 
d="M303 701l-73 88q-36 51 -30 72h111q-11 -30 16 -80l41 -80h-65zM129 620l83 -432h14l58 300q15 77 -17 152h143v-20l93 -432h10l81 432v20h141q-10 -13 -32 -67.5t-32 -97.5l-103 -475q-83 6 -121 14l-80 425h-10l-81 -439q-88 6 -125 14l-105 473q-7 31 -29.5 88
t-28.5 65h141v-20z" />
    <glyph glyph-name="Wacute" unicode="&#x1e82;" horiz-adv-x="877" 
d="M437 414l-92 -414q-17 2 -63 7t-63 8l-169 754q-12 50 -32 84h128v-9q0 -21 19 -112t104 -477h28q8 43 42.5 191.5t41.5 193.5q17 118 -36 213h128v-9q2 -50 10 -84l115 -506h13q85 386 104 477.5t19 112.5v9h126q-21 -39 -30 -84l-171 -769l-40 5t-41.5 5t-30.5 5
l-99 487h-11v-88zM437 936h-65l41 80q27 50 16 80h111q6 -21 -30 -72z" />
    <glyph glyph-name="wacute" unicode="&#x1e83;" horiz-adv-x="723" 
d="M370 701h-65l41 80q27 50 16 80h111q6 -21 -30 -72zM129 620l83 -432h14l58 300q15 77 -17 152h143v-20l93 -432h10l81 432v20h141q-10 -13 -32 -67.5t-32 -97.5l-103 -475q-83 6 -121 14l-80 425h-10l-81 -439q-88 6 -125 14l-105 473q-7 31 -29.5 88t-28.5 65h141v-20z
" />
    <glyph glyph-name="Wdieresis" unicode="&#x1e84;" horiz-adv-x="877" 
d="M437 414l-92 -414q-17 2 -63 7t-63 8l-169 754q-12 50 -32 84h128v-9q0 -21 19 -112t104 -477h28q8 43 42.5 191.5t41.5 193.5q17 118 -36 213h128v-9q2 -50 10 -84l115 -506h13q85 386 104 477.5t19 112.5v9h126q-21 -39 -30 -84l-171 -769l-40 5t-41.5 5t-30.5 5
l-99 487h-11v-88zM552 1052v-116q-78 3 -114 10v93q36 7 114 13zM378 1052v-116q-78 3 -114 10v93q36 7 114 13z" />
    <glyph glyph-name="wdieresis" unicode="&#x1e85;" horiz-adv-x="723" 
d="M321 817v-116q-78 3 -114 10v93q36 7 114 13zM495 817v-116q-78 3 -114 10v93q36 7 114 13zM129 620l83 -432h14l58 300q15 77 -17 152h143v-20l93 -432h10l81 432v20h141q-10 -13 -32 -67.5t-32 -97.5l-103 -475q-83 6 -121 14l-80 425h-10l-81 -439q-88 6 -125 14
l-105 473q-7 31 -29.5 88t-28.5 65h141v-20z" />
    <glyph glyph-name="Ygrave" unicode="&#x1ef2;" horiz-adv-x="486" 
d="M214 936l-73 88q-36 51 -30 72h111q-11 -30 16 -80l41 -80h-65zM250 573h11l59 187q13 43 10 93h135q-19 -36 -33 -84l-232 -769q-89 6 -116 12l156 495q-73 0 -121 52q-61 66 -82 203q-11 79 -13 91h121q-11 -45 0 -100q20 -112 56 -153q19 -23 49 -27z" />
    <glyph glyph-name="ygrave" unicode="&#x1ef3;" horiz-adv-x="474" 
d="M124 620l97 -373q4 -17 6.5 -54.5t7.5 -54.5h10q5 17 7.5 54.5t6.5 54.5l93 373v20h132q-37 -74 -62 -159l-154 -567q-22 -114 -145 -114q-44 0 -106 16v108q54 -34 92 -34q30 0 43.5 23.5t26.5 100.5l-126 463q-29 99 -63 163h134v-20zM208 701l-73 88q-36 51 -30 72
h111q-11 -30 16 -80l41 -80h-65z" />
    <glyph glyph-name="endash" unicode="&#x2013;" horiz-adv-x="635" 
d="M464 274h-294q-104 0 -140 -12v115q36 -12 140 -12h294q105 0 141 12v-115q-36 12 -141 12z" />
    <glyph glyph-name="emdash" unicode="&#x2014;" horiz-adv-x="885" 
d="M714 274h-544q-104 0 -140 -12v115q36 -12 140 -12h544q105 0 141 12v-115q-36 12 -141 12z" />
    <glyph glyph-name="quoteleft" unicode="&#x2018;" horiz-adv-x="230" 
d="M180 875l-19 -116q-13 -74 5 -116h-111q-14 38 11 104l49 128h65z" />
    <glyph glyph-name="quoteright" unicode="&#x2019;" horiz-adv-x="230" 
d="M115 643h-65l19 116q13 74 -5 116h111q14 -38 -11 -104z" />
    <glyph glyph-name="quotesinglbase" unicode="&#x201a;" horiz-adv-x="230" 
d="M115 -50h-65l19 116q13 74 -5 116h111q14 -38 -11 -104z" />
    <glyph glyph-name="quotedblleft" unicode="&#x201c;" horiz-adv-x="390" 
d="M340 875l-19 -116q-13 -74 5 -116h-111q-14 38 11 104l49 128h65zM180 875l-19 -116q-13 -74 5 -116h-111q-14 38 11 104l49 128h65z" />
    <glyph glyph-name="quotedblright" unicode="&#x201d;" horiz-adv-x="390" 
d="M50 643l19 116q13 74 -5 116h111q14 -38 -11 -104l-49 -128h-65zM210 643l19 116q13 74 -5 116h111q14 -38 -11 -104l-49 -128h-65z" />
    <glyph glyph-name="quotedblbase" unicode="&#x201e;" horiz-adv-x="390" 
d="M115 -50h-65l19 116q13 74 -5 116h111q14 -38 -11 -104zM275 -50h-65l19 116q13 74 -5 116h111q14 -38 -11 -104z" />
    <glyph glyph-name="dagger" unicode="&#x2020;" horiz-adv-x="487" 
d="M296 890v-124q131 1 161 9v-92q-3 1 -16 4t-23.5 5t-28.5 4t-41.5 3.5t-51.5 1.5v-708q0 -17 8.5 -46.5t9.5 -33.5h-132q9 33 9 72v716q-36 -1 -66.5 -3.5t-44 -4.5t-30.5 -6t-20 -4v92q33 -9 161 -9v116q0 17 -8.5 46.5t-9.5 33.5h132q-9 -33 -9 -72z" />
    <glyph glyph-name="daggerdbl" unicode="&#x2021;" horiz-adv-x="487" 
d="M296 890v-244q131 1 161 9v-92q-3 1 -16 4t-24 5t-28.5 4t-41 3.5t-51.5 1.5v-287q28 0 51.5 1.5t41.5 3.5t28.5 4t23.5 5t16 4v-92q-30 8 -161 9v-242q1 -15 9 -42.5t9 -31.5h-141q2 9 9.5 34t8.5 40v242q-128 0 -161 -9v92q3 0 20 -4t30.5 -6t44 -4.5t66.5 -3.5v287
q-36 -1 -66.5 -3.5t-44 -4.5t-30.5 -6t-20 -4v92q33 -9 161 -9v242q-1 15 -8.5 40t-9.5 34h132q-9 -33 -9 -72z" />
    <glyph glyph-name="bullet" unicode="&#x2022;" horiz-adv-x="388" 
d="M278 445v-170q-99 3 -168 15v135q42 10 168 20z" />
    <glyph glyph-name="ellipsis" unicode="&#x2026;" horiz-adv-x="762" 
d="M184 116v-116q-78 3 -114 10v93q36 7 114 13zM438 116v-116q-78 3 -114 10v93q36 7 114 13zM692 116v-116q-78 3 -114 10v93q36 7 114 13z" />
    <glyph glyph-name="guilsinglleft" unicode="&#x2039;" horiz-adv-x="448" 
d="M166 184l-136 135l136 136q76 76 91 108l81 -81q-29 -12 -108 -91l-71 -72l71 -71q76 -74 108 -91l-81 -81q-17 32 -91 108z" />
    <glyph glyph-name="guilsinglright" unicode="&#x203a;" horiz-adv-x="428" 
d="M418 319l-136 -135q-74 -76 -91 -108l-81 81q32 17 108 91l71 71l-71 72q-79 79 -108 91l81 81q15 -32 91 -108z" />
    <glyph glyph-name="fraction" unicode="&#x2044;" horiz-adv-x="356" 
d="M386 875l-292 -785q-17 -45 -8 -90h-116l287 783q20 55 13 92h116z" />
    <glyph glyph-name="zerosuperior" unicode="&#x2070;" horiz-adv-x="504" 
d="M252 822q74 0 118 -62t44 -154q0 -87 -44 -145.5t-118 -58.5q-75 0 -118.5 58.5t-43.5 145.5q0 93 43.5 154.5t118.5 61.5zM252 457q80 0 80 149q0 160 -80 160q-81 0 -81 -160q0 -149 81 -149z" />
    <glyph glyph-name="foursuperior" unicode="&#x2074;" horiz-adv-x="388" 
d="M271 514v-111q-40 1 -72 7v102q-116 2 -169 11l169 300q31 7 72 8v-260h12q49 11 65 20v-64q-34 -10 -77 -13zM199 569v62q0 12 3 40t3 42l-7 2q-7 -10 -13.5 -23.5t-13.5 -29.5t-9 -21l-32 -70q32 -2 69 -2z" />
    <glyph glyph-name="fivesuperior" unicode="&#x2075;" horiz-adv-x="386" 
d="M90 637v171q64 14 119 14q63 0 113 -16v-64q-39 23 -98 23q-47 0 -62 -3v-84q78 -6 126 -46.5t48 -101.5q0 -56 -38 -92t-109 -36q-61 0 -99 29v80q39 -53 99 -53q32 0 51 17.5t19 49.5q0 53 -47.5 82.5t-121.5 29.5z" />
    <glyph glyph-name="sixsuperior" unicode="&#x2076;" horiz-adv-x="425" 
d="M365 543q0 -61 -37 -101t-101 -40q-73 0 -110 54.5t-37 133.5q0 105 45 168.5t119 63.5q39 0 76 -12v-76q-27 27 -75 27q-38 0 -63.5 -35t-25.5 -93h8q12 24 35.5 34.5t45.5 10.5q55 0 87.5 -38t32.5 -97zM227 461q28 0 46.5 21.5t18.5 60.5q0 34 -17.5 58.5t-49.5 24.5
q-19 0 -41.5 -18t-29.5 -50q0 -15 5 -34.5t22.5 -41t45.5 -21.5z" />
    <glyph glyph-name="sevensuperior" unicode="&#x2077;" horiz-adv-x="379" 
d="M263 664h56v-42h-70l-68 -219q-37 1 -67 9l64 205v5h-47q-11 0 -29.5 -5t-21.5 -6v59q21 -6 46 -6h65l32 95v8q-8 1 -45 1q-60 0 -98 -22v64q48 15 119 15q54 0 110 -9l-46 -143v-9z" />
    <glyph glyph-name="eightsuperior" unicode="&#x2078;" horiz-adv-x="396" 
d="M196 829q54 0 85 -26.5t31 -63.5q0 -70 -64 -80v-9q38 -10 63 -42.5t25 -81.5q0 -57 -38.5 -90t-101.5 -33t-99.5 29.5t-36.5 78.5q0 34 25 61.5t60 33.5v10q-32 9 -51 37t-19 62q0 53 32 83.5t89 30.5zM196 458q29 1 46 22.5t17 53.5q0 30 -18.5 47t-44.5 17
q-29 0 -46.5 -16.5t-17.5 -47.5q0 -32 17.5 -53.5t46.5 -22.5zM196 654q22 0 37 16t15 48q0 27 -14.5 41.5t-37.5 14.5q-52 0 -52 -56q0 -30 15 -47t37 -17z" />
    <glyph glyph-name="ninesuperior" unicode="&#x2079;" horiz-adv-x="415" 
d="M70 683q0 61 36.5 100t100.5 39q73 0 110.5 -54t37.5 -134q0 -105 -45.5 -168.5t-119.5 -63.5q-34 0 -76 13v75q30 -27 76 -27q37 0 63 35.5t26 93.5h-8q-24 -46 -81 -46q-55 0 -87.5 39t-32.5 98zM207 764q-28 0 -46 -21t-18 -60q0 -34 17.5 -59.5t49.5 -25.5
q18 0 41 18.5t30 49.5q0 15 -5 35t-23 41.5t-46 21.5z" />
    <glyph glyph-name="nsuperior" unicode="&#x207f;" horiz-adv-x="568" 
d="M214 762h8q26 60 84 60q54 0 86.5 -39t32.5 -102v-279q-55 4 -74 7v272q0 86 -68 86t-68 -86v-279q-55 4 -73 7v342q1 35 -14 61h82q4 -25 4 -50z" />
    <glyph glyph-name="zeroinferior" unicode="&#x2080;" horiz-adv-x="504" 
d="M252 472q74 0 118 -62t44 -154q0 -87 -44 -145.5t-118 -58.5q-75 0 -118.5 58.5t-43.5 145.5q0 93 43.5 154.5t118.5 61.5zM252 107q80 0 80 149q0 160 -80 160q-81 0 -81 -160q0 -149 81 -149z" />
    <glyph glyph-name="oneinferior" unicode="&#x2081;" horiz-adv-x="248" 
d="M168 479v-426q-51 3 -72 7v338h-10q-55 -35 -66 -45v70q72 43 148 56z" />
    <glyph glyph-name="twoinferior" unicode="&#x2082;" horiz-adv-x="393" 
d="M157 114q15 -3 63 -3q60 0 97 23v-64q-45 -16 -106 -16q-57 0 -131 12v45q0 37 29 78t63 70.5t63 62.5t29 57q0 55 -57 55q-56 0 -108 -55v79q45 32 109 32q57 0 91 -30.5t34 -83.5q0 -37 -26 -75t-58 -64.5t-60.5 -58.5t-31.5 -57v-7z" />
    <glyph glyph-name="threeinferior" unicode="&#x2083;" horiz-adv-x="405" 
d="M239 325q106 -33 106 -128q0 -60 -44.5 -102t-111.5 -42q-66 0 -109 29v89q47 -63 108 -63q35 0 56 23t21 61q0 40 -28.5 68t-82.5 28h-19l91 129v7h-48q-59 0 -98 -24v65q46 14 120 14q80 0 123 -13l-84 -134v-7z" />
    <glyph glyph-name="fourinferior" unicode="&#x2084;" horiz-adv-x="388" 
d="M271 164v-111q-40 1 -72 7v102q-116 2 -169 11l169 300q31 7 72 8v-260q51 6 77 20v-64q-34 -10 -77 -13zM199 219v62q0 12 3 40t3 42l-7 2q-7 -10 -13.5 -23.5t-13.5 -29.5t-9 -21l-32 -70q11 -2 69 -2z" />
    <glyph glyph-name="fiveinferior" unicode="&#x2085;" horiz-adv-x="386" 
d="M90 287v171q64 14 119 14q63 0 113 -16v-64q-39 23 -98 23q-47 0 -62 -3v-84q78 -6 126 -46.5t48 -101.5q0 -56 -38 -92t-109 -36q-61 0 -99 29v80q39 -53 99 -53q32 0 51 17.5t19 49.5q0 53 -47.5 82.5t-121.5 29.5z" />
    <glyph glyph-name="sixinferior" unicode="&#x2086;" horiz-adv-x="425" 
d="M365 193q0 -61 -37.5 -101t-101.5 -40q-71 0 -108.5 55t-37.5 133q0 105 45 168.5t119 63.5q39 0 76 -12v-76q-27 27 -75 27q-38 0 -63.5 -35t-25.5 -93h8q12 24 35.5 34.5t45.5 10.5q55 0 87.5 -38t32.5 -97zM227 111q28 0 46.5 21.5t18.5 60.5q0 34 -17.5 58.5
t-49.5 24.5q-19 0 -41.5 -18t-29.5 -50q0 -15 5 -34.5t22.5 -41t45.5 -21.5z" />
    <glyph glyph-name="seveninferior" unicode="&#x2087;" horiz-adv-x="379" 
d="M263 314h56v-42h-70l-68 -219q-37 1 -67 9l64 203v7h-47q-11 0 -29.5 -5t-21.5 -6v59q21 -6 46 -6h65l32 103q-13 1 -45 1q-60 0 -98 -22v64q48 15 119 15q54 0 110 -9l-46 -145v-7z" />
    <glyph glyph-name="eightinferior" unicode="&#x2088;" horiz-adv-x="396" 
d="M196 479q54 0 85 -26.5t31 -63.5q0 -70 -64 -80v-9q38 -10 63 -42.5t25 -81.5q0 -57 -38.5 -90t-101.5 -33t-99.5 30t-36.5 79q0 34 25 61t60 33v10q-32 9 -51 37t-19 62q0 53 32 83.5t89 30.5zM196 108q29 1 46 22.5t17 53.5q0 30 -18.5 47t-44.5 17q-29 0 -46.5 -16.5
t-17.5 -47.5q0 -32 17.5 -53.5t46.5 -22.5zM196 304q22 0 37 16t15 48q0 27 -14.5 41.5t-37.5 14.5q-52 0 -52 -56q0 -30 15 -47t37 -17z" />
    <glyph glyph-name="nineinferior" unicode="&#x2089;" horiz-adv-x="415" 
d="M70 333q0 60 37 99.5t99 39.5q73 0 111 -54.5t38 -133.5q0 -105 -45.5 -168.5t-119.5 -63.5q-34 0 -76 13v75q30 -27 76 -27q37 0 63 35.5t26 93.5h-8q-24 -46 -81 -46q-55 0 -87.5 39t-32.5 98zM207 414q-28 0 -46 -21t-18 -60q0 -34 17.5 -59.5t49.5 -25.5
q18 0 41 18.5t30 49.5q0 15 -5 35t-23 41.5t-46 21.5z" />
    <glyph glyph-name="franc" unicode="&#x20a3;" horiz-adv-x="481" 
d="M298 225v-65h-96v-160q-62 3 -112 10v150h-7q-14 -2 -38.5 -9t-33.5 -9v92q33 -9 79 -9v632q88 18 204 18q94 0 155 -19v-108q-48 42 -148 42q-62 0 -98 -8v-217h101q96 0 147 48v-171q-58 38 -155 38h-92l-2 -1v-254h96z" />
    <glyph glyph-name="lira" unicode="&#x20a4;" horiz-adv-x="491" 
d="M237 0q-155 0 -207 21v95q28 -23 88 -28q98 116 99 245q0 18 -1 27h-186v65h172v10q-29 62 -67 101h-105v65h110v95q0 83 43 130.5t120 47.5q73 0 117 -22v-102q-31 37 -84 37q-47 0 -65.5 -21t-18.5 -70v-95h107q39 0 72 9v-92q-4 1 -33.5 9.5t-46.5 8.5h-107v-11
q43 -31 68 -100h46q39 0 72 9v-92q-4 1 -33.5 9.5t-46.5 8.5h-23q0 -3 0.5 -9t0.5 -9q2 -127 -88 -245v-9q24 -1 27 -1q85 0 152 37v-102q-76 -21 -182 -22z" />
    <glyph glyph-name="peseta" unicode="&#x20a7;" horiz-adv-x="509" 
d="M495 721h58v-65h-58q-11 -73 -72 -111.5t-162 -38.5q-32 0 -72 10h-7v-516q-62 3 -112 10v646h-1q-52 0 -80 -14v91q33 -12 81 -12v136q88 18 204 18q95 0 153 -39.5t68 -114.5zM280 789q-60 0 -98 -8v-60h199v8q-23 60 -101 60zM182 591h100q70 0 97 57v8h-197v-65z" />
    <glyph glyph-name="Euro" unicode="&#x20ac;" horiz-adv-x="460" 
d="M148 344q11 -76 33 -130t51 -80t55.5 -36.5t55.5 -10.5q39 0 87 37v-102q-52 -22 -97 -22q-54 0 -100 17t-88.5 56t-71 112t-38.5 175h-67v65h63q-3 47 1 111h-63v65h72q23 128 92.5 201t176.5 73q30 0 51.5 -2.5t30 -5t37.5 -11.5v-108q-30 22 -54.5 32t-63.5 10
q-57 0 -97.5 -46.5t-60.5 -129.5v-13h136q39 0 72 9v-92q-4 1 -33.5 9.5t-46.5 8.5h-137q-4 -63 -1 -111h145q39 0 72 9v-92q-4 1 -33.5 9.5t-46.5 8.5h-132v-16z" />
    <glyph glyph-name="litre" unicode="&#x2113;" horiz-adv-x="518" 
d="M341 79q35 0 80.5 30t86.5 81v-143q-74 -57 -193 -57q-89 0 -138 55t-59 151h-9l-58 -45l-31 60q84 60 96 70v354q0 118 50.5 179.5t139.5 61.5q77 0 120.5 -53t43.5 -143q0 -108 -58 -208.5t-174 -212.5q3 -180 103 -180zM238 671v-310h11q128 160 128 319
q0 59 -18.5 89t-49.5 30q-32 0 -51.5 -32t-19.5 -96z" />
    <glyph glyph-name="afii61352" unicode="&#x2116;" horiz-adv-x="1097" 
d="M828 875q119 0 179 -95t60 -263q0 -54 -13.5 -104.5t-39.5 -93t-70 -68.5t-99 -26q-241 0 -241 363q0 54 13.5 104t40 91.5t70.5 66.5t100 25zM390 568h12v292q53 11 112 15v-875q-34 0 -112 9v390q-25 48 -108.5 128.5t-96.5 95.5h-8v-623q-41 0 -101 6v689
q0 96 -38 147l139 33v-39q5 -31 17 -59.5t36.5 -58.5t41.5 -48t54.5 -53t51.5 -49zM842 307q31 0 53.5 22t33.5 56.5t16 67.5t5 64q0 53 -6 99.5t-19.5 87.5t-38 65t-57.5 24q-31 0 -53.5 -21t-33.5 -55t-16 -66t-5 -63q0 -53 6 -100.5t19.5 -89.5t38 -66.5t57.5 -24.5z
M881 0h-94q-104 0 -140 -12v115q36 -12 140 -12h94q105 0 141 12v-115q-36 12 -141 12z" />
    <glyph glyph-name="trademark" unicode="&#x2122;" horiz-adv-x="368" 
d="M215 576q-6 0 -18.5 0.5t-16.5 1.5v187l34 3q6 -70 36 -113q26 40 35 111q7 0 33 2v-192l-33 2l3 104l-6 3q-12 -44 -32 -83q-21 32 -32 83l-6 -3zM105 768q37 0 55 -5v-32q-12 11 -39 11v-166q-23 2 -32 4v162q-27 0 -39 -11v31q19 6 55 6z" />
    <glyph glyph-name="estimated" unicode="&#x212e;" horiz-adv-x="833" 
d="M813 306h-578q-4 0 -4 -4v-205q91 -86 226 -86q69 0 132 26t107 73h42q-50 -61 -124 -96t-158 -35q-149 0 -253 96.5t-104 243.5q0 146 106.5 244.5t253.5 98.5q154 0 254 -96.5t100 -246.5v-13zM681 345v203q-84 82 -221 82q-68 0 -128.5 -26t-100.5 -66v-193q0 -4 4 -4
h442q4 0 4 4z" />
    <glyph glyph-name="onethird" unicode="&#x2153;" horiz-adv-x="916" 
d="M610 875l-292 -785q-17 -45 -8 -90h-116l287 783q20 55 13 92h116zM727 325q106 -33 106 -128q0 -60 -44.5 -102t-111.5 -42q-66 0 -109 29v89q47 -63 108 -63q35 0 56 23t21 61q0 40 -28.5 68t-82.5 28h-19l91 129v7h-48q-59 0 -98 -24v65q46 14 120 14q80 0 123 -13
l-84 -134v-7zM216 403q-51 3 -72 7v338h-7q-54 -31 -69 -45v70q72 43 148 56v-426z" />
    <glyph glyph-name="twothirds" unicode="&#x2154;" horiz-adv-x="1004" 
d="M698 875l-292 -785q-17 -45 -8 -90h-116l287 783q20 55 13 92h116zM159 464q15 -3 63 -3q60 0 97 23v-64q-45 -16 -106 -16q-57 0 -131 12v45q0 37 29 78t63 70.5t63 62.5t29 57q0 55 -57 55q-56 0 -108 -55v79q45 32 109 32q57 0 91 -30.5t34 -83.5q0 -37 -26 -75
t-57.5 -64t-60 -58t-32.5 -57v-8zM812 325q106 -33 106 -128q0 -60 -44.5 -102t-111.5 -42q-66 0 -109 29v89q47 -63 108 -63q35 0 56 23t21 61q0 40 -28.5 68t-82.5 28h-19l91 129v7h-48q-59 0 -98 -24v65q46 14 120 14q80 0 123 -13l-84 -134v-7z" />
    <glyph glyph-name="oneeighth" unicode="&#x215b;" horiz-adv-x="915" 
d="M690 479q54 0 85 -26.5t31 -63.5q0 -70 -64 -80v-9q38 -10 63 -42.5t25 -81.5q0 -57 -38.5 -90t-101.5 -33t-99.5 30.5t-36.5 80.5q0 34 25 60t60 32v10q-32 9 -51 37t-19 62q0 53 32 83.5t89 30.5zM610 875l-292 -785q-17 -45 -8 -90h-116l287 783q20 55 13 92h116z
M690 108q29 1 46 22.5t17 53.5q0 30 -18.5 47t-44.5 17q-29 0 -46.5 -16.5t-17.5 -47.5q0 -32 17.5 -53.5t46.5 -22.5zM690 304q22 0 37 16t15 48q0 27 -14.5 41.5t-37.5 14.5q-52 0 -52 -56q0 -30 15 -47t37 -17zM216 403q-51 3 -72 7v338h-7q-54 -31 -69 -45v70
q72 43 148 56v-426z" />
    <glyph glyph-name="threeeighths" unicode="&#x215c;" horiz-adv-x="1007" 
d="M782 479q54 0 85 -26.5t31 -63.5q0 -70 -64 -80v-9q38 -10 63 -42.5t25 -81.5q0 -57 -38.5 -90t-101.5 -33t-99.5 30t-36.5 79q0 34 25 61t60 33v10q-32 9 -51 37t-19 62q0 53 32 83.5t89 30.5zM712 875l-292 -785q-17 -45 -8 -90h-116l287 783q20 55 13 92h116zM782 108
q29 1 46 22.5t17 53.5q0 30 -18.5 47t-44.5 17q-29 0 -46.5 -16.5t-17.5 -47.5q0 -32 17.5 -53.5t46.5 -22.5zM782 304q22 0 37 16t15 48q0 27 -14.5 41.5t-37.5 14.5q-52 0 -52 -56q0 -30 15 -47t37 -17zM242 675q106 -33 106 -128q0 -60 -44.5 -102t-111.5 -42
q-66 0 -109 29v89q47 -63 108 -63q35 0 56 23t21 61q0 40 -28.5 68t-82.5 28h-19l91 129v7h-48q-59 0 -98 -24v65q46 14 120 14q80 0 123 -13l-84 -134v-7z" />
    <glyph glyph-name="fiveeighths" unicode="&#x215d;" horiz-adv-x="979" 
d="M754 479q54 0 85 -26.5t31 -63.5q0 -70 -64 -80v-9q38 -10 63 -42.5t25 -81.5q0 -57 -38.5 -90t-101.5 -33t-99.5 30t-36.5 79q0 34 25 61t60 33v10q-32 9 -51 37t-19 62q0 53 32 83.5t89 30.5zM684 875l-292 -785q-17 -45 -8 -90h-116l287 783q20 55 13 92h116zM81 637
v171q64 14 119 14q63 0 113 -16v-64q-39 23 -98 23q-47 0 -62 -3v-84q78 -6 126 -46.5t48 -101.5q0 -56 -38 -92t-109 -36q-61 0 -99 29v80q39 -53 99 -53q32 0 51 17.5t19 49.5q0 53 -47.5 82.5t-121.5 29.5zM754 108q29 1 46 22.5t17 53.5q0 30 -18.5 47t-44.5 17
q-29 0 -46.5 -16.5t-17.5 -47.5q0 -32 17.5 -53.5t46.5 -22.5zM754 304q22 0 37 16t15 48q0 27 -14.5 41.5t-37.5 14.5q-52 0 -52 -56q0 -30 15 -47t37 -17z" />
    <glyph glyph-name="seveneighths" unicode="&#x215e;" horiz-adv-x="950" 
d="M725 479q54 0 85 -26.5t31 -63.5q0 -70 -64 -80v-9q38 -10 63 -42.5t25 -81.5q0 -57 -38.5 -90t-101.5 -33t-99.5 30.5t-36.5 80.5q0 34 25 60t60 32v10q-32 9 -51 37t-19 62q0 53 32 83.5t89 30.5zM645 875l-292 -785q-17 -45 -8 -90h-116l287 783q20 55 13 92h116z
M263 664h56v-42h-70l-68 -219q-37 1 -67 9l64 203v7h-47q-11 0 -29.5 -5t-21.5 -6v59q21 -6 46 -6h65l32 103q-13 1 -45 1q-60 0 -98 -22v64q48 15 119 15q54 0 110 -9l-46 -145v-7zM725 108q29 1 46 22.5t17 53.5q0 30 -18.5 47t-44.5 17q-29 0 -46.5 -16.5t-17.5 -47.5
q0 -32 17.5 -53.5t46.5 -22.5zM725 304q22 0 37 16t15 48q0 27 -14.5 41.5t-37.5 14.5q-52 0 -52 -56q0 -30 15 -47t37 -17z" />
    <glyph glyph-name="partialdiff" unicode="&#x2202;" horiz-adv-x="553" 
d="M21 287q18 116 81 194t168 78q33 0 65 -20.5t47 -59.5h13q7 46 3 99t-14 98t-38 74.5t-70 29.5q-62 0 -125 -42l19 118q60 19 122 19q60 0 104.5 -30t68.5 -78.5t36 -111.5t11.5 -126t-10.5 -126q-8 -50 -19 -95.5t-35.5 -105t-56.5 -101.5t-83.5 -71.5t-114.5 -29.5
q-57 0 -96.5 25t-57 65.5t-23.5 92t5 104.5zM207 87q39 0 72 33t53 81.5t30.5 86t14.5 65.5q-4 55 -31.5 80.5t-59.5 25.5q-60 0 -95 -40t-50 -132q-31 -200 66 -200z" />
    <glyph glyph-name="minus" unicode="&#x2212;" horiz-adv-x="715" 
d="M504 274h-294q-104 0 -140 -12v115q36 -12 140 -12h294q105 0 141 12v-115q-36 12 -141 12z" />
    <glyph glyph-name="radical" unicode="&#x221a;" horiz-adv-x="833" 
d="M505 875h169q-45 -61 -74 -188l-184 -784q-80 -6 -147 10l-140 412h-9q-38 -11 -57 -44l-31 90l145 62l124 -365q5 -11 12 -39t11 -38h7q7 20 17 78l144 618q29 118 13 188z" />
    <glyph glyph-name="infinity" unicode="&#x221e;" horiz-adv-x="758" 
d="M361 355h8q80 97 187 97q65 0 108.5 -44t43.5 -104q0 -65 -40.5 -106.5t-103.5 -41.5q-52 0 -88.5 24t-77.5 73h-9q-80 -97 -187 -97q-65 0 -108.5 44t-43.5 104q0 65 40 106.5t104 41.5q52 0 88 -24t79 -73zM429 285q56 -47 80.5 -58t50.5 -11q37 0 61 25t24 63
q0 36 -25.5 62t-62.5 26q-17 0 -31 -4.5t-28.5 -17.5t-22 -20.5t-24.5 -28.5t-22 -27v-9zM201 216q17 0 31 4.5t28.5 17.5t22 20.5t24.5 28.5t22 27v9q-3 2 -14 11.5t-14.5 12t-13 10t-14 10t-13.5 8t-15 7.5t-14.5 5t-16 4t-16.5 1q-37 0 -61 -25t-24 -63q0 -36 25.5 -62
t62.5 -26z" />
    <glyph glyph-name="integral" unicode="&#x222b;" horiz-adv-x="478" 
d="M300 696v-718q0 -83 -43 -130.5t-120 -47.5q-73 0 -117 22v102q31 -37 84 -37q47 0 65.5 21t18.5 70v718q0 83 43 130.5t120 47.5q73 0 117 -22v-102q-31 37 -84 37q-47 0 -65.5 -21t-18.5 -70z" />
    <glyph glyph-name="approxequal" unicode="&#x2248;" horiz-adv-x="421" 
d="M79 162h-54q0 53 30.5 86t84.5 33q26 0 73 -16t72 -16q53 0 53 39h58q0 -54 -30.5 -88t-84.5 -34q-25 0 -71.5 16t-71.5 16q-59 0 -59 -36zM79 362h-54q0 53 30.5 86t84.5 33q26 0 73 -16t72 -16q53 0 53 39h58q0 -54 -30.5 -88t-84.5 -34q-25 0 -71.5 16t-71.5 16
q-59 0 -59 -36z" />
    <glyph glyph-name="notequal" unicode="&#x2260;" horiz-adv-x="605" 
d="M374 488l6 -6q126 5 155 15v-115q-36 12 -183 12l-43 -146l6 -6q187 4 220 15v-115q-36 12 -247 12q-29 -109 -29 -154l-75 15q11 23 45 136l-6 6q-125 -5 -153 -15v115q36 -12 180 -12l44 146l-6 6q-185 -4 -218 -15v115q36 -12 245 -12q27 101 31 155l75 -14
q-11 -18 -47 -138z" />
    <glyph glyph-name="lessequal" unicode="&#x2264;" horiz-adv-x="543" 
d="M211 184l-136 135l136 136q76 76 91 108l81 -81q-29 -12 -108 -91l-71 -72l71 -71q18 -18 77 -78.5t81 -82.5v-99q-36 12 -140 12h-92q-95 0 -131 -12v115q36 -12 131 -12h102v13q-2 2 -38.5 32t-53.5 48z" />
    <glyph glyph-name="greaterequal" unicode="&#x2265;" horiz-adv-x="543" 
d="M332 184q-17 -18 -53.5 -48t-38.5 -32v-13h102q95 0 131 12v-115q-36 12 -131 12h-92q-104 0 -140 -12v99q22 22 81 82.5t77 78.5l71 71l-71 72q-79 79 -108 91l81 81q15 -32 91 -108l136 -136z" />
    <glyph glyph-name="commaaccent" unicode="&#xf6c3;" horiz-adv-x="170" 
d="M95 -200h-65l19 80q13 51 -5 80q56 14 111 0q14 -27 -11 -72z" />
    <glyph glyph-name="rupiah" unicode="&#xf6dd;" horiz-adv-x="583" 
d="M413 802q37 -30 44 -81h96v-65h-101q-13 -49 -52.5 -80t-80.5 -36l131 -436q22 -71 47 -104h-149q7 61 -8 113l-121 393h-148v85h163q78 0 106 58v7h-190q-52 0 -80 -14v91q33 -12 72 -12h201v10q-11 36 -37 57.5t-64 21.5h-91q-53 0 -80 -18v92q26 -9 72 -9h410v-65
h-140v-8z" />
    <glyph glyph-name="asuperior" unicode="&#xf6e9;" horiz-adv-x="498" 
d="M361 708v-239q-1 -36 14 -67h-80q-3 33 -4 56h-5q-20 -59 -84 -59q-44 0 -72 34t-28 85q-3 61 37 104.5t111 43.5q20 0 40 -5v47q0 31 -13 44t-47 13q-62 0 -92 -29v71q50 14 112 14q53 0 82 -30.5t29 -82.5zM290 610h-40q-34 0 -55 -24t-21 -68q0 -30 15 -47.5t37 -17.5
q64 0 64 84v73z" />
    <glyph glyph-name="bsuperior" unicode="&#xf6ea;" horiz-adv-x="517" 
d="M211 778h7q26 61 85 61q40 0 72 -46.5t32 -130.5v-61q-2 -82 -44 -131.5t-112 -49.5q-15 0 -32 2.5t-28 5.5t-29 8t-22 6v529q27 6 71 9v-202zM335 601v61q0 61 -18 91.5t-47 30.5q-59 0 -59 -106v-188q22 -15 44 -15q36 0 57.5 33.5t22.5 92.5z" />
    <glyph glyph-name="dsuperior" unicode="&#xf6eb;" horiz-adv-x="512" 
d="M292 778h8v193q28 6 72 9v-538q-6 -1 -23 -6t-28 -8t-28.5 -5.5t-32.5 -2.5q-70 0 -111.5 49.5t-43.5 131.5v61q0 84 31.5 130.5t72.5 46.5q59 0 83 -61zM177 662v-61q2 -59 22.5 -92.5t56.5 -33.5q23 0 44 15v188q0 106 -58 106q-29 0 -47 -30.5t-18 -91.5z" />
    <glyph glyph-name="esuperior" unicode="&#xf6ec;" horiz-adv-x="475" 
d="M347 482v-65q-33 -15 -62 -15q-75 0 -124.5 53t-49.5 180q0 85 38.5 136t108.5 51q54 0 85.5 -35.5t31.5 -83.5q3 -58 -36 -90t-112 -32q-23 0 -41 3q9 -71 39.5 -98.5t65.5 -27.5q25 0 56 24zM251 767q-31 0 -49.5 -34.5t-18.5 -96.5h44q39 0 57.5 12.5t18.5 54.5
q0 30 -14.5 47t-37.5 17z" />
    <glyph glyph-name="isuperior" unicode="&#xf6ed;" horiz-adv-x="264" 
d="M169 830v-410q-53 4 -74 6v395q27 6 74 9zM169 980v-74q-40 1 -74 7v59q18 4 74 8z" />
    <glyph glyph-name="lsuperior" unicode="&#xf6ee;" horiz-adv-x="285" 
d="M175 980v-465q0 -21 6 -28.5t22 -7.5q22 0 34 21v-66q-22 -14 -56 -14q-38 0 -58 25.5t-20 69.5v459q25 4 72 6z" />
    <glyph glyph-name="msuperior" unicode="&#xf6ef;" horiz-adv-x="845" 
d="M660 678v-276q-55 4 -73 7v269q0 89 -62 89q-26 0 -44 -30.5t-18 -71.5v-263q-53 4 -73 7v269q0 48 -14.5 68.5t-46.5 20.5q-26 0 -44 -30.5t-18 -71.5v-263q-55 4 -73 7v342q0 37 -14 61h82q3 -32 4 -56h5q8 31 31 48.5t52 17.5q81 0 96 -91h4q9 40 34 65.5t62 25.5
q52 0 81 -38t29 -106z" />
    <glyph glyph-name="osuperior" unicode="&#xf6f0;" 
d="M256 822q76 0 115 -62t39 -170q0 -74 -37 -131t-106 -57q-154 0 -154 233q0 74 37 130.5t106 56.5zM266 455q37 0 53 43.5t16 91.5q0 46 -7 84.5t-25 67t-46 28.5q-26 0 -42.5 -25.5t-21.5 -53.5t-5 -56q0 -47 7 -85t25 -66.5t46 -28.5z" />
    <glyph glyph-name="rsuperior" unicode="&#xf6f1;" horiz-adv-x="345" 
d="M283 807v-65q-23 16 -44 16q-27 0 -42 -21t-15 -60v-275q-48 5 -70 10v333q0 41 -15 67h80q3 -32 4 -56h7q20 66 63 66q25 0 32 -15z" />
    <glyph glyph-name="ssuperior" unicode="&#xf6f2;" horiz-adv-x="430" 
d="M172 718q0 -32 63 -69q28 -16 39 -24t31.5 -25.5t29 -37.5t8.5 -45q0 -49 -34 -82t-87 -33q-62 0 -105 29v107q12 -33 42.5 -56.5t61.5 -23.5q55 0 55 50q0 14 -13 29t-24.5 23t-39.5 25t-45 31t-32 40.5t-15 58.5q0 48 34 77.5t89 29.5q49 0 91 -20v-100q-12 32 -37 50
t-54 18q-58 0 -58 -52z" />
    <glyph glyph-name="tsuperior" unicode="&#xf6f3;" horiz-adv-x="367" 
d="M178 755v-230q0 -31 12 -44.5t43 -13.5q33 0 53 24v-66q-27 -14 -75 -14q-49 0 -77 30.5t-28 83.5v358q35 13 72 20v-94h61q25 0 47 6v-72q-4 1 -23 6.5t-29 5.5h-56z" />
    <glyph glyph-name="Lslashsmall" unicode="&#xf6f9;" horiz-adv-x="420" 
d="M181 398h7l87 71v-99l-94 -36v-242h1q25 -5 84 -5q84 0 134 37v-102q-66 -22 -167 -22q-93 0 -163 10v261h-7l-64 -52v98l71 28v291q46 9 111 14v-252z" />
    <glyph glyph-name="OEsmall" unicode="&#xf6fa;" horiz-adv-x="746" 
d="M701 122v-102q-70 -20 -183 -20q-44 0 -89 7.5t-48 7.5q-47 -15 -90 -15q-121 0 -191 98.5t-70 264.5q0 73 24.5 137.5t82 109.5t137.5 45q59 0 113 -23q96 23 163 23q78 0 151 -20v-108q-45 41 -146 41q-46 0 -97 -6v-164h101q93 0 142 47v-168q-53 37 -151 37h-92v-223
q22 -3 92 -3q99 0 151 34zM275 573q-37 0 -63.5 -22t-39.5 -56.5t-19 -67.5t-6 -64q0 -73 12 -133t45 -104t84 -44q34 0 62 19v439q-26 33 -75 33z" />
    <glyph glyph-name="Scaronsmall" unicode="&#xf6fd;" horiz-adv-x="430" 
d="M142 493q0 -51 98 -108q35 -20 49 -28.5t43 -31t42 -40.5t24.5 -46.5t11.5 -60.5q0 -76 -53.5 -127t-136.5 -51q-99 0 -164 44v168q19 -52 66 -89t97 -37q38 0 62 19.5t24 58.5q0 17 -8.5 32.5t-30 32.5t-35 26t-46.5 29q-32 20 -53 36t-44.5 41t-35.5 57t-12 70
q0 75 53.5 121t138.5 46q76 0 143 -31v-156q-19 49 -58 78t-85 29q-43 0 -66.5 -22t-23.5 -60zM170 861l49 -69l50 69h65l-41 -80q-27 -50 -16 -80h-115q11 30 -16 80l-41 80h65z" />
    <glyph glyph-name="Zcaronsmall" unicode="&#xf6ff;" horiz-adv-x="449" 
d="M185 861l49 -69l50 69h65l-41 -80q-27 -50 -16 -80h-115q11 30 -16 80l-41 80h65zM181 90q29 -3 70 -3q96 0 154 37v-102q-75 -22 -187 -22q-105 0 -183 14l125 287v6h-36q-17 0 -46.5 -8.5t-33.5 -9.5v92q33 -9 72 -9h72l82 182v10q-30 3 -72 3q-96 0 -154 -37v102
q75 22 187 22q118 0 183 -14l-114 -262v-6h125v-65h-152l-92 -206v-11z" />
    <glyph glyph-name="ampersandsmall" unicode="&#xf726;" horiz-adv-x="554" 
d="M481 105q0 -65 22 -105h-122q-4 51 -6 88h-9q-24 -52 -74.5 -73.5t-105.5 -11.5q-60 11 -100.5 56.5t-40.5 116.5q0 47 25.5 90t78.5 71v11q-51 26 -73 65t-22 75q0 73 60 120.5t165 47.5q114 0 202 -50v-138q-80 104 -204 104q-51 0 -79.5 -24t-28.5 -64
q0 -43 35.5 -85.5t98.5 -52.5v-7q-67 -12 -105 -55.5t-38 -94.5q0 -41 20.5 -67t52.5 -36q51 -15 96 18.5t45 106.5v138q93 5 160 56v-111q-24 -8 -53 -8v-181z" />
    <glyph glyph-name="Asmall" unicode="&#xf761;" horiz-adv-x="478" 
d="M307 119q-83 21 -155 -6q-14 -59 -7 -113h-135q33 42 47 104l116 551q36 7 130 14l120 -566q14 -60 45 -103h-153q6 49 -8 119zM201 345l-29 -143q55 14 117 4l-26 139q-3 15 -10 76.5t-13 79.5h-14q-6 -18 -14 -79.5t-11 -76.5z" />
    <glyph glyph-name="Bsmall" unicode="&#xf762;" horiz-adv-x="520" 
d="M451 492q0 -39 -29.5 -74.5t-78.5 -45.5v-15q62 -9 104.5 -49.5t42.5 -117.5q0 -85 -65 -137.5t-181 -52.5q-111 0 -174 19v618q82 18 164 18q217 0 217 -163zM182 86h63q63 1 97.5 29t34.5 74q0 65 -35.5 91t-114.5 26h-45v-220zM182 561v-170h71q41 0 66.5 20t25.5 61
q0 97 -104 97q-35 0 -59 -8z" />
    <glyph glyph-name="Csmall" unicode="&#xf763;" horiz-adv-x="440" 
d="M410 124v-102q-52 -22 -97 -22q-57 0 -104.5 17t-89.5 56t-65.5 113t-23.5 177q0 132 68.5 212t191.5 80h18.5t17 -1t13.5 -1t13 -1.5t10.5 -2t11.5 -3t10.5 -3t12.5 -3.5t13 -4v-108q-30 22 -55 32t-64 10q-69 0 -109 -56t-40 -151q0 -67 12.5 -118.5t31 -80.5t44 -47
t47.5 -24t46 -6q39 0 87 37z" />
    <glyph glyph-name="Dsmall" unicode="&#xf764;" horiz-adv-x="517" 
d="M486 381q3 -79 -12 -147t-48 -121t-90 -83t-132 -30q-74 0 -134 19v618q77 18 155 18q129 0 192.5 -67t68.5 -207zM181 86h33q73 1 114.5 80.5t39.5 214.5q-3 97 -41.5 142.5t-98.5 45.5q-23 0 -47 -6v-477z" />
    <glyph glyph-name="Esmall" unicode="&#xf765;" horiz-adv-x="461" 
d="M416 122v-102q-70 -20 -183 -20q-66 0 -168 9v626q84 20 200 20q78 0 151 -20v-108q-45 41 -146 41q-46 0 -97 -6v-164h101q93 0 142 47v-168q-53 37 -151 37h-92v-223q22 -3 92 -3q99 0 151 34z" />
    <glyph glyph-name="Fsmall" unicode="&#xf766;" horiz-adv-x="441" 
d="M178 314v-313q-25 1 -108 8v626q84 20 200 20q78 0 151 -20v-108q-45 41 -146 41q-46 0 -97 -6v-164h101q93 0 142 47v-168q-53 37 -151 37h-92z" />
    <glyph glyph-name="Gsmall" unicode="&#xf767;" horiz-adv-x="540" 
d="M473 376v-271q0 -65 22 -105h-122q-4 51 -6 88h-9q-35 -88 -150 -88q-88 6 -133 84t-45 204q0 161 92 264t221 103q66 0 119 -21v-122q-48 57 -122 57q-83 0 -136 -73t-53 -208q0 -203 114 -208q45 0 73 36.5t28 94.5v85q-66 0 -113 -30v111q122 12 220 -1z" />
    <glyph glyph-name="Hsmall" unicode="&#xf768;" horiz-adv-x="559" 
d="M363 394h12v246q27 5 114 11v-651q-62 3 -112 10v278q-48 20 -96 20q-55 0 -99 -20v-288q-62 3 -112 10v627q46 9 111 14v-257h13q39 21 88 19t81 -19z" />
    <glyph glyph-name="Ismall" unicode="&#xf769;" horiz-adv-x="254" 
d="M184 650v-650q-66 3 -114 10v626q44 9 114 14z" />
    <glyph glyph-name="Jsmall" unicode="&#xf76a;" horiz-adv-x="345" 
d="M20 526v108q91 29 255 16v-488q0 -162 -149 -162q-44 0 -106 16v108q54 -34 92 -34q29 0 40.5 16.5t11.5 55.5v406q-96 -2 -144 -42z" />
    <glyph glyph-name="Ksmall" unicode="&#xf76b;" horiz-adv-x="510" 
d="M412 244l31 -140q16 -64 47 -104h-147q5 44 -8 113l-18 92q-14 59 -45 87.5t-90 33.5v-326q-62 3 -112 10v627q46 9 111 14v-238q89 0 120 92l45 132q45 13 117 13l-55 -141q-44 -114 -134 -114v-9q38 0 79 -34t59 -108z" />
    <glyph glyph-name="Lsmall" unicode="&#xf76c;" horiz-adv-x="420" 
d="M181 92h1q25 -5 84 -5q84 0 134 37v-102q-66 -22 -167 -22q-93 0 -163 10v626q46 9 111 14v-558z" />
    <glyph glyph-name="Msmall" unicode="&#xf76d;" horiz-adv-x="606" 
d="M182 335v-335q-62 3 -112 10v631q46 9 111 14q15 -137 41.5 -236t79.5 -179q54 80 80.5 175t41.5 227q54 9 112 13v-655q-62 3 -112 10v325h-8q-11 -42 -26 -79t-25 -56.5t-31.5 -55.5t-30.5 -53q-8 15 -30.5 52.5t-32.5 56t-25 56t-26 79.5h-7z" />
    <glyph glyph-name="Nsmall" unicode="&#xf76e;" horiz-adv-x="554" 
d="M365 350h7v292q53 11 112 15v-657q-34 0 -112 9v172q-21 48 -91.5 127.5t-83.5 96.5h-8v-405q-41 0 -101 6v471q0 96 -38 147l139 33v-39q4 -31 15 -60t32 -58t37 -48t47 -52.5t45 -49.5z" />
    <glyph glyph-name="Osmall" unicode="&#xf76f;" 
d="M254 655q119 0 179 -97t60 -266q0 -54 -13.5 -104.5t-39.5 -93t-70 -68.5t-99 -26q-241 0 -241 363q0 73 22.5 137.5t75.5 109.5t126 45zM268 82q31 0 53.5 22t33.5 56.5t16 67.5t5 64q0 53 -6 100.5t-19.5 89.5t-38 66.5t-57.5 24.5q-31 0 -53.5 -22t-33.5 -56.5
t-16 -67.5t-5 -64q0 -53 6 -100.5t19.5 -89.5t38 -66.5t57.5 -24.5z" />
    <glyph glyph-name="Psmall" unicode="&#xf770;" horiz-adv-x="509" 
d="M479 478q3 -94 -55.5 -143t-164.5 -49q-33 0 -63 10h-14v-296q-62 3 -112 10v627q81 18 185 18q103 0 161.5 -45.5t62.5 -131.5zM182 371h81q49 0 75.5 26.5t26.5 74.5q0 97 -104 97q-49 0 -79 -8v-190z" />
    <glyph glyph-name="Qsmall" unicode="&#xf771;" horiz-adv-x="508" 
d="M254 7q95 -40 204 -31l-57 -104q-109 18 -197 89.5t-136 172t-48 206.5q0 82 21.5 150.5t72.5 116.5t125 48q119 0 179 -95.5t60 -263.5q0 -101 -61 -183t-163 -99v-7zM253 82q31 0 53.5 22t33.5 56.5t16 67.5t5 64q0 53 -6 100.5t-19.5 89.5t-38 66.5t-57.5 24.5
q-31 0 -53.5 -22t-33.5 -56.5t-16 -67.5t-5 -64q0 -53 6 -100.5t19.5 -89.5t38 -66.5t57.5 -24.5z" />
    <glyph glyph-name="Rsmall" unicode="&#xf772;" horiz-adv-x="527" 
d="M358 310l50 -206q14 -62 47 -104h-149q6 49 -8 113l-40 173h-76v-286q-62 3 -112 10v627q88 18 204 18q104 0 163.5 -46t59.5 -130q0 -67 -44.5 -110t-94.5 -49v-10zM182 371h91q51 0 81.5 26.5t30.5 74.5q0 97 -104 97q-61 0 -99 -8v-190z" />
    <glyph glyph-name="Ssmall" unicode="&#xf773;" horiz-adv-x="430" 
d="M142 493q0 -51 98 -108q35 -20 49 -28.5t43 -31t42 -40.5t24.5 -46.5t11.5 -60.5q0 -76 -53.5 -127t-136.5 -51q-99 0 -164 44v168q19 -52 66 -89t97 -37q38 0 62 19.5t24 58.5q0 17 -8.5 32.5t-30 32.5t-35 26t-46.5 29q-32 20 -53 36t-44.5 41t-35.5 57t-12 70
q0 75 53.5 121t138.5 46q76 0 143 -31v-156q-19 49 -58 78t-85 29q-43 0 -66.5 -22t-23.5 -60z" />
    <glyph glyph-name="Tsmall" unicode="&#xf774;" horiz-adv-x="393" 
d="M196 655q120 0 187 -22v-102q-41 31 -131 37v-568q-65 5 -111 14v553q-90 -6 -131 -37v102q65 21 186 23z" />
    <glyph glyph-name="Usmall" unicode="&#xf775;" horiz-adv-x="558" 
d="M491 650v-545q-1 -63 22 -105h-129q-4 51 -6 88h-10q-43 -93 -132 -93q-85 0 -135.5 60.5t-50.5 159.5v425q48 7 114 10v-435q0 -135 107 -135q56 0 81 37.5t25 97.5v425q48 7 114 10z" />
    <glyph glyph-name="Vsmall" unicode="&#xf776;" horiz-adv-x="519" 
d="M148 620l89 -373q3 -13 8.5 -52t11.5 -57h10q5 16 17 109l89 373v20h136q-11 -16 -33 -64.5t-35 -94.5l-127 -481q-66 5 -110 14l-126 467q-13 45 -35 93t-33 66h138v-20z" />
    <glyph glyph-name="Wsmall" unicode="&#xf777;" horiz-adv-x="763" 
d="M151 620l83 -432h10l58 300q15 77 -17 152h143v-20l93 -432h10l81 432v20h141q-10 -13 -32 -67.5t-32 -97.5l-103 -475q-83 6 -121 14l-80 425h-10l-81 -439q-83 6 -121 14l-105 473q-7 31 -29.5 88t-28.5 65h141v-20z" />
    <glyph glyph-name="Xsmall" unicode="&#xf778;" horiz-adv-x="479" 
d="M162 640v-20l72 -198h11l72 198v20h145q-1 -1 -5 -5.5t-6 -7t-7 -8.5t-8.5 -11.5t-9 -14.5t-11.5 -20t-13 -24.5t-15 -31t-17 -37.5l-60 -141l113 -276q10 -22 46 -63h-149v32l-48 148l-26 75h-13l-26 -75l-48 -148v-32h-149q35 40 45 63l114 276l-60 141
q-10 23 -19.5 42.5t-16 33t-14 26t-11.5 19t-10 14.5t-8 10t-8 9l-5 6h145z" />
    <glyph glyph-name="Ysmall" unicode="&#xf779;" horiz-adv-x="488" 
d="M253 0h-145q41 53 52 94l35 97q-219 87 -185 454q60 12 116 10q-21 -173 5.5 -257.5t104.5 -107.5h10q4 14 17.5 53t21.5 63l72 239q53 13 121 10l-197 -542q-2 -6 -8.5 -23t-9 -25.5t-6 -21.5t-4.5 -23.5t0 -19.5z" />
    <glyph glyph-name="Zsmall" unicode="&#xf77a;" horiz-adv-x="460" 
d="M181 90q29 -3 70 -3q96 0 154 37v-102q-75 -22 -187 -22q-105 0 -183 14l125 287v6h-36q-17 0 -46.5 -8.5t-33.5 -9.5v92q33 -9 72 -9h72l82 182v10q-30 3 -72 3q-96 0 -154 -37v102q75 22 187 22q118 0 183 -14l-114 -262v-6h125v-65h-152l-92 -206v-11z" />
    <glyph glyph-name="Agravesmall" unicode="&#xf7e0;" horiz-adv-x="478" 
d="M307 119q-83 21 -155 -6q-14 -59 -7 -113h-135q33 42 47 104l116 551q36 7 130 14l120 -566q14 -60 45 -103h-153q6 49 -8 119zM201 345l-29 -143q55 14 117 4l-26 139q-3 15 -10 76.5t-13 79.5h-14q-6 -18 -14 -79.5t-11 -76.5zM203 701l-73 88q-36 51 -30 72h111
q-11 -30 16 -80l41 -80h-65z" />
    <glyph glyph-name="Aacutesmall" unicode="&#xf7e1;" horiz-adv-x="478" 
d="M307 119q-83 21 -155 -6q-14 -59 -7 -113h-135q33 42 47 104l116 551q36 7 130 14l120 -566q14 -60 45 -103h-153q6 49 -8 119zM201 345l-29 -143q55 14 117 4l-26 139q-3 15 -10 76.5t-13 79.5h-14q-6 -18 -14 -79.5t-11 -76.5zM270 701h-65l41 80q27 50 16 80h111
q6 -21 -30 -72z" />
    <glyph glyph-name="Acircumflexsmall" unicode="&#xf7e2;" horiz-adv-x="478" 
d="M307 119q-83 21 -155 -6q-14 -59 -7 -113h-135q33 42 47 104l116 551q36 7 130 14l120 -566q14 -60 45 -103h-153q6 49 -8 119zM192 701h-65l41 80q27 50 16 80h115q-11 -30 16 -80l41 -80h-65l-50 69zM201 345l-29 -143q55 14 117 4l-26 139q-3 15 -10 76.5t-13 79.5
h-14q-6 -18 -14 -79.5t-11 -76.5z" />
    <glyph glyph-name="Atildesmall" unicode="&#xf7e3;" horiz-adv-x="478" 
d="M307 119q-83 21 -155 -6q-14 -59 -7 -113h-135q33 42 47 104l116 551q36 7 130 14l120 -566q14 -60 45 -103h-153q6 49 -8 119zM135 697h-54q13 113 89 113q22 0 65 -11t64 -11q24 0 29 29h54q-3 -44 -26 -80t-63 -36q-22 0 -64 11t-63 11q-24 0 -31 -26zM201 345
l-29 -143q55 14 117 4l-26 139q-3 15 -10 76.5t-13 79.5h-14q-6 -18 -14 -79.5t-11 -76.5z" />
    <glyph glyph-name="Adieresissmall" unicode="&#xf7e4;" horiz-adv-x="478" 
d="M307 119q-83 21 -155 -6q-14 -59 -7 -113h-135q33 42 47 104l116 551q36 7 130 14l120 -566q14 -60 45 -103h-153q6 49 -8 119zM201 345l-29 -143q55 14 117 4l-26 139q-3 15 -10 76.5t-13 79.5h-14q-6 -18 -14 -79.5t-11 -76.5zM211 817v-116q-78 3 -114 10v93
q36 7 114 13zM385 817v-116q-78 3 -114 10v93q36 7 114 13z" />
    <glyph glyph-name="Aringsmall" unicode="&#xf7e5;" horiz-adv-x="478" 
d="M307 119q-83 21 -155 -6q-14 -59 -7 -113h-135q33 42 47 104l113 536q-23 26 -23 60q0 37 26 63t63 26t63 -26t26 -63q0 -28 -18 -53l116 -544q14 -60 45 -103h-153q6 49 -8 119zM201 345l-29 -143q55 14 117 4l-26 139q-3 16 -10.5 92.5t-12.5 93.5h-14
q-5 -18 -13.5 -94t-11.5 -92zM236 663q16 0 27 11t11 26q0 16 -11 27t-27 11t-27 -11t-11 -27q0 -15 11 -26t27 -11z" />
    <glyph glyph-name="AEsmall" unicode="&#xf7e6;" horiz-adv-x="682" 
d="M637 122v-102q-70 -20 -183 -20q-66 0 -168 9v115q-78 9 -134 -11q-14 -59 -7 -113h-135q33 42 47 104l111 528q9 1 76 7t137.5 11t104.5 5q78 0 151 -20v-108q-45 41 -146 41q-46 0 -97 -6v-164h101q93 0 142 47v-168q-53 37 -151 37h-92v-223q22 -3 92 -3q99 0 151 34z
M201 345l-29 -143q48 13 114 5v349l-53 -1q-10 -45 -19.5 -121t-12.5 -89z" />
    <glyph glyph-name="Ccedillasmall" unicode="&#xf7e7;" horiz-adv-x="440" 
d="M324 -8q60 -26 60 -84q0 -48 -34 -78t-83 -30q-35 0 -72 21l6 43q28 -15 56 -15t46 15.5t18 43.5q0 24 -21 40.5t-47 16.5q-24 0 -37 -7l16 51q-202 50 -202 354q0 132 68.5 212t191.5 80h18.5t17 -1t13.5 -1t13 -1.5t10.5 -2t11.5 -3t10.5 -3t12.5 -3.5t13 -4v-108
q-30 22 -55 32t-64 10q-69 0 -109 -56t-40 -151q0 -67 12.5 -118.5t31 -80.5t44 -47t47.5 -24t46 -6q39 0 87 37v-102q-48 -21 -86 -22v-8z" />
    <glyph glyph-name="Egravesmall" unicode="&#xf7e8;" horiz-adv-x="461" 
d="M416 122v-102q-70 -20 -183 -20q-66 0 -168 9v626q84 20 200 20q78 0 151 -20v-108q-45 41 -146 41q-46 0 -97 -6v-164h101q93 0 142 47v-168q-53 37 -151 37h-92v-223q22 -3 92 -3q99 0 151 34zM223 701l-73 88q-36 51 -30 72h111q-11 -30 16 -80l41 -80h-65z" />
    <glyph glyph-name="Eacutesmall" unicode="&#xf7e9;" horiz-adv-x="461" 
d="M416 122v-102q-70 -20 -183 -20q-66 0 -168 9v626q84 20 200 20q78 0 151 -20v-108q-45 41 -146 41q-46 0 -97 -6v-164h101q93 0 142 47v-168q-53 37 -151 37h-92v-223q22 -3 92 -3q99 0 151 34zM270 701h-65l41 80q27 50 16 80h111q6 -21 -30 -72z" />
    <glyph glyph-name="Ecircumflexsmall" unicode="&#xf7ea;" horiz-adv-x="461" 
d="M416 122v-102q-70 -20 -183 -20q-66 0 -168 9v626q84 20 200 20q78 0 151 -20v-108q-45 41 -146 41q-46 0 -97 -6v-164h101q93 0 142 47v-168q-53 37 -151 37h-92v-223q22 -3 92 -3q99 0 151 34zM192 701h-65l41 80q27 50 16 80h115q-11 -30 16 -80l41 -80h-65l-50 69z
" />
    <glyph glyph-name="Edieresissmall" unicode="&#xf7eb;" horiz-adv-x="461" 
d="M416 122v-102q-70 -20 -183 -20q-66 0 -168 9v626q84 20 200 20q78 0 151 -20v-108q-45 41 -146 41q-46 0 -97 -6v-164h101q93 0 142 47v-168q-53 37 -151 37h-92v-223q22 -3 92 -3q99 0 151 34zM395 817v-116q-78 3 -114 10v93q36 7 114 13zM221 817v-116q-78 3 -114 10
v93q36 7 114 13z" />
    <glyph glyph-name="Igravesmall" unicode="&#xf7ec;" horiz-adv-x="254" 
d="M184 650v-650q-66 3 -114 10v626q44 9 114 14zM110 701l-73 88q-36 51 -30 72h111q-11 -30 16 -80l41 -80h-65z" />
    <glyph glyph-name="Iacutesmall" unicode="&#xf7ed;" horiz-adv-x="254" 
d="M184 650v-650q-66 3 -114 10v626q44 9 114 14zM150 701h-65l41 80q27 50 16 80h111q6 -21 -30 -72z" />
    <glyph glyph-name="Icircumflexsmall" unicode="&#xf7ee;" horiz-adv-x="254" 
d="M184 650v-650q-66 3 -114 10v626q44 9 114 14zM82 701h-65l41 80q27 50 16 80h115q-11 -30 16 -80l41 -80h-65l-50 69z" />
    <glyph glyph-name="Idieresissmall" unicode="&#xf7ef;" horiz-adv-x="254" 
d="M184 650v-650q-66 3 -114 10v626q44 9 114 14zM109 817v-116q-78 3 -114 10v93q36 7 114 13zM283 817v-116q-78 3 -114 10v93q36 7 114 13z" />
    <glyph glyph-name="Ethsmall" unicode="&#xf7f0;" horiz-adv-x="517" 
d="M486 381q3 -79 -12 -147t-48 -121t-90 -83t-132 -30q-74 0 -134 19v329q-14 -1 -38 -8.5t-32 -8.5v92q32 -9 70 -9v223q77 18 155 18q129 0 192.5 -67t68.5 -207zM181 86h33q73 1 114.5 80.5t39.5 214.5q-3 97 -41.5 142.5t-98.5 45.5q-23 0 -47 -6v-149h106v-65h-106
v-263z" />
    <glyph glyph-name="Ntildesmall" unicode="&#xf7f1;" horiz-adv-x="554" 
d="M365 350h7v292q53 11 112 15v-657q-34 0 -112 9v172q-21 48 -91.5 127.5t-83.5 96.5h-8v-405q-41 0 -101 6v471q0 96 -38 147l139 33v-39q4 -31 15 -60t32 -58t37 -48t47 -52.5t45 -49.5zM195 697h-54q13 113 89 113q22 0 65 -11t64 -11q24 0 29 29h54q-3 -44 -26 -80
t-63 -36q-22 0 -64 11t-63 11q-24 0 -31 -26z" />
    <glyph glyph-name="Ogravesmall" unicode="&#xf7f2;" 
d="M254 655q119 0 179 -97t60 -266q0 -54 -13.5 -104.5t-39.5 -93t-70 -68.5t-99 -26q-241 0 -241 363q0 73 22.5 137.5t75.5 109.5t126 45zM268 82q31 0 53.5 22t33.5 56.5t16 67.5t5 64q0 53 -6 100.5t-19.5 89.5t-38 66.5t-57.5 24.5q-31 0 -53.5 -22t-33.5 -56.5
t-16 -67.5t-5 -64q0 -53 6 -100.5t19.5 -89.5t38 -66.5t57.5 -24.5zM233 701l-73 88q-36 51 -30 72h111q-11 -30 16 -80l41 -80h-65z" />
    <glyph glyph-name="Oacutesmall" unicode="&#xf7f3;" 
d="M254 655q119 0 179 -97t60 -266q0 -54 -13.5 -104.5t-39.5 -93t-70 -68.5t-99 -26q-241 0 -241 363q0 73 22.5 137.5t75.5 109.5t126 45zM268 82q31 0 53.5 22t33.5 56.5t16 67.5t5 64q0 53 -6 100.5t-19.5 89.5t-38 66.5t-57.5 24.5q-31 0 -53.5 -22t-33.5 -56.5
t-16 -67.5t-5 -64q0 -53 6 -100.5t19.5 -89.5t38 -66.5t57.5 -24.5zM270 701h-65l41 80q27 50 16 80h111q6 -21 -30 -72z" />
    <glyph glyph-name="Ocircumflexsmall" unicode="&#xf7f4;" 
d="M254 655q119 0 179 -97t60 -266q0 -54 -13.5 -104.5t-39.5 -93t-70 -68.5t-99 -26q-241 0 -241 363q0 73 22.5 137.5t75.5 109.5t126 45zM268 82q31 0 53.5 22t33.5 56.5t16 67.5t5 64q0 53 -6 100.5t-19.5 89.5t-38 66.5t-57.5 24.5q-31 0 -53.5 -22t-33.5 -56.5
t-16 -67.5t-5 -64q0 -53 6 -100.5t19.5 -89.5t38 -66.5t57.5 -24.5zM212 701h-65l41 80q27 50 16 80h115q-11 -30 16 -80l41 -80h-65l-50 69z" />
    <glyph glyph-name="Otildesmall" unicode="&#xf7f5;" 
d="M254 655q119 0 179 -97t60 -266q0 -54 -13.5 -104.5t-39.5 -93t-70 -68.5t-99 -26q-241 0 -241 363q0 73 22.5 137.5t75.5 109.5t126 45zM268 82q31 0 53.5 22t33.5 56.5t16 67.5t5 64q0 53 -6 100.5t-19.5 89.5t-38 66.5t-57.5 24.5q-31 0 -53.5 -22t-33.5 -56.5
t-16 -67.5t-5 -64q0 -53 6 -100.5t19.5 -89.5t38 -66.5t57.5 -24.5zM165 697h-54q13 113 89 113q22 0 65 -11t64 -11q24 0 29 29h54q-3 -44 -26 -80t-63 -36q-22 0 -64 11t-63 11q-24 0 -31 -26z" />
    <glyph glyph-name="Odieresissmall" unicode="&#xf7f6;" 
d="M254 655q119 0 179 -97t60 -266q0 -54 -13.5 -104.5t-39.5 -93t-70 -68.5t-99 -26q-241 0 -241 363q0 73 22.5 137.5t75.5 109.5t126 45zM268 82q31 0 53.5 22t33.5 56.5t16 67.5t5 64q0 53 -6 100.5t-19.5 89.5t-38 66.5t-57.5 24.5q-31 0 -53.5 -22t-33.5 -56.5
t-16 -67.5t-5 -64q0 -53 6 -100.5t19.5 -89.5t38 -66.5t57.5 -24.5zM231 817v-116q-78 3 -114 10v93q36 7 114 13zM405 817v-116q-78 3 -114 10v93q36 7 114 13z" />
    <glyph glyph-name="Oslashsmall" unicode="&#xf7f8;" 
d="M254 650q34 0 64 -9q4 14 4.5 29.5t0 32.5t-0.5 25l89 -24q-16 -27 -34 -91q116 -81 116 -321q0 -54 -13.5 -104.5t-39.5 -93t-70 -68.5t-99 -26q-27 0 -57 5q-3 -13 -3.5 -27.5t0 -31.5t0.5 -25l-89 24q16 28 31 84q-123 73 -123 334q0 54 13.5 104t40 91.5t70.5 66.5
t100 25zM179 144h5l111 413q-19 11 -40 11q-31 0 -53.5 -21t-33.5 -55t-16 -66t-5 -63q0 -134 32 -219zM268 82q31 0 53.5 22t33.5 56.5t16 67.5t5 64q0 108 -25 200h-6l-109 -404q15 -6 32 -6z" />
    <glyph glyph-name="Ugravesmall" unicode="&#xf7f9;" horiz-adv-x="558" 
d="M491 650v-545q-1 -63 22 -105h-129q-4 51 -6 88h-10q-43 -93 -132 -93q-85 0 -135.5 60.5t-50.5 159.5v425q48 7 114 10v-435q0 -135 107 -135q56 0 81 37.5t25 97.5v425q48 7 114 10zM245 701l-73 88q-36 51 -30 72h111q-11 -30 16 -80l41 -80h-65z" />
    <glyph glyph-name="Uacutesmall" unicode="&#xf7fa;" horiz-adv-x="558" 
d="M491 650v-545q-1 -63 22 -105h-129q-4 51 -6 88h-10q-43 -93 -132 -93q-85 0 -135.5 60.5t-50.5 159.5v425q48 7 114 10v-435q0 -135 107 -135q56 0 81 37.5t25 97.5v425q48 7 114 10zM302 701h-65l41 80q27 50 16 80h111q6 -21 -30 -72z" />
    <glyph glyph-name="Ucircumflexsmall" unicode="&#xf7fb;" horiz-adv-x="558" 
d="M491 650v-545q-1 -63 22 -105h-129q-4 51 -6 88h-10q-43 -93 -132 -93q-85 0 -135.5 60.5t-50.5 159.5v425q48 7 114 10v-435q0 -135 107 -135q56 0 81 37.5t25 97.5v425q48 7 114 10zM224 701h-65l41 80q27 50 16 80h115q-11 -30 16 -80l41 -80h-65l-50 69z" />
    <glyph glyph-name="Udieresissmall" unicode="&#xf7fc;" horiz-adv-x="558" 
d="M491 650v-545q-1 -63 22 -105h-129q-4 51 -6 88h-10q-43 -93 -132 -93q-85 0 -135.5 60.5t-50.5 159.5v425q48 7 114 10v-435q0 -135 107 -135q56 0 81 37.5t25 97.5v425q48 7 114 10zM418 817v-116q-78 3 -114 10v93q36 7 114 13zM244 817v-116q-78 3 -114 10v93
q36 7 114 13z" />
    <glyph glyph-name="Yacutesmall" unicode="&#xf7fd;" horiz-adv-x="488" 
d="M253 0h-145q41 53 52 94l35 97q-219 87 -185 454q60 12 116 10q-21 -173 5.5 -257.5t104.5 -107.5h10q4 14 17.5 53t21.5 63l72 239q53 13 121 10l-197 -542q-2 -6 -8.5 -23t-9 -25.5t-6 -21.5t-4.5 -23.5t0 -19.5zM270 701h-65l41 80q27 50 16 80h111q6 -21 -30 -72z
" />
    <glyph glyph-name="Thornsmall" unicode="&#xf7fe;" horiz-adv-x="517" 
d="M508 335q3 -94 -59.5 -143t-177.5 -49l-69 10v-153q-62 3 -112 10v616q45 9 112 14v-132q52 4 82 4q103 0 161.5 -45.5t62.5 -131.5zM202 228h90q49 0 75.5 26.5t26.5 74.5q0 97 -104 97q-53 0 -88 -8v-190z" />
    <glyph glyph-name="Ydieresissmall" unicode="&#xf7ff;" horiz-adv-x="488" 
d="M253 0h-145q41 53 52 94l35 97q-219 87 -185 454q60 12 116 10q-21 -173 5.5 -257.5t104.5 -107.5h10q4 14 17.5 53t21.5 63l72 239q53 13 121 10l-197 -542q-2 -6 -8.5 -23t-9 -25.5t-6 -21.5t-4.5 -23.5t0 -19.5zM222 817v-116q-78 3 -114 10v93q36 7 114 13zM396 817
v-116q-78 3 -114 10v93q36 7 114 13z" />
    <glyph glyph-name="fi" unicode="&#xfb01;" horiz-adv-x="569" 
d="M177 656v-35h66q39 0 72 9v-112q-4 1 -33.5 9.5t-46.5 8.5h-58v-536q-62 3 -112 10v646q0 108 63 163t172 55q93 0 159 -22v-130q-67 62 -171 62q-59 0 -85 -32t-26 -96zM499 640v-640q-66 3 -114 10v616q44 9 114 14z" />
    <glyph glyph-name="fl" unicode="&#xfb02;" horiz-adv-x="635" 
d="M177 656v-35h66q39 0 72 9v-112q-4 1 -33.5 9.5t-46.5 8.5h-58v-536q-62 3 -112 10v646q0 100 59.5 159t163.5 59q78 0 133 -19.5t106 -68.5v-638q0 -32 9.5 -44t34.5 -12q35 0 54 32v-102q-32 -22 -87 -22q-59 0 -91 39.5t-32 108.5v607q-56 32 -124 32q-66 0 -90 -30
t-24 -101z" />
    <glyph glyph-name="ffi" unicode="&#xfb03;" horiz-adv-x="964" 
d="M527 656v-35h66q39 0 72 9v-112q-4 1 -33.5 9.5t-46.5 8.5h-58v-536q-62 3 -112 10v646q0 100 59.5 159t163.5 59q105 0 171 -22v-130q-70 65 -168 65q-66 0 -90 -30t-24 -101zM177 536v-536q-62 3 -112 10v676q0 83 43 130.5t120 47.5q73 0 117 -22v-102q-31 37 -84 37
q-47 0 -65.5 -21t-18.5 -70v-65h96q39 0 72 9v-112q-4 1 -33.5 9.5t-46.5 8.5h-88zM849 640v-640q-66 3 -114 10v616q44 9 114 14z" />
    <glyph glyph-name="ffl" unicode="&#xfb04;" horiz-adv-x="985" 
d="M527 656v-35h66q39 0 72 9v-112q-4 1 -33.5 9.5t-46.5 8.5h-58v-536q-62 3 -112 10v646q0 100 59.5 159t163.5 59q78 0 133 -19.5t106 -68.5v-638q0 -32 9.5 -44t34.5 -12q35 0 54 32v-102q-32 -22 -87 -22q-59 0 -91 39.5t-32 108.5v607q-56 32 -124 32q-66 0 -90 -30
t-24 -101zM177 536v-536q-62 3 -112 10v676q0 83 43 130.5t120 47.5q73 0 117 -22v-102q-31 37 -84 37q-47 0 -65.5 -21t-18.5 -70v-65h96q39 0 72 9v-112q-4 1 -33.5 9.5t-46.5 8.5h-88z" />
    <glyph glyph-name="longs_t" unicode="&#xfb05;" horiz-adv-x="697" 
d="M499 536v-358q0 -49 18.5 -70t65.5 -21q53 0 84 37v-102q-44 -22 -117 -22q-77 0 -121 48t-44 130v591q-46 18 -94 18q-66 0 -90 -30t-24 -101v-656q-62 3 -112 10v646q0 100 59.5 159t163.5 59q32 0 75 -7.5t61 -7.5q45 0 75 16v-254h95q39 0 72 9v-112q-4 1 -33.5 9.5
t-46.5 8.5h-87z" />
    <glyph glyph-name="s_t" unicode="&#xfb06;" horiz-adv-x="802" 
d="M584 621h115q37 0 72 9v-112q-1 0 -32.5 9t-47.5 9h-87v-358q0 -47 18.5 -69t65.5 -22q52 0 84 37v-102q-44 -22 -117 -22q-79 0 -122 49.5t-43 129.5v442q25 109 3.5 179t-82.5 70q-44 0 -71 -31t-27 -77q0 -88 62 -144v-156q-18 46 -56.5 76.5t-86.5 30.5
q-41 0 -65.5 -20.5t-24.5 -60.5q0 -29 27.5 -54.5t67 -48t79 -48.5t67 -67t27.5 -92q0 -78 -55.5 -128t-134.5 -50q-100 0 -164 44v168q19 -51 65 -88.5t98 -37.5q37 0 61.5 23t24.5 60q0 27 -27.5 51.5t-66.5 47.5t-77.5 50t-66 71t-27.5 99q0 78 56 119.5t136 41.5
q17 0 25 -1v7q-43 51 -43 123q0 79 55.5 131.5t141.5 52.5q68 0 114 -32t63 -81.5t16 -106t-20 -110.5v-11z" />
    <glyph glyph-name="O.alt" horiz-adv-x="605" 
d="M302 875q39 0 71.5 -8t56 -19t42 -33.5t30.5 -42.5t20.5 -54.5t13 -59.5t6.5 -69.5t2.5 -73t0.5 -78.5q0 -51 -0.5 -79.5t-2.5 -72.5t-6.5 -69.5t-13 -60t-20.5 -54t-30.5 -41.5t-42 -33.5t-56 -19t-71.5 -7.5q-59 0 -102 13.5t-68.5 47.5t-41 64.5t-21.5 92.5t-7.5 101
t-1.5 118t1.5 117.5t7.5 100.5t21.5 93t41 65t68.5 48t102 14zM302 84q74 0 99.5 72.5t25.5 280.5q0 207 -25.5 279t-99.5 72q-75 0 -100.5 -72t-25.5 -279q0 -208 25.5 -280.5t100.5 -72.5z" />
    <glyph glyph-name="S.alt" horiz-adv-x="489" 
d="M138 689q0 -31 24.5 -65.5t50 -57.5t75.5 -63q5 -4 7 -5.5l6 -4.5t7 -6q76 -62 120 -127t44 -152q0 -57 -19.5 -100.5t-50.5 -70t-69 -48.5t-76 -43.5t-69 -47t-50.5 -66.5t-19.5 -96l-83 111q0 46 18.5 81.5t47.5 58t64.5 40.5t71 33.5t64.5 33t47.5 44t18.5 61.5
q0 28 -10.5 53t-37.5 53t-43 42t-58 48t-66.5 57t-54.5 59t-44.5 78t-14.5 90q0 88 61.5 142t160.5 54q76 0 143 -31v-156q-18 49 -59.5 78t-88.5 29q-55 0 -86 -28t-31 -78z" />
    <glyph glyph-name="N.alt" horiz-adv-x="570" 
d="M381 568h7v292q53 11 112 15v-875q-34 0 -112 9v390q-19 37 -52 73t-82 81.5t-72 69.5h-7v-623q-45 0 -105 6v845q48 16 105 24v-39q5 -31 18 -60t37.5 -57.5t43.5 -48.5t54.5 -52.5t52.5 -49.5z" />
    <glyph glyph-name="y.alt" horiz-adv-x="541" 
d="M251 -113q69 0 96 32t27 99v75h-11q-43 -93 -132 -93q-85 0 -135.5 60.5t-50.5 159.5v425q48 7 114 10v-435q0 -135 107 -135q56 0 81 37.5t25 97.5v425q48 7 114 10v-655q0 -88 -58.5 -144t-153.5 -56t-157 22v102q50 -37 134 -37z" />
    </font>
</defs>
</svg>
